<?xml version="1.0" encoding="UTF-8" standalone="no"?>
<!-- Created with Inkscape (http://www.inkscape.org/) -->

<svg
   version="1.1"
   id="svg2708"
   width="564.98438"
   height="746.25983"
   viewBox="0 0 564.98437 746.25982"
   sodipodi:docname="vj2.svg"
   inkscape:version="1.2.2 (732a01da63, 2022-12-09, custom)"
   xmlns:inkscape="http://www.inkscape.org/namespaces/inkscape"
   xmlns:sodipodi="http://sodipodi.sourceforge.net/DTD/sodipodi-0.dtd"
   xmlns="http://www.w3.org/2000/svg"
   xmlns:svg="http://www.w3.org/2000/svg">
  <defs
     id="defs2712" />
  <sodipodi:namedview
     id="namedview2710"
     pagecolor="#ffffff"
     bordercolor="#000000"
     borderopacity="0.25"
     inkscape:showpageshadow="2"
     inkscape:pageopacity="0.0"
     inkscape:pagecheckerboard="0"
     inkscape:deskcolor="#d1d1d1"
     showgrid="false"
     inkscape:zoom="1.1941547"
     inkscape:cx="154.92131"
     inkscape:cy="334.96499"
     inkscape:window-width="1920"
     inkscape:window-height="1031"
     inkscape:window-x="0"
     inkscape:window-y="25"
     inkscape:window-maximized="1"
     inkscape:current-layer="layer2" />
  <g
     inkscape:groupmode="layer"
     id="layer2"
     inkscape:label="Layer 1">
    <path
       id="path3189"
       style="fill:#000000;stroke-width:1.33333"
       d="M 92.820831 36.099852 C 90.258863 36.525847 87.866924 38.451092 84.772003 41.689695 C 74.161214 52.793093 67.796788 69.396896 69.885284 80.529539 C 70.683683 84.785378 71.696549 85.539963 85.703644 92.345945 C 106.98119 102.68461 124.51797 109.97615 147.33255 117.96899 C 150.99921 119.25357 157.6496 121.78287 162.10989 123.59009 L 170.21927 126.8772 L 171.94583 135.77173 C 174.01423 146.43138 176.03359 151.5813 179.8306 155.87134 C 183.37475 159.8757 183.42456 163.28401 180.00052 167.63696 C 177.91863 170.28365 177.33255 173.04495 177.33255 180.23266 C 177.33255 186.80803 176.57106 190.93306 174.66653 194.66626 C 171.51835 200.83721 171.22373 207.79792 173.95755 211.41235 C 175.23571 213.10223 175.92985 217.25335 175.95755 223.37329 C 176.01905 236.96641 179.74918 265.06794 182.16849 270.16626 C 184.79182 275.69453 185.68237 276.32121 194.85599 279.09985 C 200.57101 280.83089 227.36913 283.54363 243.00052 283.9729 C 245.01567 284.02824 243.90977 288.58531 240.43607 294.54907 C 238.47639 297.9135 231.03277 307.75727 223.8931 316.42407 C 210.50462 332.67626 206.41984 339.13775 207.59622 342.20337 C 207.97017 343.17784 211.2144 346.13193 214.80521 348.76782 C 218.396 351.40371 221.33255 354.21749 221.33255 355.01977 C 221.33255 357.31731 206.67557 386.59219 201.69778 394.23657 C 195.82926 403.24888 194.51784 408.03385 196.31302 413.88305 C 197.38902 417.38897 198.92968 419.01522 202.54349 420.46118 C 211.15231 423.90575 253.60944 430.66626 266.63333 430.66626 C 270.2315 430.66626 273.50405 431.19752 273.90482 431.84595 C 274.30557 432.49435 273.98154 436.54436 273.18607 440.84595 C 272.39059 445.14751 270.92701 453.46756 269.93216 459.33423 C 264.47278 491.52804 261.41124 509.12044 260.62357 512.82055 C 259.88162 516.3059 260.40405 517.65591 263.87942 521.21118 C 266.76473 524.16281 267.82684 526.34085 267.37942 528.39087 C 264.67846 540.76679 263.56143 550.28484 262.49661 570.00024 C 261.82331 582.4669 261.00199 596.26626 260.67044 600.66626 C 260.33891 605.06625 259.73245 623.06628 259.32278 640.66626 C 258.62958 670.4478 256.80475 696.35134 255.0845 700.83423 C 254.66155 701.93639 253.37116 702.43521 252.03763 702.01196 C 249.81731 701.30725 243.96595 706.667 236.61771 716.13696 C 234.05324 719.44188 217.22626 729.32474 214.13333 729.34204 C 213.32717 729.34656 211.05763 730.18873 209.09036 731.21509 C 207.1231 732.24145 203.82245 733.46778 201.75638 733.9397 C 193.56827 735.81 188.54795 744.21606 191.88919 750.45923 C 195.16179 756.57414 220.25001 758.86461 244.66653 755.27759 C 253.46652 753.98479 262.76588 753.01449 265.33255 753.12329 C 293.21521 754.30573 295.2758 753.58847 296.69974 742.19165 C 297.19524 738.22528 297.2313 729.05871 296.77982 721.82251 C 296.32835 714.58632 295.81925 706.26756 295.647 703.33423 C 295.00479 692.39768 300.91142 671.50687 309.43411 654.57446 L 317.48099 638.58618 L 317.16458 624.95923 C 316.99003 617.46477 316.36222 609.95987 315.77005 608.28149 C 314.9311 605.9037 315.72042 603.73608 319.34622 598.46509 C 322.84854 593.37361 324.00052 590.31681 324.00052 586.10376 C 324.00052 580.30006 324.74115 578.22099 339.24857 543.33423 C 340.46836 540.4009 343.32707 534.24959 345.60013 529.66626 L 349.73294 521.33423 L 357.31497 521.33423 L 364.897 521.33423 L 372.11575 533.31665 C 376.08579 539.90696 382.76962 550.85568 386.96927 557.64868 C 393.94312 568.92903 406.36598 592.59204 406.57864 595.00024 C 406.62721 595.55024 407.89129 597.22304 409.38724 598.71899 C 412.76808 602.09984 414.76707 606.90404 416.02591 614.66626 C 416.56109 617.96625 417.99465 626.96627 419.21146 634.66626 C 421.03301 646.19309 422.72746 651.44485 428.80521 664.39673 C 440.19919 688.67777 445.33255 704.71139 445.33255 716.01782 C 445.33255 721.20791 444.77802 722.8702 442.66653 724.00024 C 440.67989 725.06347 440.00052 726.79088 440.00052 730.77759 C 440.00052 734.51516 437.98883 740.19067 433.33255 749.59399 C 429.66588 756.99878 426.66653 764.39308 426.66653 766.02759 C 426.66653 772.70635 428.37803 776.80557 432.34427 779.62329 C 435.94539 782.18168 437.88994 782.51087 447.24271 782.14673 C 461.15399 781.60509 469.34415 777.59801 481.60599 765.33618 C 490.32025 756.62193 490.66546 756.02872 490.64896 749.80493 C 490.63949 746.24573 489.44014 739.52977 487.98294 734.8811 C 486.52573 730.23243 485.33255 725.19936 485.33255 723.69555 C 485.33255 722.19173 484.28386 720.19313 483.00052 719.2561 C 480.89918 717.72181 480.58774 713.5319 479.86771 677.10962 C 478.98971 632.69596 478.72824 631.16804 468.78177 612.00024 C 465.89399 606.43525 464.9129 602.57706 464.71341 596.00024 C 464.34854 583.97223 460.59993 565.76292 456.87161 557.91235 C 453.64246 551.11285 448.64869 528.85134 449.89896 526.82837 C 450.28833 526.19836 452.87099 525.32024 455.63724 524.87524 C 458.40349 524.43024 462.07378 523.07582 463.79349 521.86743 C 466.5579 519.92492 466.82342 518.95631 466.09232 513.5022 C 464.18484 499.27201 454.06485 464.823 444.00052 438.30688 C 440.72433 429.67522 440.65109 427.03653 443.66653 426.19165 C 448.57353 424.8168 475.05357 423.78305 482.68021 424.66821 C 489.83232 425.4983 490.66653 425.91314 490.66653 428.63501 C 490.66653 430.30654 489.73273 432.44862 488.59036 433.39673 C 485.3934 436.04997 482.66653 443.71122 482.66653 450.04321 C 482.66653 453.18832 481.52501 459.43029 480.12942 463.9143 C 477.89343 471.09857 477.82472 472.301 479.55716 474.03345 C 481.86967 476.34594 484.52183 476.52814 488.08841 474.61938 C 490.98487 473.06924 491.04823 473.26059 490.68997 482.32055 C 490.54928 485.87854 491.36966 489.34129 492.90091 491.6604 C 494.23921 493.68726 495.99503 496.54258 496.80325 498.0061 C 500.10756 503.98949 508.00052 500.01867 508.00052 492.37329 C 508.00052 490.70525 510.00129 487.09025 512.44778 484.33813 C 516.93756 479.28754 518.13877 477.2993 524.73099 464.01001 C 528.1629 457.09161 528.3199 455.97077 527.57278 443.70727 L 526.78177 430.7268 L 556.39114 430.74243 C 589.41946 430.76181 598.53066 429.68483 609.12357 424.5022 C 618.80421 419.7659 621.33255 417.02468 621.33255 411.26782 C 621.33255 404.17179 619.24904 401.15445 598.81497 378.66626 C 588.48657 367.2996 580.0288 357.28676 580.0181 356.4143 C 580.00038 354.89403 592.22944 350.73724 610.66653 345.99829 C 622.57962 342.93621 630.93761 338.66959 633.25052 334.46899 C 634.99382 331.30286 634.93554 330.3648 632.68997 325.38501 C 630.43895 320.39314 628.17932 318.01993 619.33255 311.34595 C 606.637 301.76846 583.83574 285.22042 555.93411 265.33423 C 541.37198 254.95544 536.49048 250.4129 526.1431 237.61938 C 514.84477 223.65009 506.06185 216.23118 494.66653 211.03345 C 489.16654 208.52476 482.86653 205.65874 480.66653 204.66235 C 473.57821 201.452 471.03458 201.19063 462.03372 202.75805 L 453.19388 204.29907 L 444.06497 198.22876 C 439.04477 194.89054 430.69453 190.87042 425.50833 189.29516 C 416.52399 186.56626 415.65771 186.52787 407.13919 188.47095 C 397.06522 190.76883 394.01695 189.94684 393.00638 184.6604 C 392.18379 180.35728 394.70343 178.87539 402.69583 178.96509 C 406.59363 179.00888 410.40252 177.99725 413.66653 176.05102 C 419.03459 172.85026 419.49207 172.02499 417.1763 169.70923 C 416.07731 168.61024 416.77767 167.15034 419.84232 164.15454 C 424.54635 159.5562 424.7325 158.84523 422.15091 155.3147 C 420.54066 153.11256 420.66925 152.0277 423.1431 146.93579 L 425.98294 141.08813 L 422.3345 137.94946 C 420.31787 136.21482 418.68502 133.43588 418.68802 131.73852 C 418.70083 121.10802 415.93899 107.3729 412.85013 102.70532 C 408.87039 96.69152 400.56976 89.89438 391.15286 84.937742 C 385.23902 81.82495 382.73047 81.334227 372.74661 81.334227 C 360.72266 81.334227 350.06236 84.548049 348.4888 88.64868 C 348.0973 89.66895 346.07165 90.878278 343.98685 91.33618 C 339.33031 92.35893 335.67307 97.564148 336.7095 101.6936 C 337.14122 103.41368 336.32376 107.29707 334.82669 110.64087 C 333.37193 113.89017 332.44247 116.97111 332.76224 117.48852 C 333.08203 118.00594 330.4928 120.93541 327.00638 123.99829 C 319.81359 130.31728 317.81923 134.96153 320.95364 138.09595 C 323.35112 140.49342 324.37321 150.65353 322.49661 153.43384 C 321.56092 154.82004 321.32126 154.28161 321.60794 151.44165 L 322.00052 147.54907 L 308.00052 145.1643 C 300.30053 143.85178 292.79922 142.4098 291.33255 141.96118 C 289.86589 141.51254 283.56588 139.73249 277.33255 138.00415 C 262.95643 134.018 246.30052 128.44774 239.01419 125.19165 C 235.90551 123.80245 232.27056 122.66626 230.93607 122.66626 C 226.45571 122.66626 223.54626 119.41687 224.3345 115.29321 C 224.73312 113.20839 224.75684 110.71339 224.38724 109.75024 C 223.3728 107.10667 216.80955 107.65068 213.33255 110.66626 C 211.64147 112.13293 209.84147 113.33423 209.33255 113.33423 C 207.90395 113.33423 203.49955 109.03549 201.13528 105.33423 C 198.39053 101.03728 185.70555 94.666258 179.8931 94.666258 C 171.77552 94.666258 135.28864 69.572514 111.07278 47.334227 C 101.83093 38.847111 97.090777 35.38986 92.820831 36.099852 z M 227.09622 144.0686 C 229.89882 143.94292 233.63837 144.68848 239.33255 146.15454 C 252.84545 149.63367 288.47407 155.5918 305.65286 157.24438 C 312.79558 157.93152 319.28824 158.89335 320.0806 159.38305 C 320.96166 159.92757 321.18905 162.23753 320.66653 165.33032 C 319.95446 169.54502 320.32853 170.86998 322.90677 173.28149 C 324.60829 174.87298 328.47828 176.84105 331.50638 177.65454 C 339.58897 179.82592 341.07883 181.43532 342.09427 189.09009 C 342.91756 195.29642 342.75435 195.99537 340.50442 195.95727 C 339.12661 195.93393 336.83612 195.03393 335.41263 193.95727 C 332.38732 191.66904 322.52455 191.34146 320.40677 193.45923 C 319.54635 194.31966 314.07397 194.86811 307.0845 194.79321 L 295.22317 194.66626 L 289.82083 200.33227 C 283.54224 206.91898 272.44918 220.65233 271.77591 222.67212 C 271.52155 223.43523 263.58375 225.2474 254.13724 226.69751 C 236.98519 229.33046 235.77777 229.41148 229.12942 228.39087 C 224.98094 227.75403 223.22739 224.07006 221.96341 213.33423 C 221.48856 209.3009 220.18117 201.8442 219.05716 196.76587 C 217.37896 189.18368 217.29634 186.26668 218.59817 180.44946 C 220.16665 173.44076 219.40576 168.08295 215.83646 161.01782 C 213.86801 157.12141 214.49436 154.60001 218.77786 149.19165 C 221.43895 145.83175 223.49288 144.23019 227.09622 144.0686 z "
       transform="translate(-69.490753,-36.010008)" />
    <g
       id="layer3"
       inkscape:label="01"
       style="fill:#552200">
      <path
         style="fill:#552200;stroke-width:1.33333"
         d="m 243.96655,749.91926 c 4.92041,-1.74235 9.27864,-1.94875 24.85643,-1.17716 l 18.88985,0.93564 1.99905,-3.17221 c 2.76282,-4.3842 3.94034,-14.19064 2.85543,-23.78002 l -0.91176,-8.05886 h -4.46401 c -2.4552,0 -8.44314,-1.49774 -13.30651,-3.32831 l -8.84249,-3.32831 -2.72203,3.46051 c -5.77371,7.34007 -21.93181,19.19611 -26.1616,19.19611 -3.35832,0 -1.07596,-2.85103 5.80722,-7.25414 5.02971,-3.21748 7.93189,-6.18302 9.33333,-9.53714 2.45466,-5.87484 2.45478,-5.87667 0.3672,-5.87031 -0.91667,0.003 -4.12176,3.1528 -7.12243,7 -6.58232,8.43929 -16.03362,14.29677 -31.9619,19.80849 -11.57631,4.00579 -17.91567,7.98498 -17.91567,11.24556 0,1.58207 5.80415,3.56668 17.33333,5.92679 7.97319,1.63216 24.54706,0.56067 31.96656,-2.06664 z"
         id="path3218"
         transform="translate(-69.490753,-36.010008)" />
      <path
         style="fill:#552200;stroke-width:1.33333"
         d="m 462.66665,773.66831 c 7.13643,-3.49778 20.40284,-16.20297 22.69373,-21.73369 1.34608,-3.24972 1.23732,-5.01468 -0.63248,-10.26299 -1.24197,-3.48608 -2.9269,-8.9407 -3.7443,-12.1214 -1.40438,-5.4648 -1.70166,-5.73997 -5.40156,-5 -2.15347,0.4307 -5.79039,0.80768 -8.08206,0.83774 -3.64964,0.0479 -4.5367,0.84498 -7.14886,6.42392 -3.45294,7.37468 -11.62487,17.3044 -13.07462,15.88698 -0.54441,-0.53228 -0.21354,-1.90318 0.7353,-3.04645 1.41174,-1.70105 1.40757,-3.40244 -0.0229,-9.36556 -2.01341,-8.39287 -3.58078,-9.59371 -2.98489,-2.28688 0.28948,3.54953 -0.56433,6.54717 -2.94325,10.33333 -7.63415,12.15015 -10.40741,19.36627 -9.64041,25.08468 0.40905,3.04966 1.81226,6.29451 3.15793,7.30252 3.71293,2.78127 19.6976,1.57028 27.08844,-2.0522 z"
         id="path3216"
         transform="translate(-69.490753,-36.010008)" />
    </g>
    <g
       id="layer4"
       inkscape:label="02"
       style="fill:#999999">
      <path
         style="fill:#999999;stroke-width:1.33333"
         d="m 289.81043,709.64003 c 0.34896,-0.56464 0.80012,-4.60242 1.00256,-8.97288 l 0.36809,-7.94628 -5.61745,-1.11089 c -6.72316,-1.32957 -6.11187,-3.61 0.96769,-3.61 4.1076,0 5.32704,-0.62861 6.58798,-3.39607 2.34522,-5.1472 1.87106,-8.1839 -1.45264,-9.30321 -2.893,-0.97425 -2.86922,-1.03052 0.66666,-1.5774 2.43922,-0.37727 3.66667,-1.37428 3.66667,-2.97831 0,-1.32615 3.29728,-8.07267 7.32728,-14.99227 8.41177,-14.44316 10.98713,-24.02219 9.13625,-33.98222 l -1.19622,-6.43718 -17.10167,0.42392 c -11.88432,0.2946 -16.83319,-0.0107 -16.22163,-1 0.48402,-0.78315 3.39463,-1.44598 6.46802,-1.47294 7.42093,-0.0651 23.37473,-3.20441 25.1117,-4.94138 0.95331,-0.95331 -1.65224,-1.65454 -8.40437,-2.26187 -5.38232,-0.48412 -14.83283,-1.83419 -21.00112,-3.00013 -10.40325,-1.96646 -11.33267,-1.95915 -12.83905,0.10093 -2.40923,3.29481 -4.1232,50.86124 -1.928,53.50628 0.92702,1.11701 3.8589,1.97849 6.73338,1.97849 2.80026,0 5.4622,0.6 5.91543,1.33334 0.51161,0.82781 -1.98616,1.33333 -6.58797,1.33333 l -7.41203,3e-5 -0.026,5 c -0.0225,4.3147 -2.03591,21.33085 -4.56333,38.56589 -0.70944,4.83785 -0.67144,4.90577 0.73722,1.31778 1.03163,-2.6276 2.1521,-3.55898 3.66868,-3.04958 1.20091,0.40337 6.38346,2.24022 11.51679,4.08189 9.76916,3.50487 13.41631,4.10715 14.47711,2.39073 z"
         id="path3222"
         transform="translate(-69.490753,-36.010008)" />
      <path
         style="fill:#999999;stroke-width:1.33333"
         d="m 457.76053,727.3011 c 1.81464,-5.25817 1.89052,-5.30436 9.36779,-5.70099 l 7.53833,-0.39988 -0.012,-9.60012 c -0.007,-5.28008 -0.38049,-12.67022 -0.83136,-16.42257 l -0.81977,-6.82244 -4.83531,1.12396 c -6.67245,1.55101 -7.39192,1.46483 -5.61773,-0.67293 0.84925,-1.0233 3.55541,-2.23786 6.01368,-2.69903 4.28373,-0.80363 4.50808,-1.14672 5.39578,-8.25173 0.50943,-4.07728 0.58062,-7.75885 0.15819,-8.18127 -0.42241,-0.42242 -3.32191,0.0171 -6.44329,0.97676 -8.04647,2.47392 -15.67486,3.81501 -15.67486,2.75576 0,-0.49608 3.47418,-1.94264 7.72038,-3.21458 4.2462,-1.27194 9.45605,-3.6966 11.57745,-5.38815 3.54303,-2.82511 3.83913,-3.72672 3.63665,-11.07321 -0.1212,-4.39874 -1.09386,-12.13762 -2.16141,-17.19754 -2.02012,-9.57488 -10.10667,-28.88524 -12.79089,-30.54418 -0.84962,-0.52508 -4.34316,0.55557 -7.76346,2.40145 -7.90312,4.26519 -19.23951,7.60957 -25.79405,7.60957 -5.25012,0 -6.78546,1.73127 -2.86837,3.23439 1.52289,0.5844 1.79113,1.28485 0.85175,2.22424 -0.77455,0.77455 -0.98216,3.22131 -0.47714,5.62296 l 0.89407,4.25175 8.92084,-0.20579 c 4.90647,-0.1132 8.92085,0.28913 8.92085,0.89405 0,1.07367 -2.08046,1.64904 -12.37368,3.4221 -3.81302,0.65681 -4.89021,1.39841 -4.42374,3.0456 0.33914,1.19756 1.50797,5.77737 2.59741,10.17737 2.95884,11.95011 7.35409,22.9157 10.85079,27.07129 3.14453,3.73705 6.44145,13.54583 8.04291,23.92871 0.83452,5.41045 1.0833,5.66666 5.50219,5.66666 2.74592,0 4.29303,0.54226 3.80412,1.33334 -0.45323,0.73333 -2.28864,1.33333 -4.07869,1.33333 -2.88235,0 -3.248,0.57193 -3.19658,5 0.0503,4.33285 1.39164,12.30072 3.1985,19 0.29666,1.1 0.58532,2.27 0.64142,2.6 0.27831,1.63685 2.90784,-2.60065 4.52923,-7.29888 z"
         id="path3220"
         transform="translate(-69.490753,-36.010008)" />
    </g>
    <g
       id="layer5"
       inkscape:label="03">
      <path
         style="fill:#008000;stroke-width:1.33333"
         d="m 313.17899,597.9808 c 5.73168,-5.17823 7.7048,-9.72536 4.71751,-10.8717 -3.04123,-1.16702 -2.33978,-3.66118 5.86361,-20.84954 13.77147,-28.85501 14.40732,-32.87396 2.41992,-15.29552 -9.51397,13.9514 -13.82723,19.16654 -14.93539,18.05837 -0.48034,-0.48035 3.06299,-7.65689 7.8741,-15.94789 4.81109,-8.29099 10.02678,-17.97239 11.59044,-21.5142 2.74446,-6.21648 2.75834,-6.50381 0.40024,-8.29092 -1.5795,-1.19704 -6.07043,-1.86625 -12.7078,-1.89368 -13.36418,-0.0552 -41.31283,3.61824 -43.22926,5.68187 -0.82186,0.88498 -3.13238,9.10906 -5.13449,18.27573 -3.52021,16.1173 -3.58544,17.14357 -1.97881,31.13501 1.06213,9.24968 1.1958,14.78035 0.37057,15.33333 -1.5722,1.05354 -3.51041,5.94496 -1.98117,4.99984 0.59652,-0.36866 4.47377,0.21474 8.61613,1.29646 6.6618,1.73964 21.38965,3.90256 29.93156,4.3957 1.73121,0.1 5.18592,-1.80533 8.18284,-4.51286 z"
         id="path3226"
         transform="translate(-69.490753,-36.010008)" />
      <path
         style="fill:#008000;stroke-width:1.33333"
         d="m 436.77827,610.04129 c 3.62758,-1.07728 9.96249,-3.78225 14.07754,-6.01107 6.01272,-3.25662 7.64515,-4.86841 8.31305,-8.20798 1.4562,-7.281 0.98251,-9.16403 -2.653,-10.54626 -2.9745,-1.1309 -3.34729,-1.8574 -2.54865,-4.967 2.56808,-9.99904 2.32683,-14.58637 -1.04237,-19.82008 -1.93108,-2.99974 -5.12522,-12.47774 -7.63859,-22.66615 l -4.31968,-17.51056 -6.00272,-0.82278 c -13.45089,-1.84364 -33.92066,-0.18713 -47.63053,3.85451 -11.47499,3.3828 -11.36428,2.99189 -4.69869,16.59073 3.25265,6.63594 6.7211,12.06533 7.70768,12.06533 0.98656,0 2.73238,2.25 3.8796,5 1.14721,2.75 5.0166,11.2016 8.59862,18.78135 3.58204,7.57973 6.51279,14.25332 6.51279,14.83019 0,0.57686 2.59411,3.44001 5.76469,6.36254 3.97876,3.6675 7.90426,5.82699 12.67078,6.97046 3.79834,0.91121 7.24226,2.20069 7.65316,2.86552 1.36829,2.21396 -3.55326,2.90604 -9.0194,1.26834 -3.67438,-1.10086 -5.83207,-1.18222 -6.75943,-0.25486 -0.92736,0.92736 -0.34299,1.58198 1.83068,2.05074 1.75607,0.37871 4.39285,0.94232 5.85952,1.25247 1.46667,0.31016 2.70776,0.63352 2.758,0.71859 0.0503,0.0851 3.05936,-0.72675 6.68695,-1.80403 z"
         id="path3224"
         transform="translate(-69.490753,-36.010008)" />
    </g>
    <g
       id="layer6"
       inkscape:label="04"
       style="fill:#008080">
      <path
         style="fill:#008080;stroke-width:1.33333"
         d="m 458.93021,509.33332 c -1.36149,-20.26487 -18.99822,-74.99511 -25.30753,-78.53423 -1.98471,-1.11329 -2.28936,-3.64721 -2.28936,-19.04165 v -17.75745 l -6.3418,-9.57989 c -8.59797,-12.98808 -9.51175,-13.75344 -16.42011,-13.75344 h -5.90476 v 6.64148 c 0,3.65281 0.67211,14.30281 1.49356,23.66666 l 1.49355,17.02519 11.17312,11.04372 c 14.32333,14.15745 14.58405,17.62294 1.32585,17.62294 -7.35121,0 -16.62689,-4.69989 -27.50205,-13.93501 -4.75788,-4.04036 -12.10069,-9.19304 -16.31736,-11.4504 -7.73265,-4.13962 -9.01784,-6.06341 -6.04,-9.04125 2.41632,-2.41632 -12.75995,-17.16187 -18.54495,-18.01861 -2.33838,-0.34632 -4.88838,-1.02322 -5.66666,-1.50422 -3.62817,-2.24233 0.15824,-12.30116 5.75876,-15.29846 3.25796,-1.7436 3.93932,-1.38316 16.16513,8.55132 7.02009,5.70441 12.96264,10.14478 13.20567,9.86748 0.73289,-0.83626 7.45538,-22.27552 7.45538,-23.77659 0,-1.92612 -35.67209,-1.83464 -41.2383,0.10573 -3.26845,1.13939 -5.1594,1.10554 -7.86563,-0.1408 -2.92356,-1.34644 -23.89181,-2.14122 -25.0823,-0.95074 -0.18372,0.18373 -0.99228,7.21698 -1.7968,15.62946 -1.90622,19.9324 -2.56792,23.9621 -3.93472,23.9621 -2.02903,0 -2.39599,-3.18732 -1.3816,-12 0.54866,-4.76667 1.37757,-12.56667 1.84201,-17.33334 l 0.84444,-8.66666 -2.82313,6 c -1.55272,3.3 -3.69947,8.88844 -4.77058,12.41877 -1.14473,3.77305 -2.60266,6.19993 -3.53708,5.88785 -2.80324,-0.93624 -0.92654,-9.35432 3.82876,-17.17426 2.51988,-4.14387 4.5816,-7.89387 4.5816,-8.33334 0,-0.43946 -1.47117,-0.79902 -3.26928,-0.79902 -3.31484,0 -8.13605,5.70384 -13.24688,15.672 -2.30913,4.50373 -5.37228,26.40526 -6.75916,48.32799 -1.4663,23.17847 -2.18762,28 -4.18893,28 -1.02799,0 -1.90969,-1.05 -1.95932,-2.33333 -0.0771,-1.99167 -0.25604,-1.94287 -1.22257,0.33333 -1.65415,3.89558 -7.00326,44.68274 -6.4726,49.35387 l 0.45208,3.97947 91.99999,0.70705 c 50.6,0.38888 93.5,0.68888 95.33333,0.66667 3.11655,-0.0377 3.30712,-0.4306 2.93023,-6.04039 z"
         id="path3228"
         transform="translate(-69.490753,-36.010008)" />
      <path
         id="path3256"
         style="display:inline;fill:#008080;stroke-width:1.33333"
         d="m 209.83841,181.5061 c -0.88006,-0.0472 -2.0269,0.28946 -3.63281,0.55664 -3.04682,0.50692 -8.62407,2.0687 -12.39453,3.47071 -7.21576,2.68311 -8.42382,4.50105 -8.45899,12.7207 -0.0107,2.34006 -0.68663,4.66798 -1.50195,5.17187 -2.03487,1.25761 -4.02441,-2.11301 -3.40039,-5.75976 0.69052,-4.03555 0.0197,-3.77646 -2.41602,0.93359 -2.58821,5.00505 -2.61509,9.40039 -0.0586,9.40039 2.62516,0 3.076,2.78753 3.88086,24 0.77974,20.55002 3.50944,35.2907 7.22461,39.00586 6.98282,6.98283 74.4431,10.5365 86.8789,4.57617 4.2023,-2.0141 6.98188,-7.70499 7.76953,-15.90234 0.36936,-3.844 1.26495,-6.3457 2.26954,-6.3457 1.13488,0 1.95525,3.8918 2.5996,12.33203 0.51787,6.78332 1.89663,18.63399 3.06446,26.33398 1.2046,7.94249 2.16971,23.13549 2.23047,35.11524 0.13776,27.17493 -0.71552,26.21875 23.32031,26.21875 10.64945,0 17.46997,-0.55004 18.4043,-1.48438 0.91692,-0.91692 3.6959,-1.16448 7.26757,-0.64648 20.43667,2.96391 31.95666,3.60349 51.69141,2.86914 13.78986,-0.51312 22.61495,-1.401 23.81445,-2.39649 2.1476,-1.78234 15.54023,-28.85432 14.69336,-29.70117 -0.30037,-0.30039 -3.75123,2.43163 -7.66992,6.07227 -3.91867,3.64062 -7.63997,6.61914 -8.26953,6.61914 -2.95784,0 -0.3312,-3.97742 8.86914,-13.43164 5.58544,-5.73957 11.20721,-12.99019 12.71484,-16.39844 2.56594,-5.80073 2.59074,-6.33088 0.48243,-10.47266 -1.22143,-2.39947 -4.84308,-8.14325 -8.04883,-12.76172 -5.75338,-8.28878 -6.89403,-10.93554 -4.71289,-10.93554 1.09893,0 56.01701,67.52896 60.54297,74.44531 3.15771,4.82548 2.93922,5.98006 -0.99219,5.22852 -4.12433,-0.78841 -4.12295,-0.64756 0.17383,11.79492 1.9293,5.58686 5.09358,16.24145 7.03125,23.67773 l 3.52343,13.52149 11.30274,1.48632 c 14.44543,1.89964 18.62973,2.08839 18.65234,0.84571 0.0107,-0.55 0.35962,-2.2674 0.77539,-3.81641 0.56112,-2.09048 0.0396,-3.00253 -2.01953,-3.54101 -2.48751,-0.65049 -2.77762,-1.73787 -2.8125,-10.51758 -0.0807,-20.29388 -2.47032,-43.32205 -5.38867,-51.9336 -2.90029,-8.55832 -15.15008,-33.88417 -22.26172,-46.02343 -5.05729,-8.63259 -10.49458,-11.34634 -31.64453,-15.79102 -9.53333,-2.00344 -25.13269,-5.43892 -34.66602,-7.63476 -25.20454,-5.80548 -39.48618,-7.23093 -53.57617,-5.34571 -10.08755,1.3497 -12.04441,2.05382 -15.13672,5.43946 -1.95314,2.1384 -5.36837,4.8278 -7.58984,5.97656 -4.00123,2.06912 -4.04692,2.22017 -5,16.20312 -1.20475,17.67519 -2.13371,21.31836 -5.43359,21.31836 -2.18564,0 -2.48884,-0.8464 -2.14844,-6 0.21798,-3.29999 1.25566,-11.02974 2.30664,-17.17578 2.42652,-14.19014 2.57425,-13.08002 -2.04883,-15.4707 -4.7239,-2.44283 -6.96647,-6.17555 -7.9668,-13.25977 -0.65843,-4.66291 -2.05862,-6.3111 -12.74023,-15.00195 -6.59999,-5.36995 -14.65745,-11.06715 -17.90625,-12.66211 l -5.90625,-2.90039 -8.30469,2.97851 c -4.79095,1.71823 -15.74742,3.80219 -25.89648,4.92579 -9.67552,1.07118 -20.0698,2.50328 -23.09766,3.18359 -4.34748,0.97683 -5.97838,0.80996 -7.7539,-0.79688 -4.54336,-4.11169 -8.12935,-1.81053 -13.125,8.41993 -2.57124,5.26556 -5.14379,9.61491 -5.7168,9.66601 -4.26444,0.38028 -0.66464,-11.87986 5.07031,-17.26758 3.42775,-3.22019 3.42231,-3.40775 -0.84766,-29.97265 -3.11976,-19.40911 -3.36958,-23.01866 -6.00976,-23.16016 z m 17.04492,52.1211 c 1.17799,0.0346 1.05336,2.15952 -0.5625,6.02539 -1.15257,2.75747 -2.42621,6.06432 -2.83203,7.34765 -0.85776,2.71251 -2.93689,3.07627 -3.80273,0.66602 -0.99494,-2.76961 1.43509,-9.72709 4.30273,-12.32227 1.30398,-1.18009 2.27749,-1.73493 2.89453,-1.71679 z"
         transform="translate(-69.490753,-36.010008)" />
      <path
         style="fill:#008080;stroke-width:1.33333"
         d="m 527.53988,421.94248 c 0.43425,-1.13162 0.54797,-2.29908 0.2527,-2.59433 -1.13873,-1.13875 -32.51316,-4.42937 -33.46426,-3.50983 -0.55275,0.53442 -0.15164,2.13942 0.89133,3.56667 1.43276,1.96065 4.12293,2.78817 11.00499,3.38521 17.10729,1.48412 20.47178,1.35031 21.31524,-0.84772 z"
         id="path3248"
         transform="translate(-69.490753,-36.010008)" />
      <path
         style="fill:#008080;stroke-width:1.33333"
         d="m 527.1652,411.29064 c 1.0894,-2.83892 -2.92675,-4.11924 -19.05178,-6.07356 -10.28018,-1.24594 -13.92792,-1.26928 -15.1006,-0.0967 -2.58961,2.58961 0.38088,4.0436 12.35992,6.04989 15.50282,2.59645 20.83098,2.62585 21.79246,0.12027 z"
         id="path3252"
         transform="translate(-69.490753,-36.010008)" />
      <path
         style="fill:#008080;stroke-width:1.33333"
         d="m 201.25571,179.54656 c 10.17155,-2.79648 15.36031,-6.04166 13.16699,-8.23498 -0.72983,-0.72981 -24.20647,6.22824 -29.01001,8.59806 -1.05636,0.52114 -2.18671,1.74574 -2.51191,2.72133 -0.67184,2.0155 0.55487,1.80936 18.35493,-3.08441 z"
         id="path3282"
         transform="translate(-69.490753,-36.010008)" />
      <path
         style="fill:#008080;stroke-width:1.33333"
         d="m 196.97221,171.87949 c 15.55088,-4.46187 17.78924,-5.65137 15.30646,-8.13415 -1.22842,-1.22842 -4.38328,-0.74194 -13.93333,2.14856 -14.958,4.52731 -16.22747,5.12628 -16.77644,7.91567 -0.54852,2.78699 -1.41571,2.89564 15.40331,-1.93008 z"
         id="path3284"
         transform="translate(-69.490753,-36.010008)" />
      <path
         style="display:inline;fill:#008080;stroke-width:1.33333"
         d="m 395.22735,397.66666 c -0.33439,-5.68334 -0.97724,-11.83334 -1.42856,-13.66667 -0.72235,-2.93424 -1.05451,-2.53515 -2.77426,3.33333 -3.54238,12.08806 -3.57664,14.7151 -0.23256,17.83059 1.6743,1.55984 3.49399,2.83608 4.04375,2.83608 0.54977,0 0.726,-4.65 0.39163,-10.33333 z"
         id="path3242"
         transform="translate(-69.490753,-36.010008)" />
    </g>
    <g
       id="layer7"
       inkscape:label="05"
       style="fill:#803300">
      <path
         style="fill:#803300;stroke-width:1.33333"
         d="m 333.71966,362.66666 c -0.40532,-1.54994 -0.0409,-2.66667 0.87018,-2.66667 0.86214,0 1.19671,-0.6 0.74348,-1.33333 -0.47492,-0.76844 -7.5694,-1.33334 -16.74536,-1.33334 h -15.9213 v 4 4 h 15.87517 c 15.21873,0 15.84633,-0.11026 15.17783,-2.66666 z"
         id="path3268"
         transform="translate(-69.490753,-36.010008)" />
      <path
         style="fill:#803300;stroke-width:1.33333"
         d="m 392.66665,365.30519 c 1.46667,-0.12587 7.31667,0.21564 13,0.7588 l 10.33334,0.98757 v -4.85912 -4.85912 h -38 c -24.44444,0 -38,0.47564 -38,1.33334 0,0.73333 0.9,1.33333 2,1.33333 2.82632,0 2.50225,3.97983 -0.33333,4.09372 -2.00068,0.0804 -1.95315,0.26145 0.33333,1.27028 2.13833,0.94347 39.48824,0.90012 50.66666,-0.0588 z"
         id="path3266"
         transform="translate(-69.490753,-36.010008)" />
    </g>
    <g
       id="layer1"
       inkscape:label="06"
       transform="translate(-69.490753,-36.010008)">
      <path
         style="fill:#ff9955;stroke-width:1.33333"
         d="m 374.80864,403.73467 c 1.42853,-2.66923 0.78144,-3.67827 -7.22068,-11.25952 -4.8344,-4.58015 -10.33479,-9.33983 -12.22307,-10.57708 -3.24174,-2.12408 -3.58333,-2.11371 -6.12442,0.18596 -3.85696,3.49049 -2.84359,7.53404 2.01589,8.04383 2.71076,0.28437 6.41483,2.90333 11.98667,8.47517 4.435,4.435 8.49852,8.06363 9.03005,8.06363 0.53153,0 1.67253,-1.31939 2.53556,-2.93199 z"
         id="path3254" />
      <path
         id="path3238"
         style="display:inline;fill:#803300;stroke-width:1.33333"
         d="m 394.47708,368.12915 c -1.05712,7.9e-4 -2.08175,0.282 -2.54101,0.74609 -0.61236,0.61877 -2.96176,7.93334 -5.22071,16.25391 -3.40755,12.55138 -5.00924,16.19874 -9.41015,21.41797 -2.91747,3.45994 -5.30469,6.67418 -5.30469,7.14258 0,0.4684 1.9487,1.78019 4.33203,2.91601 2.38333,1.13582 8.83399,5.97515 14.33398,10.75195 11.86325,10.30335 21.18099,15.3086 28.49414,15.3086 h 5.30469 l -3.15039,-3.66602 c -1.73295,-2.01667 -6.66888,-6.96667 -10.9668,-11 l -7.81445,-7.33398 -1.33984,-17.33203 c -2.44212,-31.58673 -2.92424,-34.58198 -5.66797,-35.10938 -0.34031,-0.0654 -0.69645,-0.096 -1.04883,-0.0957 z m 0.30469,1.25195 c 0.27395,0.008 0.54199,0.16505 0.81836,0.44141 1.15169,1.1517 4.49201,43.61571 3.55078,45.13867 -1.10909,1.79455 -2.29497,1.12383 -9.46289,-5.33789 l -6.97852,-6.28906 4.82032,-16 c 4.11658,-13.66356 5.77263,-17.99545 7.25195,-17.95313 z" />
    </g>
    <g
       id="layer8"
       inkscape:label="07"
       style="fill:#6c5353">
      <path
         style="fill:#6c5353;stroke-width:1.33333"
         d="m 355.39392,262.06059 c 4.42599,-4.42597 4.45204,-11.66917 0.0577,-16.06344 l -3.21496,-3.21496 10.88163,-10.8605 c 8.20384,-8.18792 10.06135,-10.65094 7.54829,-10.0089 -1.83333,0.4684 -6.39677,1.20464 -10.14097,1.6361 -6.09551,0.70241 -7.03699,0.45704 -9,-2.34555 -2.10139,-3.00021 -2.19232,-2.61541 -2.19232,9.27776 0,9.00999 -0.43512,12.26275 -1.58896,11.87813 -0.87392,-0.2913 -1.78788,-2.5913 -2.03101,-5.11112 -0.24314,-2.5198 -1.02811,-8.59638 -1.74437,-13.50352 -0.71628,-4.90714 -1.30232,-11.64909 -1.30232,-14.9821 0,-5.73287 -0.26995,-6.17574 -5,-8.20294 -6.4063,-2.74558 -13.80735,-3.6896 -16.21652,-2.06844 -1.55203,1.04438 -1.16176,2.40226 2.21917,7.72139 6.64353,10.45209 12.55725,22.97896 12.02469,25.47156 -0.36864,1.72535 -1.12514,1.12589 -2.9666,-2.35073 -2.89614,-5.46783 -11.8022,-17.75814 -16.66796,-23.00167 -2.34957,-2.53199 -5.76566,-4.16368 -11.02781,-5.26743 -7.32424,-1.53626 -7.76087,-1.47072 -11.11299,1.66834 -4.4906,4.20516 -14.27438,20.47052 -12.6441,21.02056 2.13101,0.71898 6.50446,-2.28972 7.39166,-5.08506 2.16719,-6.8282 15.99388,0.60151 36.82904,19.78991 8.68852,8.00179 8.86634,8.08911 11.20666,5.50307 1.30793,-1.44524 2.88506,-2.62772 3.50474,-2.62772 1.87434,0 1.26779,2.96744 -1.15341,5.64282 -3.30152,3.64815 -2.69825,12.99399 1.03433,16.02384 4.23716,3.43944 11.36499,3.00198 15.30636,-0.9394 z"
         id="path3274"
         transform="translate(-69.490753,-36.010008)" />
      <path
         style="fill:#6c5353;stroke-width:1.33333"
         d="m 626.56573,323.18972 c -7.47824,-8.04393 -32.63798,-26.22519 -57.89908,-41.83982 -5.13334,-3.17307 -10.63732,-6.61372 -12.2311,-7.64591 -2.71125,-1.75592 -2.85518,-1.67806 -2.23646,1.20964 0.65313,3.04831 0.6231,3.04352 -2.43558,-0.38785 -1.70328,-1.91081 -9.37872,-10.91081 -17.05653,-20 -7.67781,-9.08917 -17.27781,-19.82579 -21.33333,-23.85912 -8.36224,-8.31651 -22.57645,-15.97368 -36.36627,-19.59047 -10.43669,-2.73734 -9.48316,-2.93821 -48.06677,10.12542 -13.04932,4.41824 -25.79932,8.4221 -28.33333,8.89749 -5.35064,1.00379 -6.43571,-1.35112 -1.22512,-2.65889 1.86019,-0.46688 7.11019,-2.54142 11.66667,-4.61008 4.55646,-2.06867 14.1383,-6.01519 21.29297,-8.77006 7.15467,-2.75486 13.32709,-5.52436 13.71649,-6.15442 1.06287,-1.71975 -12.83445,-10.46498 -20.10965,-12.6545 -6.4928,-1.95404 -20.19385,-2.53034 -25.61532,-1.07744 -1.65,0.44218 -3,1.71763 -3,2.83434 0,2.69742 -12.05209,17.48945 -26.92832,33.05026 l -12.04599,12.60034 2.15382,4.53884 c 1.1846,2.49637 2.15382,5.2673 2.15382,6.15764 0,1.88921 10.64372,0.88012 22.04792,-2.09031 10.8962,-2.83809 52.94898,-8.59653 69.38832,-9.5016 16.63124,-0.91561 24.56376,0.0415 24.56376,2.96385 0,1.06678 -0.45,1.95195 -1,1.96706 -6.96825,0.19136 -44.70713,2.94885 -56.95653,4.16168 -10.56399,1.04594 -15.07001,1.94025 -13.33333,2.64621 1.44276,0.58649 12.8232,3.16831 25.28986,5.73736 85.50819,17.62103 112.52726,25.51613 161.72972,47.25824 17.80582,7.86822 25.10678,12.00312 29.50269,16.70882 1.77784,1.90312 3.83243,3.46022 4.56576,3.46022 0.73333,0 -0.1212,-1.56462 -1.89909,-3.47694 z"
         id="path3272"
         transform="translate(-69.490753,-36.010008)" />
      <path
         style="fill:#6c5353;stroke-width:1.33333"
         d="m 561.59249,359.30668 c 4.46329,-5.67417 15.59736,-10.0855 38.40749,-15.2171 11.87304,-2.6711 20.61497,-5.84856 21.92576,-7.96947 2.50949,-4.06044 -7.05359,-12.25955 -26.59243,-22.79959 -15.84142,-8.5455 -61.07413,-25.80943 -76.85755,-29.33415 -7.76864,-1.73488 -14.47578,-1.0301 -14.47578,1.52113 0,0.80119 4.0209,7.23975 8.93534,14.30793 4.91442,7.06817 15.77437,22.75123 24.1332,34.85123 14.1029,20.41497 19.87439,28 21.30531,28 0.31664,0 1.76503,-1.51199 3.21866,-3.35998 z"
         id="path3270"
         transform="translate(-69.490753,-36.010008)" />
      <path
         style="fill:#6c5353;stroke-width:1.33333"
         d="m 277.40752,299.99999 c 2.15524,-8.43333 3.92024,-16.13964 3.92222,-17.12512 0.003,-1.35368 -1.54496,-1.6093 -6.32975,-1.04549 -3.48333,0.41045 -9.94463,1.10957 -14.35843,1.55359 -7.66034,0.77061 -8.16542,1.05116 -11.11293,6.17256 -1.69832,2.95088 -9.18702,13.8749 -16.64157,24.27561 -17.13233,23.90329 -19.32956,27.8925 -16.94527,30.76538 0.97427,1.17392 7.82699,5.56311 15.22827,9.75376 7.40128,4.19064 15.86581,9.47707 18.81006,11.74762 l 5.3532,4.12825 9.0778,-27.44641 c 4.99279,-15.09552 10.84118,-34.34642 12.9964,-42.77975 z"
         id="path3264"
         transform="translate(-69.490753,-36.010008)" />
      <path
         style="fill:#6c5353;stroke-width:1.33333"
         d="m 600.61098,387.69068 c -1.99432,-2.37012 -9.1992,-10.21717 -16.01084,-17.43788 -11.6636,-12.36404 -12.56577,-13.0325 -15.49248,-11.47908 -3.21796,1.708 -7.01501,6.23072 -7.18623,8.5596 -0.24893,3.38618 2.67718,5.88276 12.32922,10.51946 23.17862,11.13466 29.10308,13.95253 29.53452,14.04762 0.24853,0.0548 -1.17986,-1.8396 -3.17419,-4.20972 z"
         id="path3262"
         transform="translate(-69.490753,-36.010008)" />
      <path
         style="fill:#6c5353;stroke-width:1.33333"
         d="m 227.44177,388.5143 c 19.24027,-8.25367 20.55822,-9.04894 20.55822,-12.40512 0,-3.96632 -4.9826,-9.25536 -14.3131,-15.19344 l -5.64646,-3.59348 -3.5848,5.6722 c -1.97162,3.1197 -5.98281,10.1722 -8.91373,15.6722 -2.93091,5.5 -6.42685,11.59262 -7.76875,13.53916 -2.52414,3.66148 -3.00012,5.1275 -1.66472,5.1275 0.4263,0 10.0263,-3.96856 21.33334,-8.81902 z"
         id="path3260"
         transform="translate(-69.490753,-36.010008)" />
      <path
         style="fill:#6c5353;stroke-width:1.33333"
         d="m 277.89134,418.99999 c 0.4759,-4.21667 1.80197,-14.02212 2.94682,-21.78991 l 2.08154,-14.12324 7.20681,-8.09053 c 8.7814,-9.85819 9.59827,-15.25389 3.38131,-22.33461 l -3.8255,-4.35702 -0.59852,-22.48568 c -0.57524,-21.61139 -2.23461,-30.58541 -5.10881,-27.62882 -1.00599,1.03481 -6.89739,18.46154 -20.89587,61.80981 -2.72337,8.43333 -6.00821,16.53333 -7.29964,18 -2.6328,2.99007 -9.83199,6.85716 -30.71861,16.50067 -15.65716,7.22902 -21.06088,11.5498 -21.06088,16.84009 0,3.93108 4.31484,6.27779 16.24864,8.83712 7.7484,1.66173 44.39016,6.14531 51.93107,6.3544 l 4.84636,0.13438 z"
         id="path3244"
         transform="translate(-69.490753,-36.010008)" />
      <path
         style="fill:#6c5353;stroke-width:1.33333"
         d="m 489.11708,418.99999 c -0.21114,-1.28333 0.1028,-3.10961 0.69764,-4.0584 0.61582,-0.98229 0.38444,-2.56499 -0.53738,-3.67571 -1.26966,-1.52985 -1.26913,-3.19976 0.003,-7.74145 1.43048,-5.10919 1.21884,-7.42313 -1.79793,-19.65764 -5.24302,-21.26295 -10.77431,-37.15551 -17.32803,-49.78708 -5.98979,-11.54465 -17.66413,-27.41215 -20.15387,-27.39267 -0.73333,0.005 -5.50676,8.20578 -10.60761,18.22228 -5.10084,10.01651 -11.48981,21.01472 -14.1977,24.44046 -4.06266,5.13965 -5.00543,7.50912 -5.39239,13.55276 -0.39608,6.18588 0.005,7.82456 2.58511,10.54412 8.18498,8.62968 11.24713,15.55618 12.49849,28.27129 2.01551,20.47968 -1.40365,18.16204 27.46548,18.61728 13.74008,0.21667 25.46968,0.52988 26.06577,0.69601 0.59609,0.16615 0.91107,-0.74792 0.69995,-2.03125 z"
         id="path3250"
         transform="translate(-69.490753,-36.010008)" />
      <path
         style="fill:#6c5353;stroke-width:1.33333"
         d="m 591.71849,423.45882 c 15.23758,-3.30924 20.28149,-6.85174 20.28149,-14.24428 0,-4.75926 -8.91745,-11.93536 -25.38589,-20.4287 -23.4199,-12.07845 -27.3876,-15.00678 -34.48656,-25.45252 -10.25908,-15.09568 -38.95793,-55.88381 -40.34019,-57.33333 -1.42278,-1.49201 -0.8715,-0.0983 4.67446,11.81824 4.68984,10.07697 6.82204,20.55495 9.52824,46.82341 1.20736,11.71959 2.82238,22.06404 3.58894,22.9877 2.17346,2.61884 3.725,20.30954 2.095,23.88701 -1.01385,2.22517 -0.96222,3.59808 0.18739,4.98328 0.90023,1.08472 1.21859,3.37892 0.7358,5.30249 -0.82809,3.29939 -0.64143,3.40595 6.94259,3.9634 14.40325,1.05869 42.37678,-0.17796 52.17873,-2.3067 z"
         id="path3246"
         transform="translate(-69.490753,-36.010008)" />
    </g>
    <path
       style="fill:#808080;stroke-width:1.33333"
       d="m 340.74226,259.70331 c -3.4071,-4.86432 -1.75343,-13.03665 2.63797,-13.03665 2.38229,0 2.42722,0.61032 0.29615,4.02269 -2.19176,3.50959 0.13173,7.31064 4.46893,7.31064 4.0986,0 5.27693,-5.66246 1.71964,-8.26362 -1.8266,-1.33563 -2.02059,-2.11408 -0.8248,-3.30987 2.25601,-2.25601 6.95984,2.35113 6.95984,6.8168 0,5.63155 -3.48734,9.42336 -8.66667,9.42336 -3.15465,0 -5.14097,-0.89305 -6.59106,-2.96335 z"
       id="path3276"
       transform="translate(-69.490753,-36.010008)" />
    <g
       id="layer9"
       inkscape:label="08"
       style="fill:#fff6d5">
      <path
         style="fill:#fff6d5;stroke-width:1.33333"
         d="m 517.90977,469.54275 c 1.25776,-2.45148 2.07431,-4.66979 1.81453,-4.92955 -0.25977,-0.25977 -2.40401,1.03947 -4.76498,2.88721 -3.40263,2.66296 -4.29267,4.34434 -4.29267,8.10936 v 4.74984 l 2.47813,-3.17981 c 1.36299,-1.74889 3.50723,-5.18557 4.76499,-7.63705 z"
         id="path3236"
         transform="translate(-69.490753,-36.010008)" />
      <path
         style="fill:#fff6d5;stroke-width:1.33333"
         d="m 505.20114,484.10989 c 1.3737,-0.86974 1.66403,-2.90336 1.09744,-7.68724 -0.72993,-6.16314 -0.548,-6.66156 3.46551,-9.49368 9.56785,-6.75153 11.77728,-9.26005 13.01745,-14.77966 1.27648,-5.68122 -0.32149,-20.90216 -2.4111,-22.96615 -0.57042,-0.56341 -5.53712,-1.41297 -11.03712,-1.88791 l -10,-0.86351 -5.62971,7.7491 c -3.92684,5.40516 -5.85569,9.57456 -6.37683,13.78412 -1.08716,8.78157 -2.991,19.01689 -4.03666,21.70169 -1.38072,3.5451 2.36738,2.91274 6.06506,-1.02328 2.4877,-2.64802 3.13218,-4.7625 3.05291,-10.01637 -0.1056,-6.99811 1.71983,-10.23163 2.831,-5.01488 0.35784,1.68 1.97559,9.50453 3.59499,17.38787 1.61941,7.88333 3.29421,14.32414 3.72181,14.31292 0.42759,-0.0107 1.61795,-0.55259 2.64525,-1.20302 z"
         id="path3234"
         transform="translate(-69.490753,-36.010008)" />
      <path
         style="fill:#fff6d5;stroke-width:1.33333"
         d="m 496.1476,478.62003 c -1.15584,-2.8957 -1.32198,-2.55968 -1.39643,2.8244 -0.0465,3.36112 0.36548,6.56845 0.91548,7.12742 1.56327,1.58878 1.94388,-6.28677 0.48095,-9.95182 z"
         id="path3232"
         transform="translate(-69.490753,-36.010008)" />
      <path
         style="fill:#fff6d5;stroke-width:1.33333"
         d="m 504.5199,491.66665 c 0.6529,-2.77009 0.36896,-3.66666 -1.16118,-3.66666 -1.44671,0 -2.0254,1.40953 -2.0254,4.93333 0,5.40364 1.78132,4.69556 3.18658,-1.26667 z"
         id="path3230"
         transform="translate(-69.490753,-36.010008)" />
      <path
         style="fill:#fff6d5;stroke-width:1.33333"
         d="m 203.66666,159.96961 c 3.45885,-1.51763 5.66667,-3.36655 5.66667,-4.74553 0,-1.24256 2.4044,-4.86766 5.3431,-8.05578 l 5.3431,-5.79658 -0.26756,-15.35253 c -0.14716,-8.44389 -0.5629,-15.35253 -0.92384,-15.35253 -0.36095,0 -2.04494,1.30459 -3.7422,2.89909 -2.54843,2.39413 -3.08594,4.26729 -3.08594,10.75432 0,10.3661 -1.52952,13.17402 -6.62133,12.15566 -3.30725,-0.66145 -4.62355,0.005 -8.63404,4.37192 -3.07465,3.34785 -4.73412,4.40752 -4.73825,3.02567 -0.004,-1.16968 1.19362,-3.21267 2.66029,-4.53999 1.46667,-1.32732 2.66667,-3.12363 2.66667,-3.9918 0,-1.56421 -21.14984,-7.96947 -22.35046,-6.76886 -0.34349,0.3435 0.0448,2.5447 0.86296,4.89157 0.81812,2.34686 1.4875,5.35724 1.4875,6.68973 0,1.33249 2.4,6.13599 5.33333,10.67441 2.93333,4.53844 5.33333,9.42547 5.33333,10.86006 0,2.28881 0.6125,2.49558 5,1.68792 2.75,-0.50624 7.55,-2.03928 10.66667,-3.40675 z"
         id="path3288"
         transform="translate(-69.490753,-36.010008)" />
      <path
         style="fill:#fff6d5;stroke-width:1.33333"
         d="m 191.44918,102.60395 c -3.52344,-2.23449 -7.03732,-3.852354 -7.80863,-3.59525 -1.69666,0.565556 9.55784,7.53227 12.28715,7.60593 1.06024,0.0286 -0.95509,-1.77619 -4.47852,-4.01068 z"
         id="path3298"
         transform="translate(-69.490753,-36.010008)" />
      <path
         style="fill:#fff6d5;stroke-width:1.33333"
         d="m 370.66665,216.56954 c 7.98927,-3.70892 13.45822,-8.31547 17.36455,-14.62632 2.13915,-3.45585 2.34176,-5.25481 1.36785,-12.14481 -1.43925,-10.18232 -5.92772,-15.35191 -13.65456,-15.72664 -2.8166,-0.13659 -5.76702,-0.89429 -6.55652,-1.68379 -0.78949,-0.78949 -2.20138,-6.62138 -3.13753,-12.95976 -0.93615,-6.33837 -1.98635,-11.80856 -2.33376,-12.15597 -0.34741,-0.34741 -3.75405,0.66595 -7.57031,2.25191 -4.98286,2.07078 -7.34592,2.4763 -8.38353,1.43869 -1.0376,-1.0376 1.04713,-2.5748 7.39613,-5.45357 l 8.84102,-4.00871 v -11.41695 c 0,-6.27933 -0.0655,-11.86696 -0.14544,-12.41696 -0.08,-0.55 -4.57284,-3.4 -9.98412,-6.33333 -10.85737,-5.88554 -14.15264,-5.62496 -14.96372,1.1833 -0.38823,3.25888 -0.1132,3.50232 3.05795,2.70643 2.92854,-0.73502 4.32634,0.0373 8.76011,4.83989 5.54847,6.01007 6.09488,7.97088 1.40506,5.04203 -2.24076,-1.39938 -3.32286,-1.41773 -5.44508,-0.0924 -3.91247,2.44338 -6.68476,2.02343 -6.68476,-1.0126 0,-4.05516 -2.3576,-3.25464 -10.23504,3.47527 -5.7982,4.95356 -6.88821,6.50462 -5.63352,8.01643 1.17807,1.41948 1.99825,1.50723 3.3788,0.36148 1.36256,-1.13084 2.29832,-1.11862 3.70439,0.0483 1.28608,1.06735 2.15468,1.119 2.74536,0.16327 1.54862,-2.50574 3.56934,-1.472 3.1314,1.60192 -0.33563,2.35569 -1.21364,2.94622 -4.08816,2.74961 -2.89759,-0.1982 -3.8359,0.44755 -4.50103,3.09761 -0.46604,1.8569 -0.17116,4.01715 0.66209,4.8504 2.08602,2.08602 1.88043,6.241 -0.3512,7.09735 -1.01945,0.3912 -1.81974,2.02237 -1.77842,3.62483 0.0413,1.60244 -0.35132,4.41353 -0.87255,6.24686 -1.47129,5.17498 1.4638,7.65051 10.66284,8.99328 6.68481,0.97579 9.6495,0.72738 16.41469,-1.3754 4.54103,-1.41145 8.65484,-2.16782 9.14184,-1.68084 0.48699,0.487 -1.98437,3.63564 -5.49191,6.99699 -4.7805,4.58127 -6.75864,5.73025 -7.90013,4.58876 -2.41929,-2.41929 -3.88105,-1.76776 -2.36969,1.05622 0.75913,1.41846 1.38248,7.26846 1.38522,13 0.004,8.17144 0.6046,11.42836 2.78272,15.08766 5.40548,9.08134 8.58559,9.81234 19.87896,4.56954 z"
         id="path3280"
         transform="translate(-69.490753,-36.010008)" />
    </g>
    <g
       id="layer11"
       inkscape:label="09">
      <path
         style="fill:#a05a2c;stroke-width:1.33333"
         d="m 83.120432,77.393411 c 9.420086,-10.426909 14.34983,-26.399338 9.610626,-31.138542 -2.02336,-2.02336 -2.494477,-2.034544 -5.403794,-0.128293 -9.224717,6.044275 -17.620621,29.713401 -12.393933,34.940088 2.366604,2.366604 2.978465,2.092084 8.187101,-3.673253 z"
         id="path3300"
         transform="translate(-69.490753,-36.010008)" />
      <path
         style="fill:#a05a2c;stroke-width:1.33333"
         d="m 208.31837,128.25986 c 0.34617,-1.32373 0.36698,-4.19465 0.0463,-6.3798 -0.52618,-3.5851 -2.20565,-4.79789 -17.20124,-12.42141 -9.13996,-4.64662 -16.74081,-8.2257 -16.89076,-7.95352 -0.14996,0.27218 -1.74694,3.42199 -3.54885,6.99959 -1.80192,3.5776 -3.49083,5.86086 -3.75315,5.07392 -0.2623,-0.78694 0.16199,-2.62462 0.94288,-4.08374 0.78091,-1.45911 1.41982,-4.44195 1.41982,-6.62854 0,-4.353601 -3.61362,-7.779957 -17.60262,-16.69044 -8.32695,-5.303969 -10.39738,-5.870012 -10.39738,-2.842589 0,1.1 -0.675,2 -1.5,2 -0.93829,0 -1.21517,-1.424129 -0.7394,-3.803025 0.62397,-3.119821 0.0599,-4.321135 -3.14025,-6.687056 l -3.90086,-2.884029 -2.07726,4.97159 c -2.21601,5.303652 -5.64976,9.735853 -7.54265,9.735853 -0.63458,0 -0.0267,-2.25 1.35079,-5 3.16299,-6.314445 4.37641,-11.309341 3.16082,-13.011077 -0.51949,-0.72724 -3.94452,-3.670593 -7.61119,-6.540782 -3.66667,-2.870189 -9.14397,-7.573766 -12.17178,-10.452394 l -5.50512,-5.233868 -1.677448,7.119061 c -2.266323,9.618234 -7.076094,18.865787 -13.355569,25.678214 l -5.209757,5.651918 4.67174,2.227798 c 2.569457,1.225288 5.714677,2.227797 6.989378,2.227797 3.983783,0 11.721416,-7.566753 15.622876,-15.277858 2.05767,-4.06691 3.94888,-7.186721 4.20268,-6.932914 1.09975,1.099744 -4.03771,12.791345 -8.45705,19.246215 -2.64926,3.869493 -4.582793,7.207486 -4.29673,7.417762 1.087,0.79902 16.65503,7.311264 19.52011,8.165434 4.33959,1.29377 8.3033,-0.36603 9.71005,-4.066065 0.67317,-1.770582 1.88774,-3.219241 2.69903,-3.219241 0.81129,0 0.18397,2.089057 -1.39405,4.642351 -1.57802,2.553295 -2.51297,5.218625 -2.07767,5.922965 0.43531,0.70433 3.51095,1.68842 6.83476,2.18686 5.14538,0.77159 6.5116,0.46631 9.19506,-2.05467 1.73345,-1.6285 3.87278,-4.70164 4.75403,-6.829209 1.627,-3.927916 3.96535,-5.240789 3.9213,-2.20163 -0.0133,0.916666 -1.74404,4.785909 -3.84612,8.598319 -3.84967,6.98186 -3.92791,8.40168 -0.46295,8.40168 1.03895,0 6.38428,1.8 11.87852,4 11.16719,4.47156 15.34681,4.94149 17.78804,2 2.57029,-3.09701 4.07205,-2.3631 2.67633,1.30791 -1.2191,3.20649 -0.96257,3.39404 8.36634,6.11655 5.2932,1.54475 10.224,3.00882 10.95733,3.25349 3.67405,1.22582 7.07683,0.44695 7.65171,-1.75142 z"
         id="path3294"
         transform="translate(-69.490753,-36.010008)" />
      <path
         style="fill:#a05a2c;stroke-width:1.33333"
         d="m 316.54884,152.19062 c 0.38843,-0.62849 -3.02616,-1.80504 -7.58797,-2.61453 -12.15408,-2.15675 -29.58485,-6.24575 -40.72552,-9.55359 -5.37055,-1.59461 -10.71383,-2.53505 -11.87395,-2.08986 -1.16904,0.4486 -3.35421,-0.29943 -4.90202,-1.67806 C 248.31539,133.45425 232.3555,128 227.30533,128 c -2.86879,0 -3.30534,0.5975 -3.30534,4.52401 0,4.71952 1.66247,6.14265 7.17572,6.14265 1.62668,0 3.718,-0.75 4.64738,-1.66666 1.3538,-1.3353 2.02949,-1.20687 3.3985,0.64594 0.9398,1.27194 2.14442,1.87694 2.67691,1.34444 0.53249,-0.53249 1.51872,0.0156 2.19161,1.21802 1.37583,2.45845 19.93923,7.11028 24.06673,6.03092 1.4062,-0.36774 3.29618,0.0557 4.19994,0.94117 0.90377,0.88537 8.84321,2.54223 17.64321,3.68189 19.44337,2.51807 25.62244,2.8272 26.54885,1.32824 z"
         id="path3290"
         transform="translate(-69.490753,-36.010008)" />
    </g>
    <g
       id="layer10"
       inkscape:label="10"
       style="fill:#88aa00">
      <path
         style="fill:#88aa00;stroke-width:1.33333"
         d="m 411.05057,117.29587 c -0.52917,-8.66405 -4.29873,-15.8332 -11.18881,-21.279485 -16.00941,-12.654719 -37.65311,-14.560177 -47.07897,-4.144718 -1.39932,1.54624 -2.29791,3.024996 -1.99686,3.286124 0.30107,0.261128 5.94739,2.996792 12.54739,6.079259 6.6,3.08246 19.2,9.12721 28,13.43278 8.8,4.30557 16.9,7.69937 18,7.54178 1.40407,-0.20116 1.91575,-1.6659 1.71725,-4.91574 z"
         id="path3296"
         transform="translate(-69.490753,-36.010008)" />
      <path
         style="fill:#88aa00;stroke-width:1.33333"
         d="m 395.89593,174.75918 c 1.57535,-0.99706 1.14819,-2.91501 -2.52617,-11.34229 -2.43217,-5.57827 -3.95321,-10.57909 -3.38008,-11.11293 0.57313,-0.53384 1.28813,-0.28595 1.58891,0.55089 0.6818,1.89696 11.08744,19.42733 12.39132,20.87564 1.05156,1.16805 8.03008,-1.56213 8.03008,-3.14157 0,-0.54068 -2.32031,-4.80235 -5.15624,-9.47038 -7.07031,-11.63797 -11.28151,-21.21413 -9.92544,-22.5702 0.62205,-0.62205 3.45566,3.26832 6.29689,8.64528 2.84123,5.37698 6.2536,11.20808 7.58303,12.95802 l 2.41716,3.18169 2.83086,-2.80893 2.83087,-2.80895 -4.26068,-6.92449 c -2.34337,-3.80848 -3.85811,-7.32708 -3.36608,-7.81912 0.83988,-0.83987 2.78575,1.36769 3.84445,4.36149 0.58588,1.65672 4.90583,-1.71737 4.90358,-3.82992 -10e-4,-1.85663 -31.6461,-17.6335 -32.88436,-16.39523 -0.49118,0.49117 -0.29042,4.21771 0.44612,8.28119 0.73653,4.06349 0.92453,7.6444 0.4178,7.95759 -1.46447,0.90508 -3.79222,-5.3058 -4.78038,-12.75492 -0.87109,-6.56656 -1.15565,-6.9546 -6.90842,-9.42053 -3.29996,-1.41453 -6.365,-2.20679 -6.81122,-1.76058 -1.50146,1.50148 -0.80322,30.49993 0.9662,40.126 1.32026,7.18252 2.35059,9.69321 4.17351,10.16992 5.16352,1.35028 5.74668,-0.87603 2.75583,-10.52083 -3.18442,-10.269 -5.24343,-27.3696 -3.03256,-25.18602 0.74249,0.73333 2.64669,7.33333 4.23153,14.66666 3.80187,17.5919 8.21119,27.34043 12.35379,27.31292 1.69056,-0.0107 3.92693,-0.56041 4.9697,-1.2204 z"
         id="path3286"
         transform="translate(-69.490753,-36.010008)" />
    </g>
    <path
       style="fill:#6c5353;stroke-width:1.33333"
       d="m 413.33332,131.62571 c 0,-1.89571 -9.18227,-6.67676 -44.58317,-23.21372 -13.1541,-6.14472 -24.70409,-10.869994 -25.66667,-10.500615 -4.9087,1.883645 -1.71941,3.686505 35.16835,19.880135 12.60517,5.53364 25.20517,11.26779 28,12.74256 6.04605,3.19038 7.08149,3.35001 7.08149,1.09164 z"
       id="path3292"
       transform="translate(-69.490753,-36.010008)" />
  </g>
</svg>
