<?xml version="1.0" encoding="UTF-8" standalone="no"?>
<!-- Created with Inkscape (http://www.inkscape.org/) -->

<svg
   version="1.1"
   id="svg2708"
   width="991.76605"
   height="1044.9071"
   viewBox="0 0 991.7661 1044.9071"
   sodipodi:docname="b2.svg"
   inkscape:version="1.2.2 (732a01da63, 2022-12-09, custom)"
   xmlns:inkscape="http://www.inkscape.org/namespaces/inkscape"
   xmlns:sodipodi="http://sodipodi.sourceforge.net/DTD/sodipodi-0.dtd"
   xmlns="http://www.w3.org/2000/svg"
   xmlns:svg="http://www.w3.org/2000/svg">
  <defs
     id="defs2712" />
  <sodipodi:namedview
     id="namedview2710"
     pagecolor="#ffffff"
     bordercolor="#000000"
     borderopacity="0.25"
     inkscape:showpageshadow="2"
     inkscape:pageopacity="0.0"
     inkscape:pagecheckerboard="0"
     inkscape:deskcolor="#d1d1d1"
     showgrid="false"
     inkscape:zoom="0.76951673"
     inkscape:cx="466.52657"
     inkscape:cy="509.41063"
     inkscape:window-width="1920"
     inkscape:window-height="1031"
     inkscape:window-x="0"
     inkscape:window-y="25"
     inkscape:window-maximized="1"
     inkscape:current-layer="layer2" />
  <g
     inkscape:groupmode="layer"
     id="layer2"
     inkscape:label="Layer 1"
     style="display:inline">
    <path
       id="path3189"
       style="fill:#000000;stroke-width:1.33333"
       d="m 224.10033,15.270474 c -2.23436,1.380906 -1.81238,32.048912 0.56641,41.181641 1.09996,4.223169 2,9.38055 2,11.460937 0,2.080388 0.8967,5.501079 1.99218,7.601563 1.09548,2.100484 1.996,6.30533 2,9.34375 0.005,3.038421 1.72874,12.33782 3.83203,20.666015 7.52113,29.78007 13.9218,41.13439 23.19727,41.15039 12.83433,0.0221 19.42286,5.67144 29.60742,25.39063 9.21019,17.83261 15.18272,37.15829 16.7461,54.17968 2.42768,26.43202 9.18029,41.27239 22.41992,49.27344 3.80977,2.30239 9.76451,4.58032 13.23242,5.06055 9.89322,1.36997 13.54799,3.34855 16.35742,8.85547 1.41753,2.77856 3.18587,5.42701 3.92969,5.88672 0.74381,0.45969 1.35156,2.15588 1.35156,3.76953 0,1.61366 1.2013,3.68367 2.66797,4.59961 1.46667,0.91595 2.66602,2.88338 2.66602,4.37304 0,3.46092 4.42233,12.22709 10.11328,20.04297 2.4453,3.35841 7.4294,12.35845 11.07422,20 3.64479,7.64155 9.66899,18.02125 13.38671,23.06641 5.33688,7.24236 6.75977,10.24183 6.75977,14.2539 0,2.79489 -0.62977,5.4722 -1.39844,5.94727 -2.54684,1.57403 -9.82258,-8.10731 -18.55273,-24.68359 -10.9685,-20.82633 -24.54557,-42.64312 -36.28906,-58.31055 -7.60336,-10.14388 -10.60846,-13.03017 -17.22852,-16.55859 -4.40997,-2.3505 -14.1327,-9.53792 -21.60742,-15.97266 -7.47472,-6.43476 -17.40363,-13.94988 -22.06446,-16.69922 -4.66078,-2.74935 -8.76286,-5.74695 -9.11328,-6.66016 -0.51782,-1.34936 -3.81666,-2.63614 -9.74609,-3.80273 -0.36667,-0.0721 -2.52071,-1.12306 -4.78711,-2.33398 -11.16304,-5.96455 -56.80621,-16.65283 -76.7207,-17.9668 -11.28374,-0.74451 -11.54047,-0.83963 -13.33203,-4.86719 -2.30837,-5.18924 -22.13494,-20.3135 -36.26368,-27.66406 -12.54271,-6.52544 -13.59905,-6.0723 -15.32617,6.55664 -0.62902,4.59946 -1.7624,8.97923 -2.51758,9.73437 -3.55641,3.55645 -19.05273,-4.7119 -19.05273,-10.16601 0,-1.03702 -1.17545,-2.51479 -2.61133,-3.2832 -4.832981,-2.58655 -6.056639,2.52476 -6.056639,25.30468 0,21.07251 1.119475,26.66602 5.333989,26.66602 2.54379,0 4.43917,4.02155 3.45703,7.33398 -1.2872,4.34129 -3.21677,6.76562 -7.457035,9.36914 -14.819957,9.09961 -20.922784,24.33205 -23.478515,58.60547 -1.682049,22.55696 -2.428699,25.43123 -7.16211,27.58789 -4.082622,1.86017 -4.211687,3.6589 -0.595703,8.25586 2.321621,2.95148 3.82035,3.51367 9.375,3.51367 4.926644,0 6.827628,0.56398 7.458985,2.21094 1.145383,2.98484 -1.179079,13.65592 -8.910157,40.90625 -7.206911,25.4028 -10.537649,34.06963 -15.25,39.66992 -6.888624,8.18669 -8.24271,40.31646 -2.267578,53.82422 6.655921,15.04682 12.578254,19.30262 28.939453,20.80078 7.058581,0.64635 14.336644,2.41306 21.09961,5.1211 12.49341,5.00257 16.91054,5.14243 25.60352,0.81054 8.39266,-4.18221 13.22222,-9.18666 15.44921,-16.00976 1.20887,-3.7037 2.60096,-5.45708 4.55664,-5.73633 2.92108,-0.41709 5.84766,-5.20388 5.84766,-9.56445 0,-1.37979 0.94087,-3.45064 2.0918,-4.60157 3.22787,-3.22788 6.88252,-0.45711 8.20312,6.22071 0.79038,3.9966 2.06275,6.11379 4.36914,7.26367 4.4772,2.23213 5.13432,4.56861 5.24219,18.65625 0.0736,9.61568 0.57617,12.71876 2.34375,14.48633 3.06288,3.06284 11.62415,6.59854 24.5918,10.15234 10.10338,2.76889 10.97824,3.29341 12.83594,7.71289 1.2495,2.97267 2.41277,12.4566 3.11523,25.41016 1.09913,20.26834 3.46992,37.41365 7.19336,52 3.37323,13.21433 3.91514,20.8307 1.54492,21.74023 -3.36887,1.29276 -27.62346,3.50127 -54.04883,4.92188 -13.48483,0.72493 -25.18491,1.83885 -26,2.47656 -0.81511,0.63772 -3.10148,1.54731 -5.08008,2.01953 -1.97855,0.4722 -7.51689,3.8621 -12.30664,7.5332 -4.78971,3.67115 -10.17487,7.34176 -11.96679,8.15821 -1.79191,0.81644 -3.60949,2.89199 -4.04102,4.61133 -0.43152,1.71928 -3.23115,5.69337 -6.2207,8.83203 l -5.43555,5.70703 -0.004,12.07422 c -0.004,13.25278 1.62535,21.21728 5.33398,26.08398 3.37262,4.42582 5.22259,9.948 6.20117,18.50781 0.46137,4.03566 2.59159,10.72956 4.73828,14.88477 4.17378,8.07874 7.05532,22.0182 11.94727,57.7832 4.26051,31.14884 6.58064,37.18414 16.16601,42.07422 7.79219,3.97528 15.62813,11.57367 19.19336,18.60938 3.67912,7.26036 16.68138,19.7345 26.44727,25.37304 13.7928,7.96363 30.75441,11.31662 38.21094,7.55469 5.28696,-2.66739 6.82767,-11.40574 7.09765,-40.2793 0.22154,-23.69388 0.0498,-25.67784 -2.65039,-30.66601 -5.62707,-10.39519 -19.63697,-20.66602 -28.1875,-20.66602 -7.05466,0 -8.44007,-3.30583 -9.60937,-22.93359 -1.16276,-19.51796 -1.69354,-21.69449 -6.28125,-25.67969 -2.73795,-2.37835 -9.10089,-20.20731 -12.02539,-33.69726 -1.25422,-5.78529 2.76779,-6.19897 65.32226,-6.73829 l 58.33399,-0.5039 0.004,9.77539 c 0.002,7.19174 0.68608,11.01021 2.59375,14.44336 5.66884,10.20192 6.81896,13.77429 7.91602,24.59765 0.93852,9.25927 1.88265,12.37745 5.31445,17.5586 2.29513,3.465 4.20012,7.24865 4.23242,8.40625 0.26154,9.40176 2.80216,22.02363 5.66016,28.11914 4.5417,9.68652 6.28601,23.5657 6.25391,49.74805 -0.0515,42.08371 -6.60895,65.54202 -23.0918,82.60351 -5.30576,5.49203 -7.6957,9.12654 -8.33008,12.66797 -0.94155,5.25601 -3.91545,9.63277 -6.54492,9.63277 -2.23916,0 -4.67383,5.9625 -4.67383,11.4473 0,3.6594 -1.12299,5.7573 -5.24414,9.7969 -3.27296,3.2081 -5.82517,7.2973 -6.78906,10.8769 -2.53447,9.4122 -1.66308,9.6531 31.36719,8.6621 26.13045,-0.7839 55.81138,-3.4327 60.86914,-5.4316 3.28386,-1.2979 3.90938,-4.8162 4.63086,-26.0195 0.79548,-23.37906 2.39678,-28.89008 9.49023,-32.66604 15.21005,-8.09662 22.94551,-52.88955 15.08203,-87.33399 -2.64264,-11.57545 -3.21267,-17.8099 -3.29297,-36 -0.10124,-22.9557 1.25347,-30.89724 5.66016,-33.16796 1.2246,-0.63103 7.51197,-1.55946 13.9707,-2.06446 18.33994,-1.434 32.27429,-4.11688 53.25586,-10.25 l 9,-2.63086 V 780.0693 754.91696 l 6.33399,-0.81445 c 16.23699,-2.08946 49.85326,-4.76954 59.83398,-4.76954 9.19378,0 11.27749,0.39651 12.28516,2.33399 1.39535,2.683 3.6394,15.72725 4.87304,28.33398 1.28388,13.12005 3.3356,24.00293 5.09571,27.03125 0.86864,1.49456 3.67943,4.67069 6.24609,7.05664 2.56667,2.386 5.86536,6.64114 7.33203,9.45703 1.46666,2.81595 4.08274,6.32049 5.8125,7.78711 1.72976,1.46667 5.35528,4.57513 8.05664,6.90625 6.331,5.46336 10.30528,6.38836 16.4375,3.82618 6.88448,-2.87654 11.2977,-2.62888 13.09766,0.73437 2.26156,4.22576 1.8674,20.38076 -0.61914,25.36524 -1.1647,2.33467 -2.11719,5.62439 -2.11719,7.31054 0,1.68616 -0.52452,4.44441 -1.16406,6.12891 -0.63955,1.68451 -1.92209,5.46319 -2.85157,8.39648 -0.92944,2.93333 -3.87155,8.03207 -6.5371,11.33203 -2.66558,3.3 -5.84863,8.19942 -7.07227,10.88672 -1.22364,2.68733 -3.45839,5.27711 -4.9668,5.75586 -1.50841,0.47876 -2.74218,1.62609 -2.74218,2.54883 0,2.58271 -5.30471,6.89258 -12.66602,10.29102 -3.66666,1.69271 -11.16165,6.6348 -16.6543,10.98242 -5.49262,4.34757 -16.29266,12.12409 -24,17.27929 -21.40936,14.3202 -32.45844,22.75339 -43.29687,33.04883 -12.94776,12.29906 -17.56241,19.64846 -19.81446,31.55856 -1.45411,7.6904 -2.60053,10.2533 -6.01562,13.4434 -3.6214,3.3829 -4.21875,4.8633 -4.21875,10.4434 0,3.7266 0.88454,7.7662 2.07422,9.4648 1.90349,2.7176 3.14739,2.9622 15,2.9492 13.34146,-0.015 43.36449,-2.8282 56.25781,-5.2715 15.65124,-2.9659 18.18617,-5.8248 19.95703,-22.5156 1.66827,-15.7238 0.75615,-14.7535 16.43164,-17.4609 5.07628,-0.8768 10.26483,-3.0221 15.14844,-6.2637 7.71002,-5.1177 25.74837,-24.9158 30.55078,-33.53125 2.07839,-3.72859 5.16681,-6.18122 12.57813,-9.98633 5.4024,-2.7737 16.76359,-10.63529 25.24609,-17.4707 8.4825,-6.83544 19.92188,-15.4315 25.42188,-19.10352 12.69939,-8.47861 32.19933,-19.04883 35.14257,-19.04883 3.95156,0 4.94725,-6.3902 6.21875,-39.91015 1.6092,-42.42265 2.65281,-49.33034 11.79102,-78.08985 l 3.8125,-12 9.18359,0.0762 c 9.56754,0.0788 14.71829,2.06421 39.0625,15.05859 1.03323,0.55151 2.94663,2.99383 4.25196,5.42773 1.30531,2.43394 3.63047,5.76394 5.16601,7.39844 2.67212,2.84435 2.73205,3.5953 1.4082,17.50586 -1.53247,16.10303 -4.41042,29.26822 -11.63281,53.20117 -2.6556,8.79996 -4.89847,19.12532 -4.98437,22.94727 -0.12345,5.49165 -0.87963,7.72993 -3.60157,10.66797 -1.89429,2.04472 -4.31659,5.51683 -5.38476,7.71679 -3.63456,7.48572 -5.762,10.66236 -11.16211,16.66797 -2.96729,3.3 -6.81052,8.93099 -8.54102,12.51563 -1.73046,3.5846 -6.3526,9.82889 -10.27148,13.875 -3.91888,4.04607 -7.125,7.81788 -7.125,8.38086 0,2.29519 -7.08032,9.22851 -9.42383,9.22851 -4.86997,0 -22.57617,24.40344 -22.57617,31.11524 0,1.2509 -1.47076,2.9453 -3.26758,3.7636 -4.69288,2.1383 -6.0664,7.578 -6.0664,24.0313 v 14.5137 l 6.33398,-0.7266 c 3.48333,-0.3994 18.54023,-1.9261 33.46094,-3.3926 29.76132,-2.9252 42.76034,-5.3789 49.18359,-9.2851 7.15023,-4.3483 8.78532,-8.2791 9.75391,-23.4532 1.09848,-17.20852 2.42432,-19.4234 15.08984,-25.19524 8.5969,-3.91774 10.09721,-5.18895 14.45313,-12.2461 2.67321,-4.33097 5.30647,-9.65044 5.85156,-11.82226 0.5451,-2.17181 2.68974,-6.29444 4.76562,-9.16016 2.07591,-2.86572 3.77344,-6.11073 3.77344,-7.21094 0,-1.10021 1.47726,-5.0591 3.28125,-8.79882 1.98716,-4.1195 4.35896,-13.36935 6.01953,-23.4668 3.48515,-21.19227 5.82036,-29.21451 10.56446,-36.3125 2.09056,-3.12792 4.24238,-7.18815 4.7832,-9.02149 2.95174,-10.00609 24.36733,-40.09572 35.04297,-49.23632 l 6.30859,-5.40039 -0.19922,-11.01563 c -0.24486,-13.53108 -3.72208,-24.07443 -11.09179,-33.62695 -2.90964,-3.77144 -6.52641,-9.65111 -8.03711,-13.06641 -1.51075,-3.41528 -3.33051,-6.56944 -4.04297,-7.00976 -0.71245,-0.44032 -1.29492,-2.56594 -1.29492,-4.72266 0,-2.15672 -0.55401,-3.92188 -1.23047,-3.92188 -3.05399,0 -4.76423,-10.47164 -4.57422,-28 0.21908,-20.21021 2.60228,-34.46864 7.84765,-46.94726 21.39021,-50.88662 24.27986,-105.16776 7.60352,-142.83008 -4.32397,-9.76535 -3.46061,-10.54695 10.84375,-9.83398 10.28704,0.51273 10.57575,0.62341 15.01172,5.73437 2.48775,2.86631 6.01156,8.25399 7.83008,11.97461 9.67946,19.80376 6.27654,82.23083 -7.33399,134.57031 -7.20594,27.71063 -11.54428,63.73973 -9.32031,77.4043 1.37762,8.46436 6.39956,18.10692 16.64648,31.96875 8.19794,11.08997 13.45636,15.77916 20.3086,18.10742 5.60502,1.90451 45.21633,2.54625 51.34175,0.83203 7.3846,-2.06654 16.7354,-12.98047 11.1211,-12.98047 -1.0477,0 -2.9142,-1.00807 -4.1464,-2.24023 -2.6969,-2.69688 -2.3868,-6.30049 3.5214,-41.0918 2.2415,-13.19992 4.5766,-27.6 5.1895,-32 0.613,-4.39996 2.0406,-11.30069 3.1719,-15.33398 1.1314,-4.03334 3.0423,-12.13338 4.2461,-18 1.2038,-5.86667 3.6285,-14.15688 5.3886,-18.42188 1.7602,-4.26497 3.1993,-9.24499 3.1993,-11.0664 0,-1.82141 0.8358,-4.93186 1.8554,-6.91211 4.1449,-8.04977 9.5064,-53.42968 8.5078,-72.00586 -0.74,-13.76659 -3.7131,-23.14814 -14.0058,-44.19531 -6.2881,-12.85832 -9.0613,-16.88021 -17.5782,-25.5 -8.7483,-8.85438 -12.1797,-11.23602 -25.44526,-17.66016 -21.60818,-10.46422 -27.74448,-12.24737 -42,-12.19727 -9.19432,0.0323 -16.98861,1.23479 -33.33399,5.14258 -23.42863,5.60128 -36.39705,6.55296 -48.66601,3.56641 -4.03333,-0.9818 -16.95653,-5.25994 -28.71875,-9.50586 -28.21406,-10.18464 -40.28737,-12.41 -62.61524,-11.54492 -20.416,0.79101 -34.52419,4.13624 -59.57617,14.13086 -21.21894,8.46539 -25.86195,9.65039 -37.81445,9.65039 -10.46212,0 -19.48618,-2.87954 -23.23243,-7.41602 -1.7495,-2.11858 -1.65353,-2.61708 0.90821,-4.6914 1.57582,-1.27604 5.60825,-2.69475 8.96093,-3.1543 8.66869,-1.18817 15.88497,-5.24717 27.97071,-15.73242 5.80254,-5.03416 11.33187,-9.15235 12.28711,-9.15235 2.66121,0 11.16406,-7.9911 11.16406,-10.49218 0,-1.21823 1.10983,-4.30556 2.4668,-6.86133 1.35697,-2.5558 3.84023,-8.84718 5.51757,-13.98047 1.67739,-5.13334 4.73778,-13.62876 6.80274,-18.87891 4.43036,-11.26416 6.55006,-28.64586 6.53516,-53.5957 -0.0179,-30.00224 -1.99245,-37.09421 -21.94336,-78.80859 -7.55382,-15.7939 -15.52498,-34.11684 -17.71485,-40.7168 -2.18986,-6.59996 -5.27201,-14.09935 -6.84765,-16.66602 -1.57567,-2.56663 -6.13498,-11.38741 -10.13282,-19.59961 -7.09143,-14.56691 -9.79061,-17.73437 -15.10937,-17.73437 -4.80887,0 -16.28455,4.40042 -19.67969,7.54687 -1.85097,1.71544 -4.75414,3.11914 -6.45117,3.11914 -5.02712,0 -21.03948,-8.76296 -27.73633,-15.17968 -7.48346,-7.17045 -8.38082,-10.12882 -10.36328,-34.15235 -0.81698,-9.89996 -2.05346,-18.57091 -2.74805,-19.26758 -0.69458,-0.69662 -1.26367,-2.24584 -1.26367,-3.44335 0,-2.059103 -3.8936,-14.339663 -11.18945,-35.289067 -1.78775,-5.133313 -4.65112,-10.867329 -6.36328,-12.742188 -4.02628,-4.408764 -28.01848,-14.875926 -35.7793,-15.609375 -10.24498,-0.968214 -39.86278,7.801496 -55.33398,16.384766 -15.37354,8.52907 -27.66891,23.912134 -32.17579,40.259766 -1.85012,6.710998 -2.49023,13.562668 -2.49023,26.607418 0,16.20321 0.2326,17.86216 2.99414,21.33399 5.26792,6.62281 8.329,13.49104 11.75977,26.38086 6.91025,25.96276 10.85967,67.29619 7.10156,74.31836 -1.3868,2.59121 -2.21934,2.70354 -13.66602,1.84961 -30.37811,-2.26626 -53.42385,-6.56566 -65.55859,-12.23243 -8.26569,-3.85995 -15.29883,-10.5388 -15.29883,-14.52929 0,-4.51783 -4.4469,-9.27377 -12.28906,-13.13867 -4.15527,-2.04788 -7.94217,-5.06908 -9.23438,-7.36915 -1.67363,-2.97898 -3.5061,-4.12083 -7.77343,-4.84179 -7.18799,-1.21441 -13.13758,-6.47806 -21.76954,-19.25781 -8.30702,-12.2988 -22.26562,-39.07093 -22.26562,-42.70508 0,-1.4565 1.4381,-3.59149 3.19727,-4.74414 7.75595,-5.08192 8.62261,-17.2756 1.98437,-27.939456 C 302.33095,87.020017 279.985,62.86175 256.36986,40.928677 233.23062,19.437605 226.28946,13.917523 224.10033,15.270474 Z M 402.59838,306.24899 c 0.80479,0.058 2.05339,0.5088 3.73437,1.24805 15.09444,6.63811 21.84616,9.02734 32.20703,11.40234 23.182,5.31397 28.05902,6.74483 29.6875,8.70703 0.91517,1.10272 3.05303,2.53376 4.75196,3.17969 1.69892,0.64593 3.43696,2.23301 3.86132,3.52734 0.42436,1.29435 2.50736,5.73706 4.63086,9.87305 2.12352,4.13599 3.86133,8.24137 3.86133,9.12305 0,2.13764 4.74791,8.09503 5.8418,7.33007 0.47422,-0.3316 -0.30592,0.68286 -1.73438,2.25391 -3.0038,3.30366 -8.53369,5.45638 -23.43945,9.12695 -23.42253,5.76786 -26.35681,4.1396 -41.24023,-22.91015 -5.9184,-10.75633 -13.61042,-24.24431 -17.09375,-29.97266 -5.90028,-9.70298 -7.48275,-13.06261 -5.06836,-12.88867 z m 85.26757,121.75195 c 3.74501,0 8.13477,5.11018 8.13477,9.47071 0,1.99941 -1.20891,5.03574 -2.68555,6.74804 -1.47664,1.71229 -3.42729,4.10322 -4.33398,5.3125 -2.4948,3.3274 -6.70168,4.04756 -10.0293,1.7168 -2.94331,-2.06157 -8.28515,-11.56237 -8.28515,-14.73633 0,-1.94132 13.27719,-8.51172 17.19921,-8.51172 z m -287.22656,7.77344 c 2.18728,0.0714 4.02204,1.32941 5.60938,3.75195 2.79283,4.26247 4.09694,25.8173 1.90429,31.47461 -0.78161,2.01667 -2.44381,3.66602 -3.69531,3.66602 -2.66844,0 -23.125,-20.01587 -23.125,-22.62695 0,-0.97825 3.20911,-4.98843 7.13086,-8.91016 5.02982,-5.02982 8.979,-7.45978 12.17578,-7.35547 z m 244.33008,13.70703 c 2.21816,0.009 4.37797,2.01285 6.1875,5.86914 1.37184,2.92352 4.52266,7.56823 7.00195,10.32031 5.22244,5.79706 5.13751,5.50898 2.41211,8.23438 -4.02905,4.02908 -6.55233,2.62889 -15.05859,-8.35742 -5.74145,-7.41535 -6.86957,-12.09485 -3.57617,-14.82813 1.00565,-0.83462 2.02495,-1.2423 3.0332,-1.23828 z"
       transform="translate(-52.051501,-15.079068)" />
    <g
       id="layer3"
       inkscape:label="01"
       style="display:inline;fill:#916f6f">
      <path
         style="fill:#916f6f;stroke-width:1.33333"
         d="m 217.74046,905.66667 c 3.50555,-8.16966 4.92303,-14.96847 5.80651,-27.85056 0.74518,-10.86574 0.51616,-12.84378 -2.11696,-18.28307 -3.47155,-7.17125 -7.98875,-10.23172 -20.76335,-14.06748 -8.39897,-2.52192 -9.46681,-2.59243 -10.66667,-0.70433 -0.73333,1.15397 -4.50356,6.98089 -8.37826,12.9487 -10.68086,16.45059 -10.80134,15.47528 3.61812,29.29055 13.50248,12.93671 26.59854,23.66404 28.89098,23.66535 0.80528,4.6e-4 2.42963,-2.24916 3.60963,-4.99916 z"
         id="path3232"
         transform="translate(-52.051501,-15.079068)" />
      <path
         style="fill:#916f6f;stroke-width:1.33333"
         d="m 349.33332,1023.8458 c 12.61832,-2.8453 16.23304,-8.5773 16.49995,-26.1644 0.13093,-8.62912 -0.26224,-11.1578 -1.83328,-11.78968 -1.1,-0.44241 -9.2,-1.12651 -18,-1.5202 l -16,-0.7158 -3.42791,5.17213 c -1.88534,2.84468 -5.34456,7.9728 -7.68712,11.39585 -4.6785,6.8363 -8.2183,15.7028 -8.2183,20.5852 0,3.5214 1.99758,4.2851 12.66666,4.8427 9.15891,0.4787 18.85596,-0.1948 26,-1.8058 z"
         id="path3220"
         transform="translate(-52.051501,-15.079068)" />
      <path
         style="fill:#916f6f;stroke-width:1.33333"
         d="m 763.99998,1030.6858 c 19.57426,-4.0192 21.40853,-6.1725 23.16566,-27.1957 l 0.76699,-9.17666 -6.29967,1.15601 c -3.46481,0.63582 -13.27844,1.1653 -21.80808,1.17662 l -15.50841,0.0205 -8.16068,9.72463 c -8.17529,9.742 -13.48915,18.4586 -13.48915,22.1271 0,1.0768 1.01928,2.9772 2.26507,4.223 1.90509,1.905 4.07707,2.1501 13.66667,1.542 6.27088,-0.3976 17.7016,-2.0165 25.4016,-3.5975 z"
         id="path3218"
         transform="translate(-52.051501,-15.079068)" />
      <path
         style="fill:#916f6f;stroke-width:1.33333"
         d="m 529.28841,1041.2658 c 15.07255,-3.5477 18.80332,-6.5323 21.32976,-17.0637 0.96204,-4.0102 1.19665,-7.5848 0.54067,-8.2377 -0.63738,-0.6343 -7.07586,-2.6534 -14.30774,-4.4869 -7.23188,-1.8335 -14.13188,-4.1951 -15.33333,-5.2479 -5.42977,-4.758 -7.57832,-4.0686 -14.01815,4.4983 -8.63301,11.4844 -12.37109,25.3277 -8.69432,32.1978 1.31407,2.4554 2.35108,2.6733 9.66667,2.0307 4.50707,-0.3958 13.87447,-2.0566 20.81644,-3.6906 z"
         id="path3216"
         transform="translate(-52.051501,-15.079068)" />
    </g>
    <g
       id="layer4"
       inkscape:label="02"
       style="display:inline;fill:#803300">
      <path
         id="path3234"
         style="fill:#803300;stroke-width:1.33333"
         d="m 409.38353,517.96383 c -2.63511,-0.12871 -5.72942,1.98471 -10.89258,6.7793 -10.83888,10.06519 -23.67435,10.8576 -30.31836,1.87109 -5.48995,-7.42556 -12.10859,-2.82279 -12.15234,8.45118 -0.0264,6.7915 -3.13966,12.41066 -8.37695,15.12109 -5.51373,2.85349 -21.847,4.4723 -29.91602,2.96484 -7.55129,-1.41073 -11.37207,-4.75989 -14.35937,-12.58203 -1.23989,-3.2466 -2.84029,-5.90234 -3.55469,-5.90234 -0.7144,0 -3.33276,4.46523 -5.82031,9.92383 -6.59324,14.46789 -7.04173,14.65558 -32.17969,13.50586 l -20.74219,-0.94727 0.65039,35.0918 c 0.69152,37.3273 2.09728,47.85237 7.98047,59.75976 4.87399,9.8648 4.39024,10.04968 41.63086,-15.94922 17.02232,-11.88383 18.69859,-9.39996 4.51563,6.69532 -11.79977,13.39077 -20.41269,20.27426 -29.72852,23.75976 -9.33317,3.49199 -29.15954,6.09791 -72.13672,9.48047 -19.0756,1.50136 -39.20454,3.80798 -44.73242,5.125 -27.70686,6.60112 -33.4407,18.33828 -23.23047,47.55469 5.79266,16.57559 10.30426,36.73506 14.01172,62.60156 4.66388,32.53937 10.25201,50.9236 20.17969,66.39453 4.54665,7.08537 5.8462,7.6917 7.21875,3.36719 0.51857,-1.63388 3.18518,-5.98518 5.92578,-9.66797 9.46606,-12.72039 9.73043,-13.97351 6.70508,-31.66992 -1.45876,-8.53284 -5.33612,-27.70432 -8.61719,-42.60352 -3.28107,-14.89921 -6.36673,-30.74935 -6.85547,-35.22265 -0.78216,-7.15875 -0.5897,-8.25683 1.5957,-9.16992 4.21351,-1.76044 55.35643,-2.77706 91.81641,-1.82422 22.30681,0.58296 42.61302,1.91956 56.95508,3.74609 l 22.28906,2.83789 18.18555,-18.69726 c 17.62867,-18.12292 28.98402,-27.48412 31.4707,-25.94727 1.87256,1.15731 -0.0317,5.63268 -7.08398,16.6543 -3.56608,5.57324 -6.48438,11.13897 -6.48438,12.36718 0,1.22823 1.6513,2.87479 3.66797,3.65821 4.49988,1.74805 36.77745,7.84168 37.5332,7.08593 0.67247,-0.67245 -1.92266,-46.7158 -4.65429,-82.57617 -2.21396,-29.06433 -4.60461,-51.09086 -7.85743,-72.38867 -2.56819,-16.81522 -1.64542,-21.19216 6.58008,-31.18359 9.61476,-11.67896 11.33092,-19.95034 5.375,-25.90625 -1.59719,-1.59719 -3.01268,-2.48137 -4.59375,-2.5586 z M 160.36595,693.4736 c 0.82967,0.0215 0.9668,0.87611 0.9668,2.73437 0,7.4304 -15.15182,19.79297 -24.25976,19.79297 -2.78976,0 -5.07227,-0.2361 -5.07227,-0.52343 0,-0.92199 21.89255,-19.04544 24.91211,-20.62305 1.7447,-0.91156 2.80783,-1.39761 3.45312,-1.38086 z"
         transform="translate(-52.051501,-15.079068)" />
      <path
         id="path3226"
         style="fill:#803300;stroke-width:1.33333"
         d="m 778.00658,465.95602 c -10.80135,0.23869 -22.08928,3.52479 -37.97461,9.61524 -10.65141,4.08375 -27.7646,10.10342 -38.03125,13.375 -34.0967,10.86525 -33.2184,10.10497 -35.16406,30.38671 -2.10493,21.94214 -2.69963,30.16503 -4.86914,67.33399 -3.2802,56.19731 -5.2042,68.31288 -11.83789,74.54492 -2.27507,2.13731 -6.94945,3.61859 -17.30664,5.48633 -21.82914,3.93653 -23.06063,5.1559 -20.9004,20.6875 3.06014,22.00149 8.50778,25.77699 27.09375,18.78125 12.76291,-4.80395 21.76134,-9.70602 24.72266,-13.4707 3.68154,-4.68033 5.1897,-12.36625 7.58984,-38.69532 2.52533,-27.70242 5.44239,-41.6748 8.13868,-38.97851 0.44032,0.44032 1.31729,10.89076 1.94922,23.22265 1.68791,32.93882 6.61634,50.14959 20.02929,69.9375 12.98358,19.15444 33.00621,35.20936 67.22071,53.90235 11.73332,6.41046 24.56949,13.71138 28.52539,16.22461 9.80522,6.22939 21.1746,17.21957 24.5,23.68164 4.11963,8.00542 4.56373,22.37643 1.19921,38.87304 -6.92901,33.97375 -22.09336,68.88338 -42.52343,97.89454 -6.491,9.21735 -14.40171,22.11672 -17.58008,28.66601 -3.17838,6.5493 -7.01309,13.65261 -8.52149,15.7832 l -2.74218,3.87305 15.90429,-0.95898 c 8.74773,-0.52779 20.40431,-1.38673 25.9043,-1.90821 5.5,-0.52148 11.28002,-1.66727 12.84375,-2.54492 5.5642,-3.12292 15.26882,-15.48805 20.60352,-26.2539 4.74121,-9.56819 5.56234,-12.60835 6.58593,-24.39258 2.27589,-26.20152 8.7825,-42.26594 30.71094,-75.8086 19.47924,-29.79627 27.11017,-44.75497 27.19141,-53.30468 0.06,-6.31638 -0.70177,-7.95144 -10.88281,-23.34961 -6.02156,-9.10722 -12.6103,-20.75926 -14.64063,-25.89258 -3.43252,-8.67853 -3.68648,-10.64297 -3.61328,-28 0.078,-18.48782 0.16447,-18.99947 8.86328,-53.33399 12.75347,-50.33835 15.80014,-66.33676 16.63086,-87.33203 0.55976,-14.14697 0.24213,-19.85646 -1.48438,-26.66797 -4.71035,-18.5834 -21.14637,-47.04145 -34.95312,-60.52148 -6.10998,-5.9654 -11.67983,-9.53532 -25.18359,-16.14258 -21.02607,-10.28783 -34.11061,-15.01978 -47.99805,-14.71289 z m 92.19531,323.92578 c 2.6535,0.12163 8.22145,5.9741 9.14258,10.16797 0.93563,4.25988 -2.12734,12.48298 -6.30664,16.93164 -3.85633,4.10488 -4.76694,3.82132 -5.82422,-1.81445 -1.15851,-6.17536 0.23619,-23.15026 2.05078,-24.96485 0.23804,-0.23803 0.55843,-0.33768 0.9375,-0.32031 z"
         transform="translate(-52.051501,-15.079068)" />
      <path
         id="path3222"
         style="fill:#803300;stroke-width:1.33333"
         d="m 679.09056,697.33297 c -4.74511,0 -7.70154,1.0244 -12.95312,4.49024 -3.74257,2.46994 -8.30339,4.95103 -10.13672,5.51172 -1.83333,0.5607 -5.58579,3.03845 -8.33789,5.50781 -2.97102,2.66579 -6.4141,4.49023 -8.47461,4.49023 -7.99307,0 -17.24421,12.59929 -16.07031,21.88477 0.37888,2.99692 1.64288,15.03049 2.81054,26.74219 2.7572,27.65465 7.21763,49.3231 14.69922,71.40625 7.4936,22.11854 7.67138,27.21986 1.47266,42.26758 -11.58718,28.12841 -29.48594,46.99091 -78.09961,82.30664 -9.89999,7.19189 -23.2139,17.26683 -29.58594,22.38867 l -11.58594,9.3125 3.58594,2.93164 c 1.97204,1.61262 8.91438,4.25869 15.42774,5.87889 6.51334,1.6201 12.81335,3.5151 14,4.211 1.18664,0.696 3.0582,0.9296 4.1582,0.5195 1.1,-0.4101 4.99935,-1.8875 8.66602,-3.2832 8.49852,-3.235 22.69621,-13.94073 43.53125,-32.82619 23.05096,-20.89402 38.66914,-32.8729 71.04882,-54.49414 l 28.08594,-18.75586 1.00781,-13.24414 c 3.3548,-44.1319 7.11468,-72.23604 13.54493,-101.2461 1.13783,-5.13332 2.07906,-11.47923 2.09179,-14.10351 0.0309,-6.3731 -5.86352,-15.07678 -17.32617,-25.58008 -7.18962,-6.58788 -10.48687,-11.00481 -15.86328,-21.25195 -3.7329,-7.11471 -6.78711,-14.50505 -6.78711,-16.42188 0,-6.53027 -2.1791,-8.64258 -8.91016,-8.64258 z m 21.93164,135.33399 0.1543,19.60156 c 0.19889,25.00716 -1.07456,31.05699 -8.25195,39.21094 -5.06277,5.7516 -15.89313,13.85351 -18.51953,13.85351 -0.58976,0 -1.07227,-0.84241 -1.07227,-1.87304 0,-1.03061 2.191,-4.48191 4.86914,-7.66797 9.15052,-10.88592 13.96788,-23.44368 20.88672,-54.45899 z"
         transform="translate(-52.051501,-15.079068)" />
      <path
         style="fill:#803300;stroke-width:1.33333"
         d="m 381.89843,953.2594 c 5.76706,-19.41983 6.10861,-65.30703 0.84258,-113.20401 -1.56886,-14.26955 -2.9774,-26.06534 -3.13009,-26.21288 -0.85749,-0.82866 -33.06062,-2.89576 -35.43585,-2.27463 -3.79444,0.99227 -3.71585,5.51285 0.41579,23.9196 11.19774,49.8868 11.90161,62.70976 4.94937,90.16808 -2.3658,9.34389 -6.68019,23.88745 -9.58752,32.31904 -2.90733,8.43157 -5.28605,15.63657 -5.28605,16.01111 0,0.37453 5.25,0.71553 11.66666,0.7578 6.41667,0.0423 14.06667,0.5103 17,1.0401 l 5.33334,0.96327 5.67954,-8.59073 c 3.12375,-4.72491 6.52224,-11.42844 7.55223,-14.89675 z"
         id="path3230"
         transform="translate(-52.051501,-15.079068)" />
      <path
         style="fill:#803300;stroke-width:1.33333"
         d="m 370.31328,766.21529 c 17.77231,-11.85174 32.32231,-21.92238 32.33333,-22.37921 0.0296,-1.22641 -22.71448,-5.16941 -29.81825,-5.16941 -4.26617,0 -8.5208,1.25704 -14.0313,4.14557 -6.2954,3.29996 -10.23607,4.32655 -19.31896,5.0328 -6.27572,0.48799 -12.10747,1.58432 -12.95946,2.43631 -1.17654,1.17654 -1.0399,4.37514 0.56816,13.30053 1.1645,6.46329 2.44168,14.65121 2.8382,18.19536 0.92919,8.30509 1.5695,9.22927 5.15591,7.44167 1.60549,-0.80024 17.46005,-11.15187 35.23237,-23.00362 z"
         id="path3246"
         transform="translate(-52.051501,-15.079068)" />
      <path
         style="fill:#803300;stroke-width:1.33333"
         d="m 319.33332,498.09415 c 19.57394,-5.32995 40.14702,-18.09679 57.78712,-35.86039 l 11.12047,-11.19831 -13.23943,-15.85105 c -14.28316,-17.10069 -22.12113,-24.863 -33.78334,-33.45719 -10.54467,-7.77065 -17.97794,-16.73005 -23.52,-28.3489 -7.87983,-16.51995 -11.23262,-20.55635 -21.23618,-25.56608 C 285.6319,342.38856 278.25203,335.37337 265.80139,318.66667 260.60949,311.7 254.43889,304.2 252.08894,302 l -4.27263,-4 -4.96482,5.33333 c -6.00594,6.45172 -16.83503,23.8001 -31.14752,49.89884 -15.02728,27.40215 -25.45626,45.43316 -34.76194,60.10116 C 161.84069,437.13668 158.73918,444 163.08387,444 c 0.9628,0 3.5128,-1.87023 5.66667,-4.15607 7.00068,-7.42961 20.51993,-16.89768 34.05556,-23.85045 14.11428,-7.25001 21.67384,-13.62537 24.67599,-20.81053 2.62236,-6.2762 2.29444,-17.5315 -0.79823,-27.3975 -2.93612,-9.36658 -3.43724,-16.4958 -1.25433,-17.8449 2.51278,-1.55299 12.77452,10.67252 15.89249,18.93382 4.02716,10.67026 3.30265,24.10299 -1.77725,32.95128 -1.94963,3.3959 -5.19478,9.02435 -7.21144,12.50768 -3.63804,6.2839 -3.66554,6.51547 -3.52131,29.66667 0.1588,25.48983 2.02039,41.08075 5.64944,47.31437 4.8336,8.30266 14.27359,10.02235 51.53853,9.38884 18.13489,-0.3083 27.60652,-1.04966 33.33333,-2.60906 z"
         id="path3282"
         transform="translate(-52.051501,-15.079068)" />
      <path
         id="path3306"
         style="fill:#803300;stroke-width:1.33333"
         d="m 142.93431,313.66696 c -3.88456,-0.031 -6.03033,3.11222 -8.5332,8.98047 -3.11731,7.30887 -8.63563,13.28971 -18.5,20.04492 -10.96933,7.51189 -15.56337,13.31514 -16.554687,20.91797 -1.415831,10.85864 -3.559309,19.22513 -8.285156,32.33203 -2.500323,6.93449 -4.228417,13.86778 -3.841797,15.4082 0.567102,2.25952 3.73742,3.73556 16.4082,7.63672 21.28624,6.55378 22.91138,6.48561 31.2461,-1.31055 3.71827,-3.47799 10.58933,-12.12957 15.26757,-19.22461 8.85811,-13.43422 32.48961,-55.44917 32.51172,-57.80273 0.007,-0.74294 -5.23568,-5.31889 -11.65234,-10.16797 -15.20136,-11.4877 -23.07197,-16.77457 -28.06641,-16.81445 z m 9.93946,17 c 4.39485,0 3.887,1.79518 -1.03321,3.65234 -4.10506,1.5495 -4.14575,1.65407 -3.06836,7.95899 2.31836,13.56686 0.16304,19.72619 -8.72656,24.93164 -5.70347,3.33977 -22.29939,4.50418 -25.86328,1.81445 -2.41675,-1.82397 -2.41094,-2.01684 0.19336,-7.11719 5.26836,-10.31779 31.0522,-31.24023 38.49805,-31.24023 z"
         transform="translate(-52.051501,-15.079068)" />
      <path
         id="path3272"
         style="fill:#803300;stroke-width:1.33333"
         d="m 85.805407,445.47751 c -8.076758,0.31323 -13.464018,4.15048 -17.783203,11.9082 -2.755839,4.94978 -3.312028,7.73928 -3.310547,16.61523 0.0016,9.19882 0.573772,11.858 4.160157,19.33203 2.28726,4.76667 5.078966,9.86732 6.203125,11.33399 2.026676,2.64416 2.073146,2.63918 5.636718,-0.66602 1.976646,-1.83333 6.456846,-7.53463 9.955078,-12.66797 10.240215,-15.02655 14.671235,-18 26.820315,-18 7.33953,0 13.69765,2.65306 15.80664,6.59375 2.0971,3.91846 1.63752,12.42548 -0.8711,16.10938 -1.2347,1.81318 -5.34987,6.68976 -9.14453,10.83594 -14.02423,15.32334 -9.01127,18.35637 5.49414,3.32422 10.72021,-11.1095 16.56055,-21.47198 16.56055,-29.38282 0,-4.69254 -0.8414,-6.13583 -7.03906,-12.07226 -9.0735,-8.69107 -21.61592,-15.96104 -34.69531,-20.10938 -7.132807,-2.26228 -12.946918,-3.34224 -17.792973,-3.15429 z m -8.076172,19.98242 c 1.983596,0.0303 4.217013,2.39007 5.169922,5.95312 1.506312,5.63232 -1.015762,13.91992 -4.236328,13.91992 -1.412598,0 -3.25916,-1.28728 -4.101562,-2.86132 -1.77735,-3.321 -0.906088,-13.99432 1.324218,-16.22461 0.549229,-0.54923 1.182552,-0.79722 1.84375,-0.78711 z"
         transform="translate(-52.051501,-15.079068)" />
      <path
         style="fill:#803300;stroke-width:1.33333"
         d="m 511.33332,740.44904 c 2.93333,-0.31936 7.43333,-1.14769 10,-1.84075 2.56666,-0.69304 9.46861,-1.26344 15.33766,-1.26752 10.04711,-0.007 10.88476,-0.23393 14.32726,-3.88125 3.63996,-3.85655 3.65049,-3.92339 2.3629,-15 -0.71133,-6.1194 -3.29362,-18.60875 -5.73842,-27.75411 l -4.44508,-16.62793 -4.58883,-1.02396 c -6.80161,-1.51773 -28.17932,0.15352 -30.69381,2.39956 -1.15775,1.03413 -2.80303,1.88025 -3.65618,1.88025 -1.5111,0 -3.73384,3.72624 -9.5441,16 -11.93963,25.22156 -14.34658,34.68807 -10.93318,43 1.16518,2.8373 2.40022,3.66667 5.46008,3.66667 2.17488,0 4.36508,0.66464 4.86714,1.47696 0.59262,0.95889 2.84178,1.13948 6.41201,0.51485 3.02457,-0.52917 7.89921,-1.22341 10.83255,-1.54277 z"
         id="path3256"
         transform="translate(-52.051501,-15.079068)" />
      <path
         style="fill:#803300;stroke-width:1.33333"
         d="m 206.05481,299.37535 c 2.11117,-5.528 2.12166,-6.24074 0.13654,-9.27042 -3.63082,-5.54134 -19.4939,-15.43826 -24.7449,-15.43826 -5.24224,0 -7.2605,9.9578 -3.49435,17.24072 4.05324,7.8381 18.94935,17.13114 23.53025,14.67952 1.257,-0.67272 3.31462,-3.91792 4.57246,-7.21156 z"
         id="path3338"
         transform="translate(-52.051501,-15.079068)" />
      <path
         style="fill:#803300;stroke-width:1.33333"
         d="m 165.47695,277.66667 c 0.77602,-2.01667 1.42272,-9.66667 1.43711,-17 0.0347,-17.63703 -3.11721,-27.69808 -12.56748,-40.11699 l -7.01325,-9.21635 -0.39121,20 c -0.4053,20.7199 1.09992,34.302 4.53834,40.9512 4.80811,9.29786 11.49956,11.87095 13.99649,5.38214 z"
         id="path3348"
         transform="translate(-52.051501,-15.079068)" />
      <path
         style="fill:#803300;stroke-width:1.33333"
         d="m 128.57142,248.57143 c 4.85056,-4.85055 0.0929,-16.13792 -9.23121,-21.90051 -3.82363,-2.36313 -5.13117,-2.61765 -6.71119,-1.30635 -4.56772,3.79088 -0.29848,18.58275 6.57267,22.7727 5.03338,3.0693 6.65926,3.14464 9.36973,0.43416 z"
         id="path3356"
         transform="translate(-52.051501,-15.079068)" />
    </g>
    <path
       style="fill:#ff0000;stroke-width:1.33333"
       d="M 105.53522,506.09323 C 118.21406,495.65531 129.40778,479.76017 121,484.13319 116.58836,486.42775 100.28888,499.8788 97.270988,503.71543 94.24715,507.55961 93.841144,512 96.513489,512 c 1.015755,0 5.075531,-2.65805 9.021731,-5.90677 z"
       id="path3280"
       transform="translate(-52.051501,-15.079068)" />
    <path
       style="fill:#ffff00;stroke-width:1.33333"
       d="m 139.9859,358.01697 c 2.8795,-3.46957 0.55606,-6.45869 -4.27008,-5.49346 -5.32914,1.06582 -10.71939,4.51936 -9.67962,6.20173 1.27432,2.06189 12.10714,1.51188 13.9497,-0.70827 z"
       id="path3310"
       transform="translate(-52.051501,-15.079068)" />
    <g
       id="layer8"
       inkscape:label="03"
       style="display:inline;fill:#0000ff">
      <path
         style="fill:#0000ff;stroke-width:1.33333"
         d="m 271.45719,547.18519 c 2.65939,-1.26196 6.0428,-4.65022 8.20151,-8.21322 8.43254,-13.91813 15.60345,-17.96573 27.41265,-15.47301 5.04472,1.06484 5.85428,1.83993 9.19037,8.79895 4.17584,8.71072 7.45652,10.34089 15.78752,7.84486 7.17743,-2.15041 10.61742,-6.97372 10.61742,-14.88694 0,-7.6108 4.21761,-13.5741 11.23948,-15.89152 3.86005,-1.27394 6.20272,-0.91448 16.7996,2.57766 14.33878,4.72527 18.50081,5.00114 22.80986,1.51187 2.90201,-2.34991 3.14463,-3.5182 3.14771,-15.15793 l 0.004,-12.61179 7.66666,-15.18684 c 4.21667,-8.35276 7.66667,-15.93168 7.66667,-16.84205 0,-4.17951 -5.33209,-0.44999 -21.04189,14.71769 -23.99805,23.16992 -41.08765,33.13883 -69.55735,40.57503 -17.3744,4.53813 -47.43702,5.69566 -64.48341,2.48286 -26.72428,-5.03682 -51.90054,-18.04753 -82.168,-42.46316 -13.64438,-11.00642 -20.74431,-15.41713 -22.3049,-13.85654 -1.94193,1.94193 3.95379,10.022 19.22437,26.34693 20.37603,21.78355 22.9972,25.97101 22.9972,36.74027 0,9.5935 1.67047,14.15126 6.04455,16.4922 4.04929,2.16712 8.23486,0.9601 13.95545,-4.02439 8.8952,-7.75061 27.21056,-10.20715 33.52131,-4.49601 1.31057,1.18605 3.41377,4.93298 4.67377,8.3265 2.91055,7.83886 5.01996,10.97408 8.79343,13.06975 3.92394,2.17923 4.44946,2.15879 9.80202,-0.38117 z"
         id="path3270"
         transform="translate(-52.051501,-15.079068)" />
      <path
         style="fill:#0000ff;stroke-width:1.33333"
         d="m 120,439.43011 c 0,-2.69288 -6.1485,-7.19638 -11.84073,-8.67278 -12.517649,-3.24674 -24.159273,-3.3008 -24.159273,-0.11217 0,2.04528 4.80429,4.04413 17.785123,7.3996 C 116.13969,441.75532 120,442.04892 120,439.43011 Z"
         id="path3300"
         transform="translate(-52.051501,-15.079068)" />
      <path
         style="fill:#0000ff;stroke-width:1.33333"
         d="m 153.5213,426.33333 c 7.62491,-9.55961 25.52585,-37.04952 36.40015,-55.89854 8.45456,-14.65476 10.02793,-19.56486 6.63157,-20.69551 -2.23836,-0.74516 -8.4734,6.19063 -12.21137,13.58379 -1.85671,3.67232 -9.64034,16.83753 -17.29695,29.25604 -13.78965,22.36589 -21.71137,36.7353 -21.71137,39.38286 0,3.00846 2.87557,1.0317 8.18797,-5.62864 z"
         id="path3304"
         transform="translate(-52.051501,-15.079068)" />
      <path
         style="fill:#0000ff;stroke-width:1.33333"
         d="m 191.99999,322.63688 c 0,-3.83381 -9.53404,-13.67912 -19.95622,-20.60779 C 156.36002,291.60256 140,285.09703 140,289.28693 c 0,4.773 24.28794,24.26814 39.29571,31.54139 10.78254,5.22557 12.70428,5.49915 12.70428,1.80856 z"
         id="path3334"
         transform="translate(-52.051501,-15.079068)" />
      <path
         style="fill:#0000ff;stroke-width:1.33333"
         d="M 222.44174,308.22016 C 226.52865,300.55233 228.05769,292 225.34169,292 c -2.22407,0 -9.06208,10.47008 -11.36372,17.39964 -4.12614,12.42263 1.64238,11.61875 8.46377,-1.17948 z"
         id="path3336"
         transform="translate(-52.051501,-15.079068)" />
      <path
         style="fill:#0000ff;stroke-width:1.33333"
         d="m 206.54407,339.46381 c 4.11795,-4.38334 3.35207,-9.32228 -1.53281,-9.88462 -4.36792,-0.50283 -7.19469,4.18558 -5.82175,9.65582 1.0764,4.28876 3.47047,4.36324 7.35456,0.2288 z"
         id="path3326"
         transform="translate(-52.051501,-15.079068)" />
      <path
         style="fill:#0000ff;stroke-width:1.33333"
         d="m 137.2725,451.10783 c 3.12266,-3.96982 2.9765,-6.22076 -0.44705,-6.8846 -3.1538,-0.61152 -6.15879,2.17829 -6.15879,5.71781 0,5.71412 2.65941,6.18385 6.60584,1.16679 z"
         id="path3294"
         transform="translate(-52.051501,-15.079068)" />
      <path
         style="fill:#0000ff;stroke-width:1.33333"
         d="m 442.26707,800.81529 c 0.58644,-1.01825 2.26625,-2.07338 3.73292,-2.34473 3.49265,-0.64617 4.15666,-6.33249 1.41433,-12.11156 -4.43937,-9.35528 -4.83416,-14.68141 -5.56105,-75.02567 -0.68583,-56.93506 -1.23062,-67.75984 -4.49595,-89.33333 -0.66597,-4.4 -1.63247,-12.06937 -2.14776,-17.04305 -0.51529,-4.9737 -1.44824,-9.3591 -2.07323,-9.74536 -0.625,-0.38627 -1.13634,-2.99343 -1.13634,-5.79368 0,-6.91819 -2.19558,-8.44834 -10.20066,-7.1091 l -6.46601,1.08176 -0.39608,15.30471 c -0.21784,8.4176 0.19208,17.70472 0.91093,20.63805 0.71886,2.93334 2.28296,13.43334 3.47579,23.33334 1.19283,9.9 2.80024,21.9 3.57204,26.66666 1.41361,8.73051 1.50509,10.15487 1.19884,18.66667 -0.0924,2.56667 -0.14957,14.23001 -0.1272,25.91855 0.0381,19.88545 0.22517,21.44821 2.90927,24.30529 2.76185,2.93987 2.83256,3.76093 1.90128,22.08145 -1.96244,38.60586 -2.06674,37.35894 3.37497,40.35123 4.27468,2.35056 8.81055,2.42177 10.11387,0.15877 z"
         id="path3240"
         transform="translate(-52.051501,-15.079068)" />
      <path
         style="fill:#0000ff;stroke-width:1.33333"
         d="m 451.93585,495.74379 c 0.0352,-0.50759 -6.68057,-6.40379 -14.9241,-13.10266 l -14.98826,-12.17977 -1.11394,5.10265 c -2.64356,12.10935 0.74901,29.23324 7.9833,40.29552 l 2.08802,3.19287 10.44542,-11.19287 c 5.74498,-6.15608 10.47428,-11.60816 10.50956,-12.11574 z"
         id="path3278"
         transform="translate(-52.051501,-15.079068)" />
      <path
         style="fill:#0000ff;stroke-width:1.33333"
         d="m 538.0738,650.49909 c 1.94889,-1.95022 1.96546,-2.55186 0.16517,-6 -4.48903,-8.59798 -16.16319,-16.48664 -24.40907,-16.4941 -7.64568,-0.007 -8.98253,2.06401 -7.81669,12.10893 1.41636,12.20348 3.33921,13.58843 18.06852,13.01397 8.67559,-0.33836 12.40301,-1.03865 13.99207,-2.6288 z"
         id="path3258"
         transform="translate(-52.051501,-15.079068)" />
      <path
         style="fill:#0000ff;stroke-width:1.33333"
         d="m 638.66665,646.23752 c 0,-2.24011 9.05114,-115.30759 9.94532,-124.23752 0.6262,-6.25371 -0.028,-5.2626 -10.56183,16 -21.15427,42.70017 -34.58517,80.96723 -33.78427,96.25743 0.3679,7.02356 0.77248,7.90118 4.93128,10.69693 3.91506,2.63189 6.22447,3.04564 17,3.04564 9.44822,0 12.4695,-0.42704 12.4695,-1.76248 z"
         id="path3260"
         transform="translate(-52.051501,-15.079068)" />
    </g>
    <g
       id="layer5"
       inkscape:label="04"
       style="display:inline;fill:#d45500">
      <path
         style="fill:#d45500;stroke-width:1.33333"
         d="m 985.99165,703.68847 c 1.18737,-9.33802 3.96561,-25.53802 6.17385,-36 2.20826,-10.46199 5.4634,-25.9218 7.23366,-34.35514 11.71514,-55.80977 5.71244,-94.4764 -18.06586,-116.37078 -16.11032,-14.83394 -53.33333,-25.7965 -53.33333,-15.70722 0,3.01526 4.97825,4.80084 16.66667,5.97796 17.90882,1.80356 32.12058,13.10914 42.0277,33.43338 7.72279,15.84312 9.81876,26.06713 9.70355,47.33333 -0.1164,21.47839 -2.92141,38.63316 -12.35473,75.5574 -7.76331,30.38747 -10.02738,48.28433 -8.9114,70.4426 0.71262,14.1496 3.46812,29.46743 5.99626,33.33333 0.47958,0.73334 1.28434,-9.46666 1.78835,-22.66666 0.50403,-13.2 1.88789,-31.64019 3.07528,-40.9782 z"
         id="path3254"
         transform="translate(-52.051501,-15.079068)" />
      <path
         style="fill:#d45500;stroke-width:1.33333"
         d="m 999.21509,760.33333 c 1.88821,-30.78617 5.46491,-52.4591 16.11821,-97.66666 11.8555,-50.30924 13.1218,-58.34782 13.2326,-84 0.097,-22.45698 -0.037,-23.67691 -3.5618,-32.48119 -4.9455,-12.35213 -14.0175,-25.66389 -25.48777,-37.39931 -27.3438,-27.9759 -49.70976,-31.9403 -94.84969,-16.81229 l -8,2.68108 12.66666,-0.69879 c 6.96667,-0.38433 19.26667,-1.0605 27.33334,-1.50261 9.21336,-0.50496 17.43522,-0.22484 22.1127,0.75336 17.36927,3.63245 41.01494,23.39136 49.61526,41.45975 7.347,15.43532 9.4459,28.52412 8.5456,53.29148 -0.8922,24.54672 -3.4903,40.72424 -14.1395,88.04185 -9.94324,44.18071 -12.62936,61.29003 -11.81545,75.25853 0.59107,10.144 4.033,22.0748 6.3684,22.0748 0.58527,0 1.42292,-5.85 1.86144,-13 z"
         id="path3252"
         transform="translate(-52.051501,-15.079068)" />
      <path
         style="fill:#d45500;stroke-width:1.33333"
         d="M 968.8224,765.62536 C 959.76385,742.45773 959.62552,741.7706 960.4427,724 c 0.79108,-17.20305 3.03583,-29.39032 12.77035,-69.33333 7.85172,-32.2174 10.86051,-52.34715 10.86148,-72.66667 10e-4,-28.21889 -4.07404,-39.35763 -20.48895,-56 l -10.52086,-10.66667 7.50989,10.92966 c 22.83296,33.23037 23.48593,57.654 3.45073,129.07034 -16.10052,57.39098 -18.21414,81.94796 -8.72529,101.3739 4.54233,9.29921 12.61928,18.57341 14.52019,16.6725 1.06089,-1.06089 0.78697,-3.18964 -0.99784,-7.75437 z"
         id="path3250"
         transform="translate(-52.051501,-15.079068)" />
      <path
         style="fill:#d45500;stroke-width:1.33333"
         d="m 970.66664,788.75677 c 0,-1.05045 -4.8189,-7.11138 -10.70866,-13.46876 -16.91024,-18.25281 -20.86474,-28.92481 -19.49882,-52.62134 0.94104,-16.32559 1.58464,-20.10303 10.2227,-60 11.35084,-52.4265 14.2627,-75.8915 11.95052,-96.30235 -1.99137,-17.57901 -5.32902,-25.04713 -16.18298,-36.21008 l -9.22495,-9.48757 5.37799,8.52493 c 2.9579,4.68872 5.98814,10.68872 6.73388,13.33333 7.03024,24.93158 4.19574,61.10339 -9.39478,119.88915 -8.56286,37.03871 -10.99009,53.40424 -10.33245,69.66625 0.49371,12.20838 1.10655,15.22188 4.60956,22.66667 6.23108,13.24259 21.05667,29.09884 31.78132,33.99075 4.99848,2.27998 4.66667,2.27862 4.66667,0.0191 z"
         id="path3248"
         transform="translate(-52.051501,-15.079068)" />
    </g>
    <g
       id="layer6"
       inkscape:label="05"
       style="fill:#d45500">
      <path
         style="fill:#d45500;stroke-width:1.33333"
         d="m 266.27489,296.43109 c 1.25447,-3.26913 -1.95079,-23.4648 -5.03051,-31.6961 -2.89496,-7.73746 -7.92637,-14.06832 -11.18072,-14.06832 -3.50263,0 -2.45725,9.27785 2.72187,24.15709 7.50066,21.54883 11.22349,27.51209 13.48936,21.60733 z"
         id="path3344"
         transform="translate(-52.051501,-15.079068)" />
      <path
         style="fill:#d45500;stroke-width:1.33333"
         d="m 93.82599,339 c 2.779671,-5.37992 4.644743,-13.0966 7.58109,-31.36649 1.44087,-8.9651 3.85027,-20.41363 5.35422,-25.44119 1.50395,-5.02756 2.34994,-9.52552 1.87998,-9.99548 -1.67661,-1.67661 -9.677407,8.85257 -12.608811,16.59341 -6.015921,15.886 -10.605068,47.43839 -7.593662,52.20975 1.645446,2.60709 3.329923,1.98173 5.387183,-2 z"
         id="path3324"
         transform="translate(-52.051501,-15.079068)" />
      <path
         style="fill:#d45500;stroke-width:1.33333"
         d="m 212.73135,274.96124 c -1.22806,-5.59139 -11.54886,-22.65135 -17.72238,-29.29457 -8.33263,-8.9666 -15.25623,-6.2103 -10.35338,4.12169 4.6032,9.70053 25.96235,32.03815 28.35086,29.64963 0.31936,-0.31935 0.19556,-2.3339 -0.2751,-4.47675 z"
         id="path3352"
         transform="translate(-52.051501,-15.079068)" />
      <path
         style="fill:#d45500;stroke-width:1.33333"
         d="m 240.68231,277.26205 c 1.22786,-5.59038 -4.367,-16.72502 -12.70542,-25.28577 -10.85775,-11.14724 -14.02016,-7.65888 -6.52008,7.19212 5.17093,10.23901 14.03829,22.16493 16.48044,22.16493 1.01797,0 2.25325,-1.83208 2.74506,-4.07128 z"
         id="path3350"
         transform="translate(-52.051501,-15.079068)" />
      <path
         style="fill:#d45500;stroke-width:1.33333"
         d="m 120.94787,325.35184 c 5.55509,-19.18679 4.941,-62.92377 -0.67993,-48.42601 -3.49026,9.00224 -7.61767,42.7439 -6.17154,50.45245 1.24074,6.61369 4.64109,5.60799 6.85147,-2.02644 z"
         id="path3332"
         transform="translate(-52.051501,-15.079068)" />
      <path
         style="fill:#d45500;stroke-width:1.33333"
         d="m 317.40516,329.82968 c 2.59974,-11.20523 0.70679,-31.07449 -3.58441,-37.62371 -1.98396,-3.02789 -2.25508,-3.0984 -3.4822,-0.90566 -1.89551,3.38709 -0.61964,39.1939 1.53847,43.17617 2.11509,3.90292 3.89082,2.41029 5.52814,-4.6468 z"
         id="path3330"
         transform="translate(-52.051501,-15.079068)" />
      <path
         style="fill:#d45500;stroke-width:1.33333"
         d="m 296.72862,325 c -1.86434,-26.8704 -7.0148,-47.89224 -13.26527,-54.14269 -5.00685,-5.00686 -6.50913,-2.74128 -5.50068,8.29553 2.88739,31.60055 11.12957,59.51383 17.57315,59.51383 1.88824,0 2.02906,-1.61364 1.1928,-13.66667 z"
         id="path3328"
         transform="translate(-52.051501,-15.079068)" />
      <path
         style="fill:#d45500;stroke-width:1.33333"
         d="m 337.8708,381 c 4.94228,-7.67317 8.83206,-41.99603 6.19686,-54.68 -2.31971,-11.16532 -10.66279,-20.02613 -12.54174,-13.32 -1.66044,5.92631 -2.19596,32.04792 -0.99184,48.38121 1.71058,23.20307 2.9292,26.46174 7.33672,19.61879 z"
         id="path3318"
         transform="translate(-52.051501,-15.079068)" />
      <path
         style="fill:#d45500;stroke-width:1.33333"
         d="m 365.30904,389.46133 c 2.71619,-14.32236 0.58448,-38.42969 -3.5162,-39.76461 -3.19733,-1.04085 -5.12618,9.40664 -5.12618,27.76563 0,13.66556 0.46421,18.6882 1.88546,20.40025 2.74792,3.31016 5.08759,0.40111 6.75692,-8.40127 z"
         id="path3316"
         transform="translate(-52.051501,-15.079068)" />
      <path
         style="fill:#d45500;stroke-width:1.33333"
         d="m 385.25828,420.14021 c 5.53837,-10.34853 0.61873,-41.21125 -5.58211,-35.01862 -2.25466,2.25169 -3.01426,24.76668 -1.07814,31.95688 1.61285,5.98968 4.40606,7.27373 6.66025,3.06174 z"
         id="path3314"
         transform="translate(-52.051501,-15.079068)" />
    </g>
    <g
       id="layer1"
       inkscape:label="06"
       transform="translate(-52.051501,-15.079068)"
       style="display:inline;fill:#808080">
      <path
         style="fill:#808080;stroke-width:1.33333"
         d="m 277.43043,129.4091 c 1.88673,-2.24167 4.202,-4.07577 5.14504,-4.07577 2.97249,0 20.03928,-15.17566 20.06603,-17.84256 0.0272,-2.7179 -10.25058,-12.917497 -19.35542,-19.208074 C 282.53034,87.760547 279.57636,84.033333 276.72168,80 267.82727,67.433175 243.28354,46.069477 238.79129,46.984092 235.54623,47.64478 236.32501,60.070796 240.35909,72 c 1.85993,5.5 3.7639,13.174277 4.23105,17.053951 0.46713,3.879672 1.93689,8.990241 3.26612,11.356819 1.32924,2.36658 2.75596,6.0923 3.17051,8.27938 0.94094,4.9642 2.82092,11.41014 5.77701,19.80781 l 2.28737,6.49797 7.45443,-0.75553 c 6.19201,-0.62757 8.03536,-1.44575 10.88485,-4.8313 z"
         id="path3364" />
      <path
         style="fill:#808080;stroke-width:1.33333"
         d="m 581.93921,165.14292 c 2.83112,-2.22696 3.46577,-3.62375 2.87764,-6.33333 -0.41499,-1.91194 -3.12067,-16.40484 -6.01261,-32.20645 -2.89195,-15.80161 -6.2564,-32.601607 -7.47658,-37.333333 -4.93141,-19.123722 -13.82453,-35.180226 -18.04154,-32.573972 -1.83539,1.134334 -1.19036,12.832486 2.86561,51.970835 4.52291,43.64406 6.75956,55.44953 11.04785,58.31292 3.01731,2.01469 11.1283,1.00401 14.73963,-1.83667 z"
         id="path3362" />
      <path
         style="fill:#808080;stroke-width:1.33333"
         d="m 510.28821,202.50152 c 24.74931,-15.71545 39.04511,-27.46367 39.04511,-32.08707 0,-3.04434 -5.08283,-4.32733 -12.89927,-3.25597 -9.96648,1.36605 -12.9952,3.45048 -13.84043,9.52524 -0.40684,2.92396 -1.4339,6.58399 -2.28238,8.13341 -2.09236,3.82092 -9.26807,6.73891 -12.13558,4.93491 -2.80925,-1.76733 -5.29846,-14.91608 -5.79221,-30.59623 -0.33145,-10.52553 -0.0309,-12.56918 2.21505,-15.06468 1.92175,-2.13522 3.83166,-2.78349 7.33334,-2.48914 4.25614,0.35777 4.91032,0.95244 6.4709,5.88229 2.00471,6.33277 5.6012,8.51572 14.02998,8.51572 8.26104,0 11.20706,-2.64805 12.24804,-11.00921 1.80173,-14.47167 -5.75532,-67.992753 -11.40324,-80.760803 l -2.60712,-5.893844 -7.19056,0.596297 c -19.78534,1.640753 -51.47985,24.895177 -51.47985,37.771019 0,8.432091 7.98275,10.319451 25.77194,6.093231 14.85973,-3.530265 22.27716,-3.598687 26.41368,-0.24366 2.64659,2.14659 3.12087,3.68554 2.97911,9.66667 -0.35298,14.89303 -5.914,20.99455 -21.64958,23.75377 -12.24106,2.14645 -26.21926,6.32845 -27.89282,8.34498 -0.99753,1.20195 0.0409,7.3878 3.63965,21.68166 8.85271,35.16168 12.30584,46.19521 14.22687,45.45804 0.96485,-0.37024 7.62456,-4.40072 14.79937,-8.95663 z"
         id="path3360" />
      <path
         style="fill:#808080;stroke-width:1.33333"
         d="m 524.51069,231.17615 c 59.73132,-30.03368 86.22132,-46.26534 84.42182,-51.72918 -0.26209,-0.79584 -3.84334,-1.62585 -7.95833,-1.84446 -6.11847,-0.32507 -9.6222,0.48224 -19.228,4.4304 -30.85808,12.68322 -84.60338,45.74038 -88.5894,54.48874 -1.36784,3.00207 0.21504,8.81168 2.40082,8.81168 0.43841,0 13.4673,-6.37073 28.95309,-14.15718 z"
         id="path3358" />
      <path
         style="fill:#808080;stroke-width:1.33333"
         d="m 351.99999,266.91689 c 6.95753,-1.86121 8.66667,-2.83758 8.66667,-4.95098 0,-2.31588 -0.9624,-2.64646 -8,-2.74799 -10.47828,-0.15117 -10.92898,-0.24101 -11.73399,-2.33883 -1.16027,-3.02361 1.0876,-5.01733 7.20667,-6.39186 6.19069,-1.39063 11.86065,-5.64243 11.86065,-8.89411 0,-1.51385 -1.10239,-1.74532 -5,-1.04979 -2.75,0.49074 -8.15,1.25318 -12,1.69432 -9.11059,1.04392 -9.17691,-0.86038 -0.33333,-9.57098 3.66666,-3.61154 6.66666,-6.95707 6.66666,-7.43452 0,-0.47747 -3.03746,-0.31603 -6.74992,0.35873 -10.15026,1.84487 -16.58341,1.00015 -16.58341,-2.17752 0,-1.92036 2.00559,-3.36349 7.78612,-5.60255 9.36739,-3.6284 11.54721,-5.29157 11.54721,-8.81037 0,-2.38909 -0.67944,-2.60776 -6.3958,-2.05849 -8.70797,0.83672 -21.2008,6.71388 -23.09133,10.86314 -3.57576,7.84795 6.51599,36.5571 16.28409,46.3252 5.87614,5.87614 7.47982,6.10104 19.86971,2.7866 z"
         id="path3354" />
      <path
         style="fill:#808080;stroke-width:1.33333"
         d="m 422.61975,290.75432 c 1.97553,-3.69132 1.70378,-18.06561 -0.43847,-23.19273 -2.7204,-6.51087 -8.71733,-10.78735 -22.75383,-16.22604 -14.96805,-5.79964 -23.38382,-12.45658 -26.08152,-20.63067 -4.94818,-14.99316 -5.42683,-1.77323 -0.60739,16.77581 4.23009,16.28071 9.97617,28.53099 15.61407,33.2882 2.37272,2.0021 8.49711,5.64812 13.60976,8.1023 10.78374,5.17642 18.51755,5.88144 20.65738,1.88313 z"
         id="path3346" />
      <path
         style="fill:#808080;stroke-width:1.33333"
         d="m 660.66665,279.78853 c 25.39818,-14.35544 31.7145,-19.06692 30.63605,-22.85206 -1.39173,-4.88466 -25.33895,-52.87916 -31.90159,-63.93647 -3.5874,-6.04436 -7.02054,-10.33333 -8.27141,-10.33333 -2.49091,0 -7.31292,2.6541 -45.43835,25.00994 l -28.30863,16.59951 3.12988,5.5286 c 1.72142,3.04073 7.49101,13.92861 12.82127,24.19528 5.33028,10.26667 13.26944,25.43324 17.64259,33.70351 l 7.95119,15.03684 11.53617,-6.20056 c 6.34488,-3.41032 19.93616,-10.94839 30.20283,-16.75126 z"
         id="path3342" />
      <path
         style="fill:#808080;stroke-width:1.33333"
         d="m 453.62843,292.39408 c -3.68199,-7.91675 -7.04174,-15.94707 -7.46611,-17.84516 -1.09524,-4.89868 1.57869,-7.74035 8.50433,-9.03777 l 6,-1.12403 -7.85973,-3.59547 c -4.32284,-1.97749 -8.62237,-3.3028 -9.55451,-2.9451 -1.68992,0.64848 -4.08062,10.0359 -5.79926,22.77161 -1.85242,13.72693 2.19054,20.53216 14.71756,24.77297 3.92377,1.32832 7.3632,2.18606 7.64318,1.90608 0.27998,-0.27998 -2.50348,-6.9864 -6.18546,-14.90313 z"
         id="path3340" />
      <path
         style="fill:#808080;stroke-width:1.33333"
         d="m 535.33332,344.66039 c 9.53333,-4.74006 22.04688,-11.38503 27.80788,-14.76659 10.09945,-5.92812 10.44524,-6.29489 9.65581,-10.24199 -2.62157,-13.1079 -29.40479,-70.42728 -34.31771,-73.44416 -2.29408,-1.4087 -23.01698,6.41211 -55.81265,21.06367 -13.03652,5.82411 -15.39096,7.34041 -15.71806,10.12277 -0.66102,5.62272 27.18301,57.59187 38.78891,72.39711 5.13347,6.54857 6.62644,6.28975 29.59582,-5.13081 z"
         id="path3322" />
      <path
         style="fill:#808080;stroke-width:1.33333"
         d="m 697.22148,420.31695 c 6.28635,-6.28634 14.62832,-32.16224 18.1831,-56.40195 1.48228,-10.10759 2.02185,-20.98509 1.70405,-34.353 -0.68988,-29.01888 -3.02377,-31.92465 -19.49697,-24.27447 -17.15721,7.96784 -57.61168,31.12354 -57.61168,32.9763 0,2.65448 22.06195,45.50933 32.12689,62.40577 7.84327,13.16681 16.54708,23.3304 19.97951,23.3304 0.78764,0 3.08944,-1.65737 5.1151,-3.68305 z"
         id="path3312" />
      <path
         style="fill:#808080;stroke-width:1.33333"
         d="m 436.08291,434.10601 c 3.98772,-1.99057 9.35041,-5.60477 11.91708,-8.03157 2.56666,-2.4268 7.32417,-6.29899 10.57224,-8.60488 5.46929,-3.8828 6.66066,-4.1788 16.1265,-4.00677 5.86973,0.10666 11.51768,-0.50824 13.26699,-1.44444 2.78048,-1.48808 2.97928,-2.28648 2.28024,-9.15762 -0.89846,-8.83124 -2.86579,-16.04192 -5.27623,-19.3384 -1.62895,-2.22772 -2.43719,-2.23952 -15.01236,-0.21908 -40.95046,6.57946 -55.26208,14.27242 -64.91106,34.89183 -4.71228,10.06991 -4.27863,13.97843 1.98946,17.93085 6.08764,3.83867 19.12707,2.93191 29.04714,-2.01992 z"
         id="path3302" />
      <path
         style="fill:#808080;stroke-width:1.33333"
         d="m 644.34237,452.19095 c 2.02406,-2.02407 -2.93555,-14.11244 -18.3178,-44.64711 -14.01258,-27.81579 -24.54012,-46.21051 -26.4469,-46.21051 -2.84481,0 -26.73038,10.24152 -42.51574,18.22967 -23.49688,11.89055 -27.38989,17.09657 -20.43659,27.32931 5.10258,7.5091 25.41124,23.0093 38.86443,29.66253 27.38293,13.54212 62.88437,21.60433 68.8526,15.63611 z"
         id="path3296" />
      <path
         style="fill:#808080;stroke-width:1.33333"
         d="m 501.39953,468.63243 c 3.04741,-1.57588 3.93379,-2.94758 3.93379,-6.08766 0,-4.86778 -2.1131,-9.21144 -4.48116,-9.21144 -3.60627,0 -12.55155,13.25036 -10.82798,16.03916 1.1958,1.93486 6.92319,1.56224 11.37535,-0.74006 z"
         id="path3290" />
      <path
         style="fill:#808080;stroke-width:1.33333"
         d="m 589.1317,516.62015 c 3.76761,-4.78976 9.26476,-21.94636 11.10096,-34.64618 1.42276,-9.84032 1.33356,-11.26936 -1.00212,-16.05456 -1.96723,-4.03033 -3.33963,-5.25274 -5.89723,-5.25274 h -3.33333 l 0.4322,14.2335 c 0.40815,13.44138 0.27201,14.31924 -2.44621,15.77399 -5.65696,3.02752 -8.61225,17.33141 -5.35232,25.90571 1.63563,4.30204 3.13841,4.31134 6.49805,0.0403 z"
         id="path3276" />
      <path
         style="fill:#808080;stroke-width:1.33333"
         d="m 452.55199,566.23029 c 15.88829,-22.26544 32.79873,-53.048 36.09575,-65.70609 1.69932,-6.52415 1.70007,-8.0396 0.007,-12.09409 -1.31951,-3.15802 -2.66751,-4.4946 -4.22956,-4.19378 -1.26104,0.24286 -7.60746,7.03903 -14.10318,15.10262 -6.49571,8.06357 -20.40498,24.26105 -30.90948,35.99438 -10.50451,11.73334 -19.3194,21.78643 -19.58866,22.3402 -0.57726,1.18728 22.77176,16.98622 25.10975,16.99032 0.87961,10e-4 4.30833,-3.79356 7.61937,-8.43356 z"
         id="path3268" />
      <path
         style="fill:#808080;stroke-width:1.33333"
         d="m 612.2115,552.80999 c 16.53584,-36.04604 22.45515,-53.39119 22.45515,-65.79962 0,-12.37336 -6.56606,-22.32313 -14.15242,-21.44566 -4.8242,0.55798 -6.38793,3.85716 -9.0539,19.10196 -1.1542,6.6 -4.80899,20.7 -8.12178,31.33333 -9.13282,29.31444 -13.0321,54.7258 -10.74142,70.00117 l 0.96545,6.4381 5.99323,-12.55298 c 3.29626,-6.90412 8.99133,-19.08846 12.65569,-27.0763 z"
         id="path3266" />
      <path
         style="fill:#808080;stroke-width:1.33333"
         d="m 485.84254,594.24629 c 5.78023,-6.1458 17.16016,-28.4512 22.21888,-43.55048 6.41363,-19.1434 6.82759,-40.02914 0.79338,-40.02914 -2.90922,0 -10.82075,9.50377 -21.47775,25.80028 -15.93048,24.36064 -22.29562,36.19504 -23.04542,42.8472 -0.65646,5.82409 -0.43368,6.29809 5.96941,12.7012 3.65823,3.65822 7.7162,6.65132 9.01771,6.65132 1.30149,0 4.23721,-1.98918 6.52379,-4.42038 z"
         id="path3264" />
      <path
         style="fill:#808080;stroke-width:1.33333"
         d="m 527.91113,612.90037 c 1.47004,-3.86652 -0.36465,-20.97869 -3.99823,-37.2913 -1.49328,-6.70394 -2.92666,-12.40059 -3.1853,-12.65923 -1.06558,-1.06557 -20.74803,32.46976 -21.54246,36.70443 -1.09688,5.84686 1.33167,8.42869 12.14818,12.91494 10.40706,4.31643 15.02752,4.40872 16.57781,0.33116 z"
         id="path3262" />
      <path
         style="fill:#808080;stroke-width:1.33333"
         d="m 472.63241,792.06621 c 2.47314,-4.7825 2.72034,-25.22588 0.60442,-49.98558 -1.36487,-15.97124 -1.30526,-16.90623 1.31212,-20.58199 1.50806,-2.11788 3.61858,-7.60859 4.69005,-12.20157 1.07148,-4.59299 2.58102,-8.98378 3.35456,-9.75731 0.77353,-0.77353 1.40642,-5.09344 1.40642,-9.59977 0,-6.49235 0.55207,-8.69298 2.65919,-10.59988 5.33203,-4.82543 6.67624,-18.00171 3.83779,-37.61898 -0.82667,-5.71329 -2.23547,-11.2878 -3.13067,-12.3878 -0.8952,-1.1 -2.00001,-3.05 -2.45513,-4.33333 -0.45511,-1.28333 -1.74631,-2.33333 -2.86934,-2.33333 -1.12301,0 -2.04184,-0.8444 -2.04184,-1.87644 0,-3.83106 -27.72075,-25.54998 -31.15107,-24.40654 -2.50692,0.83564 -3.78546,9.4239 -2.92027,19.61631 0.46687,5.5 0.83048,12.34645 0.80804,15.21433 -0.0224,2.86788 0.70263,6.10879 1.61125,7.20203 1.87626,2.25745 3.71296,53.36251 1.99527,55.51697 -1.23637,1.55075 -1.3398,9.2923 -0.14019,10.49191 0.47834,0.47833 0.7433,12.72833 0.58882,27.22223 -0.39784,37.32794 2.50476,57.91133 8.83978,62.68586 1.21626,0.91667 4.1813,1.66667 6.58898,1.66667 3.49905,0 4.78582,-0.78947 6.41182,-3.93379 z"
         id="path3244" />
      <path
         style="fill:#808080;stroke-width:1.33333"
         d="m 386.66665,797.29412 c 20.31055,-1.81143 23.85551,-2.53023 25.23072,-5.11595 1.46148,-2.74793 8.18979,-32.53544 7.50392,-33.2213 -1.53762,-1.53763 -54.43561,27.9174 -62.73463,34.93234 -3.36932,2.84799 -3.68467,3.59563 -2,4.74182 1.1,0.7484 5.3,1.06145 9.33333,0.69566 4.03333,-0.36577 14.23333,-1.28044 22.66666,-2.03257 z"
         id="path3242" />
    </g>
    <path
       style="fill:#808000;display:inline;stroke-width:1.33333"
       d="m 608.73639,818.5318 c 2.37308,-4.58904 4.45159,-21.60124 3.64884,-29.86513 -1.01122,-10.40998 -5.94902,-43.15723 -11.84582,-78.56092 -7.78884,-46.76315 -37.61461,-210.29206 -38.51997,-211.1974 -1.38732,-1.38732 -31.1906,-0.91364 -32.63472,0.51868 -1.84048,1.82544 0.50928,19.28722 9.40698,69.9063 14.7486,83.90482 37.42904,194.75407 45.42256,222 3.19776,10.89956 9.44095,24.0588 13.44229,28.33334 4.06115,4.33842 8.48374,3.88542 11.07984,-1.13487 z"
       id="path3238"
       transform="translate(-52.051501,-15.079068)" />
    <g
       id="layer10"
       inkscape:label="07"
       style="display:inline;fill:#ffcc00">
      <path
         style="display:inline;fill:#ffcc00;stroke-width:1.33333"
         d="m 525.33332,486.53004 c 7.7,-1.49508 19.83657,-3.82013 26.97017,-5.16679 13.5622,-2.56022 23.49919,-6.42452 22.36316,-8.69658 -1.02907,-2.05814 -24.73216,-1.30412 -36,1.14518 -13.02475,2.83123 -30.65651,8.4999 -33.86451,10.88755 -2.14482,1.59636 -2.2608,2.20971 -0.75981,4.01829 1.09895,1.32415 2.81901,1.82999 4.53117,1.33252 1.5179,-0.44102 9.05982,-2.02509 16.75982,-3.52017 z"
         id="path3284"
         transform="translate(-52.051501,-15.079068)" />
      <path
         style="display:inline;fill:#ffcc00;stroke-width:1.33333"
         d="m 549.1625,458.52643 c 6.84358,-2.3857 7.39718,-5.21679 2.4822,-12.69415 -7.59989,-11.56208 -33.92318,-35.99825 -36.26048,-33.66096 -0.34088,0.34088 0.28899,3.59179 1.3997,7.22423 1.1107,3.63245 3.15333,12.04858 4.53916,18.70253 3.00869,14.44595 4.70464,18.50681 8.49568,20.34247 3.83092,1.85496 14.13768,1.90072 19.34374,0.0859 z"
         id="path3292"
         transform="translate(-52.051501,-15.079068)" />
    </g>
    <path
       style="display:inline;fill:#e6e6e6;stroke-width:1.33333"
       d="m 497.82849,121.28298 c 3.99404,-1.49436 8.06655,-3.68992 9.05003,-4.87902 4.02646,-4.86833 -24.13138,1.18508 -30.1452,6.48066 -2.61721,2.30462 14.03364,1.04042 21.09517,-1.60164 z"
       id="path3366"
       transform="translate(-52.051501,-15.079068)" />
  </g>
</svg>
