<?xml version="1.0" encoding="UTF-8" standalone="no"?>
<!-- Created with Inkscape (http://www.inkscape.org/) -->

<svg
   version="1.1"
   id="svg1"
   width="492.02417"
   height="639.28412"
   viewBox="0 0 492.02417 639.28412"
   sodipodi:docname="165b.svg"
   inkscape:version="1.3.2 (091e20ef0f, 2023-11-25)"
   xmlns:inkscape="http://www.inkscape.org/namespaces/inkscape"
   xmlns:sodipodi="http://sodipodi.sourceforge.net/DTD/sodipodi-0.dtd"
   xmlns="http://www.w3.org/2000/svg"
   xmlns:svg="http://www.w3.org/2000/svg">
  <defs
     id="defs1" />
  <sodipodi:namedview
     id="namedview1"
     pagecolor="#ffffff"
     bordercolor="#000000"
     borderopacity="0.25"
     inkscape:showpageshadow="2"
     inkscape:pageopacity="0.0"
     inkscape:pagecheckerboard="0"
     inkscape:deskcolor="#d1d1d1"
     showgrid="false"
     inkscape:zoom="1.5485639"
     inkscape:cx="246.03441"
     inkscape:cy="290.26895"
     inkscape:window-width="1920"
     inkscape:window-height="1011"
     inkscape:window-x="0"
     inkscape:window-y="0"
     inkscape:window-maximized="1"
     inkscape:current-layer="layer1" />
  <g
     inkscape:groupmode="layer"
     id="layer1"
     inkscape:label="Layer 1"
     transform="translate(-30.640225,-20.666667)"
     style="fill:#ff0000">
    <path
       id="path1"
       style="fill:#000000"
       d="M 31.651944 20.666667 L 32.532803 28.570964 C 33.948682 41.282106 41.05424 76.278088 46.899991 99.332683 C 59.225125 147.94085 80.353733 204.18776 99.993741 240.66667 L 106.45468 252.66667 L 103.23398 256.66667 C 96.928561 264.49682 99.757165 278.31062 109.55038 287.51823 C 114.43002 292.10602 121.35251 296.00065 124.62851 296.00065 C 125.78065 296.00065 127.38401 297.44822 128.19101 299.2194 C 128.99802 300.99058 130.79988 302.73936 132.19491 303.10417 C 135.83899 304.05712 142.9962 301.80027 146.40585 298.6237 C 149.43218 295.80424 150.34237 290.11458 147.9996 288.66667 C 145.82713 287.324 146.47059 283.27436 149.46054 279.47331 C 150.99739 277.51952 151.92216 275.05331 151.51522 273.99284 C 150.12315 270.36502 154.71743 262.63031 164.71054 251.778 C 174.8367 240.78114 180.51564 232.19304 184.82577 221.35807 C 188.6284 211.799 196.02608 205.89412 212.24569 199.4694 L 226.49179 193.82487 L 228.75351 199.91276 C 229.99704 203.26072 233.45179 211.31263 236.43124 217.80534 L 241.84921 229.61003 L 238.65585 235.6276 C 236.78403 239.15602 229.20081 247.51126 220.32577 255.82292 C 203.15751 271.90135 198.12927 278.62817 195.92733 288.46745 C 191.35521 308.89795 209.18861 326.59578 228.49374 320.78581 L 234.66757 318.92839 L 234.66757 322.59831 C 234.66757 324.61732 236.10615 328.97619 237.86483 332.28385 L 241.0621 338.29753 L 227.53085 339.05143 C 220.08884 339.46646 210.70085 340.80774 206.66757 342.02995 C 191.2115 346.71356 158.09764 358.91503 150.66952 362.66471 C 129.13126 373.53719 110.9277 396.01468 95.2496 431.0944 C 91.366426 439.78299 86.196623 450.20051 83.761319 454.24479 C 77.089098 465.32534 64.666186 477.3468 54.382413 482.67448 C 44.159948 487.97032 45.18459 489.80232 57.298428 487.88737 C 61.271439 487.25953 64.752264 486.97402 65.032803 487.25456 C 65.313342 487.5351 62.774037 489.38673 59.390225 491.36979 C 52.429267 495.4492 38.86639 499.98958 33.548428 500.02018 C 30.768027 500.03618 30.43224 500.31977 31.9996 501.33268 C 33.099595 502.04356 38.668164 502.63594 44.3746 502.64714 C 56.069013 502.67015 66.948777 499.60794 78.442959 493.0612 L 85.550381 489.01237 L 82.720303 494.5612 C 78.665328 502.5096 71.338818 509.31615 55.950772 519.43034 C 42.21031 528.4616 36.104984 534.93409 33.294522 543.44987 C 30.779822 551.06947 32.392719 551.25777 40.714444 544.3151 C 49.971009 536.59256 61.080532 529.33268 63.642178 529.33268 C 67.009567 529.33268 62.620166 534.93534 49.142178 547.84245 C 41.778692 554.89402 34.877584 562.80714 33.360928 565.9401 C 29.327549 574.27199 29.788252 582.38699 34.675381 589.13346 C 36.87997 592.17682 38.9229 594.66667 39.214444 594.66667 C 39.505979 594.66667 39.663306 591.20388 39.566006 586.97135 C 39.368205 578.3671 42.988125 570.60467 50.548428 563.41667 C 55.455231 558.75147 55.651476 559.37548 51.669522 566.95964 C 49.106672 571.84087 48.570975 575.40929 47.964444 591.60807 C 47.325099 608.68314 46.952101 610.9605 44.177334 614.71354 C 40.424071 619.79012 41.311504 621.17061 46.292569 618.00456 C 55.872223 611.91546 58.85734 607.40425 62.853116 592.98503 C 65.952922 581.799 69.280778 575.0512 73.757413 570.8737 L 77.107022 567.7487 L 75.829678 573.54167 C 75.127968 576.72749 73.445179 581.60367 72.089444 584.3776 L 69.6246 589.42057 L 72.478116 588.53581 C 81.057644 585.87504 84.485479 580.96851 94.398038 557.15104 C 97.315015 550.14227 100.64375 542.6664 101.79648 540.53776 C 104.36269 535.79893 104.49272 537.56391 102.63241 551.89714 C 101.92596 557.34021 101.60119 562.0456 101.90976 562.35417 C 103.00805 563.45246 110.73744 548.52986 113.28671 540.38932 C 114.71237 535.83683 116.28855 527.59572 116.78866 522.07682 L 117.69687 512.04362 L 122.51523 516.278 L 127.33358 520.51237 L 127.9996 499.92253 C 128.73608 477.17702 128.77167 477.15712 135.30819 495.50456 C 136.64793 499.26504 138.89967 503.76509 140.3121 505.50456 C 142.87588 508.66189 142.87799 508.64318 142.12655 494.66667 C 141.71256 486.96667 140.40954 473.46662 139.23202 464.66667 C 136.61851 445.13525 137.16948 419.02062 140.3414 412.00065 L 142.44882 407.33268 L 142.55819 415.60026 C 142.71553 427.56067 144.816 435.88771 152.41366 454.66667 C 158.59035 469.93332 159.15455 472.22998 159.12265 482.00065 C 159.09396 490.78182 158.3343 494.58515 154.83358 503.52409 C 149.45038 517.26997 144.22478 524.48951 137.01718 528.13737 C 122.71616 535.37522 120.7481 538.74146 118.03866 560.58268 C 113.42156 597.80226 108.43018 606.98421 88.987881 614.02409 L 80.691006 617.028 L 86.011319 619.26823 C 88.938208 620.49956 92.995028 621.84465 95.026944 622.25846 C 100.40069 623.35286 100.54532 624.62098 95.892178 629.92057 C 91.094942 635.38435 91.912999 635.65782 102.21835 632.03581 C 106.33525 630.58884 110.14809 629.67877 110.69101 630.01432 C 113.32809 631.64415 112.78771 636.22654 109.40194 640.93229 C 107.39627 643.72 105.4384 646.90065 105.05233 648.00065 C 103.81421 651.52846 106.49672 656.05518 110.97812 658.0026 C 113.73462 659.2005 120.17145 659.91492 128.50937 659.94792 C 139.58695 659.9918 142.39924 659.55784 146.17343 657.22526 C 149.99361 654.86423 150.5357 653.92189 149.80429 650.89323 C 148.52377 645.59078 144.51116 640.24317 135.11093 631.31315 C 127.40463 623.99232 126.66757 622.81218 126.66757 617.79557 C 126.66757 609.54502 132.61995 590.18018 139.3121 576.66667 C 142.66897 569.88811 149.5077 559.44517 155.02694 552.66667 C 163.59298 542.14629 167.17366 539.07518 184.06601 527.7526 C 205.4167 513.44167 217.00704 502.40128 219.90585 493.61784 C 221.71113 488.14779 221.84459 488.04906 224.35507 490.32096 C 228.22451 493.82281 233.01852 502.69313 234.0289 508.22135 C 234.59632 511.32599 234.11656 515.87375 232.7164 520.6901 C 230.8217 527.20761 229.0259 529.72158 219.92343 538.58268 C 214.09909 544.25258 209.33358 549.79952 209.33358 550.91081 C 209.33358 553.58956 216.07337 563.53207 219.53085 565.95378 C 221.03795 567.0094 226.35048 569.41063 231.33749 571.28776 C 259.53653 581.90186 271.13732 599.65682 257.96054 612.03581 C 253.49375 616.23209 253.80947 617.33268 259.47616 617.33268 C 263.53351 617.33268 264.13422 617.69816 263.32382 619.66667 C 261.10515 625.05591 261.04895 626.66667 263.07577 626.66667 C 266.11086 626.66667 272.43518 620.88846 275.3746 615.43034 C 278.26811 610.05742 280.09466 609.93534 281.88241 614.99284 C 282.88417 617.82679 282.46147 619.19377 279.48007 622.73698 C 274.78369 628.31826 275.26233 632.97177 280.92733 636.77604 C 291.00386 643.54291 317.33358 641.21608 317.33358 633.55925 C 317.33358 629.61106 310.07988 619.45623 302.99374 613.48112 C 298.54354 609.72861 294.17801 604.04091 289.91757 596.44987 C 283.90205 585.73185 282.59777 584.35519 268.01132 573.3405 C 251.68765 561.01392 247.9996 556.95544 247.9996 551.31315 C 247.9996 545.44425 251.88797 539.85272 266.18319 525.16081 C 281.91621 508.99119 286.633 500.83972 286.6539 489.778 C 286.66143 485.79538 285.5273 480.22998 283.9664 476.58854 C 282.4813 473.124 281.43064 470.14233 281.63241 469.96354 C 281.83417 469.78476 285.5996 470.37984 289.9996 471.28581 L 297.9996 472.93425 L 297.73007 480.58854 C 297.58179 484.79884 296.47933 490.8117 295.28085 493.94987 C 294.08237 497.08804 293.30362 501.08203 293.55038 502.82682 C 293.96527 505.76045 294.55213 505.9839 301.33358 505.78385 C 305.36692 505.66487 317.36631 505.36553 327.9996 505.11784 C 346.3879 504.68952 347.72049 504.47111 355.26522 500.66667 C 367.85796 494.31668 368.62621 489.8785 357.39218 488.37175 C 352.68273 487.74008 351.26729 486.78602 348.46835 482.35221 C 346.63862 479.45378 345.41133 476.81158 345.74179 476.48112 C 346.07225 476.15066 351.73316 476.28647 358.32187 476.78385 C 369.95312 477.66191 370.37068 477.8094 372.68124 481.8444 C 377.12907 489.6118 387.32243 502.43651 390.0914 503.7487 C 391.60848 504.46763 394.45913 504.74758 396.42538 504.37175 L 399.9996 503.6901 L 399.9996 512.9401 C 399.9996 518.02829 399.01601 525.07856 397.81405 528.60612 C 396.13601 533.53089 395.80061 537.89798 396.36874 547.42057 C 397.23192 561.88867 394.59158 586.13559 391.23983 594.51237 C 388.95744 600.2167 379.05239 609.51839 373.32382 611.33659 C 368.93698 612.72892 370.29316 614.30527 376.9996 615.60807 L 383.33358 616.83854 L 378.23202 619.94401 C 371.81901 623.84792 373.57339 625.28495 384.79257 625.31315 C 391.2041 625.32925 393.42913 625.8947 395.32968 627.99479 C 397.66688 630.57736 397.61624 630.85375 393.64218 637.24675 C 389.85193 643.34393 388.80689 646.81067 389.18515 652.04167 C 389.42978 655.42456 397.19403 657.44116 412.66757 658.14128 C 425.49069 658.72149 427.67577 658.50312 430.05429 656.403 C 434.62526 652.3669 433.39086 648.47376 424.29062 638.2155 C 411.75296 624.08233 411.31768 623.01292 411.42733 606.66667 C 411.47898 598.96667 412.28901 589.06662 413.22812 584.66667 C 415.56119 573.73549 423.4625 552.67884 428.08749 545.0651 C 431.26713 539.83082 432.03987 536.75446 432.77694 526.39909 C 433.56421 515.33838 438.88335 484.46845 440.16562 483.52018 C 444.45123 480.35091 471.53492 470.66667 476.11288 470.66667 C 484.15185 470.66667 487.87232 482.46872 486.03085 502.11979 C 485.08767 512.18491 485.06403 512.23625 476.87655 521.10612 C 472.3613 525.99774 467.46627 531.42897 465.9996 533.17643 L 463.33358 536.35417 L 465.9996 535.61003 C 467.46627 535.20065 470.76696 534.44533 473.33358 533.93229 L 477.9996 533.00065 L 475.45272 535.84245 C 471.63705 540.09859 473.97249 540.86865 480.73202 537.58464 C 484.03555 535.97966 486.96533 534.66667 487.24374 534.66667 C 487.52215 534.66667 487.10012 536.78309 486.30624 539.36979 C 485.38997 542.35528 483.23377 545.08131 480.39999 546.83268 C 465.80134 555.85515 471.78014 578.66667 488.74374 578.66667 C 493.2929 578.66667 495.26166 577.86551 498.38046 574.74675 C 503.04284 570.08433 504.219 565.2406 503.18124 554.95768 C 502.57971 548.99729 503.00344 545.96857 505.1246 541.07878 C 507.6221 535.32138 507.78177 532.93519 507.1246 511.07878 C 506.58388 493.09536 506.90938 484.34522 508.4703 475.01628 C 511.21873 458.59015 509.48233 452.14924 499.57968 442.04362 C 491.22682 433.51956 485.94397 432.26247 470.66171 435.16862 C 465.16464 436.21396 460.51492 436.92837 460.32968 436.75456 C 460.14445 436.58075 461.22496 432.88842 462.73007 428.55143 C 464.23518 424.21449 466.34831 416.46602 467.42538 411.33268 C 468.50244 406.1994 470.61446 397.03067 472.12069 390.95768 C 473.84695 383.99784 474.52698 378.33071 473.95858 375.62565 C 473.46262 373.2653 469.47974 364.58375 465.10702 356.33464 C 460.25231 347.17608 457.32006 340.0973 457.57772 338.15495 L 457.9996 334.97526 L 469.33358 338.48893 C 475.56691 340.42155 481.42207 342.48989 482.3453 343.08659 C 483.26853 343.6833 485.16952 343.8084 486.56991 343.36393 C 488.65509 342.70212 489.30272 340.69507 490.14608 332.278 C 490.71251 326.62513 491.03507 321.24935 490.86288 320.33268 C 490.64678 319.18228 492.58659 318.66667 497.12655 318.66667 C 501.46219 318.66667 504.63427 317.87075 506.43319 316.33268 C 509.16164 313.99993 515.9996 296.06771 515.9996 291.24479 C 515.9996 289.8396 513.88485 285.62038 511.30038 281.86784 C 505.41737 273.32594 502.07509 258.96686 503.25937 247.33268 C 505.22635 228.00945 505.22884 228.00065 509.70663 228.00065 L 513.77694 228.00065 L 507.9996 222.66667 C 501.7185 216.86795 501.51548 215.12038 507.38046 217.35026 C 512.35677 219.24227 517.46544 217.92708 520.33163 214.01628 L 522.66366 210.83464 L 518.00937 211.5905 C 515.10609 212.06159 512.56568 211.68959 511.25546 210.60221 C 509.41236 209.07263 509.69513 208.68468 513.5621 207.43034 C 516.25189 206.55784 518.67224 204.53277 519.77304 202.23307 C 521.82584 197.94457 521.0101 196.16911 518.09726 198.58659 C 516.54366 199.87595 514.50089 199.86988 508.39804 198.55925 C 504.14607 197.64609 499.56598 196.34959 498.2203 195.67643 C 495.03586 194.08342 490.76853 184.60603 490.5621 178.66667 C 490.4729 176.1 489.99977 172.56751 489.50937 170.81706 C 488.66593 167.80644 488.40425 167.97306 484.66952 173.88151 L 480.72226 180.1276 L 473.37069 179.73112 L 466.02108 179.33268 L 464.12069 172.00065 C 463.07589 167.96737 462.01527 164.40956 461.76327 164.09635 C 460.9194 163.04759 453.6747 170.81313 451.1871 175.43229 C 449.83441 177.94407 448.08024 180.00065 447.29062 180.00065 C 446.50096 180.00065 443.11601 178.26312 439.76718 176.13932 C 436.4183 174.01557 430.89164 171.04428 427.48593 169.53776 C 422.54176 167.35071 421.12937 165.97959 420.48007 162.73307 C 419.51318 157.89869 418.30097 157.58596 416.3453 161.66667 C 413.43014 167.74955 413.54196 169.21971 417.30233 174.41081 L 421.11483 179.67448 L 412.88827 179.01432 C 406.78632 178.52451 402.28524 179.08952 395.45272 181.19987 C 390.38681 182.76459 385.13637 183.69465 383.78671 183.26628 C 381.93084 182.67725 381.33358 183.17504 381.33358 185.3112 C 381.33358 189.16065 388.48165 191.9922 398.29062 192.028 L 405.9996 192.05534 L 397.33358 195.1901 C 392.56696 196.91326 385.36691 199.89427 381.33358 201.8151 C 372.38153 206.07855 371.02027 206.13039 367.01522 202.36784 C 364.33345 199.8484 363.66883 199.69811 362.58554 201.36784 C 356.8985 210.13354 362.01381 220.00065 372.24569 220.00065 C 375.0859 220.00065 374.96442 220.32294 370.45077 224.83659 L 365.61483 229.67448 L 355.51132 224.09831 C 349.95444 221.03085 343.72194 216.47466 341.66171 213.97526 C 337.68145 209.14656 326.66757 184.37992 326.66757 180.25846 C 326.66757 175.62513 322.58598 165.84301 318.67343 161.09635 C 316.46519 158.41742 310.20133 153.97457 304.31991 150.91471 C 298.58013 147.92858 292.91408 144.3998 291.73007 143.07487 C 290.54606 141.74995 289.14763 137.16032 288.62069 132.87565 L 287.66171 125.08659 L 294.67343 118.95378 C 298.52947 115.58057 302.50579 110.85372 303.50937 108.45182 C 306.07795 102.30428 305.77808 92.877497 302.66757 82.000651 C 301.2009 76.872015 299.9996 71.25574 299.9996 69.520183 C 299.9996 66.679099 299.56899 66.446572 295.66757 67.192058 C 293.28423 67.647455 284.96713 68.530981 277.18515 69.154948 C 266.33296 70.025089 261.7545 71.009257 257.54062 73.377605 C 248.18631 78.634994 241.49031 91.775796 243.42147 101.08659 C 243.98194 103.78879 244.54141 107.80065 244.66562 110.00065 C 244.78983 112.20065 245.37163 120.3351 245.95858 128.07878 L 247.02694 142.15885 L 239.39413 145.07878 C 234.90762 146.79564 228.76222 148.00065 224.48202 148.00065 C 220.39322 148.00065 215.32954 148.95187 212.93319 150.17057 C 207.14786 153.11281 182.64653 170.98023 179.33358 174.67253 C 177.86696 176.30709 173.96757 179.50014 170.66757 181.77018 C 163.36231 186.79544 160.43723 190.22292 159.50155 194.85612 C 159.11032 196.79337 156.96908 201.25229 154.74179 204.76432 C 152.51449 208.2764 148.20598 218.75173 145.16757 228.04362 C 142.12915 237.3355 138.67306 246.21854 137.48788 247.78385 C 135.54626 250.34831 134.84571 250.47904 130.4039 249.11198 C 125.52606 247.61074 125.49449 247.55631 127.4039 243.86393 C 129.89359 239.04932 129.86412 233.1953 127.33358 229.92057 C 125.35385 227.35861 125.31336 227.35861 123.33358 229.92057 C 122.23363 231.34406 121.31271 233.74472 121.28671 235.25456 C 121.26073 236.7644 120.42855 239.46226 119.43905 241.2487 L 117.64023 244.49675 L 114.88437 239.09245 C 104.72608 219.18056 81.263849 155.03107 73.523038 126.00065 C 67.578592 103.70716 61.346491 71.082412 61.337491 62.217448 C 61.334671 59.426218 59.279 56.282414 53.489834 50.217448 C 49.175538 45.697613 42.496179 37.19932 38.648038 31.332683 L 31.651944 20.666667 z M 325.47421 244.14909 L 331.60312 247.40885 C 334.97356 249.20095 338.84138 250.66667 340.19882 250.66667 C 344.40376 250.66667 342.94081 253.06102 336.38827 256.90104 L 330.10897 260.58073 L 336.05429 262.3405 C 339.32452 263.30813 343.95028 263.75016 346.33358 263.32292 C 348.71691 262.89569 350.66757 263.0824 350.66757 263.73893 C 350.66757 265.86203 342.81767 275.83976 339.37069 278.09831 C 334.86821 281.04844 336.27018 282.66667 343.32577 282.66667 C 350.67152 282.66667 355.64454 280.80578 360.38632 276.2819 L 364.10702 272.73307 L 360.67343 282.0319 C 358.46521 288.01297 355.59647 292.87997 352.63827 295.66667 C 346.02883 301.89292 343.67095 301.34588 338.24569 292.33268 C 325.9349 271.88013 322.77554 262.14401 324.56991 250.17839 L 325.47421 244.14909 z M 451.60897 273.80339 C 453.81253 273.93147 459.9996 277.14919 459.9996 278.43034 C 459.9996 278.99589 462.6996 283.57011 465.9996 288.5944 C 470.81823 295.93085 471.9996 298.88336 471.9996 303.59635 C 471.9996 306.82404 472.8956 311.19704 473.98983 313.31315 C 475.79994 316.81351 475.7442 317.70957 473.37069 323.24675 C 471.93585 326.59417 470.2905 329.26845 469.71444 329.18815 C 465.15658 328.55241 456.83581 326.61415 456.28085 326.05925 C 455.1799 324.95829 450.04096 274.84796 450.9371 273.95182 C 451.05959 273.82933 451.29422 273.78509 451.60897 273.80339 z M 476.78085 319.39323 L 482.72421 319.81706 C 485.99303 320.05033 488.8258 320.39677 489.02108 320.58659 C 489.21636 320.77641 488.6934 325.52323 487.85897 331.13346 C 487.02459 336.74374 485.96631 341.2821 485.50546 341.2194 C 482.82105 340.85419 462.69136 334.20409 459.33358 332.57292 C 455.51148 330.71619 455.72297 330.66329 464.07577 331.39323 L 472.81601 332.1569 L 474.79843 325.77604 L 476.78085 319.39323 z M 329.9996 476.00065 C 332.66626 476.00065 333.33358 476.66603 333.33358 479.33268 C 333.33358 481.67612 332.60679 482.66667 330.88827 482.66667 C 327.79727 482.66667 326.66757 481.53501 326.66757 478.44401 C 326.66757 476.7255 327.65616 476.00065 329.9996 476.00065 z M 337.6578 476.15495 C 337.97615 476.13911 338.35273 476.17304 338.79843 476.24089 C 340.42371 476.48828 342.99805 479.04248 344.93515 482.33268 C 346.77007 485.44935 347.76078 487.92343 347.13632 487.83073 C 346.51185 487.73806 343.7496 487.03237 340.9996 486.26237 C 336.47924 484.99668 335.9996 484.42878 335.9996 480.33854 C 335.9996 477.21689 336.2783 476.2236 337.6578 476.15495 z " />
    <path
       id="path2"
       style="fill:#ac9393"
       d="M 477.00937 556.6276 C 476.55983 556.65806 476.22374 556.93476 475.91757 557.41862 C 474.17978 560.1649 474.37744 562.32191 476.8414 567.51432 C 481.05765 576.39942 490.00808 578.4142 496.13241 571.85807 C 498.25997 569.58053 499.9996 567.18182 499.9996 566.52604 C 499.9996 565.87026 497.30139 565.33268 494.00351 565.33268 C 488.96609 565.33268 487.13734 564.54679 482.56796 560.41862 C 479.54272 557.6855 477.99834 556.56061 477.00937 556.6276 z M 307.10507 624.97917 C 305.63308 624.97907 303.55081 625.20952 300.41757 625.60612 C 295.42124 626.23854 288.83639 626.40757 285.78476 625.98112 C 282.73312 625.55466 279.91154 625.7305 279.51522 626.37175 C 277.94233 628.91674 280.59973 633.71689 284.52694 635.42643 C 290.02744 637.82082 302.94953 637.80737 308.70858 635.40104 C 313.74091 633.2984 314.36722 631.40327 311.41757 627.19206 C 310.31629 625.61977 309.55839 624.97933 307.10507 624.97917 z M 138.48593 640.18229 C 137.5322 640.09918 136.47042 640.72214 134.35897 641.9694 C 131.56513 643.61977 126.60932 644.67519 119.80624 645.06901 C 113.21454 645.4506 109.25729 646.27273 108.8453 647.34635 C 107.98047 649.60005 111.60086 654.58132 115.14218 656.01042 C 119.7775 657.881 135.67993 657.50215 140.70858 655.40104 C 144.46553 653.83128 145.33358 652.74996 145.33358 649.63346 C 145.33358 647.25518 144.0536 644.59613 141.96444 642.63346 C 140.28515 641.05585 139.43966 640.26541 138.48593 640.18229 z M 400.59921 641.76432 C 394.56349 641.71513 394.15132 642.3398 393.05819 644.73893 C 390.13158 651.16216 398.45625 655.53194 414.24569 655.85807 C 418.04795 655.93657 422.69861 655.41505 424.57968 654.69987 C 428.74019 653.11804 429.18888 648.15535 425.47421 644.79362 C 423.51119 643.01711 419.77711 642.39404 408.74179 641.9987 C 405.24675 641.87349 402.61112 641.78072 400.59921 641.76432 z " />
    <path
       id="path3"
       style="display:inline;fill:#aa4400"
       d="M 459.17147 169.57878 C 457.99912 169.45083 456.64795 171.36934 454.21444 175.8405 C 447.29673 188.55059 444.84909 213.92072 448.67147 233.28581 C 449.85874 239.30073 456.29475 252.02805 463.00741 261.63542 L 468.34335 269.27018 L 472.04452 266.63542 C 476.95289 263.14034 478.65546 263.24337 474.17929 266.76432 C 472.24706 268.28421 470.66757 270.02911 470.66757 270.64323 C 470.66757 271.25736 472.57388 275.07875 474.9039 279.13542 L 479.14022 286.51237 L 482.56991 284.12565 C 484.45655 282.8138 488.04006 281.04927 490.5328 280.20378 C 493.02556 279.35828 496.67578 278.66667 498.64413 278.66667 C 500.61248 278.66667 502.54257 278.34636 502.93515 277.95378 C 503.32773 277.5612 502.85065 273.51118 501.87265 268.95378 C 500.89472 264.39636 500.07223 257.17812 500.04647 252.91471 L 499.9996 245.16276 L 493.36483 242.2487 C 486.92804 239.42087 486.73454 239.17445 486.92147 234.00065 L 487.11483 228.66667 L 487.63827 233.66667 C 488.24787 239.49439 489.58221 239.87115 493.99179 235.46159 C 495.75429 233.69909 497.41321 232.90558 497.67733 233.69792 C 498.35174 235.72114 501.33358 233.61232 501.33358 231.11198 C 501.33358 229.69679 500.5995 229.32711 498.9996 229.9362 C 497.1864 230.6265 497.02245 230.46786 498.25937 229.22135 C 499.49536 227.9758 498.49244 226.29843 493.77694 221.7155 L 487.70468 215.81315 L 484.68319 218.65104 L 481.65976 221.49089 L 480.72226 215.24479 C 479.50981 207.15958 475.51838 203.15822 467.46054 201.94987 C 461.86458 201.1107 461.34962 200.73909 462.22421 198.17643 C 463.60944 194.11754 462.92436 174.97445 461.28476 171.91081 C 460.51298 170.46873 459.8749 169.65554 459.17147 169.57878 z M 486.68319 174.83073 C 486.20933 174.87891 485.60674 175.55907 484.69491 176.76432 C 482.14081 180.14033 482.19425 181.01363 484.9996 181.74675 C 489.20884 182.84673 489.39199 182.70416 488.50351 179.00065 C 487.79322 176.03991 487.37577 174.76031 486.68319 174.83073 z M 458.06796 188.40104 C 458.29344 188.43364 458.29295 190.24043 458.20272 193.6569 C 458.07773 198.39053 457.41686 201.31928 456.47421 201.32487 C 455.40924 201.33087 455.27534 199.82451 456.02694 196.33268 C 457.19477 190.90719 457.79582 188.36169 458.06796 188.40104 z M 442.96444 201.07096 C 441.83899 201.29425 440.10963 203.01833 437.43515 205.8776 C 433.77877 209.78662 431.9996 210.26221 431.9996 207.33268 C 431.9996 206.23268 431.0996 205.33268 429.9996 205.33268 C 427.35673 205.33268 427.47001 208.19407 430.30819 213.13932 C 433.49023 218.68371 431.51033 219.85902 424.99765 216.29167 C 421.37823 214.30912 419.06403 213.737 418.19296 214.60807 C 416.21876 216.58227 419.34131 222.42347 423.34726 224.2487 C 425.21037 225.0976 426.5241 226.43887 426.26522 227.22917 C 425.50299 229.55613 419.16337 229.65784 414.82187 227.41276 C 412.6096 226.26875 410.46909 225.33268 410.06601 225.33268 C 409.08584 225.33268 409.13816 230.68564 410.16757 235.83268 C 410.86902 239.33993 411.60692 240.00065 414.83358 240.00065 C 419.53513 240.00065 419.73618 241.65839 415.38046 244.51237 C 410.49187 247.71549 405.96603 247.14042 400.87069 242.66667 C 395.3762 237.84243 394.66757 237.74644 394.66757 241.82096 C 394.66757 246.1297 398.81684 251.05447 405.99374 255.26042 C 412.41442 259.02318 413.32527 261.67592 410.62655 268.77409 L 409.25155 272.38737 L 406.25546 269.57292 C 403.39441 266.88509 396.92627 264.1138 388.9996 262.17839 C 386.33583 261.52799 385.33358 261.78632 385.33358 263.12565 C 385.33358 266.00157 392.13492 272.09373 396.26913 272.92057 C 404.69133 274.60502 396.38633 279.0349 387.17343 277.77214 C 381.27323 276.96343 381.08199 277.04025 382.49179 279.67448 C 387.25116 288.56746 420.21592 312.66563 437.33358 319.76628 C 450.19888 325.10298 452.46481 325.19383 451.43515 320.33268 C 450.13068 314.17416 448.04752 291.78904 448.02304 283.66667 C 448.01033 279.45 447.67673 276.00065 447.28085 276.00065 C 444.59757 276.00065 435.54768 282.09847 432.00155 286.29557 C 427.78264 291.28897 427.76319 291.29405 429.88046 287.04948 C 431.05552 284.69379 434.17288 281.09379 436.80819 279.04948 C 439.44351 277.00517 442.86822 274.35283 444.41952 273.15495 L 447.23983 270.97721 L 442.89608 267.32096 C 433.81662 259.6811 430.1201 245.81621 433.79452 233.18229 C 434.9434 229.23206 436.75131 224.81366 437.8121 223.36393 C 438.97008 221.78139 438.47443 224.44483 436.57187 230.02995 C 434.82897 235.14633 433.38572 240.90822 433.36679 242.83268 C 433.32339 247.24619 436.48733 256.31082 439.61093 260.72721 C 442.40193 264.67334 455.88563 272.0088 460.29452 271.97917 C 466.51939 271.93737 466.82777 270.21631 461.85116 263.278 C 450.0696 246.85236 445.26748 232.75125 445.11483 214.14128 C 445.03571 204.49464 444.84019 200.69882 442.96444 201.07096 z M 457.26132 221.97526 C 457.45696 221.99276 457.92441 222.23822 458.66757 222.7194 C 461.23424 224.38126 466.46854 228.76484 470.30038 232.45964 C 474.13224 236.15443 477.47944 238.91224 477.73983 238.58854 C 478.00023 238.26484 478.90712 235.89935 479.75351 233.33268 L 481.29257 228.66667 L 480.69296 233.89128 C 480.36363 236.76526 479.40103 239.54644 478.55233 240.07096 C 477.70365 240.59549 477.28361 241.84489 477.62069 242.84635 C 479.17409 247.46155 470.13526 249.41243 463.60507 245.87175 C 460.02897 243.93278 457.33358 239.34596 457.33358 235.19987 C 457.33358 233.67514 457.90554 233.54613 459.91171 234.61979 C 461.33016 235.37893 464.48016 235.97396 466.91171 235.94206 L 471.33358 235.88346 L 462.66757 227.79167 C 458.52709 223.92534 456.67439 221.92266 457.26132 221.97526 z M 371.60116 269.33659 C 371.01502 269.33559 368.40212 273.82621 365.79452 279.31706 C 361.34839 288.67937 360.97223 290.52426 359.74569 308.98307 C 358.86686 322.20903 357.55273 331.29115 355.74179 336.66667 C 352.33276 346.78585 352.33211 349.61629 355.72812 358.70378 C 357.2429 362.75721 359.15275 372.65723 359.97421 380.70378 C 362.96022 409.95276 364.02709 416.32867 367.27108 424.36003 C 369.08783 428.85782 370.34749 432.76409 370.06991 433.04167 C 369.79232 433.31925 362.25493 432.59908 353.32187 431.4401 C 344.38879 430.28113 336.45119 429.72131 335.68319 430.19596 C 334.77028 430.76017 334.56949 435.69661 335.10312 444.45573 C 335.77008 455.40374 336.5977 459.20819 339.62655 465.26042 L 343.33358 472.66667 L 356.49179 473.04948 L 369.64804 473.43425 L 368.74374 468.38346 C 366.76465 457.35019 365.10531 453.44269 359.74569 447.1862 L 354.16171 440.66667 L 359.19687 445.33268 C 365.17081 450.86804 367.97649 456.08307 371.75351 468.66667 C 373.29428 473.79998 376.43848 481 378.73983 484.66667 C 383.46646 492.19735 391.81599 501.33268 393.97226 501.33268 C 394.75984 501.33268 398.40267 499.08268 402.06601 496.33268 C 409.58286 490.68994 410.30114 490.35922 443.33358 477.34635 C 468.74923 467.33406 476.47464 465.39997 481.11874 467.88542 C 487.61631 471.36281 490.25114 483.31635 488.69687 502.26823 C 487.74519 513.87239 487.67301 514.0574 482.08554 519.33268 C 478.97862 522.26602 475.31923 526.39344 473.95272 528.50456 L 471.46835 532.3444 L 475.85897 530.07292 C 480.9816 527.4239 482.15577 527.97183 479.9996 532.00065 C 477.77165 536.16362 478.99249 536.50463 484.49765 533.25651 L 489.33358 530.403 L 489.33358 535.28971 C 489.33358 541.33064 487.50112 544.96613 482.14608 549.54753 L 477.9996 553.0944 L 481.9996 557.35221 C 487.59193 563.30585 491.21724 564.70847 496.9996 563.15885 C 499.73536 562.42571 499.9996 561.56122 499.9996 553.34635 C 499.9996 547.27638 500.85917 542.39802 502.63241 538.38932 C 504.97598 533.09131 505.15108 530.84789 504.23983 517.88737 C 503.67705 509.88292 503.78938 496.13266 504.48983 487.33268 C 506.71997 459.31564 506.57935 457.50167 501.55233 449.67057 C 499.10593 445.85956 495.13491 441.52524 492.72812 440.03776 C 487.90226 437.05521 478.94118 436.52307 469.9996 438.68815 C 467.06627 439.39841 454.61336 441.5057 442.32577 443.36979 C 414.38726 447.6082 403.56517 450.83547 397.73007 456.67057 C 394.3634 460.03724 393.33358 462.20572 393.33358 465.93229 C 393.33358 472.62407 396.6869 478.51189 401.75351 480.7155 C 405.3273 482.26984 405.52783 482.57001 403.02108 482.61393 C 401.38267 482.64263 398.082 480.91588 395.6871 478.77604 C 391.76798 475.27432 391.33358 474.15047 391.33358 467.53971 C 391.33358 459.24772 393.88968 454.71568 401.45663 449.58659 C 403.95586 447.89253 406.17591 446.0156 406.39022 445.41667 C 407.0013 443.70906 402.69598 442.28164 393.9996 441.30534 L 385.9996 440.4069 L 393.7203 440.20378 C 399.21054 440.05918 403.00352 440.79845 406.85312 442.76237 C 410.79656 444.77417 413.59389 445.29841 417.15976 444.69596 C 425.57892 443.27357 425.91494 442.68612 423.35312 433.8737 C 419.98638 422.29255 416.87061 417.02988 409.39999 410.31315 C 402.40647 404.02538 400.80785 401.57871 405.24569 403.95378 C 408.83941 405.87706 409.33358 405.7149 409.33358 402.61393 C 409.33358 394.18742 398.80346 382.92345 387.3746 379.1237 C 383.6847 377.89691 381.40864 376.64414 382.31601 376.3405 C 385.06905 375.41918 397.72722 381.93335 402.54257 386.7487 C 407.233 391.43913 411.91931 400.21676 411.9703 404.4069 C 411.9864 405.7304 414.36516 410.73388 417.25546 415.52604 C 420.14576 420.31823 423.57891 428.38419 424.88437 433.45182 C 426.18981 438.51947 427.87426 442.66572 428.62851 442.66471 C 431.64898 442.66071 452.16858 438.71936 453.52108 437.88346 C 456.22045 436.21518 460.2359 425.10959 463.29062 410.86198 C 464.96443 403.05502 467.43052 392.68223 468.77108 387.81315 L 471.20858 378.96159 L 467.41562 369.53581 C 465.32895 364.3524 461.93086 358.13749 459.86483 355.72331 L 456.10897 351.33268 L 455.92538 364.66667 C 455.82517 371.99998 454.94451 381 453.9664 384.66667 L 452.1871 391.33268 L 453.09335 384.66667 C 453.59185 381 453.90509 367.92777 453.78866 355.61784 C 453.55702 331.12831 452.66621 327.79162 445.91171 326.09635 C 427.64414 321.51149 386.70825 291.56397 376.39608 275.24089 C 374.34478 271.99387 372.18731 269.3379 371.60116 269.33659 z M 467.21054 272.00065 C 466.35773 272.00065 464.94888 272.85763 464.07968 273.90495 C 462.30245 276.04639 464.46687 281.25452 470.35507 289.00065 C 474.015 293.81541 475.3403 294.31036 476.49569 291.29948 C 477.45228 288.80664 469.36637 272.00065 467.21054 272.00065 z M 501.46249 280.00065 C 495.08059 280.00065 484.90551 283.45565 482.07382 286.58464 C 480.17393 288.68398 480.09366 289.88191 481.46835 295.50456 C 485.65852 312.64282 493.01202 319.20627 502.54062 314.31315 C 504.63176 313.2393 506.6465 310.114 508.32968 305.33268 C 512.46787 293.57753 512.6463 290.02696 509.36483 284.71745 C 506.86782 280.67716 505.73392 280.00065 501.46249 280.00065 z M 505.60312 288.03581 C 505.80911 288.03381 506.16318 288.11821 506.66757 288.27018 C 509.2664 289.05331 510.12697 297.34312 507.76522 298.8405 C 504.65215 300.81423 503.51586 300.07694 505.79257 297.5612 C 508.42334 294.65423 508.61088 291.84816 506.33358 289.43425 C 505.40887 288.45404 505.14993 288.03983 505.60312 288.03581 z M 375.71249 289.33268 C 377.60828 289.33268 391.61491 304.72256 394.10897 309.54557 C 396.98508 315.10735 395.59701 315.79496 392.40585 310.38932 C 390.98039 307.9747 386.34168 302.24998 382.09726 297.66667 C 377.85282 293.08333 374.97916 289.33268 375.71249 289.33268 z M 487.9996 290.66667 C 488.73294 290.66667 489.33358 292.42588 489.33358 294.57487 C 489.33358 297.56675 490.03643 298.6168 492.33358 299.05925 C 495.06721 299.58575 495.02689 299.65356 491.88827 299.81901 C 489.99383 299.91891 488.04513 299.60087 487.55624 299.11198 C 486.15166 297.70741 486.5211 290.66667 487.9996 290.66667 z M 477.72616 293.85221 C 477.62784 293.85104 477.53659 293.8746 477.45272 293.92643 C 475.6702 295.0281 474.29389 304.72393 475.41757 308.26432 C 476.32017 311.10816 476.5502 310.95907 478.95468 305.98698 C 481.03019 301.69514 481.25141 299.94341 480.09921 296.92057 C 479.4119 295.11738 478.41443 293.86041 477.72616 293.85221 z M 376.04257 302.1901 C 376.35261 302.02939 379.60956 304.83206 385.77108 310.61979 C 390.78931 315.33359 397.71838 324.58108 395.70077 323.87175 C 395.49861 323.80065 390.23291 318.24999 383.9996 311.53776 C 378.36917 305.47473 375.73253 302.35082 376.04257 302.1901 z M 482.16366 306.6276 C 481.6557 306.64231 480.70504 307.94474 479.76522 310.01823 C 477.63925 314.70865 477.65977 314.87655 480.45663 316.00456 C 482.03922 316.64284 484.43185 317.20221 485.77499 317.2487 C 488.10606 317.3294 488.09926 317.13699 485.60897 313.00065 C 484.1741 310.61732 482.76403 307.88584 482.47616 306.93034 C 482.41319 306.72132 482.30589 306.62349 482.16366 306.6276 z M 391.22421 322.66667 C 391.55083 322.66667 394.69867 327.50751 398.21835 333.42448 C 404.32688 343.69364 412.02587 351.99131 425.69687 363.03776 C 433.04105 368.97201 439.11738 378.58697 438.28085 382.95182 C 437.95963 384.62787 437.61509 385.14034 437.51522 384.08854 C 436.90672 377.67961 431.37131 370.62127 420.92538 362.93425 C 409.5066 354.53131 404.26455 348.90864 398.30038 338.66667 C 394.44122 332.03949 390.29588 322.66667 391.22421 322.66667 z M 224.76913 342.35026 C 219.75654 342.51559 214.65964 343.28685 209.36483 344.65885 C 190.7047 349.49419 154.0016 363.99082 145.19491 370.00456 C 127.24949 382.25876 111.5974 402.87996 99.790616 429.82292 C 90.302934 451.4737 82.164483 464.18058 70.958584 474.83854 C 61.063934 484.24937 61.163767 485.0418 71.753506 481.13737 C 73.451243 480.51141 75.205187 480.00065 75.651944 480.00065 C 77.290946 480.00065 69.766551 487.17591 61.333584 493.65495 C 56.015599 497.74074 53.95422 499.93069 55.9996 499.32096 C 65.74665 496.41534 73.68938 492.74424 81.907803 487.34635 C 86.942884 484.03931 91.24685 481.33268 91.472256 481.33268 C 91.697662 481.33268 90.98918 483.86309 89.898038 486.95573 C 85.032147 500.74714 77.624347 509.05175 59.274991 521.28776 C 46.643332 529.711 41.785219 534.014 39.105069 539.14714 C 36.788451 543.58401 36.988643 543.4972 48.327725 535.17839 C 55.982927 529.5622 67.39267 524.28239 68.810147 525.69987 C 70.797309 527.68704 63.891919 537.02607 53.261319 546.73112 C 38.282552 560.40577 33.3256 567.66791 33.353116 575.89518 C 33.364346 579.25279 33.932182 582.88409 34.614834 583.96354 C 35.9988 586.15194 35.672763 586.72299 38.765225 576.70964 C 40.588633 570.80545 50.922281 559.13986 59.667569 553.11198 C 62.78423 550.96374 65.333584 549.52378 65.333584 549.91276 C 65.333584 550.30174 62.843253 554.68032 59.800381 559.64323 C 50.842846 574.25291 50.275346 576.2869 50.130459 594.33073 C 50.047379 604.67679 50.488924 610.50441 51.333584 610.22917 C 54.081789 609.33364 58.223071 601.42094 59.909756 593.84245 C 62.185376 583.61778 67.700382 572.81303 74.464444 565.33268 L 79.890225 559.33268 L 79.944913 564.04362 C 79.974992 566.63381 79.148849 572.03284 78.108975 576.04167 C 77.069101 580.05047 76.409692 583.52012 76.642178 583.7526 C 78.588632 585.69906 89.447744 564.47915 101.42343 535.33268 L 105.25937 526.00065 L 105.29648 537.93425 C 105.31797 544.85083 105.8257 549.33442 106.50351 548.60026 C 109.39133 545.47233 112.56022 531.22765 114.05233 514.67643 C 114.94529 504.77142 115.74862 497.91137 115.83749 499.43229 C 115.92639 500.95321 118.01007 505.0243 120.4664 508.47917 L 124.93124 514.76042 L 124.42929 501.71354 C 123.93662 488.95256 126.83396 462.70667 128.29843 466.66667 C 128.70523 467.76667 130.67786 473.92665 132.68319 480.35612 C 139.24503 501.39434 139.98312 496.14025 135.79843 458.17839 C 135.00083 450.94292 134.59912 438.04159 134.90585 429.51042 C 135.46217 414.03718 135.48067 413.96495 142.36874 399.55729 C 149.7045 384.21322 160.64706 366.66667 162.88046 366.66667 C 163.6191 366.66667 162.36473 369.01507 160.0914 371.88542 C 154.11131 379.43587 149.40346 390.54236 146.98983 402.79362 C 145.07892 412.4932 145.07243 414.59527 146.93515 425.10417 C 148.07264 431.52157 151.83819 443.84666 155.36093 452.6862 C 163.7257 473.67582 164.63849 484.03425 159.55429 500.29557 C 154.30229 517.09354 148.83888 524.82061 137.12655 532.02018 C 125.10611 539.40918 123.25383 542.7613 121.28866 560.68425 C 117.54185 594.85638 110.82532 608.99307 95.802334 614.32878 C 92.243987 615.5926 89.333584 617.02431 89.333584 617.51237 C 89.333584 618.00044 92.332942 619.12103 95.9996 620.00065 C 99.666259 620.88027 102.66757 621.86993 102.66757 622.19987 C 102.66757 622.52981 101.75124 624.56951 100.63241 626.73307 C 98.76245 630.3492 98.783072 630.66667 100.88046 630.66667 C 102.13536 630.66667 104.59121 629.32478 106.33749 627.68425 L 109.51132 624.70182 L 112.06015 628.01628 C 114.97294 631.80736 115.45899 638.63839 112.9996 641.20573 C 110.31575 644.00739 128.0422 642.48504 132.55819 639.52604 L 136.17929 637.15495 L 130.08944 631.48503 C 124.01519 625.82841 123.9996 625.79134 123.9996 616.77018 C 123.9996 600.59578 134.40844 574.14744 147.65194 556.66667 C 159.28575 541.31061 163.9704 537.05429 183.10507 524.45182 C 204.92993 510.07756 213.5631 501.77909 216.86093 492.00456 C 218.22104 487.97327 222.18424 479.04406 225.66757 472.16276 C 234.29908 455.11124 234.31592 449.37331 225.82772 422.27214 L 219.64999 402.54557 L 222.03085 397.26432 C 223.3406 394.35985 226.97064 389.8869 230.09726 387.32487 C 238.30627 380.59821 238.66677 381.60222 230.69882 389.00065 C 221.08796 397.92456 220.80542 401.11864 227.94101 420.1569 C 231.02234 428.37815 233.94667 438.71835 234.43905 443.13542 L 235.33358 451.16667 L 257.56015 458.07878 C 278.77123 464.67525 296.79446 468.98314 298.02694 467.75065 C 298.75247 467.02513 296.4022 433.28997 295.56796 432.45573 C 294.99897 431.88674 263.09312 434.96615 249.44491 436.9069 C 244.01413 437.67914 243.64304 437.54717 244.66366 435.20573 C 249.47339 424.17151 251.9269 413.56127 253.26718 398.00065 C 255.14816 376.16261 256.78184 366.84196 260.07187 359.16667 C 261.50403 355.82553 262.37305 352.60248 262.00351 352.00456 C 261.63397 351.40663 256.08173 348.97548 249.66562 346.60026 C 241.24483 343.48292 233.12346 342.07472 224.76913 342.35026 z M 375.9996 374.82878 C 376.84543 374.82878 377.69193 374.91308 378.33358 375.08073 C 379.61691 375.4161 378.56626 375.6901 375.9996 375.6901 C 373.43293 375.6901 372.38424 375.4161 373.66757 375.08073 C 374.30924 374.91304 375.15377 374.82878 375.9996 374.82878 z M 186.42929 375.7526 C 187.14069 375.6942 185.7856 377.09958 181.9996 380.528 C 174.42407 387.38802 170.83546 388.76811 176.7496 382.54753 C 178.90347 380.28206 182.46757 377.54267 184.66757 376.45964 C 185.55646 376.02204 186.15091 375.77547 186.42929 375.7526 z M 183.12265 383.3112 C 183.53257 383.3854 182.70898 384.46062 180.52694 386.83268 C 178.24993 389.30799 174.47003 394.18333 172.12851 397.66667 C 166.97853 405.32788 165.65975 405.86575 169.24179 398.8444 C 172.55626 392.34747 178.10047 385.71331 181.81015 383.80339 C 182.49441 383.45109 182.93632 383.27747 183.12265 383.3112 z M 181.73397 392.00065 C 182.53519 392.00065 181.3004 393.94937 178.99179 396.33268 C 176.68317 398.71602 172.97742 403.96734 170.75546 408.00065 C 168.5335 412.03398 166.7043 414.55981 166.69101 413.61393 C 166.62421 408.85786 178.35714 392.00065 181.73397 392.00065 z M 451.12265 393.79362 C 451.24981 393.77992 451.40482 393.98456 451.57772 394.41667 C 451.96288 395.37917 451.91531 396.5283 451.47226 396.97135 C 451.0292 397.41441 450.71319 396.62691 450.77108 395.22135 C 450.80908 394.29912 450.93679 393.81368 451.12265 393.79362 z M 385.19491 396.09245 C 390.71233 396.13065 398.1194 398.40109 400.01913 400.6901 C 401.87305 402.92394 400.43208 403.22606 397.12851 401.29753 C 395.91567 400.58951 391.71502 399.1472 387.79452 398.09245 C 382.2305 396.59553 381.54529 396.15709 384.66757 396.0944 C 384.84137 396.0914 385.01693 396.09145 385.19491 396.09245 z M 175.13437 408.00065 C 175.46837 408.00065 173.90245 412.35 171.6539 417.66667 C 166.16534 430.64418 166.05579 440.04801 171.25741 452.00065 C 177.50428 466.35509 177.27517 485.37878 170.69101 499.02018 C 169.1922 502.12549 168.31857 503.46732 168.7496 502.00065 C 174.79969 481.41374 174.80007 466.18368 168.75155 452.05339 C 163.78984 440.46306 164.25791 429.868 170.30038 417.00065 C 172.62489 412.05067 174.80037 408.00065 175.13437 408.00065 z M 331.89022 449.73698 C 331.18578 449.80268 330.32674 452.61806 329.11874 458.03776 C 326.09421 471.60734 326.09966 471.72121 329.66757 472.30925 C 334.6011 473.12235 335.04078 472.07459 334.10702 461.77018 C 333.36512 453.58302 332.74042 449.65768 331.89022 449.73698 z M 482.23397 452.60807 C 482.41886 452.58157 483.01614 453.10875 484.02108 454.01823 C 485.42095 455.28509 487.26945 458.49948 488.12851 461.16081 C 488.98758 463.82211 491.40945 468.3679 493.51132 471.26237 C 497.47065 476.71474 498.22202 480.5617 495.9996 484.00065 C 495.04932 485.4711 494.70211 484.54775 494.6871 480.51628 C 494.672 476.45085 493.63324 473.73246 490.66757 470.00065 C 488.46757 467.23231 486.66757 464.27639 486.66757 463.43229 C 486.66757 462.58818 485.49933 459.60721 484.07187 456.80729 C 482.57411 453.86954 481.96377 452.64673 482.23397 452.60807 z M 238.01327 456.63737 C 235.45828 456.64334 234.66757 457.74873 234.66757 459.95768 C 234.66757 461.44737 234.53341 463.11667 234.37069 463.66667 C 234.20797 464.21667 235.85732 465.5051 238.03671 466.52995 C 240.21609 467.55481 245.86127 470.70481 250.58163 473.52995 C 260.44058 479.43054 263.36474 479.87952 264.49374 475.66667 C 264.93593 474.01667 265.30599 470.73372 265.31601 468.37175 C 265.33411 464.09275 265.28421 464.06343 251.94296 459.91862 C 244.88595 457.72617 240.56827 456.6314 238.01327 456.63737 z M 470.85507 458.85417 C 471.35677 458.84247 471.85404 458.84272 472.34726 458.85612 L 479.33358 459.04557 L 470.59921 459.94206 C 464.35455 460.58262 459.22305 462.22182 452.59921 465.69596 C 428.26702 478.45798 421.65916 481.35383 415.33358 482.02018 L 408.66757 482.72135 L 415.60312 480.73698 C 425.34293 477.95142 437.54188 472.66766 445.41562 467.82292 C 454.84897 462.01851 463.3295 459.02906 470.85507 458.85417 z M 269.7203 465.52409 C 268.25888 465.62007 267.9996 467.23158 267.9996 471.03581 C 267.9996 474.17263 267.09975 478.02568 265.9996 479.59635 C 264.22415 482.13116 263.43736 482.30081 258.9996 481.10612 C 256.24975 480.36584 251.29297 478.04249 247.98397 475.94401 C 244.67497 473.84553 239.76292 471.20789 237.06991 470.08268 L 232.17538 468.03776 L 227.88046 475.54167 C 225.0718 480.45069 224.00331 483.60372 224.79257 484.6569 C 233.93416 496.85527 236.49222 501.87674 237.0621 508.7487 C 238.12884 521.6122 235.60379 527.32481 223.6578 539.06315 C 214.27084 548.28695 213.17673 549.8642 213.97226 553.03385 C 215.30669 558.35066 223.87137 565.6674 232.08358 568.50651 C 240.03335 571.25488 251.86509 578.29929 257.78476 583.80925 C 266.42212 591.84881 268.19429 603.32985 262.04257 611.39518 C 258.18535 616.45225 258.71001 617.00351 264.50155 613.98307 C 268.32586 611.98861 268.33484 611.99418 267.5953 615.65885 C 267.18741 617.68006 266.46276 620.53398 265.98593 622.00065 C 264.52995 626.47901 271.81296 617.2494 273.61483 612.33268 C 275.35892 607.57365 278.52654 606.71703 281.90194 610.09245 C 284.35431 612.54481 285.91547 617.89167 284.92929 620.46159 C 284.4061 621.82501 286.03776 622.32136 291.64413 622.50456 C 295.71766 622.63767 299.41478 622.959 299.85897 623.21745 C 300.30316 623.47591 302.01221 623.17727 303.6578 622.55534 C 306.5251 621.47161 306.37171 621.16464 299.94687 615.15495 C 296.15947 611.61229 291.15487 604.9116 288.44491 599.75456 C 283.56985 590.47729 278.19352 585.06433 260.54843 571.67057 C 244.62021 559.58005 241.27324 553.14073 246.08358 543.83854 C 247.22959 541.62242 254.61761 533.07205 262.50155 524.83854 C 278.68001 507.94276 283.33358 500.16182 283.33358 490.00065 C 283.33358 481.20075 278.28128 468.86006 273.85312 466.84245 C 271.90569 465.95514 270.59716 465.4665 269.7203 465.52409 z M 435.25351 485.68229 C 434.74601 485.60279 433.86945 485.79369 432.49374 486.12565 C 426.60954 487.5455 416.01387 491.84144 408.9996 495.65104 L 402.66757 499.0905 L 402.66757 512.04362 C 402.66757 520.34557 401.92372 527.09355 400.59921 530.83268 C 399.02718 535.2706 398.74147 539.37986 399.4039 548.00065 C 400.51609 562.47453 397.98197 588.14994 394.71054 595.54557 C 393.09751 599.1921 389.59416 603.20316 384.77304 606.92253 L 377.32772 612.66667 L 383.63241 613.33268 L 389.93905 614.00065 L 384.66562 618.33268 L 379.39218 622.66667 L 386.61093 622.66667 C 392.18659 622.66667 394.52983 623.32562 396.91366 625.5651 C 400.25596 628.70503 401.07743 635.17659 398.34726 636.86393 C 397.22201 637.55938 397.75361 638.18032 400.01327 638.80925 C 403.84694 639.87628 418.66757 640.31422 418.66757 639.36003 C 418.66757 639.00761 416.50572 635.33995 413.86483 631.21159 C 408.11818 622.22812 406.77358 614.47462 408.17929 598.44206 C 409.60587 582.17141 413.73128 567.43336 421.46249 550.98698 C 427.6278 537.87171 428.29376 535.48785 429.38632 522.66667 C 430.44464 510.24718 432.0415 501.17497 435.32187 488.93425 C 435.92103 486.69845 436.09934 485.8148 435.25351 485.68229 z " />
    <path
       id="path4"
       style="fill:#d45500"
       d="M 416.55233 167.20378 C 416.43111 167.19173 416.35262 167.20428 416.31601 167.24089 C 415.96707 167.58983 417.853 170.83382 420.50741 174.44987 C 424.95436 180.5078 426.44466 184.00065 424.58358 184.00065 C 424.17137 184.00065 420.85385 183.02435 417.21054 181.83268 C 410.85622 179.75429 410.09889 179.79295 398.62655 182.75065 C 381.76494 187.09777 382.33789 189.03616 400.73983 189.9069 C 408.4216 190.27039 413.00921 191.10402 414.27108 192.36589 C 415.92779 194.0226 415.20662 194.37624 408.81601 195.03581 C 404.5471 195.4764 396.24065 198.08028 389.05624 201.23112 C 376.79362 206.60908 367.74489 208.15625 365.91171 205.1901 C 364.69693 203.22455 362.71445 206.34138 362.6871 210.25846 C 362.6568 214.5986 367.58427 217.33268 375.43124 217.33268 L 382.26718 217.33268 L 364.13437 235.83854 C 354.16084 246.01614 343.90025 255.41214 341.33358 256.7194 L 336.66757 259.09635 L 340.46444 260.36979 C 343.02252 261.2274 345.32692 261.15735 347.52694 260.15495 C 352.16853 258.0401 353.33358 258.28911 353.33358 261.39909 C 353.33358 265.27025 350.25178 270.68605 345.45272 275.2487 C 343.18726 277.40257 341.33358 279.65257 341.33358 280.2487 C 341.33358 281.72478 345.75297 281.61425 349.90976 280.03385 C 351.78911 279.31932 357.21262 275.12062 361.96249 270.70182 C 366.71237 266.28303 371.19825 262.66667 371.93124 262.66667 C 372.66424 262.66667 374.16613 264.40856 375.26718 266.53776 C 377.69394 271.23058 385.03071 276.00065 389.82382 276.00065 C 394.2737 276.00065 394.29773 274.27266 389.88827 271.38346 C 387.05735 269.52858 382.66757 262.22728 382.66757 259.37565 C 382.66757 257.76327 388.32187 258.89063 398.51522 262.53385 L 409.33358 266.40104 L 409.33358 263.21745 C 409.33358 260.91244 407.77057 259.06316 403.66757 256.51823 C 392.17745 249.39139 390.0923 245.25159 392.83944 235.00065 C 393.92585 230.94671 394.7832 231.20924 398.56405 236.76042 C 401.77753 241.47855 408.85744 246.25414 410.38046 244.73112 C 410.81963 244.29195 410.46342 241.95473 409.58944 239.53776 C 407.76242 234.48521 407.51453 224.16458 409.1578 221.57292 C 410.01074 220.22772 411.23885 220.77896 414.36679 223.9069 C 416.61849 226.15859 419.43003 228.00065 420.61288 228.00065 C 422.37164 228.00065 422.14574 227.09356 419.38046 223.02409 C 415.6972 217.6037 415.13044 212.70159 417.56601 207.35612 L 419.13046 203.92057 L 421.95858 209.53581 C 425.59568 216.75976 427.63453 217.46003 426.9078 211.23503 C 426.2924 205.96366 428.76068 200.00065 431.55819 200.00065 C 432.53428 200.00065 433.33358 201.2 433.33358 202.66667 C 433.33358 206.1297 433.51591 206.09024 440.62851 201.07682 C 444.64667 198.24455 446.66757 195.84704 446.66757 193.91081 C 446.66757 192.31031 446.99716 189.27499 447.40194 187.16667 C 448.05985 183.73982 447.52965 182.99504 442.40194 180.13542 C 429.46039 172.91816 418.37064 167.3845 416.55233 167.20378 z M 471.31796 181.45378 C 468.54622 181.35399 467.75391 181.96989 466.73397 183.87565 C 465.88582 185.46046 465.3728 189.56495 465.5953 192.99675 C 465.97599 198.8687 466.25891 199.28905 470.38827 200.1276 C 475.67751 201.2017 479.20059 204.18651 481.37265 209.43034 C 483.26092 213.98904 484.81358 214.40347 485.9996 210.66667 C 487.24574 206.74044 488.35934 207.35626 491.39413 213.653 C 494.10401 219.27557 501.20909 225.33268 505.0953 225.33268 C 506.71033 225.33268 506.56502 224.71327 504.38827 222.33268 C 501.17793 218.82171 496.86497 210.68997 497.74569 209.80925 C 498.08046 209.47449 500.6079 210.73068 503.36288 212.60026 C 508.25844 215.92247 518.41906 217.50064 516.66757 214.66667 C 516.21434 213.93333 514.87527 213.33268 513.69296 213.33268 C 510.95078 213.33268 506.66757 209.49512 506.66757 207.03776 C 506.66757 205.83013 507.52877 205.42753 509.06991 205.91667 C 510.39171 206.3362 512.597 205.85838 513.9703 204.85417 C 516.30729 203.14532 516.17437 202.93508 511.89999 201.58073 C 509.38823 200.78487 504.93293 199.7274 501.9996 199.23112 C 495.84361 198.18961 492.86097 195.9646 490.73202 190.82487 C 488.74905 186.03755 482.9445 182.73103 474.83163 181.77018 C 473.38636 181.59901 472.24187 181.48704 471.31796 181.45378 z " />
    <path
       id="path5"
       style="fill:#00ffff"
       d="M 460.73007 236.87175 C 457.85741 236.84286 458.28483 238.40697 461.93905 242.0612 C 465.17068 245.29283 473.65952 246.71025 475.16757 244.27018 C 475.52913 243.68517 475.25266 242.33517 474.55429 241.27018 C 473.47159 239.6191 473.08237 239.67707 471.90976 241.66667 C 469.88962 245.0943 466.66757 244.57171 466.66757 240.81706 C 466.66757 238.30085 465.83062 237.51372 462.66757 237.04948 C 461.90882 236.93812 461.26204 236.87709 460.73007 236.87175 z M 495.32187 237.8444 C 495.07672 237.83862 494.7811 237.92994 494.46444 238.12565 C 492.58731 239.28578 496.78041 242.7104 499.92147 242.58268 C 501.21211 242.53018 500.86245 242.04045 498.9996 241.29167 C 497.3496 240.62845 495.9996 239.43176 495.9996 238.63151 C 495.9996 238.13136 495.73043 237.85404 495.32187 237.8444 z " />
    <path
       id="path6"
       style="display:inline;fill:#0000ff"
       d="M 349.47226 352.02409 C 349.02909 352.03729 346.71114 354.40208 344.32187 357.27995 L 339.97812 362.51237 L 342.65585 369.30534 C 346.01686 377.83229 346.00154 380.22409 342.51132 391.52409 C 340.06564 399.44226 335.77407 423.98569 336.65194 425.03581 C 337.2205 425.71594 356.60921 428.97858 361.14218 429.1569 C 364.89269 429.30443 365.47317 428.9558 364.71835 427.00065 C 362.53328 421.34081 360.01916 407.54117 358.70663 394.00065 C 357.92469 385.93399 356.95735 377.53268 356.55624 375.33268 C 355.28638 368.36766 350.31126 351.99907 349.47226 352.02409 z M 268.26718 354.69987 C 265.45839 354.66295 264.96646 355.43535 263.9078 358.16667 C 260.65484 366.55921 257.38223 382.77211 256.00155 397.33268 C 254.65286 411.55581 252.18688 425.20261 249.88827 431.15885 C 249.0273 433.38981 249.4713 433.58435 254.12851 433.01042 C 256.99062 432.6577 265.33424 431.63804 272.66757 430.74479 C 280.00089 429.85155 288.51772 428.83643 291.5953 428.48893 C 297.04182 427.87395 297.21023 427.70888 297.8746 422.26237 C 298.25001 419.18478 299.31652 411.86732 300.24569 406.00065 C 301.17486 400.13399 301.95052 390.83268 301.96835 385.33268 C 301.99725 376.41513 301.56663 374.68322 297.9996 369.33268 C 293.21302 362.15283 281.91653 355.92075 271.95468 354.96354 C 270.39646 354.81382 269.20344 354.71218 268.26718 354.69987 z " />
    <path
       id="path7"
       style="display:inline;fill:#008080"
       d="M 353.14804 301.45573 C 351.84288 301.50085 349.94003 302.17872 347.16757 303.1569 C 344.32519 304.15974 337.60807 305.72051 332.24179 306.62565 C 325.86791 307.70075 322.71656 308.80329 323.15194 309.80339 C 327.36689 319.48556 332.11116 333.87463 334.75351 344.99089 C 336.53899 352.5024 338.41856 358.65175 338.93124 358.6569 C 339.44392 358.6619 341.39457 356.66023 343.26522 354.20768 C 345.13587 351.75514 346.66757 349.12744 346.66757 348.36979 C 346.66757 347.61213 347.56404 346.24757 348.66171 345.33659 C 352.50596 342.14614 355.9996 327.16096 355.9996 313.86003 C 355.9996 304.31718 356.01939 301.35646 353.14804 301.45573 z M 256.98397 308.00651 C 252.56543 308.02641 245.30064 311.06289 242.16366 314.19987 C 235.76957 320.59396 237.93754 330.08361 247.83358 339.02409 C 254.34016 344.90238 258.15791 346.93182 270.84335 351.2526 C 283.45096 355.54689 285.95953 355.66232 283.92147 351.85417 C 283.09363 350.30732 279.24504 344.15797 275.36874 338.18815 C 271.49244 332.21834 266.14232 322.98332 263.47812 317.66667 C 260.81391 312.35 257.89142 308.00242 256.98397 308.00651 z " />
    <path
       id="path8"
       style="display:inline;fill:#ffff00"
       d="M 293.07968 69.926433 C 292.75978 69.93162 292.40835 69.972303 292.01327 70.031901 C 290.17233 70.309608 283.95973 70.863678 278.20663 71.26237 C 267.30202 72.018064 257.03108 75.557223 253.7789 79.678386 C 250.99625 83.204555 247.73175 89.510148 248.36288 90.141276 C 248.67089 90.449292 252.16579 89.283356 256.12851 87.54948 C 269.48225 81.706587 268.69721 81.454027 281.05038 95.555339 C 287.82037 103.28338 292.4218 109.77378 292.92929 112.3112 L 293.75741 116.45182 L 296.89022 112.55925 C 298.61295 110.41822 300.61418 106.56732 301.33749 104.00065 C 303.25428 97.198951 303.0526 95.270696 299.01718 81.764323 C 295.99653 71.654394 295.31895 69.890123 293.07968 69.926433 z M 266.64022 85.977214 C 264.187 85.935171 261.14878 87.248956 255.73007 89.578776 C 249.14331 92.410817 243.33243 98.666667 247.28866 98.666667 C 248.3977 98.666667 252.42357 97.482435 256.23593 96.033855 L 263.16757 93.399089 L 267.91757 97.002605 C 270.52974 98.984281 275.21693 102.94504 278.33358 105.80534 C 283.41296 110.46689 284.00363 111.64585 284.03866 117.17057 L 284.07772 123.33268 L 288.10116 118.91081 C 291.0914 115.62262 291.88813 113.74038 291.21054 111.57682 C 290.0384 107.83417 286.99116 103.96816 277.01718 93.572917 C 271.982 88.325069 269.79437 86.031269 266.64022 85.977214 z M 284.59335 127.44987 C 284.42868 127.45398 284.23178 127.64137 283.9996 128.00065 C 283.28872 129.10065 282.69833 131.02135 282.6871 132.27018 C 282.6151 140.27441 275.92101 145.33268 265.39999 145.33268 C 259.0234 145.33268 257.40635 146.25132 259.66757 148.58854 C 260.21757 149.15703 264.47304 149.27531 269.1246 148.85026 C 276.54085 148.17259 278.05504 147.53944 281.43515 143.70573 C 284.58848 140.12922 285.29185 138.12042 285.29257 132.66667 C 285.29304 129.07389 285.08737 127.43753 284.59335 127.44987 z M 281.74765 130.16862 L 276.54062 134.40104 C 273.67673 136.72931 269.83293 139.88453 267.9996 141.41276 L 264.66757 144.19206 L 269.91952 143.47135 C 272.80902 143.07535 276.22258 141.68245 277.50351 140.37565 C 278.78444 139.06885 280.26383 136.23832 280.79062 134.08464 L 281.74765 130.16862 z M 286.56601 141.80143 C 286.01357 141.81093 284.50761 143.06616 282.79843 145.00456 C 279.4966 148.74918 277.83422 149.4604 270.62851 150.21354 C 263.21928 150.98796 262.55529 151.2888 264.72812 152.8776 C 268.5345 155.6609 277.36459 155.06209 282.66757 151.66081 C 286.99534 148.885 287.4871 147.72879 286.78671 142.00065 C 286.76989 141.86315 286.69349 141.79924 286.56601 141.80143 z M 291.49765 147.13151 C 291.02324 147.10238 290.30474 147.75258 288.8746 149.05339 C 285.18506 152.40927 280.67184 154.73538 274.03866 156.70182 L 268.74179 158.27214 L 272.70468 160.41667 C 277.75582 163.14996 279.2333 163.15559 284.89804 160.46745 C 290.65421 157.73596 293.8649 153.10554 292.65194 149.28385 C 292.20246 147.86766 291.97205 147.16064 291.49765 147.13151 z M 296.83749 150.66667 C 295.66993 150.66667 295.82475 160.3389 297.02108 162.14714 C 298.37677 164.19624 306.04545 168.00065 308.82187 168.00065 C 310.0805 168.00065 310.75157 168.36001 310.3121 168.79948 C 308.39587 170.71571 298.49496 167.57904 295.09726 163.97917 L 291.52108 160.1901 L 286.51718 162.74284 C 283.76524 164.14677 281.19795 165.80604 280.8121 166.43034 C 279.64993 168.31078 283.96436 173.33268 286.74179 173.33268 C 288.63733 173.33268 289.33358 174.2566 289.33358 176.77018 C 289.33358 178.80724 290.9552 181.82736 293.31796 184.1901 C 297.2641 188.13625 299.9996 188.29985 299.9996 184.58854 C 299.9996 183.53182 300.60026 182.66667 301.33358 182.66667 C 302.06692 182.66667 302.66757 183.26732 302.66757 184.00065 C 302.66757 186.38034 307.92311 190.66667 310.8414 190.66667 C 313.40353 190.66667 313.61212 190.12353 312.94491 185.14909 L 312.20468 179.62956 L 314.80429 183.9069 C 318.24035 189.55707 321.84172 188.96587 322.44296 182.65495 C 323.47727 171.79847 317.14556 161.80608 304.73202 154.70378 C 300.85046 152.48297 297.29822 150.66667 296.83749 150.66667 z M 223.54843 150.87956 C 219.37011 150.97955 214.91663 152.26692 210.66757 154.90495 L 205.9996 157.80143 L 211.21444 158.92448 C 223.78157 161.62988 231.22656 170.31057 230.46054 181.36393 C 230.20751 185.01505 230.33173 188.0011 230.73788 188.00065 C 231.14402 188.00019 233.35697 186.04999 235.65585 183.66667 C 241.16547 177.95463 243.05382 172.6215 242.01913 165.69206 C 240.59942 156.18409 232.74072 150.65958 223.54843 150.87956 z M 243.33358 158.36393 L 243.33358 167.8444 C 243.33358 177.273 243.64524 178.24381 246.06601 176.33268 C 246.76267 175.78268 244.78423 177.62915 241.66757 180.4362 C 235.48398 186.00551 234.98155 187.51471 238.01327 191.41276 C 239.96461 193.9217 240.1519 193.85649 244.13437 189.33268 L 248.24179 184.66667 L 245.45468 189.98112 C 243.92135 192.9036 242.66757 196.01679 242.66757 196.90104 C 242.66757 200.06452 245.58598 200.22762 248.76522 197.24089 C 252.3656 193.8585 252.72638 194.27958 250.4703 199.23112 C 249.26425 201.8781 249.33538 203.0659 250.80429 204.84635 C 252.49301 206.89326 252.40323 206.96272 249.84921 205.60221 C 247.00263 204.08586 241.56059 198.33808 236.66757 191.68034 C 234.70312 189.00739 233.48149 188.3789 232.0289 189.29362 C 230.33715 190.35894 230.66897 192.40087 234.36483 203.67643 C 240.65304 222.86081 247.80379 233.04054 258.65194 238.24479 C 269.8848 243.63361 285.38796 245.16195 289.9996 241.33464 C 294.55033 237.55787 291.61493 224.30113 283.14022 210.35026 C 278.37519 202.50616 278.22055 202.38836 276.13437 205.10026 C 274.96082 206.62579 271.17011 208.62085 267.71249 209.53385 C 262.47141 210.91779 260.76865 210.87393 257.46444 209.26432 L 253.4996 207.33268 L 256.08358 204.1862 C 258.57607 201.14909 258.66757 201.13511 258.66757 203.80534 C 258.66757 207.28865 262.94894 209.85014 265.12851 207.67057 C 265.97419 206.82489 266.68964 204.30372 266.71835 202.06706 L 266.77108 198.00065 L 268.6539 202.33268 C 269.6898 204.71602 271.155 206.66667 271.90976 206.66667 C 273.77938 206.66667 275.1356 200.71873 274.15585 196.8151 C 273.10376 192.62327 263.32862 179.71411 252.23788 167.87175 L 243.33358 158.36393 z M 201.4039 162.66667 L 207.26913 168.5319 C 212.50761 173.77038 215.96828 180.86962 215.99179 186.42253 C 216.00219 188.88276 221.381 187.15167 224.33358 183.73698 C 231.80387 175.09754 222.00361 162.66667 207.72226 162.66667 L 201.4039 162.66667 z M 198.76327 163.72331 L 194.03671 166.64323 L 189.31015 169.5651 L 194.73397 175.72721 C 197.76235 179.16764 200.83461 184.41733 201.68905 187.61198 C 203.35546 193.84248 205.43489 194.71564 210.37069 191.25846 C 216.90254 186.68338 213.02976 173.49724 203.16952 166.74089 L 198.76327 163.72331 z M 188.19882 170.00065 L 182.08163 175.96159 L 175.96444 181.92448 L 180.70468 184.35612 C 183.31183 185.69367 187.07021 189.13815 189.05624 192.01042 C 193.10875 197.87128 195.79915 198.57227 199.31601 194.6862 C 201.57592 192.18901 201.58702 191.71716 199.51132 186.35221 C 198.30127 183.22466 195.26109 178.26602 192.75546 175.33268 L 188.19882 170.00065 z M 229.01718 177.88151 C 228.77468 177.83305 228.31173 178.77429 227.41757 180.82878 C 225.30821 185.67539 220.62629 189.33268 216.5328 189.33268 C 214.95243 189.33268 212.93191 190.2103 212.04257 191.2819 C 211.15322 192.3535 209.13025 193.59936 207.54647 194.05143 C 200.31444 196.11577 193.34205 199.47178 193.33749 200.89128 C 193.33149 202.68544 212.26198 197.26787 220.30624 193.17253 C 225.5764 190.48948 229.36729 184.81186 229.28085 179.73307 C 229.26081 178.55592 229.20579 177.9192 229.01718 177.88151 z M 174.48397 185.4362 C 170.91953 185.52609 167.56705 187.31189 165.29647 191.03581 C 161.63309 197.04407 161.85831 199.15826 166.05038 198.10612 C 170.63547 196.95534 177.99515 200.63076 182.23397 206.18815 C 186.32682 211.55415 187.26994 211.68792 190.14022 207.30729 C 192.19053 204.17813 192.18532 203.53624 190.06601 197.98698 C 186.95683 189.84571 180.42471 185.28637 174.48397 185.4362 z M 300.65976 188.37175 C 300.56125 188.37613 300.488 188.40092 300.44101 188.44792 C 298.07001 190.81891 306.72612 202.66667 310.82968 202.66667 C 312.25553 202.66667 316.55289 201.09408 320.37851 199.17253 C 324.20412 197.25098 327.50083 195.53481 327.70468 195.35807 C 327.90853 195.18133 327.50507 193.54132 326.81015 191.71354 L 325.54843 188.38932 L 317.38046 191.06706 L 309.21249 193.74479 L 305.16757 190.75456 C 303.22112 189.31549 301.34929 188.34103 300.65976 188.37175 z M 327.77499 197.57096 C 326.6268 197.61885 324.82342 198.5042 321.12069 200.3776 C 317.18318 202.3698 312.3202 204.00065 310.31405 204.00065 C 305.79362 204.00065 305.68913 205.80931 309.96054 210.08073 C 312.9568 213.07699 313.5876 213.21764 316.96054 211.63151 C 318.99939 210.67275 323.21071 208.71372 326.31991 207.278 C 332.4213 204.46059 333.01188 203.22671 330.14022 199.29948 C 329.2914 198.13865 328.7881 197.52871 327.77499 197.57096 z M 170.20468 200.50846 C 169.05388 200.49137 167.76705 200.74951 166.1539 201.2819 C 158.41463 203.83609 154.86046 209.14135 148.79062 227.19206 L 143.13632 244.00456 L 147.90194 246.49479 C 150.52262 247.86437 153.10337 249.06315 153.63632 249.15885 C 154.16926 249.25455 157.07309 246.21116 160.08944 242.39518 C 167.95663 232.44245 174.76938 218.20752 175.62265 209.9401 C 176.26405 203.72558 176.02092 202.772 173.44101 201.39128 C 172.37177 200.81904 171.35548 200.52556 170.20468 200.50846 z M 331.7789 206.8737 C 330.46453 206.88144 328.28981 207.93022 323.47226 210.30339 C 318.49465 212.75539 313.79253 214.24834 312.54647 213.77018 C 310.27568 212.8988 310.41284 214.14238 313.50351 222.40104 L 314.65194 225.4694 L 319.84921 221.29362 C 322.7074 218.99671 327.33886 216.32962 330.14218 215.36589 C 336.06973 213.32809 336.74155 212.18844 334.12265 208.61198 C 333.30221 207.49158 332.80118 206.86768 331.7789 206.8737 z M 180.86874 207.92057 C 180.17174 207.81955 179.30465 209.59186 177.42538 214.2155 C 173.4302 224.04496 166.61225 235.96078 159.76522 245.08659 C 156.23362 249.79356 154.74814 252.92892 155.3414 254.42057 C 156.06219 256.23287 157.6933 255.09039 163.78476 248.5026 C 167.9368 244.01225 173.56148 236.56237 176.28476 231.94792 C 181.51403 223.0872 183.79851 213.62308 181.79257 209.1276 C 181.46767 208.39947 181.18556 207.96649 180.86874 207.92057 z M 336.09726 215.56706 C 335.16164 215.57706 333.94939 215.81629 332.29843 216.27214 C 326.02184 218.00518 315.9996 224.86357 315.9996 227.42643 C 315.9996 228.50758 318.53882 232.14758 321.64218 235.51432 L 327.28476 241.63542 L 328.91562 237.81706 C 329.8125 235.71726 330.57394 233.2967 330.60702 232.4362 C 330.64012 231.57571 332.80065 228.07637 335.4078 224.66081 C 339.01794 219.93127 339.7967 218.02869 338.67929 216.68229 C 338.04551 215.91864 337.3002 215.55419 336.09726 215.56706 z M 340.56796 220.97917 C 339.99156 220.98842 339.55844 221.14713 339.21249 221.43425 C 337.04453 223.23348 329.33358 238.37477 329.33358 240.83268 C 329.33358 244.24214 344.36937 249.86176 348.17733 247.87565 C 349.37439 247.2513 353.12064 243.66166 356.50351 239.89909 C 359.88637 236.13652 362.3531 232.57058 361.98397 231.97331 C 361.61485 231.37605 356.74555 228.4236 351.16366 225.41276 C 345.31854 222.25994 342.29715 220.95141 340.56796 220.97917 z M 257.0914 254.92839 C 255.8268 254.86849 255.81187 256.71109 256.19882 264.3737 C 256.47969 269.9357 257.03997 274.81838 257.44491 275.22331 C 257.84984 275.62824 260.51762 274.76873 263.37265 273.31315 C 266.22767 271.85758 269.78786 270.72955 271.2828 270.80534 C 272.88878 270.88674 272.06452 271.45866 269.26913 272.20573 C 266.667 272.90115 262.84494 274.82085 260.77499 276.47135 C 257.22969 279.29828 257.06657 279.87469 257.96444 286.403 C 258.48867 290.21458 259.19585 293.33268 259.53671 293.33268 C 259.87756 293.33268 262.37075 291.59912 265.07772 289.47917 C 273.41321 282.95127 278.40503 282.00065 304.33358 282.00065 C 317.35042 282.00065 327.99979 281.63692 327.9996 281.19401 C 327.99941 280.75109 326.58435 278.86264 324.85507 276.99675 C 322.09838 274.02222 320.24996 273.49697 309.85507 272.73698 C 291.13548 271.36837 289.89974 270.79327 307.17929 271.49089 L 323.02694 272.12956 L 322.17929 267.89909 C 321.71379 265.57161 321.32333 262.99167 321.3121 262.16667 C 321.2519 257.74409 319.07107 257.1844 313.87265 260.25651 C 304.56273 265.75838 279.54864 263.49845 258.17733 255.22526 C 257.74206 255.05676 257.38323 254.94222 257.0914 254.92839 z M 263.16366 264.14714 C 263.76155 264.15914 264.01001 264.63542 263.7496 265.41667 C 263.42877 266.37917 262.38007 267.42982 261.41757 267.75065 C 260.41757 268.08398 259.91627 267.58268 260.2496 266.58268 C 260.57043 265.62018 261.6211 264.57148 262.58358 264.25065 C 262.80233 264.17775 262.99625 264.14379 263.16366 264.14714 z M 282.66757 269.48112 C 284.2384 269.48112 285.80794 269.55392 286.9996 269.70182 C 289.38293 269.99759 287.43421 270.23893 282.66757 270.23893 C 277.9009 270.23893 275.95027 269.99759 278.33358 269.70182 C 279.52525 269.55394 281.09674 269.48112 282.66757 269.48112 z M 265.25546 280.00065 C 265.94552 280.00065 266.88036 280.59935 267.33358 281.33268 C 267.78681 282.06602 267.221 282.66667 266.07772 282.66667 C 264.93446 282.66667 263.9996 282.06602 263.9996 281.33268 C 263.9996 280.59935 264.56541 280.00065 265.25546 280.00065 z M 300.09335 282.89128 C 285.66263 282.97458 274.93289 284.92323 268.57187 288.65104 C 259.39114 294.0313 259.10075 294.83522 262.50937 305.41862 C 264.1474 310.5046 265.82653 314.66667 266.24179 314.66667 C 266.65705 314.66667 269.39827 311.93886 272.33358 308.60417 C 282.02292 297.59649 295.45289 293.33268 320.44296 293.33268 C 327.53287 293.33268 333.32941 292.88268 333.32577 292.33268 C 333.32177 291.78268 331.97213 289.6697 330.32577 287.63737 C 327.42143 284.05213 326.83844 283.91937 310.66757 283.13346 C 306.95141 282.95286 303.42352 282.87206 300.09335 282.89128 z M 327.56601 294.73503 C 326.81699 294.72451 325.98596 294.72607 325.06015 294.73893 C 322.59131 294.77323 319.44177 294.88468 315.33358 295.04362 C 296.42814 295.77503 288.56712 297.7602 279.12069 304.18815 C 276.07022 306.2639 272.23672 310.1277 270.60116 312.77409 C 267.71032 317.45158 267.6907 317.72171 269.91757 322.45964 C 271.17747 325.14019 273.10534 328.73064 274.20272 330.43815 L 276.19882 333.54167 L 279.89022 327.77214 C 281.92051 324.59797 286.58113 319.21411 290.24765 315.80925 C 300.23174 306.53757 303.88349 305.12721 322.20663 303.4694 C 331.14112 302.66104 338.83208 301.61743 339.29647 301.15104 C 339.76088 300.68464 338.45916 298.96946 336.4039 297.33854 C 334.07898 295.49368 332.80915 294.80863 327.56601 294.73503 z M 270.07187 296.36198 C 270.49654 296.33508 270.66757 296.9856 270.66757 298.39909 C 270.66757 301.61844 269.97448 302.11504 268.5953 299.88346 C 268.10258 299.08623 268.36709 297.76597 269.18319 296.94987 C 269.55773 296.57534 269.84942 296.37605 270.07187 296.36198 z M 312.46444 308.00065 C 305.16824 308.00065 283.9996 322.93051 283.9996 328.07682 C 283.9996 329.74257 292.03901 337.3369 293.76913 337.30534 C 294.62939 337.28964 299.49649 334.57843 304.58554 331.2819 C 309.67457 327.98537 316.12523 324.60347 318.91952 323.76628 C 324.96644 321.95458 325.29642 319.85908 320.61874 312.97526 C 317.77194 308.78582 316.48251 308.00065 312.46444 308.00065 z M 275.88632 317.48503 C 276.34612 317.47473 276.91073 317.71061 277.47226 318.27214 C 278.42984 319.2297 278.45326 319.97493 277.54257 320.53776 C 276.79601 320.99915 275.78334 320.72638 275.29257 319.93229 C 274.44133 318.55496 274.94483 317.50611 275.88632 317.48503 z M 323.82968 324.32682 C 320.97159 324.28908 313.64239 327.55019 304.31015 333.06315 C 296.86977 337.4585 296.04105 338.36475 296.74765 341.33268 C 297.83042 345.88068 301.17596 349.32802 304.54062 349.36198 C 306.07695 349.37748 312.26023 347.12749 318.28085 344.36198 C 324.30147 341.59647 329.25148 338.50385 329.28085 337.48893 C 329.38226 333.98462 326.15673 325.05293 324.56991 324.44401 C 324.37265 324.36832 324.12534 324.33073 323.82968 324.32682 z M 281.72421 329.17253 L 280.05038 333.21159 C 278.23847 337.58593 279.39639 339.66478 293.94882 358.18815 C 296.91073 361.95828 301.00831 367.20764 303.05624 369.85417 C 307.09552 375.07412 308.69954 375.56777 312.4371 372.73503 C 314.7743 370.96363 314.73511 370.63437 311.46444 364.77604 L 308.05233 358.66667 L 311.69296 358.62956 C 315.48072 358.59076 331.23518 352.10578 331.92538 350.30143 C 332.75235 348.13953 330.66228 341.33268 329.17147 341.33268 C 328.31277 341.33268 322.59139 343.58269 316.45663 346.33268 C 306.16313 350.94691 305.35716 351.59052 306.00351 354.66667 C 306.65511 357.76781 306.59251 357.81361 305.11288 355.33268 C 304.23815 353.86602 301.86417 351.10875 299.83749 349.20378 C 297.81081 347.29879 295.75338 344.14878 295.26522 342.20378 C 294.77706 340.25876 293.71796 338.66667 292.91171 338.66667 C 292.10546 338.66667 289.25726 336.53135 286.58358 333.92057 L 281.72421 329.17253 z M 332.54257 353.20573 C 331.29943 353.17076 328.9985 354.05653 324.43905 356.10221 C 319.66093 358.24601 314.90819 360.00065 313.87655 360.00065 C 311.6529 360.00065 311.48116 361.8717 313.38046 365.42057 C 315.14951 368.72606 315.59801 368.69153 325.97421 364.43034 C 334.62341 360.87837 335.84785 359.29779 333.89608 354.21159 C 333.65358 353.57963 333.28845 353.22671 332.54257 353.20573 z M 331.60897 365.47721 C 329.1019 365.4759 326.09375 366.54506 321.6246 368.77214 C 311.47324 373.83077 306.66492 378.79025 306.66952 384.20182 C 306.67352 388.60261 306.84249 388.72854 318.33749 392.90104 C 332.12581 397.906 331.03619 397.71543 335.18124 395.82682 C 343.35042 392.1047 344.58911 372.69879 336.99765 367.38151 C 335.20452 366.12556 333.55892 365.47823 331.60897 365.47721 z M 312.30233 392.35807 C 311.59712 392.3257 310.66348 392.62009 309.50351 393.24089 C 303.13187 396.65088 300.21539 420.25625 301.04843 461.66667 C 301.33979 476.14998 301.86315 488.00065 302.21054 488.00065 C 302.55794 488.00065 303.93212 487.41724 305.26522 486.70378 C 309.1215 484.63996 309.88562 477.47792 310.03476 442.00065 C 310.15224 414.05169 310.55363 407.50894 312.52108 401.50065 C 314.48747 395.49564 314.41799 392.45519 312.30233 392.35807 z M 316.30624 393.49284 L 313.84726 401.74675 C 311.75637 408.76474 311.37512 414.98907 311.29843 443.33268 C 311.24883 461.666 310.7176 478.59101 310.11679 480.94206 L 309.02304 485.2155 L 314.17929 484.49479 C 317.01449 484.09788 320.08293 483.5435 320.9996 483.26237 C 321.94453 482.97257 322.67326 480.5662 322.68319 477.70768 C 322.69319 474.93468 323.85451 467.26666 325.26327 460.66667 C 332.06806 428.78653 334.5382 416.00185 335.34335 408.51042 C 336.18039 400.72215 336.08083 400.32346 333.11093 399.69401 C 331.4002 399.33143 326.91958 397.78824 323.1539 396.26432 L 316.30624 393.49284 z M 321.60702 485.4069 C 317.3216 485.4848 312.35667 486.16257 308.14022 487.41471 C 300.96166 489.54652 299.82186 490.91817 296.67538 501.19596 C 295.79183 504.08203 296.00039 504.29883 298.84726 503.44792 C 300.58075 502.92978 308.68152 502.16202 316.84726 501.74089 L 331.69296 500.97526 L 332.42733 494.82096 C 332.99053 490.09218 332.65761 488.28131 330.99179 487.00065 C 329.49805 485.85229 325.89245 485.32901 321.60702 485.4069 z M 336.27304 488.46159 L 335.48593 493.23112 C 333.95035 502.51314 334.13014 502.88476 339.66757 501.88151 C 342.41757 501.38327 347.76134 499.83416 351.54452 498.43815 C 355.32771 497.04213 359.15264 495.02218 360.04257 493.94987 C 361.42063 492.28941 360.78829 492.00065 355.78671 492.00065 C 352.55673 492.00065 346.84448 491.20415 343.09335 490.23112 L 336.27304 488.46159 z " />
    <path
       id="path9"
       style="display:inline;fill:#e9c6af"
       d="M 262.33358 96.217448 C 260.98636 96.183778 259.52244 96.868775 257.10702 98.117839 L 253.01327 100.23503 L 257.17343 102.76432 C 262.00769 105.70422 262.24953 107.85468 258.63827 115.81315 C 255.06289 123.69261 255.23481 124.47692 260.33358 123.52409 C 264.33701 122.77595 264.47326 122.86092 262.12851 124.653 C 259.78155 126.44674 259.76312 126.65887 261.88046 127.47135 C 263.13979 127.9546 265.68622 127.65913 267.53866 126.8151 C 272.32886 124.63256 271.0468 128.05991 266.1871 130.42839 C 260.06986 133.40973 250.66757 129.76317 250.66757 124.40885 C 250.66757 122.7218 251.03599 122.64656 252.66757 124.00065 C 254.29549 125.35171 254.66757 125.28355 254.66757 123.64128 C 254.66757 122.53157 255.85373 119.0099 257.30429 115.81315 C 260.88432 107.92345 260.67003 105.74934 256.08358 103.3776 C 248.31318 99.359377 246.05116 103.86095 248.04843 119.36979 C 248.70687 124.48262 249.26663 131.89093 249.29062 135.83073 C 249.32842 142.04435 249.59874 142.77249 251.33358 141.33268 C 252.43358 140.41976 253.33358 138.8468 253.33358 137.83659 C 253.33358 136.82638 253.85038 136.00065 254.48202 136.00065 C 255.11366 136.00065 255.34421 137.49935 254.99374 139.33268 C 254.12523 143.87602 257.17807 143.71356 265.83749 138.75651 C 281.20189 129.96126 286.97138 117.51736 279.25937 109.80534 C 276.43475 106.98073 275.00912 106.52624 270.92538 107.153 C 266.00426 107.90825 266.00447 107.90768 269.76718 106.18034 L 273.5328 104.45182 L 268.7203 100.22526 C 265.60468 97.489706 264.06574 96.260737 262.33358 96.217448 z M 252.43905 105.42448 C 253.23302 105.39668 254.4947 105.86065 256.26718 106.80925 C 258.48022 107.99362 258.66057 108.51762 257.17929 109.45573 C 254.20684 111.33822 252.3596 110.85611 251.61288 108.00065 C 251.1711 106.31129 251.41824 105.4602 252.43905 105.42448 z M 272.27108 110.26237 C 272.82378 110.25237 273.72508 110.75353 275.32187 111.64714 C 278.29534 113.31117 278.01606 113.91994 273.66171 115.25846 C 271.0725 116.05439 270.7201 115.75576 271.12655 113.09245 C 271.42548 111.1337 271.56048 110.27507 272.27108 110.26237 z M 142.6539 248.11784 C 141.07452 248.17425 139.6905 248.76613 138.74374 249.9069 C 137.47789 251.43216 137.71197 252.10945 139.91366 253.28776 C 144.54878 255.7684 147.09254 260.71176 145.38046 263.91081 C 144.5692 265.42665 143.17757 266.6191 142.28671 266.5612 C 141.06586 266.4819 141.07739 266.29074 142.33358 265.78385 C 143.25024 265.41396 143.9996 263.37458 143.9996 261.2526 C 143.9996 256.53634 140.70711 254.14562 130.64804 251.55729 L 123.33358 249.67448 L 117.54648 253.81706 C 114.36366 256.09482 111.21365 258.97863 110.54648 260.22526 C 108.66906 263.73325 109.05419 270.66667 111.12655 270.66667 C 113.8476 270.66667 117.7614 265.70461 116.87069 263.38346 C 116.33666 261.99182 116.88067 261.33268 118.56601 261.33268 C 119.93119 261.33268 121.41511 260.37376 121.86483 259.20182 C 122.54744 257.42297 123.45745 257.75181 127.36679 261.18425 C 129.9423 263.44558 133.39696 265.63402 135.04452 266.04753 C 139.14815 267.07747 138.75145 274.01363 134.13827 281.88542 C 132.22912 285.14313 130.66757 288.15154 130.66757 288.57096 C 130.66757 290.29565 134.02699 289.14613 136.91366 286.43425 C 138.61092 284.83975 139.9996 282.13974 139.9996 280.43425 C 139.9996 278.72874 140.7509 277.321 141.66757 277.30534 C 144.89944 277.25014 150.75695 266.96291 151.59726 259.86784 C 152.33026 253.6788 152.09151 252.74202 149.20663 250.52409 C 147.03916 248.85772 144.68453 248.04531 142.6539 248.11784 z M 123.66757 261.38346 C 122.75091 261.41126 120.1996 263.90992 117.9996 266.93425 C 115.7996 269.95857 113.4419 273.17413 112.75937 274.08073 C 111.40137 275.88451 118.05994 284.00065 120.89804 284.00065 C 121.7637 284.00065 124.37923 281.75065 126.70858 279.00065 C 129.03795 276.25065 130.33533 275.2 129.59335 276.66667 C 128.85138 278.13333 126.70774 280.7714 124.82968 282.528 C 122.95161 284.28458 121.73334 286.23329 122.12069 286.86003 C 123.41945 288.96146 127.50948 288.02835 130.26718 285.00065 C 134.64312 280.19626 136.29547 276.02845 135.33749 272.21159 C 134.48049 268.79702 134.38207 268.76221 132.55819 271.25651 C 130.77733 273.692 130.66757 273.5989 130.66757 269.66667 C 130.66757 263.48764 128.45177 263.2205 125.48202 269.04167 C 124.04084 271.86662 121.80553 275.0376 120.51523 276.08854 C 119.10941 277.23357 119.60514 275.87178 121.75155 272.6901 C 125.51195 267.11599 126.49833 261.29751 123.66757 261.38346 z " />
    <path
       id="path10"
       style="display:inline;fill:#ff0000"
       d="m 245.86288,146.85026 c -1.91552,0.0117 -3.72885,0.5761 -5.66601,1.65039 -3.09181,1.71461 -3.01233,1.8259 5.60156,7.97266 4.80479,3.42863 9.18072,6.97523 9.72461,7.88086 0.56468,0.94024 -0.11439,0.78852 -1.58399,-0.35352 -2.45476,-1.90763 -2.48255,-1.86738 -0.58984,0.8711 1.09139,1.57907 6.0566,7.87909 11.03516,14 21.1496,26.00247 30.72765,43.95562 30.01367,56.26171 -0.37029,6.38224 -0.74293,7.05139 -5.28321,9.48243 -4.45416,2.38492 -5.8051,2.48187 -15.33203,1.10937 -5.74628,-0.82783 -10.65736,-1.29381 -10.91406,-1.03711 -0.84734,0.84733 12.33162,6.97579 19.70703,9.16406 9.84692,2.92158 13.55764,2.70823 19.16016,-1.09375 2.97891,-2.02152 4.50148,-2.52182 4.04492,-1.33203 -0.40254,1.049 -0.2183,1.89795 0.41016,1.88672 2.58171,-0.0461 4.7552,-2.53478 6.50586,-7.44726 1.37086,-3.84682 1.86883,-4.39547 1.9121,-2.11133 0.092,4.85386 -2.25306,8.01039 -8.20507,11.04687 -4.43497,2.26256 -7.28413,2.70703 -14.64649,2.29102 -8.09064,-0.45717 -11.05614,-1.49103 -25.80078,-9.00781 -9.16243,-4.671 -17.03207,-8.12028 -17.48828,-7.66407 -1.55702,1.55702 3.50084,7.44996 9.1875,10.70313 15.86268,9.07455 43.21308,12.38539 55.22461,6.68555 5.24792,-2.49031 8.04496,-6.10753 9.20312,-11.89844 0.62312,-3.11557 -0.0753,-5.03974 -3.3125,-9.11328 -3.14668,-3.95961 -4.12144,-4.57814 -4.17773,-2.64844 -0.0404,1.38417 -1.25182,-1.98297 -2.69141,-7.48242 -3.31146,-12.65038 -11.29817,-28.75702 -19.98437,-40.30078 -9.19969,-12.22619 -25.70632,-28.83813 -34.56641,-34.78711 -4.81721,-3.23447 -8.29575,-4.74804 -11.48828,-4.72852 z m 10.80469,18.22656 8.33203,6.92578 c 7.31789,6.08323 9.23938,8.0031 8,7.99415 -0.18333,-0.001 -3.93205,-3.35814 -8.33203,-7.46094 z m 21.32422,20.71094 c 0.12714,0.0142 0.51067,0.29782 1.16797,0.87891 3.94598,3.48845 14.75048,16.71278 18.79101,23 4.25877,6.62675 1.50745,3.83404 -5.25586,-5.33399 -3.65161,-4.94997 -9.03967,-11.7 -11.97265,-15 -2.0452,-2.30109 -3.01018,-3.57613 -2.73047,-3.54492 z m -37.51172,56.03516 c -0.54048,-0.40638 -8.18627,6.30256 -17.80078,15.66211 -12.52923,12.19697 -19.51783,20.0704 -21.30078,24 -4.96427,10.94117 -2.71976,25.27419 5.05859,32.30859 3.59182,3.24829 12.21559,6.31492 15.5625,5.5332 1.46667,-0.34256 3.62814,-0.63255 4.80273,-0.64257 1.1746,-0.01 6.27134,-2.73467 11.32618,-6.05469 5.05482,-3.32002 11.50162,-6.40575 14.32617,-6.85742 4.6757,-0.74767 5.07484,-1.1324 4.45898,-4.29688 -0.37204,-1.91164 -1.43399,-9.32462 -2.35937,-16.47461 -1.23304,-9.52711 -2.18566,-13 -3.56836,-13 -1.46247,0 -1.68477,-1.19993 -0.98633,-5.33398 1.06647,-6.3124 -0.87963,-7.11466 -4.04102,-1.66602 -1.17009,2.01667 -1.69465,2.46667 -1.16406,1 1.75548,-4.8525 2.28818,-22 0.6836,-22 -0.81349,0 -1.49236,0.74935 -1.50977,1.66602 -0.081,4.2683 -7.26329,18.46674 -15.27734,30.20117 -7.93317,11.616 -8.69242,13.28911 -7.47461,16.49219 1.62331,4.26962 7.13472,6.10966 10.34961,3.45507 1.20932,-0.99855 3.29944,-3.61445 4.64453,-5.81445 1.82988,-2.99294 2.44744,-3.37885 2.45117,-1.5332 0.006,3.04713 -8.2659,11.5332 -11.24219,11.5332 -1.19914,0 -3.65927,-0.96996 -5.4668,-2.1543 -5.68771,-3.72673 -4.48651,-9.32957 4.63868,-21.63671 7.82059,-10.54763 12.16706,-17.97098 14.00781,-23.92188 1.35945,-4.39492 -20.34039,17.35661 -26.35938,26.42188 -8.81206,13.27191 -8.01629,23.5781 2.19532,28.42382 9.21342,4.37206 17.46676,2.12682 24.77734,-6.74218 2.41346,-2.92796 4.12109,-4.15336 4.12109,-2.95703 0,1.12322 -1.95065,3.89254 -4.33398,6.15429 -10.90404,10.34782 -21.86382,11.20147 -30.66602,2.38672 -3.0532,-3.05755 -3.66601,-4.82549 -3.66601,-10.5625 0,-10.00035 4.65917,-18.22156 17.4375,-30.76562 9.9642,-9.78155 14.1913,-15.62237 16.38672,-22.64649 0.0286,-0.0917 0.0243,-0.15064 -0.0117,-0.17773 z" />
    <path
       id="path11"
       style="fill:#ffd42a"
       d="M 124.9996 231.5651 C 124.30696 231.62672 123.89501 232.80738 123.37069 235.60221 C 122.6308 239.54618 120.19433 242.74844 111.88241 250.69987 C 102.3897 259.78088 101.33358 261.29058 101.33358 265.77214 C 101.33358 275.34315 108.82145 286.80139 118.5328 292.08854 C 125.22635 295.73271 135.4221 295.01993 140.07187 290.58268 C 144.2527 286.59293 150.88503 275.32944 149.73202 274.17643 C 148.14705 272.59146 146.60116 273.33307 145.24374 276.33268 C 140.33472 287.1807 136.7236 290.66667 130.39413 290.66667 C 121.4535 290.66667 112.83448 284.18259 108.73788 274.37565 C 104.88402 265.14976 105.68071 263.06806 117.33358 251.92057 C 126.06181 243.5709 127.9996 240.98457 127.9996 237.68815 C 127.9996 235.47247 127.17066 232.96982 126.15585 232.1276 C 125.68758 231.73897 125.31444 231.5371 124.9996 231.5651 z M 144.99569 289.87565 C 144.32231 289.90112 143.27112 290.80978 141.20858 292.78581 C 138.51413 295.36727 136.07977 296.51863 133.91562 296.23503 C 131.8123 295.9594 130.66757 296.46959 130.66757 297.68229 C 130.66757 302.67411 137.20888 302.59876 142.86874 297.54167 C 145.92114 294.81435 146.85116 293.07144 146.18319 291.33073 C 145.8149 290.37098 145.51943 289.85584 144.99569 289.87565 z " />
    <path
       style="fill:#ececec"
       d="M 108.41226,232.25544 C 90.799673,190.57693 76.690854,150.79699 69.307781,122 64.723815,104.12067 58.666665,71.18465 58.666665,64.138466 c 0,-3.743463 -1.174331,-5.718654 -6.333334,-10.652485 -3.483333,-3.331298 -8.075336,-8.778448 -10.204452,-12.104777 -2.129116,-3.326329 -4.116304,-5.336305 -4.415974,-4.466613 -2.024544,5.87555 13.693546,72.103759 25.608064,107.899639 10.676572,32.07661 17.747303,49.39926 32.964963,80.76119 12.009248,24.74973 12.105758,24.89607 15.118418,22.9221 l 3.03201,-1.98664 z"
       id="path12" />
  </g>
</svg>
