<?xml version="1.0" encoding="UTF-8" standalone="no"?>
<!-- Created with Inkscape (http://www.inkscape.org/) -->

<svg
   version="1.1"
   id="svg1"
   width="433.33334"
   height="434.66666"
   viewBox="0 0 433.33334 434.66666"
   sodipodi:docname="Warrior21.svg"
   inkscape:version="1.4 (e7c3feb100, 2024-10-09)"
   xmlns:inkscape="http://www.inkscape.org/namespaces/inkscape"
   xmlns:sodipodi="http://sodipodi.sourceforge.net/DTD/sodipodi-0.dtd"
   xmlns="http://www.w3.org/2000/svg"
   xmlns:svg="http://www.w3.org/2000/svg">
  <defs
     id="defs1">
    <inkscape:path-effect
       effect="bspline"
       id="path-effect17"
       is_visible="true"
       lpeversion="1.3"
       weight="33.333333"
       steps="2"
       helper_size="0"
       apply_no_weight="true"
       apply_with_weight="true"
       only_selected="false"
       uniform="false" />
    <inkscape:path-effect
       effect="bspline"
       id="path-effect16"
       is_visible="true"
       lpeversion="1.3"
       weight="33.333333"
       steps="2"
       helper_size="0"
       apply_no_weight="true"
       apply_with_weight="true"
       only_selected="false"
       uniform="false" />
    <inkscape:path-effect
       effect="bspline"
       id="path-effect15"
       is_visible="true"
       lpeversion="1.3"
       weight="33.333333"
       steps="2"
       helper_size="0"
       apply_no_weight="true"
       apply_with_weight="true"
       only_selected="false"
       uniform="false" />
    <inkscape:path-effect
       effect="bspline"
       id="path-effect3"
       is_visible="true"
       lpeversion="1.3"
       weight="33.333333"
       steps="2"
       helper_size="0"
       apply_no_weight="true"
       apply_with_weight="true"
       only_selected="false"
       uniform="false" />
    <inkscape:path-effect
       effect="bspline"
       id="path-effect2"
       is_visible="true"
       lpeversion="1.3"
       weight="33.333333"
       steps="2"
       helper_size="0"
       apply_no_weight="true"
       apply_with_weight="true"
       only_selected="false"
       uniform="false" />
    <inkscape:path-effect
       effect="bspline"
       id="path-effect15-7"
       is_visible="true"
       lpeversion="1.3"
       weight="33.333333"
       steps="2"
       helper_size="0"
       apply_no_weight="true"
       apply_with_weight="true"
       only_selected="false"
       uniform="false" />
  </defs>
  <sodipodi:namedview
     id="namedview1"
     pagecolor="#ffffff"
     bordercolor="#000000"
     borderopacity="0.25"
     inkscape:showpageshadow="2"
     inkscape:pageopacity="0.0"
     inkscape:pagecheckerboard="0"
     inkscape:deskcolor="#d1d1d1"
     showgrid="false"
     inkscape:zoom="1.82"
     inkscape:cx="135.98901"
     inkscape:cy="178.02198"
     inkscape:window-width="1920"
     inkscape:window-height="1011"
     inkscape:window-x="0"
     inkscape:window-y="0"
     inkscape:window-maximized="1"
     inkscape:current-layer="layer1" />
  <g
     inkscape:groupmode="layer"
     id="layer1"
     inkscape:label="Layer 1">
    <path
       style="opacity:1;fill:#ff0000;fill-opacity:1;stroke:none;stroke-width:2.9;stroke-linecap:round"
       d="m 83.692945,152.57261 c 0.733057,-1.59059 1.673581,-4.05255 3.139715,-7.0678 1.466133,-3.01525 3.457798,-6.58365 5.491013,-9.80636 2.033215,-3.22271 4.107864,-6.09956 6.514529,-9.17013 2.406668,-3.07057 5.145198,-6.33468 8.464738,-9.70954 3.31954,-3.37487 7.21988,-6.86027 11.25865,-9.86168 4.03877,-3.00141 8.21573,-5.51865 12.65561,-7.717838 4.43988,-2.199189 9.14241,-4.080202 13.85892,-5.325022 4.71651,-1.24482 9.4467,-1.853383 13.81742,-1.97786 4.37072,-0.124478 8.3817,0.235127 12.55879,1.217163 4.17708,0.982035 8.52001,2.58643 13.44399,5.172909 4.92398,2.586478 10.42871,6.154868 15.08989,10.207478 4.66117,4.05261 8.47852,8.58917 11.79805,13.8451 3.31953,5.25594 6.14105,11.23093 8.02211,16.45919 1.88106,5.22826 2.82157,9.7095 3.09819,14.78563 0.27662,5.07613 -0.11065,10.74683 -1.25866,16.51452 -1.14801,5.76769 -3.05669,11.63203 -5.73999,18.22962 -2.6833,6.59758 -6.14104,13.928 -9.64038,20.29043 -3.49935,6.36243 -7.04008,11.75652 -10.06915,15.98892 -3.02907,4.23239 -5.54631,7.30287 -8.28493,10.45643 -2.73862,3.15356 -5.69845,6.39001 -9.03182,9.19778 -3.33337,2.80776 -7.04007,5.18669 -11.03735,7.20607 -3.99728,2.01938 -8.28488,3.6791 -12.46196,4.85476 -4.17708,1.17567 -8.24339,1.86722 -12.19917,2.33748 -3.95578,0.47027 -7.80079,0.71923 -11.99171,0.58091 -4.19091,-0.13832 -8.72748,-0.66389 -13.49931,-2.14386 -4.77183,-1.47997 -9.77865,-3.91423 -14.41216,-7.23377 -4.633517,-3.31954 -8.893458,-7.52416 -12.62793,-12.22684 -3.734472,-4.70268 -6.94326,-9.90313 -9.363747,-15.38037 -2.420487,-5.47723 -4.052543,-11.23092 -5.076061,-17.06777 -1.023518,-5.83685 -1.438448,-11.75651 -1.161813,-18.0498 0.276635,-6.29329 1.244805,-12.95983 2.503464,-18.2849 1.258659,-5.32507 2.807731,-9.3084 3.84508,-11.65972 1.037349,-2.35132 1.562925,-3.07053 2.295982,-4.66113 z"
       id="path13"
       inkscape:path-effect="#path-effect17"
       inkscape:original-d="m 83.485477,153.44398 c 0.940526,-2.46196 1.881051,-4.92392 2.821577,-7.38589 1.991741,-3.56853 3.983402,-7.13693 5.975104,-10.70539 2.07473,-2.87696 4.149377,-5.75381 6.224066,-8.63071 2.738646,-3.26424 5.477176,-6.52835 8.215766,-9.79253 3.90049,-3.48555 7.80083,-6.97095 11.70125,-10.45643 4.17712,-2.51734 8.35408,-5.03458 12.53112,-7.551868 4.70272,-1.881089 9.40525,-3.762103 14.10788,-5.643154 4.73039,-0.608587 9.46058,-1.21715 14.19087,-1.825726 4.01115,0.35962 8.02213,0.719226 12.0332,1.078838 4.3431,1.604458 8.68603,3.208852 13.02904,4.813278 5.50495,3.568532 11.00968,7.136932 16.51453,10.705392 3.8175,4.53675 7.63485,9.07331 11.45228,13.60996 2.82163,5.97522 5.64315,11.95021 8.46473,17.92531 0.94054,4.48142 1.88105,8.96266 2.82157,13.44399 -0.38728,5.67093 -0.77455,11.34163 -1.16182,17.01244 -1.90875,5.86457 -3.81743,11.72891 -5.72614,17.59336 -3.45789,7.33072 -6.91563,14.66114 -10.37345,21.99171 -3.54087,5.39429 -7.0816,10.78838 -10.6224,16.18257 -2.51734,3.0706 -5.03458,6.14108 -7.55187,9.21162 -2.95995,3.23658 -5.91978,6.47303 -8.87967,9.70954 -3.70685,2.37902 -7.41355,4.75795 -11.12033,7.13693 -4.28778,1.65978 -8.57538,3.3195 -12.86307,4.97925 -4.06647,0.69158 -8.13278,1.38313 -12.19917,2.07469 -3.84517,0.24897 -7.69018,0.49793 -11.53527,0.74689 -4.53674,-0.5256 -9.07331,-1.05118 -13.60996,-1.57676 -5.00701,-2.43435 -10.01383,-4.86861 -15.02075,-7.30291 -4.260109,-4.20478 -8.520051,-8.4094 -12.780079,-12.61411 -3.208916,-5.20065 -6.417704,-10.4011 -9.626556,-15.60166 -1.632121,-5.75391 -3.264177,-11.5076 -4.896265,-17.26141 -0.414946,-5.91989 -0.829876,-11.83955 -1.244814,-17.75933 0.968208,-6.6668 1.936377,-13.33334 2.904565,-20 1.549132,-3.98348 3.098202,-7.96681 4.647303,-11.95021 0.525598,-0.71924 1.051175,-1.43845 1.576763,-2.15768 z" />
    <path
       style="opacity:1;fill:#666666;fill-opacity:1;stroke:none;stroke-width:2.9;stroke-linecap:round"
       d="m 58.648195,65.260285 c -1.679261,0.482788 -4.65995,0.734677 -5.457585,2.183066 -0.797635,1.44839 0.587728,4.093173 1.259432,6.003344 0.671704,1.910171 0.629723,3.085631 -0.042,3.421478 -0.671717,0.335848 -1.973118,-0.16792 -4.072224,-1.49036 -2.099105,-1.32244 -4.995773,-3.463455 -8.144421,-5.898411 -3.148649,-2.434956 -6.549085,-5.163701 -9.928631,-7.976493 -3.379547,-2.812791 -6.738002,-5.709458 -7.283739,-7.073856 -0.545737,-1.364398 1.72122,-1.196475 4.95384,-0.776653 3.232619,0.419822 7.430688,1.091513 11.418971,1.763224 3.988283,0.671711 7.766545,1.343402 11.523929,2.078087 3.757384,0.734684 7.493665,1.532318 9.340852,2.162045 1.847187,0.629728 1.805206,1.091515 1.301418,1.679264 -0.503788,0.587748 -1.469343,1.30142 -2.141052,2.015113 -0.671708,0.713693 -1.049534,1.427365 -2.728795,1.910152 z"
       id="path12"
       inkscape:path-effect="#path-effect15"
       inkscape:original-d="m 59.949622,65.491184 c -2.980688,0.251889 -5.961377,0.503778 -8.942065,0.755667 1.385418,2.64489 2.770781,5.289673 4.156171,7.934509 -0.04198,1.175506 -0.08396,2.350966 -0.125945,3.526449 C 53.73633,77.20402 52.434929,76.700252 51.133501,76.196474 48.236718,74.055373 45.34005,71.914358 42.443325,69.7733 39.042753,67.044446 35.642317,64.315701 32.241814,61.586902 c -3.35859,-2.896784 -6.717045,-5.793451 -10.075567,-8.690177 2.267048,0.16793 4.534005,0.335853 6.801007,0.503779 4.198237,0.671718 8.396306,1.343409 12.594459,2.015113 3.778413,0.671718 7.556675,1.343409 11.335012,2.015113 3.736431,0.797665 7.472712,1.595299 11.209068,2.392948 -0.04198,0.461806 -0.08396,0.923593 -0.125944,1.38539 -0.965595,0.7137 -1.93115,1.427372 -2.896726,2.141058 -0.377841,0.7137 -0.755667,1.427372 -1.133501,2.141058 z" />
    <path
       id="path11"
       style="opacity:1;fill:#c87137;fill-opacity:1;stroke:none;stroke-width:2.9;stroke-linecap:round"
       d="M 22.986328 52.535156 L 22.675781 52.923828 L 25.474609 55.228516 C 25.243005 54.926243 25.068799 54.655406 24.978516 54.429688 C 24.432778 53.06529 26.700974 53.232522 29.933594 53.652344 C 32.12358 53.936758 34.775553 54.347854 37.486328 54.785156 L 35.728516 54.478516 L 22.986328 52.535156 z M 51.945312 57.316406 C 52.254896 57.376046 52.565804 57.433683 52.875 57.494141 C 56.632384 58.228825 60.36961 59.026522 62.216797 59.65625 C 64.063984 60.285978 64.021366 60.748189 63.517578 61.335938 C 63.01379 61.923686 62.048662 62.635916 61.376953 63.349609 C 60.705245 64.063303 60.327698 64.776978 58.648438 65.259766 C 56.969177 65.742553 53.989041 65.99497 53.191406 67.443359 C 52.393771 68.891749 53.777515 71.537095 54.449219 73.447266 C 55.120923 75.357437 55.079921 76.533293 54.408203 76.869141 C 53.736486 77.204988 52.435043 76.699393 50.335938 75.376953 C 49.6995 74.975997 48.970991 74.480191 48.203125 73.943359 L 51.267578 76.466797 L 55.464844 78.021484 L 55.464844 76.078125 L 55.542969 73.669922 L 62.068359 77.554688 L 78.851562 84.859375 L 103.79297 96.824219 C 103.79297 96.824219 117.77904 103.58398 118.08984 103.58398 C 118.40064 103.58398 121.82031 105.52734 121.82031 105.52734 L 128.96875 100.16602 L 107.83398 89.675781 L 62.146484 66.832031 C 62.146484 66.832031 60.592475 65.66627 60.359375 65.355469 C 60.126275 65.044669 60.515625 64.734375 60.515625 64.734375 L 63.701172 62.404297 L 64.710938 60.617188 L 63.701172 59.373047 L 51.945312 57.316406 z M 344.89648 205.06055 L 342.09961 206.30469 L 340.3125 209.49023 L 341.55664 211.43164 L 370.30469 224.79688 C 370.30469 224.79688 394.3142 235.59715 394.625 236.21875 C 394.9358 236.84035 398.66602 237.92773 398.66602 237.92773 L 400.375 235.98633 L 402.31836 233.81055 L 402.47266 231.63477 L 378.69727 219.66797 L 351.73438 205.68359 L 344.89648 205.06055 z " />
    <path
       style="opacity:1;fill:#916f6f;fill-opacity:1;stroke:none;stroke-width:2.9;stroke-linecap:round"
       d="m 201.55885,216.7576 -7.01481,9.74279 c 0,0 0.0779,2.80592 0.54559,2.72798 0.46766,-0.0779 7.79424,5.76773 7.79424,5.76773 l 13.32813,8.02806 2.72798,2.18239 -0.77942,1.63679 -7.95012,8.18394 0.62354,2.33827 2.96181,1.24708 3.11769,-1.0912 9.58691,-8.02806 4.67654,-6.85892 4.20888,-8.33983 0.77943,-5.45596 0.46765,-9.74279 -2.26033,-2.65004 -3.35152,-0.23383 -1.79267,4.83243 -0.62354,6.54715 -3.97506,-1.4809 -13.56196,-7.01481 z"
       id="path10" />
    <path
       id="path9"
       style="opacity:1;fill:#008000;fill-opacity:1;stroke:none;stroke-width:2.9;stroke-linecap:round"
       d="M 236.55469 233.82617 L 228.99414 245.83008 L 229.77344 248.86914 L 232.89258 249.72656 L 238.73828 241.46484 L 240.76367 237.02344 L 237.95703 234.06055 L 236.55469 233.82617 z M 246.76562 239.75 L 244.73828 244.11523 L 239.82812 252.14258 L 239.12695 253.23438 L 240.21875 254.32617 L 260.56055 265.16016 L 277.55273 274.82422 C 277.55273 274.82422 295.40131 284.95703 295.79102 284.95703 C 296.18074 284.95703 309.11914 292.05078 309.11914 292.05078 L 327.35742 302.41602 L 339.75 309.66406 L 345.83008 312.4707 L 353.70312 309.50977 L 356.50781 308.49609 L 355.80664 304.59766 L 353.3125 297.03906 L 349.80469 295.16797 L 346.6875 294.31055 L 324.24023 282.30664 L 303.42969 270.22656 L 277.24023 256.19727 L 257.59961 245.28516 L 246.76562 239.75 z " />
    <path
       id="path8"
       style="opacity:1;fill:#ffcc00;fill-opacity:1;stroke:none;stroke-width:2.9;stroke-linecap:round"
       d="M 257.44531 192.02734 L 244.95703 196.54102 L 235.34961 198.6543 L 227.47266 198.55859 L 217.58008 196.54102 L 213.06445 194.9082 C 213.06445 194.9082 210.37376 202.30521 210.18164 202.68945 C 209.98951 203.0737 216.04297 205.0918 216.04297 205.0918 L 224.97656 206.62891 L 236.31055 207.39648 L 244.0918 207.58789 L 245.3418 212.00781 L 246.01367 218.73242 L 245.91797 225.55273 L 245.05273 232.75781 L 244.38086 236.11914 L 240.63477 238.71289 L 233.42969 250.625 L 238.52148 253.21875 L 240.05664 251.39258 L 246.97461 239.86523 L 248.22266 236.79102 L 249.66406 232.75781 L 251.20117 227.28125 L 251.77734 221.99805 L 251.29688 214.3125 L 251.48828 203.45898 L 259.07812 199.71094 L 261.38281 192.12305 L 257.44531 192.02734 z M 355.13867 296.92578 L 352.64258 297.02148 L 355.61914 304.13086 L 356.38867 307.78125 C 356.38867 307.78125 356.86811 309.125 356.09961 309.125 C 355.33112 309.125 346.01367 312.29492 346.01367 312.29492 L 347.35742 314.3125 L 353.12109 317.00195 C 353.12109 317.00195 360.13529 318.15625 360.51953 318.15625 C 360.90378 318.15625 363.78388 317.2905 364.64844 316.90625 C 365.51299 316.522 367.62695 313.44922 367.62695 313.44922 C 367.62695 313.44922 368.49254 310.37484 368.39648 309.89453 C 368.30038 309.41422 365.51387 305.18734 364.9375 304.70703 C 364.36113 304.22673 359.8457 299.13477 359.8457 299.13477 L 355.13867 296.92578 z " />
    <path
       id="path7"
       style="opacity:1;fill:#ff6600;fill-opacity:1;stroke:none;stroke-width:2.9;stroke-linecap:round"
       d="M 320.86523 344.32617 L 319.03906 355.76953 L 316.92383 358.17383 L 306.3457 362.11523 L 303.55859 374.13477 L 292.5957 381.53906 L 288.26953 385.86523 L 288.07617 389.32617 L 290.76953 390.28906 L 298.36523 391.1543 L 306.82617 389.61523 C 306.82617 389.61523 316.3469 386.15385 316.92383 386.25 C 317.50075 386.3462 323.6543 381.73047 323.6543 381.73047 C 323.6543 381.73047 325.86538 374.61553 326.25 374.13477 C 326.63462 373.654 327.21094 366.53906 327.21094 366.53906 C 327.21094 366.53906 329.80679 363.46094 330.19141 363.46094 C 330.57602 363.46094 332.69141 362.69141 332.69141 362.69141 L 336.73047 358.26953 L 334.71094 353.26953 L 331.44141 349.71094 L 323.94141 345 L 320.86523 344.32617 z M 129.23047 379.51953 L 126.44141 380.57617 L 120.0957 385.86523 L 110.48047 391.63477 L 102.69141 396.92383 C 102.69141 396.92383 97.788011 401.63492 97.595703 402.01953 C 97.403395 402.40415 95.576172 405.38477 95.576172 405.38477 L 96.826172 407.01953 L 99.808594 408.36523 L 108.07617 411.25 L 115.86523 412.01953 L 124.71094 409.80859 L 126.53906 408.8457 L 134.23047 402.5957 L 142.11523 395.67383 L 145 395.28906 L 147.88477 396.92383 L 152.5 397.4043 L 157.4043 396.63477 L 158.94141 392.11523 L 159.23047 386.82617 C 159.23047 386.82617 159.32732 384.03906 158.6543 384.03906 C 157.98122 384.03906 149.9043 384.61523 149.9043 384.61523 L 141.44141 385.38477 L 137.78906 384.71094 L 129.23047 379.51953 z " />
    <path
       style="opacity:1;fill:#7c916f;fill-opacity:1;stroke:none;stroke-width:2.9;stroke-linecap:round"
       d="m 151.16641,307.46501 -4.19907,15.08553 -4.51011,14.30794 -2.33281,12.75272 -7.6116,21.36316 -4.10256,6.25641 2.05128,3.48718 7.48718,4.71795 5.74359,0.30769 11.07692,-1.33333 3.79487,-0.41026 -0.41025,-7.28205 0.92307,-11.58974 3.07693,-6.66667 5.84615,-8.20513 6.5641,-8.71795 c 0,0 3.48718,-4.10256 3.69231,-4.51282 0.20513,-0.41026 2.15385,-8.10256 2.15385,-8.10256 l -0.82052,-9.23077 1.74359,-5.53846 4.61539,-4.71795 9.1282,-6.56411 7.28205,-5.94871 7.07693,-7.58975 4.30769,-4.82051 5.1282,-2.25641 5.33334,2.35897 6.97436,8.3077 c 0,0 4.71795,7.38461 4.82051,7.79487 0.10256,0.41026 5.02564,7.58974 5.02564,7.58974 l 9.4359,8.82052 10.46154,7.6923 c 0,0 11.38461,8.41026 12.20513,8.51282 0.82051,0.10257 13.43589,8.3077 14.05128,8.82052 0.61538,0.51282 5.94872,4.71794 5.94872,4.71794 l 9.43589,9.4359 2.97436,5.84616 4.30769,-1.33334 c 0,0 5.02564,-1.64102 5.4359,-1.84615 0.41026,-0.20513 4.41026,-4.51282 4.41026,-4.51282 l 0.92307,-9.64103 c 0,0 -0.92307,-3.38461 -1.33333,-3.58974 -0.41026,-0.20513 -9.64102,-7.07692 -9.64102,-7.07692 0,0 -10.05129,-10.05129 -10.46154,-10.35898 -0.41026,-0.30769 -5.84616,-11.07692 -5.84616,-11.07692 l -8.51282,-13.12821 -9.74359,-7.28205 -9.94871,-3.69231 -0.92308,-3.79487 v -3.48718 l -4.30769,-0.51282 -19.79488,1.53846 c 0,0 -9.64102,-1.1282 -10.15384,-1.53846 -0.51282,-0.41025 -20.41026,-3.79487 -20.41026,-3.79487 l -34.46154,-4 -2.35897,2.25641 c 0,0 -5.84616,7.48718 -6.15385,7.89744 -0.30769,0.41025 -7.69231,9.74359 -7.69231,9.74359 l -5.53846,7.79487 z"
       id="path6" />
    <path
       id="path5"
       style="opacity:1;fill:#0066ff;fill-opacity:1;stroke:none;stroke-width:2.9;stroke-linecap:round"
       d="M 228.80664 37.777344 L 225.33203 39.417969 L 219.89844 44.978516 L 215.47656 52.621094 L 216.10938 56.917969 L 218.00391 60.076172 C 218.31977 60.013002 233.22852 71.509766 233.22852 71.509766 L 243.20898 78.394531 L 251.23242 81.933594 L 262.09766 83.765625 C 262.09766 83.765625 268.28766 83.639404 268.60352 83.386719 C 268.91937 83.134034 273.15234 74.289062 273.15234 74.289062 L 274.66797 64.814453 C 274.66797 64.814453 272.14129 60.833434 272.07812 60.517578 C 272.01493 60.201722 262.66602 47.882812 262.66602 47.882812 C 262.66602 47.882812 253.5053 40.683044 253.18945 40.367188 C 252.87359 40.051332 245.29297 37.966797 245.29297 37.966797 L 228.80664 37.777344 z M 219.52734 106.88672 L 216.0332 108.73633 L 215.00586 111.30469 L 209.14648 112.12695 L 204.72852 112.64062 L 210.38086 120.55469 L 216.54688 131.85938 L 221.37695 144.81055 L 223.53516 157.55469 L 221.48047 167.11133 L 217.7793 181.80859 L 212.94922 194.44922 L 220.04102 196.60938 C 220.04102 196.60938 226.51543 197.9441 227.0293 198.04688 C 227.54318 198.14964 236.07422 198.25195 236.07422 198.25195 L 248.61328 195.58008 C 248.61328 195.58008 259.4041 192.08714 259.91797 191.98438 C 260.43184 191.8816 261.76758 189.82617 261.76758 189.82617 L 264.74805 177.08203 L 266.39258 175.74609 C 266.39258 175.74609 269.88652 175.43776 270.40039 175.74609 C 270.91427 176.05441 279.3418 181.5 279.3418 181.5 L 288.69531 189.10547 L 304.93359 198.35547 L 315.00586 206.16602 L 319.52734 211.7168 L 324.15234 213.66992 C 324.15234 213.66992 328.05791 213.25828 328.77734 213.05273 C 329.49676 212.84718 334.12109 205.24219 334.12109 205.24219 C 334.12109 205.24219 334.53293 201.43844 334.22461 201.02734 C 333.91628 200.61624 330.2168 196.71094 330.2168 196.71094 L 323.94727 188.18164 L 313.66992 177.28711 L 305.44727 170.70898 L 300.30859 166.80273 L 297.32812 162.17969 L 288.07812 142.13867 L 283.86523 133.50391 L 277.5957 126.20703 L 270.29883 119.01367 L 264.23438 114.28516 L 260.8418 109.04492 L 254.67578 108.53125 L 245.32422 110.38086 L 236.48438 110.48242 L 227.23438 109.25 L 219.52734 106.88672 z M 259.38672 200.66992 L 256.70508 201.24609 L 251.15039 204.98047 L 251.62891 218.39062 L 251.5332 227.29883 L 247.50977 237.64453 L 247.89258 239.84766 L 256.70508 244.34961 L 268.96484 251.3418 C 268.96484 251.3418 270.78483 252.39478 271.16797 252.10742 C 271.55111 251.82006 272.03125 249.52148 272.03125 249.52148 L 271.07227 243.10352 L 268.58203 226.91602 L 265.61328 216.47461 L 262.06836 205.84375 L 259.38672 200.66992 z M 210.91992 203.64062 L 208.04688 205.74805 L 203.73633 213.21875 C 203.73633 213.21875 203.83203 216.37858 203.83203 216.76172 C 203.83203 217.14486 205.36328 217.81641 205.36328 217.81641 L 213.69727 220.11523 L 225.57422 226.05273 L 228.54492 226.82031 C 228.54492 226.82031 229.98047 221.16846 229.98047 220.59375 C 229.98047 220.01904 231.13086 216.47461 231.13086 216.47461 L 233.33398 215.80469 L 236.87695 219.63672 C 236.87695 219.63672 237.64453 232.18302 237.64453 232.85352 C 237.64453 233.52401 240.61238 236.58975 241.66602 236.68555 C 242.71966 236.78135 244.54102 236.68555 244.54102 236.68555 L 245.59375 231.70508 L 246.26367 221.26367 L 245.40234 214.17578 L 243.86914 207.375 L 238.31445 206.89648 L 228.73633 206.70508 L 219.73242 206.03516 L 210.91992 203.64062 z M 194.44531 228.16016 L 190.32617 232.375 L 185.05664 237.64453 L 178.92773 244.34961 C 178.92773 244.34961 173.46712 255.17179 173.08398 255.26758 C 172.70084 255.36338 168.19922 260.63281 168.19922 260.63281 L 168.67773 263.12305 L 172.70117 267.05078 L 174.71289 270.88086 L 177.01172 273.4668 L 192.91211 275.57422 L 215.03906 277.39453 C 215.03906 277.39453 230.26888 280.74626 231.03516 280.55469 C 231.80145 280.36311 239.55859 282.66211 239.55859 282.66211 L 257.94922 281.03516 L 267.91211 281.60938 L 271.83984 280.65039 L 272.70117 271.93555 L 251.24609 259.96094 L 236.97266 253.06445 L 228.54492 248.94727 L 226.15039 249.52148 L 222.22266 253.73633 L 218.29492 256.80078 L 215.61328 257.85352 L 211.78125 257.95117 L 210.91992 256.22656 L 212.45117 252.29883 L 216.66602 248.6582 L 218.77344 246.35938 L 217.5293 243.39062 L 208.9082 238.88867 L 203.92773 235.15234 L 194.44531 228.16016 z " />
    <path
       style="opacity:1;fill:#784421;fill-opacity:1;stroke:none;stroke-width:2.9;stroke-linecap:round"
       d="m 226.05128,92.153846 0.30769,-2.564102 3.48718,-7.384616 4.15385,-8.410256 5.33333,2.769231 16.25641,7.230769 c 0,0 7.79488,0.461538 8.61539,0.461538 0.82051,0 4.51282,0.307693 4.76923,0.358975 0.25641,0.05128 0.97436,5.948718 0.97436,5.948718 l 0.0513,8.564102 -2.41026,3.230765 -5.38461,4.46154 -6.76923,2.56411 c 0,0 -11.74359,0.82051 -11.94872,0.87179 -0.20513,0.0513 -6.82051,0.15385 -6.82051,0.15385 l -1.28205,-3.4359 c 0,0 -0.51283,-2.05128 -0.71795,-2.30769 -0.20513,-0.25641 -4.92308,-3.17949 -4.92308,-3.17949 0,0 -2.66667,-1.538462 -2.8718,-1.74359 -0.20512,-0.205128 -1.28205,-1.435898 -1.28205,-1.435898 l -0.0513,-2.820513 z"
       id="path4" />
    <path
       id="path3"
       style="opacity:1;fill:#ffccaa;fill-opacity:1;stroke:none;stroke-width:2.9;stroke-linecap:round"
       d="M 215.61133 58.367188 L 213.36523 59.492188 L 209.40234 65.9375 L 206.15039 70.431641 L 204.73047 72.738281 C 204.73047 72.738281 209.28516 94.027232 209.28516 94.677734 C 209.28516 95.328237 212.35938 97.576172 212.35938 97.576172 L 216.61719 100.11914 L 222.17578 106.85938 L 230.75195 109.93555 C 230.75195 109.93555 234.53635 109.75694 234.83203 109.63867 C 235.12771 109.52039 235.54102 108.45703 235.54102 108.45703 L 234.89062 105.73633 L 233.76758 104.25781 L 227.61719 100.23633 L 225.72461 97.515625 L 226.01953 92.015625 L 226.78906 89.177734 L 230.39648 81.548828 L 232.52539 75.162109 L 233.23438 71.96875 L 215.61133 58.367188 z M 333.17578 190.30078 L 327.9707 190.83398 L 327.08398 191.42578 L 332.88086 199.4668 L 333.58984 203.19336 L 331.10547 211.05859 L 331.75586 213.95703 L 334.89062 214.42969 L 340.33203 208.63477 L 344.88477 204.55273 L 349.26172 202.89844 C 349.26172 202.89844 348.84755 200.70942 348.43359 200.23633 C 348.01963 199.76323 339.50412 194.08561 339.26758 193.9082 C 339.03103 193.73079 333.17578 190.30078 333.17578 190.30078 z " />
    <path
       id="path2"
       style="display:inline;fill:#000000;stroke-width:0.114862"
       d="m 168.57335,110.97808 c -0.35481,-0.20294 -0.88099,0.44982 -2.12054,2.13663 -1.39137,1.89373 -1.98273,2.8937 -2.71999,4.60063 -0.16404,0.37973 -0.17166,0.37877 -0.5657,-0.0673 -1.28947,-1.45976 -3.60103,-3.0204 -6.20189,-4.18697 -1.2729,-0.57093 -1.86794,-0.66231 -1.89848,-0.29166 -0.009,0.10615 0.31689,0.82031 0.72338,1.58695 0.70428,1.32827 1.2985,3.36236 0.99664,3.41135 -0.078,0.0126 -0.31039,-0.19477 -0.51639,-0.46089 -0.62326,-0.80509 -2.40481,-2.23037 -3.50422,-2.80361 -2.35187,-1.22626 -5.86678,-1.99646 -6.31846,-1.38443 -0.19861,0.26912 -0.15802,0.34092 0.54101,0.95608 0.4157,0.36582 0.91468,0.967 1.10876,1.33603 0.4945,0.94025 0.75333,2.89118 0.45227,3.40887 -0.14763,0.25375 -0.2992,0.37089 -0.40175,0.3105 -0.0906,-0.0533 -0.31503,-0.1834 -0.49871,-0.28914 -0.18369,-0.10573 -0.6694,-0.39261 -1.07963,-0.63729 -0.41022,-0.2447 -1.0537,-0.5335 -1.42986,-0.64176 -0.37618,-0.10826 -0.96394,-0.31057 -1.30613,-0.44978 -0.3422,-0.1392 -0.65621,-0.20721 -0.6978,-0.15085 -0.0416,0.0563 -0.17278,0.0313 -0.29159,-0.056 -0.11881,-0.0872 -0.591,-0.2215 -1.04924,-0.2984 -0.45825,-0.0769 -0.90691,-0.19448 -0.99708,-0.26102 -0.0902,-0.0666 -0.20487,-0.0654 -0.25489,0.002 -0.05,0.0678 -0.16054,0.0722 -0.24553,0.0101 -0.085,-0.0622 -0.42007,-0.10124 -0.74479,-0.0868 -0.58074,0.0258 -0.58876,0.0323 -0.48376,0.39747 0.0587,0.20415 0.21022,0.4632 0.33657,0.57572 0.12634,0.1125 0.27868,0.25426 0.33862,0.3149 0.94258,0.95291 1.13555,1.18028 1.12374,1.32367 -0.008,0.093 0.0806,0.23879 0.19629,0.32415 0.30042,0.22171 0.89914,1.53507 0.77588,1.70209 -0.065,0.0881 -0.46944,-0.1 -1.08886,-0.50691 -1.84175,-1.20995 -3.694,-1.8023 -6.13145,-1.96047 -3.01461,-0.19563 -4.7439,0.29005 -3.60161,1.01151 1.68273,1.06283 2.01433,1.37411 2.50513,2.35152 0.65135,1.29725 0.79136,1.92044 0.54694,2.43204 -0.19385,0.40563 -0.30083,0.42968 -2.03414,0.45583 -2.53842,0.0383 -4.03351,0.34624 -4.9595,1.02178 -1.03847,0.75761 -2.57018,2.62812 -4.57147,5.58271 -1.22593,1.80984 -1.84905,2.62992 -2.17812,2.86564 -0.72097,0.51646 -2.85794,1.5601 -5.26583,2.57177 -1.21185,0.50917 -2.22966,1.02131 -2.26191,1.13813 -0.0701,0.2539 0.44076,0.66725 0.69743,0.56429 0.33213,-0.13321 4.27294,0.95701 4.30836,1.19189 0.0244,0.16204 -0.75524,0.4006 -2.15689,0.65995 -1.87788,0.34745 -3.16828,1.18533 -6.57316,4.26801 -0.93727,0.84859 -1.96624,1.67369 -2.28669,1.8336 -0.90261,0.45044 -2.6004,0.93338 -4.47536,1.27287 -1.73662,0.31444 -2.13386,0.56662 -1.55833,0.98986 0.15482,0.11384 1.07636,0.58077 2.04794,1.03741 0.97159,0.45665 2.278,1.15142 2.90317,1.54393 l 1.13652,0.71357 -0.14844,0.60729 c -0.10982,0.44874 -0.4582,1.02517 -1.33454,2.20841 -1.30788,1.76544 -1.28584,1.70661 -1.47418,3.99909 -0.0994,1.21035 -0.16934,1.42988 -0.7163,2.2551 -1.62094,2.44558 -5.746511,4.58373 -9.016654,4.67294 -0.597366,0.0163 -1.152952,0.12019 -1.234773,0.23105 -0.233834,0.31685 0.16186,1.98046 0.710833,2.98823 0.855361,1.57023 1.611677,2.38707 3.461407,3.73813 1.885334,1.3771 3.949847,2.46165 6.439067,3.38278 0.85892,0.31784 1.56818,0.62068 1.57607,0.67298 0.0549,0.3644 -4.30109,1.04387 -6.118773,0.95447 -2.476208,-0.12179 -5.014488,-0.74012 -7.212171,-1.75681 -0.499633,-0.23114 -0.910515,-0.32688 -1.041992,-0.24287 -0.741559,0.47387 -0.284488,4.79949 0.708806,6.70703 1.052292,2.02084 1.880605,2.95263 4.055658,4.56311 1.394094,1.03258 2.233999,1.55972 3.119409,1.95892 0.66633,0.30042 1.27487,0.57831 1.35242,0.6175 0.391873,0.19798 -2.24665,3.32585 -3.895391,4.61787 -1.616792,1.26699 -3.847116,2.11073 -5.098552,1.92878 -0.741751,-0.10785 -0.922195,0.35711 -0.450848,1.16173 1.036671,1.76955 2.724404,3.36326 4.852414,4.58178 2.612927,1.49623 6.01908,2.62361 8.69303,2.8773 0.72577,0.0688 1.35325,0.15202 1.39435,0.18477 0.0411,0.0328 0.0741,0.40829 0.0735,0.83468 -0.004,2.45104 1.88777,10.30794 3.42021,14.20802 0.31817,0.80976 0.71952,1.57629 0.89192,1.70352 0.17239,0.12722 0.61559,0.24036 0.9847,0.25134 1.23061,0.0367 5.9956,-1.15286 10.42884,-2.6033 l 2.16424,-0.70805 0.65576,1.19802 c 1.69398,3.09418 2.85716,4.40195 6.09502,6.85249 2.70782,2.04934 3.93583,3.23489 6.47756,6.2529 0.71282,0.84639 1.40101,1.56774 1.52922,1.60313 0.35415,0.0978 0.61776,-0.38265 0.42724,-0.77877 -0.56201,-1.16851 -0.75726,-3.4507 -0.44974,-5.25669 0.37028,-2.17458 1.71718,-5.60735 3.14707,-8.02077 l 0.53625,-0.90494 0.31454,0.62973 c 0.57449,1.15004 1.4603,2.04036 3.5138,3.53227 1.05644,0.76723 2.36112,1.6677 2.89979,2.00036 1.36323,0.842 1.45793,0.69885 1.13651,-1.71829 -0.4737,-3.56217 0.0324,-5.58324 1.78561,-7.13069 0.91413,-0.80684 0.90015,-0.81284 1.66994,0.70712 1.73207,3.42004 4.71673,5.65511 8.57539,6.42178 1.78063,0.35379 2.92611,0.3468 3.11899,-0.0191 0.11586,-0.21981 -0.0318,-0.5517 -0.66684,-1.49811 -0.90983,-1.35599 -1.58819,-2.6395 -1.60341,-3.03384 -0.0392,-1.01479 3.01135,-4.1417 5.72626,-5.86973 0.69601,-0.44299 1.37147,-0.99155 1.59636,-1.29639 0.56489,-0.76582 0.81415,-2.31952 0.62787,-3.91436 l -0.15927,-1.36302 1.35092,-1.83387 c 1.45457,-1.97599 2.13615,-3.27178 2.32691,-4.42426 l 0.11527,-0.69645 0.96534,0.71243 c 1.36038,1.00396 5.14186,3.0613 7.00252,3.80976 0.50838,0.2045 0.58426,0.18962 0.75029,-0.14695 0.10164,-0.20593 0.41457,-1.40389 0.69551,-2.66217 0.75791,-3.39446 1.64738,-6.05956 2.51245,-7.52693 1.05281,-1.78584 1.34503,-3.55915 1.17501,-7.13409 -0.043,-0.9029 -0.0146,-1.65288 0.0629,-1.66666 0.0775,-0.0138 2.04984,0.31312 4.38306,0.72647 2.69052,0.47663 4.31091,0.68717 4.42995,0.57565 0.12737,-0.11937 0.0179,-0.63366 -0.34085,-1.60131 -0.70532,-1.90242 -1.0511,-3.22924 -1.06466,-4.0861 -0.009,-0.56885 0.10688,-0.90245 0.59368,-1.71155 0.49379,-0.82066 0.65082,-1.28174 0.85711,-2.51503 l 0.25261,-1.51046 2.61623,-0.58833 c 1.53035,-0.34427 2.69477,-0.69515 2.80548,-0.84515 0.22427,-0.30389 0.38792,-0.10247 -2.59221,-3.19313 -2.39297,-2.48171 -2.827,-3.00028 -2.59029,-3.09522 0.0761,-0.0305 0.63796,0.0284 1.24855,0.1307 1.12816,0.18912 1.50446,0.40122 3.03025,1.70798 0.33638,0.28803 0.44805,0.30929 0.6343,0.12015 0.16005,-0.16247 0.15523,-0.57047 -0.0161,-1.39678 -0.28006,-1.35056 -0.25005,-1.24723 -0.71333,-2.46312 -0.86968,-2.28251 -1.98155,-3.87769 -3.68066,-5.28092 -0.57143,-0.47194 -0.87043,-0.80288 -0.80537,-0.89103 0.12326,-0.16702 1.55476,0.0179 1.85518,0.23963 0.11565,0.0853 0.28102,0.12674 0.3676,0.092 0.1335,-0.0536 0.40769,0.0638 1.59612,0.68361 0.0756,0.0394 0.25598,0.14317 0.40073,0.23074 0.14475,0.0876 0.43678,0.15584 0.64917,0.15177 0.37986,-0.007 0.38391,-0.0168 0.23738,-0.57931 -0.0819,-0.31453 -0.21825,-0.62334 -0.3027,-0.68623 -0.0844,-0.0629 -0.11258,-0.16971 -0.0626,-0.23746 0.05,-0.0677 0.0173,-0.17767 -0.0729,-0.24424 -0.0902,-0.0666 -0.33477,-0.46062 -0.54335,-0.87582 -0.20858,-0.41522 -0.47604,-0.82685 -0.59445,-0.91465 -0.11839,-0.0878 -0.1812,-0.20594 -0.13963,-0.26226 0.0416,-0.0563 -0.11578,-0.33626 -0.34967,-0.6222 -0.23389,-0.28596 -0.6005,-0.78794 -0.81483,-1.11548 -0.38813,-0.59313 -1.17036,-1.36361 -2.23841,-2.20514 -0.68154,-0.53703 -0.72141,-0.68281 -0.20126,-0.73489 0.21915,-0.0219 0.42316,-0.12967 0.45339,-0.2392 0.0729,-0.26439 2.075,-0.46443 3.42717,-0.34257 0.59393,0.0535 1.63606,0.23685 2.31584,0.40731 0.67979,0.17045 1.33752,0.31719 1.46171,0.32622 0.38271,0.0278 0.64103,-0.51071 0.53013,-1.10519 -0.20786,-1.11423 -0.78374,-1.96475 -3.79793,-5.60864 l -2.30875,-2.79099 1.88621,0.0752 c 1.28975,0.0514 1.94104,5.1e-4 2.06014,-0.16087 0.2708,-0.36694 -0.0611,-1.79268 -0.69748,-2.99538 -0.89276,-1.68721 -2.00406,-2.94235 -4.03046,-4.55263 -2.07855,-1.65167 -3.23359,-2.24431 -5.7371,-2.94364 -0.89904,-0.25113 -1.76515,-0.55295 -1.92464,-0.67065 -0.15949,-0.11771 -0.82524,-1.21636 -1.47962,-2.44144 -1.55362,-2.90857 -2.29849,-3.96338 -3.34301,-4.73424 -1.06872,-0.78872 -1.88541,-1.10671 -5.47909,-2.13341 -4.86726,-1.39056 -5.87213,-1.89374 -7.09596,-3.55279 -1.15051,-1.55966 -2.50583,-4.49541 -3.26797,-7.07893 -0.20633,-0.69939 -0.35752,-1.12922 -0.57039,-1.25099 z m -2.62422,23.56601 c 0.54001,0.39977 2.03307,1.68439 3.31797,2.85463 2.31416,2.10768 2.351,2.13542 3.92323,2.94309 3.05327,1.56845 8.99252,6.32279 9.70486,7.76867 0.17724,0.35976 0.50851,0.62049 1.94014,1.52691 0.96336,0.60993 1.89578,1.28886 2.10961,1.53603 0.48869,0.56489 1.42335,2.90457 1.25269,3.1358 -0.0711,0.0964 -0.0438,0.94538 0.0607,1.88691 0.10449,0.94154 0.21059,2.59563 0.23581,3.67571 0.0252,1.08009 0.1058,2.05785 0.17911,2.17259 0.0733,0.11474 0.0565,0.31256 -0.0374,0.43974 -0.0939,0.12717 -0.13413,0.41105 -0.0897,0.63084 0.11454,0.56661 -0.67136,5.09426 -1.16232,6.69678 -0.85695,2.79707 -1.75149,4.30187 -3.3182,5.58084 -1.94846,1.59061 -4.95508,2.80743 -11.71296,4.74074 -2.36889,0.6777 -5.04081,1.47471 -5.93762,1.77098 -1.39942,0.46232 -1.6087,0.49198 -1.47637,0.20972 0.0848,-0.1809 0.511,-1.00773 0.94704,-1.83748 1.3237,-2.51891 2.21752,-4.97834 2.05229,-5.64686 -0.0549,-0.22235 -0.14305,-0.26912 -0.42651,-0.2264 -0.31083,0.0469 -0.37458,0.12123 -0.49135,0.57281 -0.82095,3.17536 -3.35004,7.82983 -6.32327,11.63731 -1.33538,1.71009 -1.68282,2.07833 -2.37461,2.51679 -1.29688,0.82197 -2.81575,1.27703 -4.08336,1.22339 -1.76808,-0.0748 -1.89077,-0.17055 -4.89181,-3.81623 -2.74059,-3.32928 -5.15069,-5.99358 -5.96573,-6.59508 l -0.48484,-0.35781 1.95106,-2.64369 c 1.83692,-2.48904 2.00409,-2.67901 2.85667,-3.24592 1.28494,-0.85444 2.69651,-1.30692 3.505,-1.12353 0.36042,0.0817 1.50054,0.55458 2.53349,1.05083 2.15721,1.0364 3.51357,1.37263 4.91788,1.21905 1.03969,-0.11371 1.26491,-0.27451 1.04178,-0.74403 -0.12259,-0.25797 -0.26536,-0.29539 -0.83704,-0.21987 -0.74902,0.099 -1.97066,0.0493 -2.15615,-0.0876 -0.0636,-0.047 -0.005,-0.42516 0.13032,-0.84038 0.32635,-1.0012 0.19141,-2.42518 -0.3029,-3.19604 -0.65054,-1.01447 -1.98253,-1.79565 -3.52723,-2.06861 -0.69538,-0.12288 -1.43585,-0.3498 -1.6453,-0.50437 -0.20945,-0.15457 -0.61306,-0.76703 -0.89708,-1.36105 -0.43339,-0.90643 -0.66357,-1.20263 -1.43187,-1.84271 -1.53605,-1.27971 -2.99719,-1.39935 -4.55465,-0.37271 -0.34462,0.22717 -0.7006,0.42995 -0.79116,0.45054 -0.23623,0.0537 -0.65362,-0.85733 -0.85001,-1.8555 -0.16724,-0.85001 -0.4255,-1.1166 -0.83096,-0.8575 -0.34372,0.21964 -0.0702,1.70106 0.52464,2.84079 0.39092,0.749 0.9805,1.53142 1.93554,2.56908 0.75529,0.82063 1.54308,1.75219 1.75059,2.07012 0.47488,0.72761 0.51835,1.74725 0.14452,3.38724 l -0.28575,1.25348 -2.02191,2.74307 -2.02178,2.74289 -0.41589,-0.30693 c -0.84808,-0.62589 -3.96181,-2.08752 -7.86362,-3.69134 -2.20883,-0.90793 -4.06755,-1.69708 -4.13043,-1.75373 -1.48745,-1.33975 -1.94783,-3.84199 -1.16679,-6.34071 0.29843,-0.95473 0.45801,-1.20847 2.42171,-3.84853 2.71467,-3.64958 5.41326,-6.41647 7.83671,-8.03499 0.49461,-0.33032 0.96172,-0.68504 1.03785,-0.7882 0.18803,-0.25479 -0.0421,-0.57592 -0.40999,-0.57219 -0.65757,0.007 -3.08041,1.88913 -5.21056,4.0485 l -0.90092,0.91322 0.0158,-1.73095 c 0.009,-0.95201 -0.0226,-3.56966 -0.0695,-5.81696 -0.23165,-11.10999 0.57806,-13.82039 5.06826,-16.96382 1.09657,-0.76768 4.02804,-2.33589 4.79694,-2.56623 0.33087,-0.0991 1.01004,-0.37719 1.50935,-0.61784 0.49931,-0.24065 1.18,-0.50918 1.51269,-0.59669 0.3327,-0.0875 1.32203,-0.35807 2.19831,-0.60121 1.74403,-0.48392 4.5921,-1.12872 5.6382,-1.27651 0.89174,-0.12597 2.30198,0.18971 3.50613,0.78471 0.86225,0.42607 1.11373,0.6241 1.96146,1.54488 1.05684,1.14791 2.13886,1.88664 2.97251,2.02951 0.80002,0.1371 2.55878,1.0061 3.60675,1.78213 z m -1.27904,4.01011 c -0.16855,-0.1106 -0.44343,-0.12453 -0.71506,0.009 -0.24126,0.11887 -0.76532,0.21647 -1.16438,0.21691 -2.66322,0.003 -2.86586,0.32003 -2.08826,3.26596 0.20683,0.78362 0.40353,1.66892 0.4371,1.96733 0.10887,0.96809 0.90783,1.10948 0.96026,0.17001 0.0136,-0.24407 -0.19869,-1.30358 -0.47191,-2.35465 -0.27321,-1.05107 -0.46149,-1.95882 -0.41832,-2.01732 0.0432,-0.0585 0.63399,-0.0976 1.31283,-0.0867 1.24974,0.02 2.16412,-0.28322 2.2961,-0.7613 0.0494,-0.17911 -0.0173,-0.32349 -0.14836,-0.4095 z m 10.52204,7.76532 c -0.12062,-0.1002 -0.27846,-0.12112 -0.43503,-0.021 -0.40912,0.26143 -0.43325,1.21954 -0.0609,2.41619 0.285,0.9159 0.3127,1.21254 0.12184,1.29888 -0.13601,0.0615 -1.02119,0.1437 -1.96719,0.18264 -1.908,0.0785 -2.65664,0.247 -2.75986,0.62089 -0.0976,0.35369 0.31773,0.60652 0.82243,0.5007 0.23593,-0.0495 1.18785,-0.13177 2.11538,-0.18284 2.03071,-0.11181 2.42075,-0.19831 2.72688,-0.60566 0.24341,-0.32477 0.17472,-1.04435 -0.22564,-2.34716 -0.11723,-0.38146 -0.17844,-0.911 -0.13597,-1.17659 0.0478,-0.299 -0.0466,-0.55757 -0.20193,-0.68602 z m -25.27181,-14.18378 c -0.14361,-0.0893 -0.32051,-0.0629 -0.45841,0.12397 -0.24249,0.32858 -0.28818,1.76487 -0.0823,2.58609 0.33677,1.34325 0.74356,1.81749 2.37469,2.76855 3.46282,2.01906 4.6832,3.46244 4.88258,5.7748 0.11159,1.2943 -0.20314,2.15721 -1.35271,3.70983 -1.01726,1.37335 -2.04888,2.43064 -4.77389,4.89019 -2.1097,1.90418 -3.48797,3.46435 -3.46205,3.91888 0.01,0.17192 0.11854,0.36084 0.24167,0.41981 0.17456,0.0836 0.42563,-0.12089 1.13952,-0.92786 0.50363,-0.56925 1.82266,-1.86473 2.93111,-2.87869 3.95698,-3.61969 5.18598,-5.01576 5.82918,-6.6216 0.82009,-2.04742 0.31773,-4.57254 -1.26458,-6.35516 -0.66654,-0.75092 -2.15799,-1.86282 -3.76343,-2.80564 -1.69502,-0.99539 -1.93437,-1.48227 -1.98215,-4.03298 -0.005,-0.27584 -0.11559,-0.48091 -0.25921,-0.57022 z m 35.75303,26.38841 c -0.12507,-0.11368 -0.34884,-0.1651 -0.60936,-0.0973 -0.25951,0.0675 -0.83376,0.21706 -1.27616,0.33211 -1.26445,0.32885 -1.92041,0.11254 -3.23061,-1.0651 -2.30967,-2.07601 -3.74368,-2.94068 -5.33255,-3.21527 -2.5322,-0.43762 -4.60201,0.43045 -6.20077,2.60058 -0.75022,1.01823 -1.54595,2.49791 -3.26992,6.08099 -0.69084,1.43581 -1.54347,3.05782 -1.89478,3.60449 -0.35135,0.54664 -0.64509,1.07201 -0.65294,1.16733 -0.0247,0.30005 0.31863,0.43543 0.67492,0.26612 0.51381,-0.24418 1.38085,-1.72674 2.97941,-5.09423 2.84791,-5.9993 4.16558,-7.53521 6.6777,-7.78456 2.07743,-0.20619 3.60191,0.52845 6.35939,3.06497 1.38963,1.27827 1.96273,1.52718 3.34555,1.45301 0.84543,-0.0453 2.20442,-0.51241 2.44691,-0.84098 0.13455,-0.18232 0.10826,-0.35847 -0.0168,-0.47217 z m -33.71973,-17.92854 c -1.08689,-0.78622 -2.49717,-1.35918 -4.15946,-1.64298 -1.64752,-0.28129 -3.19774,-0.19078 -3.38324,0.19765 -0.184,0.3854 0.20897,0.67868 0.81888,0.61055 0.60502,-0.0673 1.96552,-0.0213 2.09024,0.0707 0.0435,0.0321 -0.10053,0.35767 -0.31976,0.72342 -1.32437,2.20945 1.35964,5.86435 4.72197,6.43029 0.45522,0.0766 0.90417,0.10869 0.99782,0.0711 0.33854,-0.13579 0.388,0.10775 0.1467,0.72306 -0.13533,0.34504 -0.25137,0.68785 -0.25787,0.76158 -0.0205,0.23242 0.46563,0.49822 0.67103,0.36696 0.31449,-0.20095 0.92138,-1.85779 1.08302,-2.9564 0.31533,-2.14309 -0.59765,-4.04588 -2.40911,-5.3563 z m 25.03911,18.48148 c -1.78509,-1.34574 -3.87036,-1.66308 -5.8141,-0.73534 -1.0639,0.50781 -2.41614,1.52779 -2.51892,1.90006 -0.0443,0.16038 0.0448,0.32467 0.22978,0.42386 0.22575,0.12099 0.44251,0.0543 0.85806,-0.26427 0.30579,-0.23444 0.59997,-0.43295 0.65365,-0.44104 0.0537,-0.008 0.17849,0.26028 0.27759,0.59632 0.43722,1.48244 2.39881,3.32844 4.09916,3.85776 1.62887,0.50705 3.14986,0.19941 3.87546,-0.78378 0.17706,-0.23991 0.37461,-0.39745 0.43877,-0.35009 0.0642,0.0474 0.27988,0.63922 0.47949,1.31524 0.3682,1.24699 0.654,1.59867 1.02282,1.25867 0.31649,-0.29176 -0.0538,-1.79964 -0.80829,-3.29103 -0.75936,-1.50109 -1.72243,-2.67889 -2.79347,-3.48636 z m -0.67705,0.63178 c 1.06333,0.78474 1.70205,1.64743 1.76454,2.38294 0.0735,0.86571 -0.26434,1.35222 -1.07414,1.54657 -0.78479,0.18832 -1.64268,0.0401 -2.67396,-0.46192 -0.91594,-0.44583 -0.88989,-0.42671 -1.5153,-1.11085 -0.61012,-0.66796 -0.97122,-1.3813 -1.06421,-2.10252 l -0.0781,-0.60635 0.53967,-0.17664 c 1.40627,-0.46016 3.04775,-0.24839 4.10128,0.52912 z m -24.94026,-18.39213 c 0.40133,0.285 0.7123,0.603 1.03578,1.0318 0.50522,0.66966 0.86429,1.88114 0.84763,2.8603 l -0.01,0.58625 -0.83883,0.0757 c -0.46135,0.0417 -1.09645,-0.019 -1.41137,-0.13487 -1.91403,-0.70439 -3.31396,-2.26797 -3.41244,-3.81129 -0.0847,-1.32791 1.18861,-1.93108 2.64158,-1.25134 0.46916,0.21949 0.83558,0.42158 1.14761,0.6434 z m 0.0561,1.16954 c -0.0934,-0.0689 -0.2179,-0.0954 -0.4326,-0.12297 -0.64982,-0.0834 -1.17845,0.4829 -0.98587,1.0563 0.18126,0.53974 0.57408,0.80721 1.04576,0.71187 0.56126,-0.11345 0.86216,-0.73088 0.6179,-1.26792 -0.0896,-0.19702 -0.15186,-0.30835 -0.24521,-0.37726 z m 23.85295,17.67308 c -0.60089,-0.44968 -1.49031,0.002 -1.40758,0.82789 0.0461,0.46021 0.42325,0.75837 0.97626,0.77206 0.71566,0.0177 1.08452,-0.85177 0.60726,-1.43107 -0.0546,-0.0663 -0.11377,-0.12237 -0.17595,-0.16888 z m -33.29066,19.85266 c 1.85004,1.36492 3.35083,3.16721 6.22376,6.6765 2.94426,3.59643 3.17398,3.83918 3.9579,4.18066 0.59803,0.2605 0.63404,0.3007 0.46915,0.52413 -0.2858,0.38726 -2.42841,1.83842 -3.55988,2.41103 -2.22818,1.12764 -4.73338,1.48584 -6.02499,0.86139 -0.55735,-0.26946 -2.43621,-1.76811 -5.34139,-4.26038 -1.55113,-1.33068 -2.39972,-1.95618 -4.12994,-3.04419 -3.74321,-2.35461 -5.66569,-3.73781 -5.98216,-4.30413 -1.1002,-1.96894 -1.08083,-4.92497 0.0538,-8.20692 0.58083,-1.68009 0.57769,-1.67702 1.15685,-1.14063 0.35385,0.32776 1.63455,0.92092 4.85869,2.2502 4.26895,1.76005 6.468,2.68766 8.31802,4.05262 z" />
    <path
       id="path1"
       style="fill:#000000"
       d="M 227.58203 36.330078 L 221.77344 41.683594 C 217.5469 45.579485 215.41624 48.928474 213.94531 53.988281 C 212.83373 57.811996 209.81039 63.411054 207.22656 66.429688 C 203.14781 71.194783 202.73161 72.297686 204.07227 74.802734 C 206.21316 80.292698 203.29141 86.743424 206.66602 91.792969 C 206.66602 95.898599 209.75176 99.438559 214 100.20703 C 215.7094 100.51625 216.81147 101.92239 217.06836 104.125 C 217.53519 108.12769 215.61073 109.98637 209.88281 111.06836 C 206.43193 111.72021 204.70652 110.96421 199.2168 106.39453 C 195.61454 103.39598 188.16602 98.781345 182.66602 96.138672 C 160.15761 85.323694 139.41668 94.397888 137.66016 95.205078 L 129.32031 99.037109 L 95.017578 82.089844 L 60.716797 65.142578 L 64.015625 62.654297 C 66.602553 60.702973 66.885325 60.012797 65.324219 59.458984 C 60.866835 57.877699 22.161575 50.568004 20.222656 50.941406 C 18.958891 51.184785 24.959927 56.820298 35.400391 65.195312 C 44.897361 72.813487 53.806079 80.010668 55.199219 81.189453 C 57.610558 83.229773 57.690692 83.156596 56.841797 79.666016 C 56.351352 77.649349 56.410637 75.998094 56.974609 75.996094 C 57.808586 75.993094 115.75688 103.66731 117.04883 104.68555 C 117.25892 104.85113 112.42079 110.15654 106.29688 116.47656 C 84.463862 139.00857 71.621821 171.104 73.945312 197.33398 C 76.211196 222.91355 89.180823 244.2618 108.97852 255 C 123.51768 262.886 149.28832 261.77302 169.02734 252.40625 C 171.44791 251.25761 173.65901 250.54768 173.94141 250.83008 C 174.22381 251.11248 172.06234 253.98869 169.13672 257.2207 L 163.81641 263.09766 L 167.78125 264.76367 C 176.06635 268.24729 174.2675 273.10013 157.51758 292.45312 C 154.42899 296.0217 151.48046 301.16095 150.68164 304.36523 C 149.90898 307.46456 147.81677 314.79935 146.0332 320.66602 C 144.24963 326.53269 141.90341 335.85402 140.81836 341.37891 C 138.2961 354.22191 134.06803 365.56539 128.66211 374 C 123.33684 382.3088 120.88532 384.49773 108.46484 392.0293 C 102.99621 395.34539 97.317794 399.96015 95.845703 402.28516 L 93.167969 406.51367 L 97.583984 408.82812 C 100.01258 410.10147 104.09935 411.56804 106.66602 412.08594 C 109.23269 412.60384 113.13398 413.08882 115.33398 413.16602 C 120.1653 413.33548 132.62335 407.77166 133.70117 404.96289 C 134.12622 403.85523 136.64555 401.29329 139.29883 399.26953 C 142.94381 396.48937 144.49967 395.96647 145.66211 397.12891 C 146.50828 397.97508 149.73983 398.66602 152.84375 398.66602 C 159.90861 398.66602 160.30208 397.62321 159.75781 380.35156 C 159.28555 365.3652 160.41783 362.31505 172.13672 347.02539 C 180.48198 336.1373 181.33398 333.96379 181.33398 323.51758 C 181.33398 315.64677 181.59781 314.95767 186.33398 310.4707 C 189.08398 307.86538 197.26617 302.05549 200.97266 298.97461 C 212.27377 289.58096 216.24524 278.99256 221.97852 285.24805 L 230 294 L 233.52148 300.5293 C 238.44795 309.66462 252.30537 321.45691 275.24023 336.03125 C 296.9597 349.83325 302.63993 355.51928 303.64844 364.4668 C 304.3527 370.71498 303.23565 372.2427 292.27148 380.03516 C 285.7327 384.6824 284.32951 387.1858 286.67969 390.01758 C 290.5966 394.73717 314.82443 390.73484 322.83789 384.04492 C 326.4715 381.01144 327.16111 379.43428 327.70117 372.92188 C 328.08446 368.29996 328.95041 365.33398 329.91602 365.33398 C 330.78801 365.33398 333.1761 363.58349 335.22461 361.44531 C 338.90105 357.60793 338.91944 357.50783 336.62695 353.62695 C 335.34957 351.46453 332.43628 348.6203 330.15234 347.30664 C 323.92789 343.72651 307.03282 330.93304 303.18555 326.88672 C 301.32728 324.93231 297.45932 318.71379 294.58984 313.06836 C 286.85096 297.84282 281.51042 292.62562 269 288.06836 C 264.22003 286.32712 264.34695 284.20529 269.33398 282.4668 C 272.28133 281.43934 273.33398 280.22916 273.33398 277.86914 C 273.33398 276.10755 273.72882 274.66602 274.21289 274.66602 C 275.42284 274.66602 298.27688 286.97133 311.70703 294.85352 C 317.77953 298.41748 322.99785 301.33398 323.30273 301.33398 C 324.57977 301.33398 340.7054 311.21812 341.12109 312.25586 C 342.47128 315.62648 360.52437 320.73729 365.00586 319.01758 C 366.58755 318.41063 370.66602 311.94002 370.66602 310.03711 C 370.66602 309.61764 368.14699 306.54108 365.06836 303.20117 C 358.83402 296.43771 353.16987 292.96882 350.21289 294.10352 C 349.1279 294.51987 340.03315 290.16045 329.79492 284.31641 C 319.64117 278.52059 302.93269 269.07796 292.66602 263.33398 C 282.39936 257.58999 273.8501 252.78951 273.66602 252.66602 C 273.48195 252.54254 272.70391 247.39218 271.9375 241.2207 C 269.69081 223.12937 267.97135 215.77348 264.24805 208.30273 L 260.74414 201.27148 L 263.12695 189.69922 C 264.43707 183.33448 265.77388 177.69967 266.09766 177.17578 C 267.2296 175.34427 277.63085 180.54572 281.79688 185.02734 C 284.10816 187.51374 288.99936 191.08339 292.66602 192.95898 C 303.54342 198.52304 314.70961 206.6363 316.30273 210.13281 C 317.93204 213.70875 322.19705 215.3229 327.39062 214.33008 C 329.22794 213.97886 331.05092 214.21072 331.44336 214.8457 C 332.62801 216.76251 337.36202 216.14267 338.19922 213.96094 C 339.26539 211.18254 340.26989 211.56568 371.88086 226.85352 C 384.27832 232.84924 393.14049 236.99819 396.44336 238.42773 C 397.94664 238.43291 399.46585 238.18896 400.63867 237.56445 C 401.19434 236.73629 401.39514 236.39497 402.24023 235.18555 L 402.85547 234.30664 C 403.0833 232.99412 403.02875 231.46812 403.03711 230.02344 L 377.90234 217.9375 C 358.67876 208.69259 350.66602 204.1887 350.66602 202.62695 C 350.66602 200.01097 347.84873 197.48577 341 193.96484 C 338.25 192.55107 336 190.86302 336 190.21484 C 336 189.56666 334.04726 189.40373 331.66016 189.85156 C 327.74591 190.58588 326.87429 190.1098 322.78125 185 C 320.28512 181.88379 313.9872 175.96819 308.78711 171.85547 C 299.58558 164.57805 299.14167 163.94407 292.14844 148.16602 C 284.5106 130.93363 278.55779 122.80555 268.52148 115.90039 C 265.30088 113.68455 262.66602 111.11818 262.66602 110.19727 C 262.66602 109.27635 264.82551 106.45492 267.46484 103.92773 L 272.26367 99.333984 L 271.45312 90.304688 C 270.78118 82.821815 271.10042 80.374782 273.32031 76.023438 C 276.71612 69.367356 276.71591 64.699956 273.31641 60.210938 C 256.68901 38.252955 255.3975 37.365296 239.2168 36.763672 L 227.58203 36.330078 z M 229.04688 38.666016 C 229.61801 38.666016 230.84777 41.516667 231.78125 45 C 235.23002 57.869258 236.45329 61.333984 237.54688 61.333984 C 238.16281 61.333984 238.66708 62.083333 238.66797 63 C 238.67197 67.131958 250.60195 77.021141 253.45508 75.257812 C 254.5197 74.59984 254.04342 73.759397 251.97852 72.654297 C 249.17143 71.151984 249.59467 70.906343 257.3125 69.546875 C 261.92336 68.734688 267.0928 67.154265 268.80078 66.035156 C 270.50875 64.916048 272.22667 64 272.61914 64 C 274.37268 64 273.06759 71.224282 270.33398 76.644531 C 267.44654 82.369799 267.10887 82.593139 261.33398 82.568359 C 252.95771 82.532409 244.97393 79.064833 233.33203 70.408203 C 216.54746 57.927603 215.83649 57.147649 216.81055 52.277344 C 217.58694 48.395397 226.33385 38.666016 229.04688 38.666016 z M 242.62695 38.900391 C 247.39994 39.060025 251.95212 40.88163 256.77148 44.5 C 267.30505 52.408579 271.30814 61.920115 265.33398 64.84375 C 263.50065 65.740947 258.4 66.876859 254 67.369141 C 246.255 68.235668 245.88377 68.133752 242.33398 64.144531 C 240.31731 61.87822 238.66602 59.152914 238.66602 58.089844 C 238.66602 57.026774 238.13278 55.826977 237.48047 55.423828 C 236.82816 55.020679 235.99037 52.735833 235.61914 50.345703 C 235.24791 47.955573 234.52224 44.688961 234.00586 43.085938 C 233.18833 40.547989 233.67292 40.056126 237.76172 39.289062 C 239.4203 38.977911 241.03596 38.847179 242.62695 38.900391 z M 25.691406 53.863281 C 26.20189 53.352797 61.684237 60.027055 62.521484 60.791016 C 62.808704 61.053094 61.727679 62.332251 60.119141 63.634766 C 59.578997 64.072148 59.254996 64.450907 59.132812 64.859375 C 58.762863 64.894298 58.340826 64.949449 57.867188 65.027344 C 56.781669 65.205868 55.443881 65.49546 54.507812 65.859375 C 53.571744 66.22329 53.03682 66.660964 52.792969 67.361328 C 52.549117 68.061692 52.59589 69.023973 52.855469 70.005859 C 53.113382 70.981446 53.580903 71.976078 53.818359 72.480469 C 53.529708 72.848069 53.333984 73.381094 53.333984 74 C 53.333984 76.896486 52.250154 76.515633 46.681641 71.666016 C 43.945008 69.282683 37.997621 64.407057 33.466797 60.830078 C 28.935973 57.253098 25.43684 54.117847 25.691406 53.863281 z M 215.40039 60.050781 C 216.97139 59.994001 218.22762 61.033855 219.01172 62.521484 L 228.69336 69.732422 C 228.99782 69.878008 229.28316 70.161066 229.58984 70.400391 L 230.2168 70.867188 L 230.19141 70.898438 C 230.31193 71.021811 230.44492 71.065754 230.56055 71.205078 C 232.37432 73.390538 231.39911 78.590428 227.9082 85.333984 C 226.57952 87.900651 225.28744 92.162353 225.03711 94.804688 C 224.62494 99.155309 225.05641 99.881539 229.62305 102.50977 C 232.39656 104.106 234.66602 105.95879 234.66602 106.62695 C 234.66602 108.72936 232.82442 108.94263 227.69531 107.42969 C 221.97703 105.74295 217.00113 101.38448 219.66602 100.39648 C 222.95393 99.177519 221.24717 97.333984 216.83008 97.333984 C 211.49755 97.333984 209.96725 95.718075 208.93555 89 C 208.22604 84.379908 208.41536 84 211.41797 84 C 213.20519 84 214.66602 83.399349 214.66602 82.666016 C 214.66602 81.932682 213.16731 81.333984 211.33398 81.333984 C 207.14654 81.333984 206.907 77.996691 211 76.677734 C 213.83188 75.765172 213.77584 75.661654 210 74.841797 C 207.8 74.364105 206.00191 73.380428 206.00391 72.654297 C 206.00891 70.599995 213.83153 60.107481 215.40039 60.050781 z M 59.359375 65.75 C 60.638358 67.664393 67.692515 71.22031 90.724609 82.667969 C 109.16576 91.833789 124.51271 99.752452 124.83008 100.26562 C 125.14745 100.77886 124.34098 101.76768 123.03711 102.46094 C 120.27139 103.93143 119.64743 103.66408 82.296875 85.103516 C 67.793426 77.896335 55.344077 72 54.630859 72 C 54.620435 72 54.61193 72.009383 54.601562 72.009766 C 54.38659 71.558673 54.05167 70.956673 53.832031 70.294922 C 53.588181 69.560225 53.492697 68.762321 53.705078 68.185547 C 53.917459 67.608772 54.43621 67.252285 55.199219 66.957031 C 55.962227 66.661778 56.969649 66.42895 57.984375 66.154297 C 58.462046 66.025007 58.939765 65.886086 59.359375 65.75 z M 220.82422 67.701172 C 220.32172 67.692972 219.87237 67.774582 219.55273 67.958984 C 218.82215 68.380482 218.76645 69.336687 219.24414 70.179688 C 219.72183 71.022688 220.73418 71.753208 221.83008 72.287109 C 222.92598 72.82101 224.1047 73.158641 225.00391 73.214844 C 225.90311 73.271044 226.52236 73.04486 226.63477 72.539062 C 226.74717 72.033265 226.35408 71.247297 225.67969 70.404297 C 225.00529 69.561297 224.04934 68.662055 222.86914 68.15625 C 222.20528 67.871735 221.47029 67.711731 220.82422 67.701172 z M 234.00391 74.947266 C 234.18277 74.734425 237.09787 76.233123 240.48047 78.279297 C 245.99607 81.615581 246.56532 82.412903 245.99805 86 L 245.36523 90 L 246.79297 86.333984 C 247.57878 84.317318 248.77309 82.666016 249.44531 82.666016 C 250.11753 82.666016 250.70545 84.317318 250.75195 86.333984 C 250.83485 89.930248 250.85849 89.940481 252.07227 86.914062 C 253.415 83.566132 255.97552 84.103185 256.04102 87.746094 C 256.07822 89.814368 256.19274 89.80648 257.43945 87.666016 C 259.20725 84.630882 267.38135 84.465154 268.52344 87.441406 C 268.96857 88.601384 269.33398 91.802544 269.33398 94.554688 C 269.33398 102.01256 264.1918 106.01749 252.23242 107.87305 L 252.23047 107.87305 C 236.76344 110.27286 236 110.11727 236 104.57812 C 236 101.96327 236.62173 98.66455 237.38086 97.246094 C 238.34207 95.450111 238.33205 94.666016 237.34766 94.666016 C 236.57019 94.666016 235.56878 96.490104 235.12305 98.71875 C 234.67732 100.94739 233.64154 102.54186 232.82227 102.26172 C 231.08825 101.66878 231.62497 96.109294 233.6543 93.634766 C 234.42061 92.700378 234.7404 91.629072 234.36523 91.253906 C 233.99007 90.878739 232.66818 92.706495 231.42969 95.316406 C 230.19121 97.926317 228.61273 99.712124 227.92188 99.285156 C 225.79518 97.970789 226.50135 95.8722 230.66602 91.128906 C 232.86602 88.623244 234.66511 85.544925 234.66211 84.287109 C 234.65911 82.811278 233.71869 83.537552 232.01367 86.333984 C 230.56052 88.717318 228.71343 90.666016 227.9082 90.666016 C 227.10298 90.666016 226.67515 90.216016 226.95703 89.666016 C 227.23891 89.116016 228.86655 85.666667 230.57422 82 C 232.28188 78.333334 233.82506 75.160106 234.00391 74.947266 z M 263.38281 92.265625 C 263.17078 91.996769 263.01305 93.133985 263.00195 95.333984 C 262.98715 98.26732 263.24831 99.624392 263.58203 98.349609 C 263.91574 97.074825 263.92815 94.674175 263.60938 93.015625 C 263.52967 92.600988 263.45349 92.355244 263.38281 92.265625 z M 161.26953 93.458984 C 166.36043 93.435154 169.77396 94.106298 175.29102 95.888672 C 198.14443 103.27184 213.1404 120.10862 219.92188 146 C 222.17797 154.61367 221.56299 164.23658 217.94922 176.85156 C 213.23332 191.40008 205.82317 210.95187 195.66602 222.87695 C 194.01602 224.67358 190.93713 228.65945 188.82227 231.73438 C 182.78589 240.51093 170.72358 250.82514 153.33398 255.89062 C 146.15709 257.9812 124.21906 258.63583 117.91406 255.53516 C 115.13452 254.16824 109.12897 251.74708 105.01367 248.99414 C 90.781879 239.47372 76.013525 218.51149 75.990234 191.11523 C 75.979184 178.07419 80.819742 159.19115 87.707031 145.40039 C 96.897173 128.14904 109.62283 112.76426 126.66602 103.33398 C 134.44044 97.313681 144.86616 94.69884 155.47852 93.699219 C 157.6879 93.552439 159.57257 93.466928 161.26953 93.458984 z M 257.70508 99.171875 C 257.56489 99.312062 257.47145 99.778049 257.43945 100.55469 C 257.38155 101.96025 257.69562 102.74775 258.13867 102.30469 C 258.58173 101.86164 258.6293 100.7125 258.24414 99.75 C 258.03132 99.218178 257.84526 99.031688 257.70508 99.171875 z M 255.28906 99.283203 C 255.0479 99.193363 254.87695 99.959009 254.87695 101.33398 C 254.87695 103.16731 255.17895 103.91666 255.54883 103 C 255.91872 102.08333 255.91872 100.58268 255.54883 99.666016 C 255.45633 99.436849 255.36945 99.313151 255.28906 99.283203 z M 241.62305 99.330078 C 241.51397 99.283878 241.37522 99.307416 241.20898 99.410156 C 240.54404 99.82112 240 101.02143 240 102.07812 C 240 104.83779 240.90655 104.44535 241.7207 101.33203 C 242.00856 100.23127 241.95017 99.468669 241.62305 99.330078 z M 250.625 101.33398 C 249.91468 101.33398 249.33398 102.23399 249.33398 103.33398 C 249.33398 104.43398 249.56922 105.33398 249.85742 105.33398 C 250.14563 105.33398 250.72633 104.43398 251.14844 103.33398 C 251.57055 102.23399 251.33531 101.33398 250.625 101.33398 z M 247.11523 101.8418 C 246.99511 101.8388 246.8413 101.893 246.65234 102.00977 C 245.92741 102.4578 245.33398 103.38811 245.33398 104.07812 C 245.33398 105.99604 246.2894 105.57356 247.17578 103.26367 C 247.51728 102.37377 247.47572 101.85088 247.11523 101.8418 z M 219.31836 108.6875 C 220.85242 108.58148 223.40498 109.05927 226.70508 110.13867 C 233.11881 112.23649 239.04124 112.26534 256.52344 110.28516 C 261.01672 109.77622 260.27997 112.98613 255.72461 113.76562 C 243.86367 115.7953 231.11137 115.87325 225.06641 113.95117 C 221.61914 112.85506 218.45766 111.40926 218.04297 110.73828 C 217.268 109.48437 217.7843 108.79352 219.31836 108.6875 z M 209.54883 113.43164 C 212.51862 113.39204 219.36934 114.72424 226.66602 116.88672 C 231.89322 118.43584 236.65556 119.08709 238.66602 118.52734 C 243.84132 117.08642 254.66602 117.18 254.66602 118.66602 C 254.66602 119.39936 255.26666 120 256 120 C 256.73333 120 257.33398 119.1 257.33398 118 C 257.33398 115.05684 264.28366 115.47031 268.12891 118.64258 C 275.67919 124.87146 281.53318 131.77665 284.54102 138 C 286.31319 141.66666 290.16777 149.76666 293.10547 156 C 298.58277 167.62195 299.40934 168.62184 308.92969 175.11523 C 314.20953 178.71636 330.37511 196.96905 332.19141 201.38086 C 332.66352 202.52761 332.27981 205.29887 331.33789 207.53906 C 329.66331 211.52171 326.31693 213.45397 323.01758 212.34375 C 322.11058 212.03855 317.84436 208.37284 313.53711 204.19727 C 309.00676 199.80543 301.91939 194.75843 296.72266 192.22461 C 284.45856 186.24486 281.4284 182.56673 281.375 173.58789 C 281.349 169.21774 280.82315 166.82524 280 167.33398 C 279.26666 167.7872 278.66602 170.52205 278.66602 173.41211 C 278.66602 176.30216 278.13144 178.66602 277.47656 178.66602 C 275.37689 178.66602 274.54833 174.37089 275.4668 168.24609 C 276.11029 163.95494 275.93549 162.54913 274.8457 163.22266 C 274.01345 163.73702 273.33398 166.52205 273.33398 169.41211 C 273.33398 173.70171 272.86356 174.66602 270.77734 174.66602 C 267.19875 174.66602 266.76481 172.33687 268.95312 164.86914 C 269.99507 161.31348 270.52235 158.07702 270.12305 157.67773 C 269.72376 157.27843 269.13002 157.78696 268.80469 158.80859 C 265.55571 169.0115 262.81462 178.89003 262.08984 183.00977 C 261.20535 188.03726 258.39079 190.80953 252.33398 192.61719 C 248.79399 193.6737 248.13936 190.65129 251.33398 188 C 252.43398 187.08708 253.33398 184.85511 253.33398 183.03906 C 253.33398 181.22302 254.16775 177.84599 255.1875 175.53516 C 260.90085 162.58828 261.71177 158.84618 262.34961 142.51758 C 262.71089 133.26876 262.48157 125.37638 261.83789 124.97852 C 261.19306 124.57995 260.66602 130.93225 260.66602 139.12695 C 260.66602 153.42783 258.37185 164.36214 253.14062 174.98242 C 252.51341 176.25581 252 178.12457 252 179.13672 C 252 182.21717 246.39966 194.66602 245.01367 194.66602 C 244.29608 194.66602 244.14857 193.62374 244.68555 192.33398 C 245.21986 191.05065 247.17799 185.5 249.03516 180 C 250.89233 174.5 253.2181 168.0293 254.20508 165.62109 C 255.19206 163.21287 255.9125 157.81287 255.80469 153.62109 L 255.60742 146 L 254.5957 153.33398 C 252.73025 166.84051 244.94629 190.47961 240.95508 194.76367 C 239.53703 196.28576 237.15163 197.3054 235.54297 197.07617 C 233.24383 196.74856 232.33607 195.19494 231.01758 189.33398 L 229.36719 182 L 230.0293 189.66602 C 230.69464 197.37886 229.39701 199.5044 226.77344 195 C 226.0192 193.70505 225.39555 193.40902 225.37305 194.33398 C 225.32425 196.33794 222.72675 196.46353 218.06055 194.68945 C 215.26162 193.6253 214.8647 192.93752 215.94531 191.02344 C 217.54764 188.18522 222.66602 172.18855 222.66602 170.01953 C 222.66602 169.17264 224.77855 166.01317 227.35938 162.99805 C 233.13896 156.2459 238.66602 140.13188 238.66602 130.03711 C 238.66602 126.06971 238.12636 122.48893 237.46484 122.08008 C 236.79264 121.66464 236.24426 125.69057 236.22266 131.20703 C 236.19496 138.26925 235.37298 142.96466 233.33203 147.70898 C 231.76311 151.35601 230.32537 155.3822 230.13867 156.6543 C 229.95196 157.92639 228.84305 159.50192 227.67383 160.15625 C 225.42396 161.41534 225.08704 160.53584 223.27734 148.66602 C 221.86098 139.37609 216.38768 125.9733 211.19922 119.08984 C 209.43964 116.75544 208 114.44184 208 113.94922 C 208 113.6112 208.5589 113.44485 209.54883 113.43164 z M 256.08203 121.25 C 255.42315 121.1907 254.89942 122.34696 254.04297 125.33398 L 253.08594 128.66602 L 255.3457 125.58008 C 256.5884 123.88267 257.2442 122.13289 256.80273 121.69141 C 256.53582 121.42449 256.30166 121.26978 256.08203 121.25 z M 229.50391 136 C 228.67685 136 227.99242 137.95065 227.98242 140.33398 C 227.97242 142.71731 227.62976 146.16666 227.22266 148 C 226.63784 150.6336 226.7718 150.88651 227.85938 149.20508 C 230.04252 145.8298 231.26683 136 229.50391 136 z M 271.38281 142.97461 C 271.17561 142.81289 271.0293 144.19102 271.0293 146.66602 C 271.0293 149.96602 271.28962 151.31602 271.60742 149.66602 C 271.92522 148.01602 271.92522 145.31602 271.60742 143.66602 C 271.52792 143.25352 271.45188 143.02852 271.38281 142.97461 z M 224.54492 181.89062 C 224.35718 181.87183 224.13242 182.0004 223.86523 182.26758 C 222.99431 183.1385 222.76639 185.41825 223.30469 187.86914 C 224.56141 193.59094 225.33398 193.03159 225.33398 186.40039 C 225.33398 183.34317 225.10815 181.94703 224.54492 181.89062 z M 331.25391 192 C 332.39719 192 333.33398 192.60065 333.33398 193.33398 C 333.33398 194.06731 332.76819 194.66602 332.07812 194.66602 C 331.38808 194.66602 330.45322 194.06731 330 193.33398 C 329.54677 192.60065 330.11063 192 331.25391 192 z M 259.44531 193.66602 C 259.67771 193.89842 259.13991 195.54709 258.25195 197.32812 C 257.12539 199.58777 254.42553 201.23484 249.31836 202.78125 C 236.33314 206.71308 233.93595 206.79973 219 203.85742 C 211.98497 202.4755 211.35176 201.90588 212.75391 198.25195 C 213.41061 196.54061 214.40064 196.52631 220.41992 198.12891 C 230.41288 200.78947 236.98311 200.43929 248.67383 196.62305 C 254.36516 194.76522 259.21292 193.43363 259.44531 193.66602 z M 337.50977 195.06836 C 339.25806 195.11976 339.96452 196.43687 338.56836 198.11914 C 336.85551 200.18299 335.58442 200.47308 334.22266 199.11133 C 332.76054 197.64921 333.2043 196.33366 335.45312 195.4707 C 336.2283 195.17324 336.927 195.05121 337.50977 195.06836 z M 342.26562 198.86523 C 342.67618 198.80483 343.07543 198.80881 343.45703 198.88281 C 346.33266 199.44035 347.60996 202.66602 344.95508 202.66602 C 343.89142 202.66602 341.43338 205.06666 339.49219 208 C 337.55101 210.93333 335.07006 213.33398 333.98047 213.33398 C 331.55898 213.33398 331.56113 213.37838 333.89062 207.80273 C 335.94961 202.87491 339.39189 199.28826 342.26562 198.86523 z M 257.87891 202.66602 C 260.59314 202.66602 268 225.12638 268 233.35547 C 268 236.79159 268.67361 241.53735 269.49805 243.90234 C 270.50896 246.80225 270.55819 248.64103 269.64844 249.55078 C 268.9065 250.29272 268.08225 250.39736 267.81641 249.7832 C 267.55058 249.16903 263.2404 246.56667 258.23828 244 C 253.23616 241.43334 248.8621 238.90152 248.51758 238.37305 C 248.17307 237.84459 248.94127 235.44393 250.22461 233.03906 C 252.04747 229.62319 252.46909 226.13881 252.15039 217.11523 C 251.78052 206.64318 251.994 205.42922 254.44922 204.11523 C 255.93868 203.31809 257.48287 202.66602 257.87891 202.66602 z M 250.19141 204.78906 L 250.86328 222.22266 C 251.0814 226.01387 249.47166 229.35114 248.61328 232.98633 C 248.00815 235.86053 245.53631 235.46667 246.13086 234 C 246.68278 232.6385 246.84805 226.12023 247.42773 218.97461 L 247.22266 217.81641 L 246.64844 205.65039 L 250.19141 204.78906 z M 212.11523 206 C 214.56829 206 215.24462 206.6337 214.96289 208.66602 C 214.60642 211.2374 214.66298 211.24589 216.54102 208.86719 C 218.98404 205.77287 221.70637 207.25812 220.65234 211.11133 C 219.87023 213.97049 219.88269 213.97421 221.98633 211.33398 C 223.69486 209.18964 226.19864 208.27573 234.83398 208 C 247.99166 207.57987 245.15021 226.30753 244.63281 230.73242 C 243.71364 238.59326 238.6698 235.70374 238.6582 225.44531 C 238.6502 218.58819 238.33671 217.82246 234.6875 215.74609 C 230.23625 213.21336 230.03823 213.36783 228.78125 220.33398 C 228.28504 223.08398 227.58336 225.33398 227.2207 225.33398 C 226.85805 225.33398 224.33407 224.21508 221.61328 222.84766 C 218.8925 221.48023 214.26731 219.60671 211.33398 218.68555 C 203.92636 216.35932 203.49912 215.65881 206.36914 210.52148 C 208.15338 207.32768 209.84181 206 212.11523 206 z M 345.38867 206.49805 C 349.17184 206.90345 356.928 210.38525 373.6582 218.4668 C 395.33076 228.93576 401.14303 232.27918 400.51562 233.91406 C 399.12075 237.54904 398.48507 237.32015 364.37695 220.99023 C 351.75051 214.94508 341.58564 209.44266 341.78906 208.76172 C 342.27976 207.11912 343.11877 206.25481 345.38867 206.49805 z M 256 214.66602 C 254.51695 214.66602 254.15888 220.38153 255.55469 221.77734 C 257.06105 223.2837 257.33398 222.80851 257.33398 218.66602 C 257.33398 216.46602 256.73333 214.66602 256 214.66602 z M 233 217.58008 C 236.2939 218.20431 236.71986 226.47615 233.89648 234.97656 C 232.31816 239.72844 229.32116 244.18477 224.08008 249.57422 C 219.93054 253.84122 215.96493 257.28642 215.26758 257.22852 C 210.43833 256.8276 210.77431 255.30596 217.11523 248.84375 C 225.37966 240.42122 230.66602 230.22462 230.66602 222.70898 C 230.66602 218.1239 231.07953 217.21614 233 217.58008 z M 201.77539 219.21875 C 202.34302 219.18765 202.98056 219.51612 203.86914 219.53125 C 207.98428 219.60135 215.06294 222.3069 219.24805 224.77148 C 220.58247 225.55731 221.40962 226.60048 221.61914 226.4043 C 221.82867 226.20811 223.39132 227.02378 225.0918 228.21484 L 228.18359 230.37891 L 224.11719 236.85742 C 221.88064 240.41969 220.03929 242.51856 220.02539 241.52344 C 220.01049 240.45883 219.16915 240.03409 217.98047 240.49023 C 215.38963 241.48443 207.03709 236.86115 202.4082 231.87109 C 200.43287 229.74163 198.13264 228 197.29688 228 C 196.46106 228 195.99767 227.55 196.26562 227 C 199.21739 220.94176 200.07249 219.31197 201.77539 219.21875 z M 258.05078 228.30859 C 257.84357 228.14687 257.69727 229.525 257.69727 232 C 257.69727 235.3 257.95563 236.65 258.27344 235 C 258.59124 233.35 258.59124 230.65 258.27344 229 C 258.19394 228.5875 258.11985 228.3625 258.05078 228.30859 z M 194.68555 231.18555 C 196.06027 231.26625 198.34435 232.53334 199.76172 234 C 204.055 238.4426 207.93888 241.33015 209.68164 241.37695 C 210.58993 241.40135 212.7375 242.59186 214.45312 244.02148 L 217.57227 246.62109 L 212.78516 251.13477 C 207.03964 256.55349 206.81777 258.12643 211.66602 259.06641 C 215.11571 259.73524 220.47244 256.83986 226.34375 251.13281 C 227.6712 249.8425 230.30819 250.71532 239.00977 255.32422 C 245.05432 258.52579 254.5 263.51781 260 266.41602 C 268.92573 271.11942 270.0451 272.14108 270.42383 275.92969 L 270.84766 280.17383 L 259.75781 279.80078 C 253.65777 279.59515 246.26731 279.90647 243.33398 280.49414 C 240.40065 281.08181 237.6316 281.19433 237.18164 280.74219 C 236.73169 280.29006 234.63234 279.63257 232.51562 279.28125 C 230.39891 278.92993 225.16728 277.93813 220.89062 277.07812 C 212.63691 275.41839 212.37366 274.9523 215.375 267.33398 C 215.99855 265.7512 215.93252 265.11139 215.21289 265.76172 C 214.54605 266.36435 213.3387 268.76499 212.53125 271.0957 C 211.23358 274.84142 210.53708 275.29907 206.53125 275.03125 C 181.45474 273.35464 176 272.30168 176 269.14453 C 176 268.3592 174.49935 266.5378 172.66602 265.0957 C 168.53702 261.84783 168.54075 261.58582 172.79297 256.66602 C 174.69445 254.46602 177.18512 250.87281 178.32617 248.67969 C 181.86397 241.87992 192.01068 231.02843 194.68555 231.18555 z M 252.37305 232.50391 C 252.23286 232.64409 252.13747 233.11205 252.10547 233.88867 C 252.04757 235.29423 252.36164 236.08173 252.80469 235.63867 C 253.24775 235.19562 253.29533 234.04648 252.91016 233.08398 C 252.69734 232.55216 252.51323 232.36372 252.37305 232.50391 z M 237.48828 235.79883 C 237.79208 235.79683 238.07496 235.94215 238.35352 236.2207 C 239.46774 237.33492 239.09921 239.04792 236.92773 242.85156 C 235.31741 245.67225 233.25065 247.98423 232.33398 247.99023 C 229.94813 248.00493 230.25201 246.33762 233.75977 240.16211 C 235.47978 237.13393 236.57689 235.8044 237.48828 235.79883 z M 241.47461 239.17578 L 245.30664 240.61328 L 238.69727 251.82031 L 234.96094 249.61719 L 241.47461 239.17578 z M 247.15234 241.52539 C 248.29017 241.79271 252.35324 243.70352 256.98047 246.20117 C 261.941 248.87873 268.40065 252.25379 271.33398 253.70117 C 274.26731 255.14855 280.56731 258.58695 285.33398 261.3418 C 320.3357 281.57069 347.68003 296.47224 349.55859 296.33984 C 351.8524 296.17817 356.88334 306.22799 355.30078 307.81055 C 354.85476 308.25657 352.18049 309.30316 349.35742 310.13672 C 345.34022 311.32285 343.83736 311.28105 342.44531 309.94336 C 341.46706 309.0033 336.46731 306.00731 331.33398 303.28516 C 326.20065 300.563 313.17091 293.3102 302.38086 287.16797 C 291.5908 281.02573 282.54616 276 282.28125 276 C 282.01635 276 275.24608 272.32543 267.23438 267.83398 C 259.22267 263.34253 250.00365 258.22931 246.75 256.47266 C 243.51399 254.72554 240.66678 253.08328 240.35938 252.78906 L 247.15234 241.52539 z M 201.36719 249.33398 C 200.61502 249.33398 200 249.84947 200 250.48047 C 200 251.11147 198.42365 253.96212 196.49805 256.81445 C 193.39191 261.41549 193.33296 261.699 195.96875 259.33594 C 199.63825 256.04614 203.26114 249.33398 201.36719 249.33398 z M 185.125 252.58984 C 184.28827 252.73209 180.72498 257.37762 178.81836 261 C 177.79728 262.93996 177.7266 264 178.61914 264 C 179.37827 264 180.013 263.25064 180.0293 262.33398 C 180.0456 261.41731 181.23197 259.16731 182.66602 257.33398 C 184.10008 255.50064 185.28643 253.46921 185.30273 252.82031 C 185.30773 252.64069 185.24453 252.56952 185.125 252.58984 z M 244.68164 265.0918 C 244.45371 264.85535 244.28017 265.68398 244.25977 267.33398 C 244.23257 269.53398 244.50977 270.59412 244.875 269.69141 C 245.24023 268.7887 245.26195 266.9887 244.92383 265.69141 C 244.83933 265.36708 244.75762 265.17061 244.68164 265.0918 z M 232.75586 265.29688 C 232.5602 264.95315 232.41931 266.7 232.41406 270 C 232.40706 274.40002 232.64891 276.36095 232.95312 274.35742 C 233.25735 272.35388 233.26351 268.75388 232.9668 266.35742 C 232.8926 265.7583 232.82108 265.41144 232.75586 265.29688 z M 259.03906 271.17188 C 258.89888 271.31205 258.80348 271.77806 258.77148 272.55469 C 258.71358 273.96024 259.0296 274.74774 259.47266 274.30469 C 259.91571 273.86163 259.9633 272.7125 259.57812 271.75 C 259.36532 271.21818 259.17925 271.03169 259.03906 271.17188 z M 245.70508 272.50391 C 245.56489 272.64409 245.47145 273.11205 245.43945 273.88867 C 245.38155 275.29423 245.69562 276.08173 246.13867 275.63867 C 246.58173 275.19562 246.6293 274.04648 246.24414 273.08398 C 246.03132 272.55216 245.84526 272.36372 245.70508 272.50391 z M 174.63086 275.33398 L 182.98242 275.78906 C 187.5756 276.03978 194.03398 276.83162 197.33398 277.54883 C 200.63398 278.26605 207.23334 279.05418 212 279.29883 C 216.76667 279.54348 224.56731 280.7 229.33398 281.87109 C 235.7635 283.45072 241.15704 283.78303 250.22852 283.1582 L 262.45508 282.31641 L 262.89453 286.10742 C 263.26376 289.2971 264.2404 290.15935 269.05469 291.54688 C 278.4182 294.24547 284.57279 300.19769 290.9043 312.67773 C 297.0067 324.70616 301.04087 329.60532 311.75391 338 C 317.97479 342.87464 318.56438 343.81384 318.61328 348.91016 C 318.65798 353.57414 318.03409 354.9357 314.79492 357.24219 C 309.9674 360.67969 305.76131 360.77957 304.71484 357.48242 C 303.13648 352.50945 291.95162 342.76101 279.0957 335.15234 C 271.89329 330.88964 265.70065 327.08495 265.33398 326.69727 C 264.96731 326.3096 262.09168 324.24369 258.94336 322.10742 C 255.79505 319.97115 252.79374 317.55339 252.27539 316.73242 C 251.75703 315.91144 248.60844 313.03918 245.27734 310.35156 C 241.31694 307.1562 237.89601 302.69285 235.39258 297.45508 C 232.68044 291.78061 224.25533 281.87546 220.21289 281.77344 C 210.61544 281.53123 209.49379 290.875 194.01758 301.14062 C 181.01025 309.76864 176.5318 316.37658 178.08398 324.65039 C 178.95818 329.3103 176.96016 337.44396 174.22656 340.34766 C 169.45258 345.41872 162.47929 354.94688 159.85156 359.98828 C 157.62825 364.2538 156.86037 367.92967 156.91797 374.04883 L 156.99609 382.33594 L 150.16406 383.15625 C 141.1709 384.23683 138.59214 384.10628 135.0293 382.38672 C 131.00783 380.4458 130.00693 376.53743 132.54102 372.66992 C 136.02039 367.35973 140.8309 353.32601 143.28516 341.32422 C 144.55884 335.09568 146.43144 327.76288 147.44531 325.0293 C 148.45919 322.29571 150.21531 315.98638 151.34766 311.00781 C 153.15894 303.04423 154.68093 300.35529 164.01758 288.64453 L 174.63086 275.33398 z M 204.18164 284.27344 C 200.02121 285.3552 176 303.34309 176 305.63867 C 176 306.22908 179.75064 303.80001 184.33398 300.24219 C 188.91731 296.68437 195.55888 291.81768 199.09375 289.42578 C 202.62861 287.03387 205.16752 284.72415 204.73633 284.29297 C 204.64853 284.20517 204.459 284.20124 204.18164 284.27344 z M 253.70117 286.67773 C 252.57571 286.68893 246.63998 296.52401 246.70898 298.26367 C 246.73228 298.85172 247.67799 298.13269 248.81055 296.66602 C 251.96105 292.58614 254.8601 286.66623 253.70117 286.67773 z M 246.41211 287.56055 C 245.68522 287.29216 242.78852 291.96551 242.71484 293.92188 C 242.68884 294.61203 243.54832 294.01138 244.625 292.58789 C 245.70168 291.16439 246.57917 289.1 246.57617 288 C 246.57554 287.73762 246.51597 287.59889 246.41211 287.56055 z M 257.59375 293.33398 C 256.95233 293.33398 255.72769 294.8719 254.87109 296.75195 C 253.98147 298.70444 253.88516 299.81548 254.64844 299.34375 C 256.6053 298.13434 258.95807 293.33398 257.59375 293.33398 z M 269.26953 297.43945 C 268.39865 297.29817 268 297.71058 268 298.66602 C 268 299.39935 268.64816 300 269.44141 300 C 273.09466 300 283.019 310.28175 287.38477 318.58984 C 291.51453 326.44877 305.95559 342.93061 311.96484 346.64453 C 317.00841 349.76163 314.05208 345.81794 303.77148 335.71484 C 296.62988 328.69653 291.00774 321.74777 288.35938 316.66602 C 284.28836 308.85449 280.03372 303.9937 273.36914 299.53711 C 271.48269 298.27564 270.14042 297.58073 269.26953 297.43945 z M 355.23633 298.85742 C 355.99766 298.64113 358.14967 300.04536 361.63672 303.05078 C 364.37004 305.40657 366.76874 308.7412 366.96875 310.46094 C 367.48868 314.93133 363.33754 317.09388 356.30664 316.01758 C 348.15872 314.77028 346.34742 312.43049 352.61914 311.25391 C 357.07578 310.41784 357.52263 309.96407 356.98047 306.82812 C 356.64817 304.90609 355.92775 302.28334 355.37891 301 C 354.82298 299.7001 354.77953 298.9872 355.23633 298.85742 z M 169.03516 300.79492 C 168.7138 300.77882 168.02625 301.81906 167.26172 303.56445 C 166.24235 305.89165 164.79124 308.1765 164.03711 308.64258 C 163.28297 309.10867 162.66602 310.05603 162.66602 310.74609 C 162.66602 311.43614 162.91775 312 163.22461 312 C 164.32927 312 169.33092 302.97681 169.22461 301.17578 C 169.20961 300.92242 169.14231 300.8003 169.03516 300.79492 z M 171.72656 323.33398 L 170.76172 327.33398 C 169.79059 331.35807 166.95453 337.42685 165.4668 338.66602 C 165.02658 339.03269 162.63558 341.94704 160.1543 345.14258 C 153.74017 353.4031 148.35636 364.9004 147.26367 372.66602 C 146.03053 381.42978 147.18457 380.06697 149.83594 369.63086 C 151.62798 362.5771 159.49039 347.60844 162.59766 345.33398 C 166.10881 342.76387 171.98242 331.62358 171.86328 327.75977 L 171.72656 323.33398 z M 322.74609 346.92188 C 323.88605 346.77058 325.8927 347.82916 329.35938 350.01758 C 333.02326 352.33049 334.66602 354.31031 334.66602 356.41602 C 334.66602 360.05383 332.35194 362.66602 329.12891 362.66602 C 326.58014 362.66602 324.02715 369.63232 323.99805 376.66602 C 323.97715 381.72465 318.25257 385.8034 308.26758 387.87109 C 304.38149 388.67582 298.53149 389.33398 295.26758 389.33398 C 290.48614 389.33398 289.34361 388.88001 289.38281 387 C 289.44451 384.04224 299.78965 377.41797 307.09375 375.66016 C 313.14647 374.20352 316 371.61445 316 367.57812 C 316 365.42424 315.3413 365.13252 312 365.80078 C 309.1358 366.37362 308 366.08967 308 364.80078 C 308 363.81078 309.75454 362.64948 311.89844 362.2207 C 317.3342 361.13355 321.33398 356.41184 321.33398 351.08203 C 321.33398 348.43355 321.60614 347.07312 322.74609 346.92188 z M 311.44336 368 C 314.01576 368 313.8455 371.51771 311.22461 372.52344 C 307.72527 373.86626 305.33398 373.44193 305.33398 371.47656 C 305.33398 369.56987 308.09236 368 311.44336 368 z M 127.81445 381.33398 C 128.44545 381.33398 131.19747 382.85095 133.92969 384.70508 C 138.58869 387.86677 139.37527 387.98846 146.60352 386.67773 C 157.75364 384.65583 160.91146 386.64973 157.28711 393.42188 C 155.83813 396.1293 148 397.17908 148 394.66602 C 148 393.93268 146.56514 393.33398 144.8125 393.33398 C 142.74726 393.33398 139.04005 395.87921 134.27539 400.56836 C 129.65946 405.11112 125.01479 408.33445 121.79492 409.22852 C 114.9766 411.12179 109.7855 410.95315 103.33398 408.62891 C 100.40064 407.57214 97.849349 406.6985 97.666016 406.6875 C 97.482683 406.6765 97.333984 405.80677 97.333984 404.75586 C 97.333984 402.41843 107.36605 394.01529 112.47656 392.07227 C 115.38043 390.96823 116.83232 391.09866 119.06445 392.66211 C 122.82974 395.29942 123.09738 395.2535 127.95508 391.16602 C 132.05375 387.71722 132.07489 387.63795 129.39062 385.75781 C 126.61795 383.81574 125.73419 381.33398 127.81445 381.33398 z M 124.31836 384.69531 C 125.03709 384.60561 125.62977 385.07524 126.58203 386.04297 C 128.47549 387.96719 128.42791 388.34024 126.07812 390.08203 C 123.05488 392.32304 122.6437 392.36553 120.04297 390.7207 C 118.40703 389.68604 118.61214 389.02653 121.29102 386.70312 C 122.7544 385.43394 123.59963 384.78501 124.31836 384.69531 z " />
  </g>
</svg>
