<?xml version="1.0" encoding="UTF-8"?><svg id="Layer_1" xmlns="http://www.w3.org/2000/svg" xmlns:xlink="http://www.w3.org/1999/xlink" viewBox="0 0 4000 4000"><defs><linearGradient id="linear-gradient" x1="2064.6" y1="3935" x2="2064.6" y2="38.4" gradientUnits="userSpaceOnUse"><stop offset="0" stop-color="#fff42a"/><stop offset=".3" stop-color="#e55300"/><stop offset="1" stop-color="red"/></linearGradient></defs><path d="M2304.4,3889.7c95.9-67.1,314.3-238.8,434.2-538.6,150-375.2,46.3-702.3,10.9-800.3,3.1,31.4,19.6,235-146.5,397.6-20.1,19.7-174.3,166.2-385.3,156-286.6-13.8-453.1-305.7-511-407.3-249.5-437.5-51.7-919.2,.9-1037.3-57.7,43.7-356.5,278.8-396.2,684.5-32.4,331.3,127.8,573,179.1,644.3-111.9-58.7-249-152.3-347.3-302-127.9-194.7-109.9-361.9-146.5-362.4-61.4-.8-210.3,468.4-81.4,951.3,82.7,309.8,254.6,531.1,374.5,659.4-133.6-65.3-420.4-227.8-607.8-548.6-184.5-315.8-175.3-618.5-168.2-780.2,16.1-369.6,146.5-469.2,206.2-875.8,45-306.1,16.8-561-10.9-719.8,52.5,47.7,123.3,123.7,179.1,231.5,82.1,158.6,89.2,304.2,86.8,382.5,95.3-76.1,364.8-311.7,439.6-699.6,38.7-200.5,11.6-370.2-16.3-478.2,56.4,28,170.7,93.8,260.5,221.5,93.7,133.3,110.5,262.7,114.3,322,83.9-111.8,170.6-267.9,178.8-457.9,12.1-278.1-150.4-479.6-124.8-493.3,30.6-16.3,350.6,224.6,439.6,604,103,439.1-194.4,675.7-66.5,1240.1,36.6,161.5,91.8,278.3,109.9,274.9,28.7-5.4-67.2-306.5,21.7-644.3,47-178.6,132-315.8,200.8-407.7-.8,92.6,8.7,227.9,59.7,382.5,18.9,57.4,75,212.4,211.7,387.6,222.6,285.2,385.6,273.4,510.2,458,80.8,119.8,145.7,322.7,38,679.5,88.6-94,177.3-187.9,265.9-281.9,3,49.4,26,604.5-455.9,946.3-362.4,257-767.8,221.3-857.5,211.4Z" fill="url(#linear-gradient)"/></svg>