<?xml version="1.0" encoding="UTF-8" standalone="no"?>
<svg
   width="660pt"
   height="660pt"
   viewBox="0 0 660 660"
   version="1.1"
   id="svg13"
   xmlns="http://www.w3.org/2000/svg"
   xmlns:svg="http://www.w3.org/2000/svg">
  <defs
     id="defs13" />
  <path
     fill-rule="evenodd"
     fill="rgb(97.958374%, 70.648193%, 4.0802%)"
     fill-opacity="1"
     d="M 189.332031 454.851562 L 191.070312 450.519531 C 197.21875 435.191406 197.21875 418.082031 191.070312 402.753906 C 176.660156 366.84375 187.675781 325.734375 218.109375 301.835938 C 246.160156 279.8125 256.3125 241.921875 243.03125 208.824219 L 249.554688 211.285156 C 271.898438 219.710938 289.535156 237.347656 297.964844 259.691406 L 304.738281 252.917969 C 320.515625 237.140625 326.679688 214.144531 320.902344 192.589844 C 315.367188 171.921875 327.632812 150.679688 348.296875 145.140625 C 365.066406 140.648438 375.019531 123.410156 370.527344 106.644531 L 379.414062 115.457031 C 396.492188 132.382812 403.136719 157.1875 396.8125 180.382812 C 391.285156 200.675781 397.097656 222.375 412.035156 237.183594 C 426.316406 251.34375 431.871094 272.089844 426.582031 291.488281 L 432.285156 289.597656 C 448.542969 284.199219 458.191406 267.492188 454.738281 250.710938 C 450.027344 227.835938 463.179688 205.054688 485.347656 197.691406 L 482.84375 205.003906 C 476.695312 222.953125 482.023438 242.835938 496.320312 255.308594 C 520.617188 276.5 530.730469 309.679688 522.386719 340.824219 C 514.042969 371.964844 488.695312 395.644531 457.054688 401.847656 C 420.316406 409.050781 387.023438 428.277344 362.410156 456.492188 C 341.917969 479.984375 309.246094 488.738281 279.753906 478.636719 C 264.933594 473.566406 248.84375 473.566406 234.027344 478.636719 C 230.277344 479.921875 226.15625 479.523438 222.726562 477.539062 C 219.292969 475.5625 216.886719 472.195312 216.125 468.304688 C 218.804688 447.214844 209.699219 450.617188 189.332031 454.851562 "
     id="path1" />
  <path
     fill-rule="evenodd"
     fill="rgb(59.655762%, 33.027649%, 13.427734%)"
     fill-opacity="1"
     d="M 112.382812 502.0625 C 145.03125 483.511719 182.886719 460.1875 220.375 433.578125 L 221.425781 432.007812 C 243.035156 399.796875 253.347656 361.320312 250.738281 322.617188 L 254.46875 331.886719 L 257.773438 327.261719 L 258.765625 335.195312 L 261.410156 332.878906 L 261.078125 341.140625 C 260.085938 365.898438 255.507812 390.308594 247.546875 413.625 C 303.332031 371.203125 355.199219 322.105469 384 271.417969 L 383.339844 280.671875 L 390.605469 276.042969 L 381.355469 293.226562 L 391.265625 289.921875 L 384.660156 300.496094 C 364.941406 332.042969 331.691406 367.84375 293.867188 402.558594 L 321.546875 397.324219 C 354.351562 391.117188 384.082031 373.953125 405.859375 348.644531 L 403.496094 355.359375 L 413.738281 347.097656 L 408.742188 354.078125 L 413.40625 354.367188 L 410.433594 357.667969 C 373.300781 398.925781 321.890625 422.515625 268.425781 425.175781 C 218.375 468.34375 164.101562 507.867188 123.945312 532.792969 C 111.316406 540.632812 97.261719 510.652344 112.382812 502.0625 "
     id="path2" />
  <path
     fill-rule="evenodd"
     fill="rgb(93.965149%, 30.62439%, 10.923767%)"
     fill-opacity="1"
     d="M 198.390625 448.792969 L 205.277344 440.109375 C 214.214844 428.839844 218.09375 414.375 215.988281 400.148438 L 219.488281 402.753906 C 221.308594 404.105469 222.488281 406.152344 222.753906 408.410156 L 227.085938 398.804688 C 234.289062 382.839844 234.289062 364.546875 227.085938 348.578125 C 223.1875 339.9375 223.6875 329.949219 228.425781 321.738281 C 233.167969 313.527344 241.570312 308.101562 251.003906 307.15625 C 257.898438 306.46875 264.039062 302.5 267.503906 296.496094 C 270.96875 290.496094 271.332031 283.195312 268.484375 276.878906 L 274.667969 282.492188 C 278.769531 286.214844 281.105469 291.492188 281.105469 297.03125 C 281.105469 302.570312 278.769531 307.851562 274.667969 311.570312 C 270.96875 314.929688 269.453125 320.078125 270.746094 324.90625 C 272.042969 329.734375 275.925781 333.4375 280.8125 334.496094 C 287.925781 336.039062 293.484375 341.59375 295.027344 348.710938 C 309.585938 336.3125 318.277344 321.972656 311.21875 302.136719 C 323.59375 307.769531 332.71875 315.496094 331.242188 330.746094 C 341.277344 312.40625 354.164062 284.394531 343.179688 264.316406 C 353.292969 265.46875 360.707031 275.394531 362.285156 281.175781 C 376.8125 268.898438 379.449219 256.125 377.820312 234.503906 C 401.613281 258.847656 413.761719 285.941406 404.910156 320.539062 L 413.738281 321.8125 C 433.414062 324.660156 453.402344 319.304688 469.019531 307 C 463.316406 321.824219 458.300781 332.570312 442.035156 338.832031 C 454.785156 344.824219 474.246094 347.707031 487.964844 335.527344 C 482.519531 374.402344 428.390625 386.09375 390.054688 397.550781 C 376.242188 401.675781 365.433594 412.480469 361.304688 426.296875 C 357.414062 439.320312 344.035156 447.046875 330.808594 443.902344 C 300.402344 436.683594 268.726562 436.683594 238.320312 443.902344 C 213.042969 456.808594 223.503906 458.832031 198.390625 448.792969 "
     id="path3" />
  <path
     fill-rule="evenodd"
     fill="rgb(78.318787%, 45.446777%, 20.510864%)"
     fill-opacity="1"
     d="M 123.945312 532.792969 C 111.316406 540.632812 97.261719 510.652344 112.382812 502.0625 C 124.867188 494.878906 136.15625 525.042969 123.945312 532.792969 "
     id="path4" />
  <path
     fill-rule="evenodd"
     fill="rgb(29.498291%, 24.993896%, 21.896362%)"
     fill-opacity="1"
     d="M 185.933594 457.09375 C 197.34375 449.589844 208.875 441.738281 220.375 433.574219 L 221.425781 432.007812 C 243.035156 399.796875 253.347656 361.320312 250.738281 322.617188 L 254.46875 331.890625 L 257.773438 327.261719 L 258.765625 335.195312 L 261.40625 332.878906 L 261.078125 341.140625 C 260.085938 365.898438 255.507812 390.308594 247.546875 413.625 C 303.332031 371.199219 355.195312 322.105469 384 271.417969 L 383.339844 280.671875 L 390.605469 276.042969 L 381.355469 293.226562 L 391.265625 289.921875 L 384.660156 300.496094 C 364.941406 332.042969 331.691406 367.84375 293.867188 402.558594 L 321.546875 397.324219 C 354.351562 391.113281 384.082031 373.953125 405.859375 348.644531 L 403.492188 355.359375 L 413.738281 347.097656 L 408.738281 354.074219 L 413.40625 354.367188 L 410.433594 357.667969 C 373.304688 398.925781 321.890625 422.515625 268.429688 425.175781 C 251.382812 439.875 233.847656 454.15625 216.546875 467.574219 C 203.96875 470.871094 204.085938 451.78125 185.933594 457.09375 "
     id="path5" />
  <path
     fill-rule="evenodd"
     fill="rgb(97.958374%, 70.648193%, 4.0802%)"
     fill-opacity="1"
     d="M 232.539062 195.839844 C 212.382812 175.683594 201.117188 149.609375 224.9375 125.785156 C 234.519531 116.207031 234.519531 100.671875 224.9375 91.089844 C 249.046875 106.492188 269.164062 137.183594 235.367188 154.71875 C 217.09375 164.199219 227.28125 182.023438 232.539062 195.839844 "
     id="path6" />
  <path
     fill-rule="evenodd"
     fill="rgb(97.958374%, 70.648193%, 4.0802%)"
     fill-opacity="1"
     d="M 488.300781 192.960938 C 501.03125 180.234375 508.144531 163.765625 493.101562 148.722656 C 487.050781 142.671875 487.050781 132.863281 493.101562 126.8125 C 477.875 136.539062 465.171875 155.921875 486.515625 166.996094 C 498.058594 172.984375 491.621094 184.238281 488.300781 192.960938 "
     id="path7" />
  <path
     fill-rule="evenodd"
     fill="rgb(97.958374%, 70.648193%, 4.0802%)"
     fill-opacity="1"
     d="M 366.179688 98.03125 C 337.058594 68.167969 339.882812 26.964844 385.78125 12.449219 C 363.433594 46.738281 362.128906 66.507812 366.179688 98.03125 "
     id="path8" />
  <path
     fill-rule="evenodd"
     fill="rgb(97.958374%, 70.648193%, 4.0802%)"
     fill-opacity="1"
     d="M 413.925781 173.699219 C 431.34375 155.84375 429.652344 131.203125 402.207031 122.523438 C 415.570312 143.027344 416.347656 154.851562 413.925781 173.699219 "
     id="path9" />
  <path
     fill-rule="evenodd"
     fill="rgb(97.958374%, 70.648193%, 4.0802%)"
     fill-opacity="1"
     d="M 301.964844 239.449219 C 319.378906 221.59375 317.6875 196.953125 290.242188 188.273438 C 303.605469 208.777344 304.382812 220.601562 301.964844 239.449219 "
     id="path10" />
  <path
     fill-rule="evenodd"
     fill="rgb(97.958374%, 70.648193%, 4.0802%)"
     fill-opacity="1"
     d="M 532.414062 335.480469 C 560.160156 307.03125 557.46875 267.769531 513.738281 253.9375 C 535.03125 286.609375 536.273438 305.449219 532.414062 335.480469 "
     id="path11" />
  <path
     fill-rule="evenodd"
     fill="rgb(97.958374%, 70.648193%, 4.0802%)"
     fill-opacity="1"
     d="M 185.933594 315.046875 C 160.253906 327.433594 152.449219 354.5625 178.546875 374.601562 C 172.195312 347.355469 175.976562 334.351562 185.933594 315.046875 "
     id="path12" />
  <path
     fill-rule="evenodd"
     fill="rgb(98.771667%, 97.358704%, 62.89978%)"
     fill-opacity="1"
     d="M 328.152344 566.179688 C 422.789062 566.179688 499.980469 554.816406 499.980469 540.882812 C 499.980469 526.949219 422.789062 515.582031 328.152344 515.582031 C 233.515625 515.582031 156.328125 526.949219 156.328125 540.882812 C 156.328125 554.816406 233.515625 566.179688 328.152344 566.179688 "
     id="path13" />
</svg>
