<?xml version="1.0" encoding="UTF-8" standalone="no"?>
<!-- Created with Inkscape (http://www.inkscape.org/) -->
<svg xmlns:dc="http://purl.org/dc/elements/1.1/" xmlns:cc="http://creativecommons.org/ns#" xmlns:rdf="http://www.w3.org/1999/02/22-rdf-syntax-ns#" xmlns:svg="http://www.w3.org/2000/svg" xmlns="http://www.w3.org/2000/svg" xmlns:sodipodi="http://sodipodi.sourceforge.net/DTD/sodipodi-0.dtd" xmlns:inkscape="http://www.inkscape.org/namespaces/inkscape" version="1.1" width="1416.2927" height="783.11096" id="svg3338" inkscape:version="0.48.2 r9819" sodipodi:docname="teamwork.svg">
  <sodipodi:namedview pagecolor="#ffffff" bordercolor="#666666" borderopacity="1" objecttolerance="10" gridtolerance="10" guidetolerance="10" inkscape:pageopacity="0" inkscape:pageshadow="2" inkscape:window-width="715" inkscape:window-height="480" id="namedview3338" showgrid="false" inkscape:zoom="0.23159054" inkscape:cx="708.14636" inkscape:cy="391.55548" inkscape:window-x="0" inkscape:window-y="24" inkscape:window-maximized="0" inkscape:current-layer="svg3338"/>
  <title id="title3039">Team</title>
  <defs id="defs3340"/>
  <g transform="translate(2.4202766,47.753382)" id="layer1">
    <g transform="translate(3705.0799,-24.69243)" id="g4931">
      <path d="m -2988.6705,109.08837 c -39.0695,17.61439 -122.1945,8.11227 -88.8452,70.77017 19.4833,71.24612 15.3446,128.22004 9.6303,212.92079 -5.7143,84.70074 8.2347,196.10549 12.7743,294.12554 36.8102,4.81508 73.6201,9.6299 61.1122,-39.82644 3.5908,-76.89519 7.1816,-153.79037 10.7724,-230.68554 -6.667,88.46741 -13.3339,176.93481 -20.0008,265.40222 79.0432,22.08853 61.5945,-70.15215 75.289,-121.26012 10.3111,-65.14358 37.5263,-131.64267 30.9331,-195.43072 -6.5931,-63.78803 6.101,-127.59939 9.1007,-191.25255 10.2609,-35.77413 11.1094,-64.20493 -33.229,-57.38212 -22.5123,-2.46041 -45.0247,-4.92082 -67.537,-7.38123 z" id="path3867" style="fill:#2293f5;fill-opacity:1;fill-rule:nonzero;stroke:#000000;stroke-width:7;stroke-linecap:butt;stroke-linejoin:miter;stroke-miterlimit:3.5031848;stroke-opacity:1;stroke-dasharray:none;stroke-dashoffset:0;marker:none;visibility:visible;display:inline;overflow:visible;enable-background:accumulate"/>
      <path d="m -2942.9038,265.90887 c 37.7785,55.09984 -85.9928,43.5486 -26.6691,-2.08402 8.1849,-4.50991 19.5362,-4.75838 26.6691,2.08402 z" id="path2457" style="fill:#f58423;fill-opacity:1;fill-rule:nonzero;stroke:#000000;stroke-width:7;stroke-linecap:butt;stroke-linejoin:miter;stroke-miterlimit:3.5031848;stroke-opacity:1;stroke-dasharray:none;stroke-dashoffset:0;marker:none;visibility:visible;display:inline;overflow:visible;enable-background:accumulate"/>
      <path d="m -2322.7144,182.46765 c -54.8386,55.71616 -37.168,125.36368 -16.5485,194.63832 0.6909,26.92049 13.76,71.84161 27.6825,24.47038 4.6954,-61.19569 23.0528,-165.76394 14.6808,-187.97226 0.6007,-21.97115 -14.8232,-32.00903 -25.8148,-31.13644 z" id="path4047" style="fill:#f58423;fill-opacity:1;fill-rule:nonzero;stroke:#000000;stroke-width:7;stroke-linecap:butt;stroke-linejoin:miter;stroke-miterlimit:3.5031848;stroke-opacity:1;stroke-dasharray:none;stroke-dashoffset:0;marker:none;visibility:visible;display:inline;overflow:visible;enable-background:accumulate"/>
      <path d="m -3248.85,179.40747 c 16.4882,36.49015 44.0874,73.7742 -12.1802,84.75316 -26.9137,22.7491 -45.974,31.22504 -37.8607,-11.73756 -12.3359,-42.27082 22.8299,-50.96528 50.0409,-73.0156 z" id="path3849" style="fill:#f58423;fill-opacity:1;fill-rule:nonzero;stroke:#000000;stroke-width:7;stroke-linecap:butt;stroke-linejoin:miter;stroke-miterlimit:3.5031848;stroke-opacity:1;stroke-dasharray:none;stroke-dashoffset:0;marker:none;visibility:visible;display:inline;overflow:visible;enable-background:accumulate"/>
      <path d="m -2465.2434,190.96268 c 16.4882,36.4901 44.0875,73.77421 -12.1802,84.75314 -26.9137,22.74902 -45.974,31.22497 -37.8607,-11.73761 -12.3359,-42.27079 22.8298,-50.96521 50.0409,-73.01553 z" id="path4090" style="fill:#f58423;fill-opacity:1;fill-rule:nonzero;stroke:#000000;stroke-width:7;stroke-linecap:butt;stroke-linejoin:miter;stroke-miterlimit:3.5031848;stroke-opacity:1;stroke-dasharray:none;stroke-dashoffset:0;marker:none;visibility:visible;display:inline;overflow:visible;enable-background:accumulate"/>
      <path d="m -2334.5835,449.80597 c -40.9946,-51.71392 73.4455,-41.68264 15.4338,2.23885 l -7.7676,0.81708 -7.6661,-3.05591 -1e-4,-2e-5 z" id="path4051" style="fill:#f58423;fill-opacity:1;fill-rule:nonzero;stroke:#000000;stroke-width:7;stroke-linecap:butt;stroke-linejoin:miter;stroke-miterlimit:3.5031848;stroke-opacity:1;stroke-dasharray:none;stroke-dashoffset:0;marker:none;visibility:visible;display:inline;overflow:visible;enable-background:accumulate"/>
      <path d="m -3692.0926,421.45505 c -40.9947,-51.71389 73.4455,-41.68263 15.4337,2.23885 l -7.7676,0.81708 -7.6661,-3.0559 0,-3e-5 z" id="path4120" style="fill:#f58423;fill-opacity:1;fill-rule:nonzero;stroke:#000000;stroke-width:7;stroke-linecap:butt;stroke-linejoin:miter;stroke-miterlimit:3.5031848;stroke-opacity:1;stroke-dasharray:none;stroke-dashoffset:0;marker:none;visibility:visible;display:inline;overflow:visible;enable-background:accumulate"/>
      <path d="m -2593.8258,678.27787 c -53.2386,-9.08116 4.2461,83.19094 23.1826,30.58787 -7.7275,-10.19597 -15.455,-20.39192 -23.1826,-30.58787 z" id="path4054" style="fill:#f58423;fill-opacity:1;fill-rule:nonzero;stroke:#000000;stroke-width:7;stroke-linecap:butt;stroke-linejoin:miter;stroke-miterlimit:3.5031848;stroke-opacity:1;stroke-dasharray:none;stroke-dashoffset:0;marker:none;visibility:visible;display:inline;overflow:visible;enable-background:accumulate"/>
      <path d="m -2814.5335,663.45018 c -45.1898,-62.84749 -42.0366,73.08254 -6.9106,25.05089 2.3035,-8.35029 4.6071,-16.7006 6.9106,-25.05089 z" id="path4056" style="fill:#f58423;fill-opacity:1;fill-rule:nonzero;stroke:#000000;stroke-width:7;stroke-linecap:butt;stroke-linejoin:miter;stroke-miterlimit:3.5031848;stroke-opacity:1;stroke-dasharray:none;stroke-dashoffset:0;marker:none;visibility:visible;display:inline;overflow:visible;enable-background:accumulate"/>
      <path d="m -3696.337,161.78308 c 29.22,-19.37176 46.4184,123.17878 26.2044,191.94775 6.344,31.03759 -30.0445,78.71872 -28.7029,24.15491 -5.95,-71.92141 -8.6282,-209.9137 2.4985,-216.10266 z" id="path4058" style="fill:#f58423;fill-opacity:1;fill-rule:nonzero;stroke:#000000;stroke-width:7;stroke-linecap:butt;stroke-linejoin:miter;stroke-miterlimit:3.5031848;stroke-opacity:1;stroke-dasharray:none;stroke-dashoffset:0;marker:none;visibility:visible;display:inline;overflow:visible;enable-background:accumulate"/>
      <path d="m -3625.8693,132.81976 c -41.8199,13.19836 -90.6187,22.71594 -59.1156,74.58588 29.9203,59.22813 -3.2231,111.65855 -5.4938,171.18221 -3.7291,97.75868 7.135,197.07419 11.1016,295.57308 61.4855,13.45676 37.1037,-60.30717 47.399,-96.77651 4.2489,-47.72607 8.4978,-95.45217 12.7467,-143.17824 0.9189,72.42846 1.8377,144.85695 2.7566,217.28541 68.7272,19.04356 40.1716,-75.23651 56.8085,-114.74753 8.7708,-61.61916 37.417,-127.16028 26.3124,-184.85747 -10.8107,-56.17021 -27.8105,-110.15321 -17.9527,-167.6221 21.9211,-62.01979 -34.5219,-38.33861 -74.5627,-51.44473 z" id="rect3264" style="fill:#2293f5;fill-opacity:1;fill-rule:nonzero;stroke:#000000;stroke-width:7;stroke-linecap:butt;stroke-linejoin:miter;stroke-miterlimit:3.5031848;stroke-opacity:1;stroke-dasharray:none;stroke-dashoffset:0;marker:none;visibility:visible;display:inline;overflow:visible;enable-background:accumulate"/>
      <path d="m -3647.4366,677.87732 c -71.1392,-12.35578 -13.1274,76.18043 20.9909,31.89578 -4.4836,-12.32665 -16.0683,-19.83461 -20.9909,-31.89578 z" id="path4061" style="fill:#f58423;fill-opacity:1;fill-rule:nonzero;stroke:#000000;stroke-width:7;stroke-linecap:butt;stroke-linejoin:miter;stroke-miterlimit:3.5031848;stroke-opacity:1;stroke-dasharray:none;stroke-dashoffset:0;marker:none;visibility:visible;display:inline;overflow:visible;enable-background:accumulate"/>
      <path d="m -3584.4751,654.49903 c -79.9495,-4.99273 19.765,74.67336 19.0299,28.45934 -6.3433,-9.48643 -12.6866,-18.97291 -19.0299,-28.45934 z" id="path4063" style="fill:#f58423;fill-opacity:1;fill-rule:nonzero;stroke:#000000;stroke-width:7;stroke-linecap:butt;stroke-linejoin:miter;stroke-miterlimit:3.5031848;stroke-opacity:1;stroke-dasharray:none;stroke-dashoffset:0;marker:none;visibility:visible;display:inline;overflow:visible;enable-background:accumulate"/>
      <path d="m -3553.8159,145.75845 c -28.5153,25.74156 1.1857,116.73958 63.9486,102.43795 56.7254,-27.21172 -43.5274,-88.22708 -60.4022,-102.39066 l -3.5464,-0.0473 z" id="path3791" style="fill:#f58423;fill-opacity:1;fill-rule:nonzero;stroke:#000000;stroke-width:7;stroke-linecap:butt;stroke-linejoin:miter;stroke-miterlimit:3.5031848;stroke-opacity:1;stroke-dasharray:none;stroke-dashoffset:0;marker:none;visibility:visible;display:inline;overflow:visible;enable-background:accumulate"/>
      <path d="m -3595.5499,77.648339 c 21.6079,64.301181 -84.2075,61.813471 -71.7609,-2.291976 6.9598,-50.568585 66.586,-48.022974 71.7609,2.291976 z" id="path3793" style="fill:#f58423;fill-opacity:1;fill-rule:nonzero;stroke:#000000;stroke-width:7;stroke-linecap:butt;stroke-linejoin:miter;stroke-miterlimit:3.5031848;stroke-opacity:1;stroke-dasharray:none;stroke-dashoffset:0;marker:none;visibility:visible;display:inline;overflow:visible;enable-background:accumulate"/>
      <path d="m -3106.6065,170.44448 c -9.8956,27.77004 -18.5868,110.63055 31.7402,77.96905 46.7404,-25.07388 -21.1183,-80.47014 -31.7402,-77.96905 z" id="path3847" style="fill:#f58423;fill-opacity:1;fill-rule:nonzero;stroke:#000000;stroke-width:7;stroke-linecap:butt;stroke-linejoin:miter;stroke-miterlimit:3.5031848;stroke-opacity:1;stroke-dasharray:none;stroke-dashoffset:0;marker:none;visibility:visible;display:inline;overflow:visible;enable-background:accumulate"/>
      <path d="m -2801.9462,176.25072 c -39.9596,5.12456 -93.7289,0.11551 -65.9977,54.91248 11.8127,52.8184 -3.4585,96.90131 -8.1894,148.24542 -9.1051,98.81493 31.0938,210.41362 47.116,315.5233 60.1153,16.33798 56.6524,-32.6525 46.4781,-75.67549 -5.9349,-56.85792 -11.8697,-113.71582 -17.8046,-170.57372 l 13.6058,119.73057 c 16.1252,-57.45612 71.0841,-149.90994 55.9062,-197.01457 -14.8372,-46.0469 -14.7325,-89.0056 -6.6069,-134.96228 28.8695,-57.25397 -27.0236,-42.22505 -64.5075,-60.18571 z" id="path4068" style="fill:#2293f5;fill-opacity:1;fill-rule:nonzero;stroke:#000000;stroke-width:7;stroke-linecap:butt;stroke-linejoin:miter;stroke-miterlimit:3.5031848;stroke-opacity:1;stroke-dasharray:none;stroke-dashoffset:0;marker:none;visibility:visible;display:inline;overflow:visible;enable-background:accumulate"/>
      <path d="m -2790.6146,699.95792 c -60.1754,-13.21293 -6.2148,96.02517 16.0771,33.14644 -1.1529,-12.72322 -12.9861,-21.0427 -16.0771,-33.14644 z" id="path4070" style="fill:#f58423;fill-opacity:1;fill-rule:nonzero;stroke:#000000;stroke-width:7;stroke-linecap:butt;stroke-linejoin:miter;stroke-miterlimit:3.5031848;stroke-opacity:1;stroke-dasharray:none;stroke-dashoffset:0;marker:none;visibility:visible;display:inline;overflow:visible;enable-background:accumulate"/>
      <path d="m -2760.4013,122.75746 c 5.7409,89.02472 -120.7104,20.47975 -62.4306,-34.923564 24.2659,-35.036211 67.9021,2.594364 62.4306,34.923564 z" id="path3859" style="fill:#f58423;fill-opacity:1;fill-rule:nonzero;stroke:#000000;stroke-width:7;stroke-linecap:butt;stroke-linejoin:miter;stroke-miterlimit:3.5031848;stroke-opacity:1;stroke-dasharray:none;stroke-dashoffset:0;marker:none;visibility:visible;display:inline;overflow:visible;enable-background:accumulate"/>
      <path d="m -2731.4468,194.51414 c -19.3181,40.37085 -14.3928,107.34549 27.2801,117.38705 52.1577,-32.33837 8.608,-91.94419 -27.2801,-117.38705 l 0,0 z" id="path3861" style="fill:#f58423;fill-opacity:1;fill-rule:nonzero;stroke:#000000;stroke-width:7;stroke-linecap:butt;stroke-linejoin:miter;stroke-miterlimit:3.5031848;stroke-opacity:1;stroke-dasharray:none;stroke-dashoffset:0;marker:none;visibility:visible;display:inline;overflow:visible;enable-background:accumulate"/>
      <path d="m -2868.6657,184.44306 c 5.9879,40.18651 31.7964,126.03642 -36.1684,115.06909 -11.2551,-45.40458 -3.2117,-85.88579 36.1684,-115.06909 z" id="path3863" style="fill:#f58423;fill-opacity:1;fill-rule:nonzero;stroke:#000000;stroke-width:7;stroke-linecap:butt;stroke-linejoin:miter;stroke-miterlimit:3.5031848;stroke-opacity:1;stroke-dasharray:none;stroke-dashoffset:0;marker:none;visibility:visible;display:inline;overflow:visible;enable-background:accumulate"/>
      <path d="m -2605.5596,95.681862 c -33.7898,19.319998 -125.2874,1.996666 -105.4147,55.476268 12.7577,59.00153 31.912,118.11814 21.9999,178.99809 1.7761,109.96676 17.3673,219.3509 24.4956,329.11474 -19.2618,53.12363 87.1694,41.4361 63.7416,-6.92318 1.0248,-81.73613 2.0496,-163.47225 3.0744,-245.20838 l 0.2463,261.59505 c 25.6266,-17.91 21.8389,-77.76733 32.7192,-110.24229 14.8137,-91.57129 36.9238,-182.46857 37.7113,-275.52128 8.0237,-52.85061 22.7146,-104.51676 32.8536,-157.03698 -37.1424,-10.08402 -74.2848,-20.16804 -111.4272,-30.252038 z" id="path3865" style="fill:#2293f5;fill-opacity:1;fill-rule:nonzero;stroke:#000000;stroke-width:7;stroke-linecap:butt;stroke-linejoin:miter;stroke-miterlimit:3.5031848;stroke-opacity:1;stroke-dasharray:none;stroke-dashoffset:0;marker:none;visibility:visible;display:inline;overflow:visible;enable-background:accumulate"/>
      <path d="m -3388.5883,86.869612 c -34.8613,19.180038 -122.1683,2.873639 -100.5842,60.302638 6.5856,64.43727 26.8672,129.06166 12.5428,193.54045 -0.5136,91.4261 10.6835,182.78201 14.3409,274.21632 -11.5785,42.69992 20.8235,66.0839 57.0255,44.13756 4.8336,-90.68981 9.6672,-181.3796 14.5007,-272.06941 1.4748,91.02843 2.9495,182.05687 4.4243,273.0853 74.6373,22.62623 45.6325,-76.63409 61.2205,-119.87692 7.432,-71.42412 21.6441,-143.11542 23.2035,-214.56849 -4.9316,-67.99004 14.9206,-135.07988 19.1943,-202.811 16.9384,-46.6 -77.4654,-23.139624 -105.8683,-35.956448 z" id="path4076" style="fill:#2293f5;fill-opacity:1;fill-rule:nonzero;stroke:#000000;stroke-width:7;stroke-linecap:butt;stroke-linejoin:miter;stroke-miterlimit:3.5031848;stroke-opacity:1;stroke-dasharray:none;stroke-dashoffset:0;marker:none;visibility:visible;display:inline;overflow:visible;enable-background:accumulate"/>
      <path d="m -3489.2979,117.72192 c 22.3711,-4.8773 35.118,84.73991 14.7818,127.52419 34.2163,16.21453 -5.6585,106.57705 -21.0765,42.37649 -48.6092,-51.7061 -5.6583,-159.85655 6.2947,-169.90068 z" id="path4078" style="fill:#2293f5;fill-opacity:1;fill-rule:nonzero;stroke:#000000;stroke-width:7;stroke-linecap:butt;stroke-linejoin:miter;stroke-miterlimit:3.5031848;stroke-opacity:1;stroke-dasharray:none;stroke-dashoffset:0;marker:none;visibility:visible;display:inline;overflow:visible;enable-background:accumulate"/>
      <path d="m -3279.6928,103.24469 c -30.3207,1.76565 -30.1654,88.73641 -22.7267,130.70409 -43.3802,-6.22806 -73.979,28.17582 -47.7277,65.76973 59.5321,5.9724 115.8269,-50.31329 100.3034,-107.92166 -9.9497,-29.51739 -18.8765,-88.01565 -29.849,-88.55216 z" id="path3874" style="fill:#2293f5;fill-opacity:1;fill-rule:nonzero;stroke:#000000;stroke-width:7;stroke-linecap:butt;stroke-linejoin:miter;stroke-miterlimit:3.5031848;stroke-opacity:1;stroke-dasharray:none;stroke-dashoffset:0;marker:none;visibility:visible;display:inline;overflow:visible;enable-background:accumulate"/>
      <path d="m -2884.9811,123.92599 c -15.4205,3.09144 -35.6453,62.21592 -10.2645,95.91435 -33.0195,16.90758 -91.826,46.98709 -34.3686,73.34043 51.6837,-18.93956 114.8583,-54.6723 68.3991,-115.10582 -6.5582,-18.27694 -13.4574,-54.28339 -23.766,-54.14896 z" id="path3878" style="fill:#2293f5;fill-opacity:1;fill-rule:nonzero;stroke:#000000;stroke-width:7;stroke-linecap:butt;stroke-linejoin:miter;stroke-miterlimit:3.5031848;stroke-opacity:1;stroke-dasharray:none;stroke-dashoffset:0;marker:none;visibility:visible;display:inline;overflow:visible;enable-background:accumulate"/>
      <path d="m -3353.3379,33.376368 c 9.8846,89.285802 -123.5943,35.600142 -70.2587,-31.6972572 21.5273,-45.7027448 78.3916,-9.512617 70.2587,31.6972572 z" id="path3880" style="fill:#f58423;fill-opacity:1;fill-rule:nonzero;stroke:#000000;stroke-width:7;stroke-linecap:butt;stroke-linejoin:miter;stroke-miterlimit:3.5031848;stroke-opacity:1;stroke-dasharray:none;stroke-dashoffset:0;marker:none;visibility:visible;display:inline;overflow:visible;enable-background:accumulate"/>
      <path d="m -2949.4553,51.000803 c 9.8847,89.285827 -123.5943,35.600099 -70.2586,-31.697279 21.5273,-45.702789 78.3916,-9.5125519 70.2586,31.697279 z" id="path3882" style="fill:#f58423;fill-opacity:1;fill-rule:nonzero;stroke:#000000;stroke-width:7;stroke-linecap:butt;stroke-linejoin:miter;stroke-miterlimit:3.5031848;stroke-opacity:1;stroke-dasharray:none;stroke-dashoffset:0;marker:none;visibility:visible;display:inline;overflow:visible;enable-background:accumulate"/>
      <path d="m -2558.3496,43.447514 c 13.1213,86.330306 -120.2669,46.318981 -77.4052,-23.269 15.1848,-58.401127 85.5017,-28.0477465 77.4052,23.269 z" id="path3884" style="fill:#f58423;fill-opacity:1;fill-rule:nonzero;stroke:#000000;stroke-width:7;stroke-linecap:butt;stroke-linejoin:miter;stroke-miterlimit:3.5031848;stroke-opacity:1;stroke-dasharray:none;stroke-dashoffset:0;marker:none;visibility:visible;display:inline;overflow:visible;enable-background:accumulate"/>
      <path d="m -2710.6959,130.40407 c 22.5433,-2.76404 31.2164,68.75541 10.1743,110.91663 37.2827,24.15643 100.5908,48.30022 45.267,90.25388 -50.9181,-24.51834 -91.8157,-66.90842 -78.512,-128.12139 0.621,-27.58742 13.7145,-51.86545 23.0707,-73.04912 z" id="path3886" style="fill:#2293f5;fill-opacity:1;fill-rule:nonzero;stroke:#000000;stroke-width:7;stroke-linecap:butt;stroke-linejoin:miter;stroke-miterlimit:3.5031848;stroke-opacity:1;stroke-dasharray:none;stroke-dashoffset:0;marker:none;visibility:visible;display:inline;overflow:visible;enable-background:accumulate"/>
      <path d="m -2619.6751,698.29033 c -49.1048,-17.73989 -49.1065,66.72268 -0.6835,36.72831 11.2245,-7.29179 -0.9075,-25.83962 0.6835,-36.72831 z" id="path4087" style="fill:#f58423;fill-opacity:1;fill-rule:nonzero;stroke:#000000;stroke-width:7;stroke-linecap:butt;stroke-linejoin:miter;stroke-miterlimit:3.5031848;stroke-opacity:1;stroke-dasharray:none;stroke-dashoffset:0;marker:none;visibility:visible;display:inline;overflow:visible;enable-background:accumulate"/>
      <path d="m -2956.0943,686.6164 c -67.0509,-17.04848 -12.6443,90.98481 20.0029,38.17004 -0.5147,-15.17735 -15.7795,-24.29988 -20.0029,-38.17004 z" id="path3894" style="fill:#f58423;fill-opacity:1;fill-rule:nonzero;stroke:#000000;stroke-width:7;stroke-linecap:butt;stroke-linejoin:miter;stroke-miterlimit:3.5031848;stroke-opacity:1;stroke-dasharray:none;stroke-dashoffset:0;marker:none;visibility:visible;display:inline;overflow:visible;enable-background:accumulate"/>
      <path d="m -3004.1646,692.79869 c -50.2406,-24.692 -80.5582,81.53042 -17.5509,61.1206 22.7838,-12.14975 12.327,-40.63808 17.5509,-61.1206 z" id="path3896" style="fill:#f58423;fill-opacity:1;fill-rule:nonzero;stroke:#000000;stroke-width:7;stroke-linecap:butt;stroke-linejoin:miter;stroke-miterlimit:3.5031848;stroke-opacity:1;stroke-dasharray:none;stroke-dashoffset:0;marker:none;visibility:visible;display:inline;overflow:visible;enable-background:accumulate"/>
      <path d="m -3348.4608,665.77008 c -66.7968,-17.1437 -13.257,86.56845 6.339,28.61945 -2.113,-9.53982 -4.226,-19.07965 -6.339,-28.61945 z" id="path3898" style="fill:#f58423;fill-opacity:1;fill-rule:nonzero;stroke:#000000;stroke-width:7;stroke-linecap:butt;stroke-linejoin:miter;stroke-miterlimit:3.5031848;stroke-opacity:1;stroke-dasharray:none;stroke-dashoffset:0;marker:none;visibility:visible;display:inline;overflow:visible;enable-background:accumulate"/>
      <path d="m -3418.8265,294.13313 c -14.9467,65.11378 -90.2836,-33.76557 -16.5308,-21.03133 8.8618,2.96675 16.7332,11.14928 16.5308,21.03133 z" id="path3902" style="fill:#f58423;fill-opacity:1;fill-rule:nonzero;stroke:#000000;stroke-width:7;stroke-linecap:butt;stroke-linejoin:miter;stroke-miterlimit:3.5031848;stroke-opacity:1;stroke-dasharray:none;stroke-dashoffset:0;marker:none;visibility:visible;display:inline;overflow:visible;enable-background:accumulate"/>
      <path d="m -3344.6137,268.28382 c -14.9468,65.11376 -90.2836,-33.76559 -16.5308,-21.03138 8.8618,2.96675 16.7332,11.1493 16.5308,21.03138 z" id="path3904" style="fill:#f58423;fill-opacity:1;fill-rule:nonzero;stroke:#000000;stroke-width:7;stroke-linecap:butt;stroke-linejoin:miter;stroke-miterlimit:3.5031848;stroke-opacity:1;stroke-dasharray:none;stroke-dashoffset:0;marker:none;visibility:visible;display:inline;overflow:visible;enable-background:accumulate"/>
      <path d="m -2959.3746,288.29621 c -14.9468,65.11378 -90.2837,-33.76557 -16.5308,-21.03133 8.8618,2.96672 16.7331,11.1493 16.5308,21.03133 z" id="path3908" style="fill:#f58423;fill-opacity:1;fill-rule:nonzero;stroke:#000000;stroke-width:7;stroke-linecap:butt;stroke-linejoin:miter;stroke-miterlimit:3.5031848;stroke-opacity:1;stroke-dasharray:none;stroke-dashoffset:0;marker:none;visibility:visible;display:inline;overflow:visible;enable-background:accumulate"/>
      <path d="m -2580.8063,311.64405 c -14.9468,65.11378 -90.2837,-33.76555 -16.5309,-21.03133 8.8618,2.96672 16.7332,11.14932 16.5309,21.03133 z" id="path3910" style="fill:#f58423;fill-opacity:1;fill-rule:nonzero;stroke:#000000;stroke-width:7;stroke-linecap:butt;stroke-linejoin:miter;stroke-miterlimit:3.5031848;stroke-opacity:1;stroke-dasharray:none;stroke-dashoffset:0;marker:none;visibility:visible;display:inline;overflow:visible;enable-background:accumulate"/>
      <path d="m -2884.252,249.04135 c -62.5254,21.10612 -14.4094,-83.21087 7.3229,-13.76899 l -1.856,7.5867 -5.4669,6.18232 0,-3e-5 z" id="path3916" style="fill:#f58423;fill-opacity:1;fill-rule:nonzero;stroke:#000000;stroke-width:7;stroke-linecap:butt;stroke-linejoin:miter;stroke-miterlimit:3.5031848;stroke-opacity:1;stroke-dasharray:none;stroke-dashoffset:0;marker:none;visibility:visible;display:inline;overflow:visible;enable-background:accumulate"/>
      <path d="m -2711.2293,243.21241 c 30.6027,-58.46688 67.9231,50.18104 4.2235,15.0124 l -3.9019,-6.76596 -0.3216,-8.24644 0,0 z" id="path4097" style="fill:#f58423;fill-opacity:1;fill-rule:nonzero;stroke:#000000;stroke-width:7;stroke-linecap:butt;stroke-linejoin:miter;stroke-miterlimit:3.5031848;stroke-opacity:1;stroke-dasharray:none;stroke-dashoffset:0;marker:none;visibility:visible;display:inline;overflow:visible;enable-background:accumulate"/>
      <path d="m -3508.0172,229.92227 c 25.3105,-60.94484 72.096,43.9756 5.535,14.57997 l -4.4851,-6.39428 -1.0499,-8.18567 0,-2e-5 z" id="path3922" style="fill:#f58423;fill-opacity:1;fill-rule:nonzero;stroke:#000000;stroke-width:7;stroke-linecap:butt;stroke-linejoin:miter;stroke-miterlimit:3.5031848;stroke-opacity:1;stroke-dasharray:none;stroke-dashoffset:0;marker:none;visibility:visible;display:inline;overflow:visible;enable-background:accumulate"/>
      <path d="m -3181.858,152.06003 c -45.8161,10.66978 -91.4353,22.2984 -60.1441,75.96387 19.088,45.88675 2.9826,90.25373 -3.7393,137.05177 -9.822,68.38115 7.1064,139.72281 8.8361,209.59103 3.8858,40.22631 -10.1975,133.7468 50.7642,88.35977 4.7273,-59.65551 7.4796,-183.12056 3.0686,-204.72534 -1.2558,67.86586 -1.8536,135.74081 -1.9799,203.61854 56.3817,25.74756 32.6704,-76.49943 51.1666,-107.49966 12.33,-65.29402 52.3824,-137.27222 36.9899,-195.88202 -16.8402,-64.12255 9.9109,-141.9656 -10.5954,-188.81965 -24.7889,-5.88609 -49.5778,-11.7722 -74.3667,-17.65831 z" id="path4100" style="fill:#2293f5;fill-opacity:1;fill-rule:nonzero;stroke:#000000;stroke-width:7;stroke-linecap:butt;stroke-linejoin:miter;stroke-miterlimit:3.5031848;stroke-opacity:1;stroke-dasharray:none;stroke-dashoffset:0;marker:none;visibility:visible;display:inline;overflow:visible;enable-background:accumulate"/>
      <path d="m -3225.5606,681.07459 c 68.4018,-24.21688 11.6234,88.79803 -13.101,28.09219 -0.9945,-11.10183 6.7989,-20.0688 13.101,-28.09219 z" id="path3843" style="fill:#f58423;fill-opacity:1;fill-rule:nonzero;stroke:#000000;stroke-width:7;stroke-linecap:butt;stroke-linejoin:miter;stroke-miterlimit:3.5031848;stroke-opacity:1;stroke-dasharray:none;stroke-dashoffset:0;marker:none;visibility:visible;display:inline;overflow:visible;enable-background:accumulate"/>
      <path d="m -3157.5807,676.66851 c -52.956,-20.21309 -15.814,68.5862 11.6379,27.39648 -6.5389,-7.86223 -7.5597,-18.35931 -11.6379,-27.39648 z" id="path3845" style="fill:#f58423;fill-opacity:1;fill-rule:nonzero;stroke:#000000;stroke-width:7;stroke-linecap:butt;stroke-linejoin:miter;stroke-miterlimit:3.5031848;stroke-opacity:1;stroke-dasharray:none;stroke-dashoffset:0;marker:none;visibility:visible;display:inline;overflow:visible;enable-background:accumulate"/>
      <path d="m -3140.5857,97.579714 c 5.7409,89.024696 -120.7105,20.479756 -62.4306,-34.923563 24.2659,-35.036189 67.902,2.59432 62.4306,34.923563 z" id="path3851" style="fill:#f58423;fill-opacity:1;fill-rule:nonzero;stroke:#000000;stroke-width:7;stroke-linecap:butt;stroke-linejoin:miter;stroke-miterlimit:3.5031848;stroke-opacity:1;stroke-dasharray:none;stroke-dashoffset:0;marker:none;visibility:visible;display:inline;overflow:visible;enable-background:accumulate"/>
      <path d="m -3081.4179,140.38192 c 17.3078,1.87807 46.7078,57.90954 25.3717,94.30381 34.7452,12.9972 96.6212,36.11272 42.5765,68.90033 -53.5191,-12.86891 -120.3846,-41.09768 -81.1852,-106.47409 0.6955,-2.98087 1.391,-5.96173 2.0866,-8.94259 0.3237,-1.38751 0.6475,-2.775 0.9712,-4.16251 3.3931,-14.54167 6.1042,-41.69854 10.1792,-43.62495 z" id="path3876" style="fill:#2293f5;fill-opacity:1;fill-rule:nonzero;stroke:#000000;stroke-width:7;stroke-linecap:butt;stroke-linejoin:miter;stroke-miterlimit:3.5031848;stroke-opacity:1;stroke-dasharray:none;stroke-dashoffset:0;marker:none;visibility:visible;display:inline;overflow:visible;enable-background:accumulate"/>
      <path d="m -3314.846,212.0378 c 65.4974,-8.06132 -2.6699,84.40709 -9.9496,12.0091 l 3.3481,-7.05645 6.6015,-4.95263 0,-2e-5 z" id="path3920" style="fill:#f58423;fill-opacity:1;fill-rule:nonzero;stroke:#000000;stroke-width:7;stroke-linecap:butt;stroke-linejoin:miter;stroke-miterlimit:3.5031848;stroke-opacity:1;stroke-dasharray:none;stroke-dashoffset:0;marker:none;visibility:visible;display:inline;overflow:visible;enable-background:accumulate"/>
      <path d="m -3072.6926,234.82589 c 20.9979,-62.56188 74.9878,38.83967 6.5385,14.15832 l -4.9202,-6.06583 -1.6183,-8.09251 0,2e-5 z" id="path4066" style="fill:#f58423;fill-opacity:1;fill-rule:nonzero;stroke:#000000;stroke-width:7;stroke-linecap:butt;stroke-linejoin:miter;stroke-miterlimit:3.5031848;stroke-opacity:1;stroke-dasharray:none;stroke-dashoffset:0;marker:none;visibility:visible;display:inline;overflow:visible;enable-background:accumulate"/>
      <path d="m -2495.6063,128.40843 c -24.8654,10.63037 -27.0966,81.9174 -19.658,123.88507 -43.3801,-6.22806 -73.9791,28.17579 -47.7278,65.76972 59.5322,5.97242 115.827,-50.31325 100.3035,-107.92166 -9.9497,-29.51739 -24.6727,-86.65184 -32.9177,-81.73313 z" id="path4108" style="fill:#2293f5;fill-opacity:1;fill-rule:nonzero;stroke:#000000;stroke-width:7;stroke-linecap:butt;stroke-linejoin:miter;stroke-miterlimit:3.5031848;stroke-opacity:1;stroke-dasharray:none;stroke-dashoffset:0;marker:none;visibility:visible;display:inline;overflow:visible;enable-background:accumulate"/>
      <path d="m -2560.794,289.96394 c -14.9467,65.11378 -90.2836,-33.76562 -16.5307,-21.03138 8.8618,2.96675 16.7332,11.1493 16.5307,21.03138 z" id="path4110" style="fill:#f58423;fill-opacity:1;fill-rule:nonzero;stroke:#000000;stroke-width:7;stroke-linecap:butt;stroke-linejoin:miter;stroke-miterlimit:3.5031848;stroke-opacity:1;stroke-dasharray:none;stroke-dashoffset:0;marker:none;visibility:visible;display:inline;overflow:visible;enable-background:accumulate"/>
      <path d="m -2398.2514,163.61523 c -45.8161,10.66974 -91.4353,22.29831 -60.1441,75.96379 19.0881,45.88675 2.9827,90.25375 -3.7392,137.05179 -9.8222,68.38117 7.1064,139.72283 8.8361,209.59107 3.8858,40.22627 -10.1975,133.74678 50.7641,88.35977 4.7273,-59.65551 7.4797,-183.12057 3.0687,-204.72534 -1.2557,67.86584 -1.8536,135.74077 -1.9798,203.61848 56.3816,25.74769 32.6703,-76.49941 51.1665,-107.49959 12.33,-65.29401 52.3824,-137.27225 36.9899,-195.88203 -16.8403,-64.12257 9.9108,-141.9656 -10.5955,-188.81965 -24.7889,-5.88611 -49.5778,-11.77218 -74.3667,-17.65829 z" id="path4112" style="fill:#2293f5;fill-opacity:1;fill-rule:nonzero;stroke:#000000;stroke-width:7;stroke-linecap:butt;stroke-linejoin:miter;stroke-miterlimit:3.5031848;stroke-opacity:1;stroke-dasharray:none;stroke-dashoffset:0;marker:none;visibility:visible;display:inline;overflow:visible;enable-background:accumulate"/>
      <path d="m -2349.0939,116.5384 c -8.3173,88.82108 -122.429,1.2604 -56.1684,-44.298441 29.4693,-30.788632 66.651,13.2304 56.1684,44.298441 z" id="path4092" style="fill:#f58423;fill-opacity:1;fill-rule:nonzero;stroke:#000000;stroke-width:7;stroke-linecap:butt;stroke-linejoin:miter;stroke-miterlimit:3.5031848;stroke-opacity:1;stroke-dasharray:none;stroke-dashoffset:0;marker:none;visibility:visible;display:inline;overflow:visible;enable-background:accumulate"/>
      <path d="m -2531.2394,223.593 c 65.4974,-8.06134 -2.6698,84.40705 -9.9495,12.00906 l 3.3481,-7.05645 6.6014,-4.95263 0,2e-5 z" id="path4115" style="fill:#f58423;fill-opacity:1;fill-rule:nonzero;stroke:#000000;stroke-width:7;stroke-linecap:butt;stroke-linejoin:miter;stroke-miterlimit:3.5031848;stroke-opacity:1;stroke-dasharray:none;stroke-dashoffset:0;marker:none;visibility:visible;display:inline;overflow:visible;enable-background:accumulate"/>
      <path d="m -3411.6834,665.60794 c -50.2406,-24.69193 -80.5583,81.53025 -17.5509,61.12071 22.7838,-12.14975 12.327,-40.63815 17.5509,-61.12071 z" id="path6369" style="fill:#f58423;fill-opacity:1;fill-rule:nonzero;stroke:#000000;stroke-width:7;stroke-linecap:butt;stroke-linejoin:miter;stroke-miterlimit:3.5031848;stroke-opacity:1;stroke-dasharray:none;stroke-dashoffset:0;marker:none;visibility:visible;display:inline;overflow:visible;enable-background:accumulate"/>
      <path d="m -2446.5629,687.92873 c 68.4018,-24.21703 11.6235,88.79806 -13.101,28.09212 -0.9944,-11.1018 6.7989,-20.0687 13.101,-28.09212 z" id="path3277" style="fill:#f58423;fill-opacity:1;fill-rule:nonzero;stroke:#000000;stroke-width:7;stroke-linecap:butt;stroke-linejoin:miter;stroke-miterlimit:3.5031848;stroke-opacity:1;stroke-dasharray:none;stroke-dashoffset:0;marker:none;visibility:visible;display:inline;overflow:visible;enable-background:accumulate"/>
      <path d="m -2378.5828,683.52258 c -52.9562,-20.21296 -15.8142,68.58597 11.6378,27.39655 -6.5388,-7.86228 -7.5597,-18.35935 -11.6378,-27.39655 z" id="path3279" style="fill:#f58423;fill-opacity:1;fill-rule:nonzero;stroke:#000000;stroke-width:7;stroke-linecap:butt;stroke-linejoin:miter;stroke-miterlimit:3.5031848;stroke-opacity:1;stroke-dasharray:none;stroke-dashoffset:0;marker:none;visibility:visible;display:inline;overflow:visible;enable-background:accumulate"/>
    </g>
  </g>
  <metadata>
    <rdf:RDF>
      <cc:Work>
        <dc:format>image/svg+xml</dc:format>
        <dc:type rdf:resource="http://purl.org/dc/dcmitype/StillImage"/>
        <cc:license rdf:resource="http://creativecommons.org/licenses/publicdomain/"/>
        <dc:publisher>
          <cc:Agent rdf:about="http://openclipart.org/">
            <dc:title>Open Clip Art Library</dc:title>
          </cc:Agent>
        </dc:publisher>
        <dc:title>Teamwork</dc:title>
        <dc:date>2012-04-08T06:16:18</dc:date>
        <dc:description>A line of alternating male and female figures with their arms linked, indicating teamwork.</dc:description>
        <dc:source>http://openclipart.org/detail/169413/teamwork-by-bitterjug</dc:source>
        <dc:creator>
          <cc:Agent>
            <dc:title>bitterjug</dc:title>
          </cc:Agent>
        </dc:creator>
        <dc:subject>
          <rdf:Bag>
            <rdf:li>clip art</rdf:li>
            <rdf:li>clipart</rdf:li>
            <rdf:li>line</rdf:li>
            <rdf:li>linked-arms</rdf:li>
            <rdf:li>men</rdf:li>
            <rdf:li>team</rdf:li>
            <rdf:li>women</rdf:li>
          </rdf:Bag>
        </dc:subject>
      </cc:Work>
      <cc:License rdf:about="http://creativecommons.org/licenses/publicdomain/">
        <cc:permits rdf:resource="http://creativecommons.org/ns#Reproduction"/>
        <cc:permits rdf:resource="http://creativecommons.org/ns#Distribution"/>
        <cc:permits rdf:resource="http://creativecommons.org/ns#DerivativeWorks"/>
      </cc:License>
    </rdf:RDF>
  </metadata>
</svg>
